
<svg xmlns="http://www.w3.org/2000/svg" version="1.1" xmlns:xlink="http://www.w3.org/1999/xlink" preserveAspectRatio="none" x="0px" y="0px" width="1920px" height="1080px" viewBox="0 0 1920 1080">
<defs>
<g id="Layer0_0_FILL">
<path fill="#231F20" stroke="none" d="
M -94.4 -63.3
L -128.8 -63.3 -128.8 94.8 -94.4 94.8 -94.4 22.95 -73.05 94.8 -37 94.8 -37 -63.3 -71.35 -63.3 -71.35 7.9 -94.4 -63.3
M -96.75 -78.05
Q -93.35 -78.05 -86.4 -75.2
L -79.2 -72.4
Q -71.2 -69.15 -64.25 -69.15 -59.25 -69.15 -52.7 -73.05 -46.2 -77 -41.7 -86.85
L -57.4 -98.05
Q -60.05 -89.3 -68.15 -89.3 -70.9 -89.3 -78.5 -92.1
L -84.55 -94.35
Q -92.85 -97.5 -99.9 -97.5 -113.35 -97.5 -124.1 -78.55
L -108.6 -68.3
Q -104 -78.05 -96.75 -78.05
M -197.6 -63.3
L -238.75 -63.3 -238.75 30.25
Q -238.75 57 -237.75 65.4 -236.8 73.7 -231.4 81.25 -226.05 88.75 -215.2 93.45 -204.35 98.1 -190.2 98.1 -177.4 98.1 -167.95 94.2 -158.55 90.2 -152.8 82.6 -147.05 74.9 -145.85 67.65 -144.7 60.35 -144.7 42.35
L -144.7 -63.3 -185.8 -63.3 -185.8 53.2
Q -185.8 65 -186.9 68.25 -188.05 71.35 -191.95 71.35 -195.35 71.35 -196.45 68.55 -197.6 65.6 -197.6 55.25
L -197.6 -63.3
M 215.2 -63.3
L 155.7 -63.3 134.85 94.8 177.3 94.8 179.75 66.4 194.5 66.4 196.65 94.8 238.75 94.8 215.2 -63.3
M 193.4 38.35
L 179.25 38.35
Q 180.8 17.35 187.15 -28.05 190.3 11.5 193.4 38.35
M 52.9 -31.65
L 77.25 -31.65 77.25 94.8 118.35 94.8 118.35 -31.65 142.75 -31.65 142.75 -63.3 52.9 -63.3 52.9 -31.65
M 20.6 -1.7
L 20.6 -31.65 48.05 -31.65 48.05 -63.3 -20.5 -63.3 -20.5 94.8 50.8 94.8 50.8 63.15 20.6 63.15 20.6 28.4 46.3 28.4 46.3 -1.7 20.6 -1.7 Z"/>
</g>
</defs>

<g transform="matrix( 1, 0, 0, 1, 0,0) ">
<use xlink:href="#Layer0_0_FILL"/>
</g>
</svg>
