
<svg xmlns="http://www.w3.org/2000/svg" version="1.1" xmlns:xlink="http://www.w3.org/1999/xlink" preserveAspectRatio="none" x="0px" y="0px" width="1920px" height="1080px" viewBox="0 0 1920 1080">
<defs>
<g id="Layer0_0_FILL">
<path fill="#231F20" stroke="none" d="
M 116.8 -276.45
Q 61.05 -300 0 -300 -61.05 -300 -116.8 -276.45 -170.6 -253.65 -212.15 -212.15 -253.65 -170.6 -276.45 -116.8 -300 -61.05 -300 0 -300 61.05 -276.45 116.8 -253.65 170.6 -212.15 212.15 -170.6 253.65 -116.8 276.45 -61.05 300 0 300 61.05 300 116.8 276.45 170.6 253.65 212.15 212.15 253.65 170.6 276.45 116.8 300 61.05 300 0 300 -61.05 276.45 -116.8 253.65 -170.6 212.15 -212.15 170.6 -253.65 116.8 -276.45
M 0 -287.75
Q 58.55 -287.75 112 -265.15 163.65 -243.3 203.45 -203.5 243.3 -163.65 265.15 -112 287.75 -58.55 287.75 0 287.75 58.55 265.15 112 243.3 163.65 203.45 203.45 163.65 243.3 112 265.15 58.55 287.75 0 287.75 -58.55 287.75 -112 265.15 -163.65 243.3 -203.5 203.45 -243.3 163.65 -265.15 112 -287.75 58.55 -287.75 0 -287.75 -58.55 -265.15 -112 -243.3 -163.65 -203.5 -203.5 -163.65 -243.3 -112 -265.15 -58.55 -287.75 0 -287.75
M 107.25 -127.85
L 107.25 -130.8 104.3 -130.8 104.3 -139.6 101.4 -139.6 101.4 -142.55 95.5 -142.55 95.5 -139.6 86.7 -139.6 86.7 -142.55 74.95 -142.55 74.95 -145.5 63.2 -145.5 63.2 -148.4 57.3 -148.4 57.3 -151.35 51.4 -151.35 51.4 -154.3 45.55 -154.3 45.55 -157.25 30.85 -157.25 30.85 -160.15 16.15 -160.15 16.15 -157.25 10.3 -157.25 10.3 -154.3 1.45 -154.3 1.45 -157.25 -7.35 -157.25 -7.35 -151.35 -10.3 -151.35 -10.3 -154.3 -19.1 -154.3 -19.1 -151.35 -25 -151.35 -25 -148.4 -27.9 -148.4 -27.9 -136.65 -30.85 -136.65 -30.85 -133.7 -36.75 -133.7 -36.75 -130.8 -39.7 -130.8 -39.7 -124.9 -42.6 -124.9 -42.6 -121.95 -45.55 -121.95 -45.55 -116.1 -48.5 -116.1 -48.5 -104.35 -51.45 -104.35 -51.45 -95.5 -54.35 -95.5 -54.35 -80.8 -57.3 -80.8 -57.3 -66.15 -63.2 -66.15 -63.2 -63.2 -66.15 -63.2 -66.15 -60.25 -72 -60.25 -72 -57.3 -80.8 -57.3 -80.8 -54.4 -86.7 -54.4 -86.7 -51.45 -92.6 -51.45 -92.6 -45.55 -95.5 -45.55 -95.5 -42.6 -98.45 -42.6 -98.45 -48.5 -101.4 -48.5 -101.4 -54.4 -104.35 -54.4 -104.35 -60.25 -110.2 -60.25 -110.2 -63.2 -113.15 -63.2 -113.15 -66.15 -119 -66.15 -119 -69.05 -124.9 -69.05 -124.9 -72 -127.85 -72 -127.85 -74.95 -133.7 -74.95 -133.7 -72 -142.55 -72 -142.55 -74.95 -154.3 -74.95 -154.3 -72 -160.15 -72 -160.15 -74.95 -166.05 -74.95 -166.05 -86.7 -169 -86.7 -169 -89.65 -171.9 -89.65 -171.9 -110.2 -174.85 -110.2 -174.85 -113.15 -171.9 -113.15 -171.9 -119.05 -177.8 -119.05 -177.8 -113.15 -180.75 -113.15 -180.75 -104.35 -183.7 -104.35 -183.7 -83.75 -177.8 -83.75 -177.8 -80.8 -174.85 -80.8 -174.85 -72 -171.9 -72 -171.9 -69.05 -174.85 -69.05 -174.85 -63.2 -171.9 -63.2 -171.9 -60.25 -166.05 -60.25 -166.05 -63.2 -157.25 -63.2 -157.25 -57.3 -154.3 -57.3 -154.3 -54.4 -133.7 -54.4 -133.7 -51.45 -145.45 -51.45 -145.45 -48.5 -148.4 -48.5 -148.4 -30.85 -142.55 -30.85 -142.55 -33.8 -139.6 -33.8 -139.6 -36.75 -130.8 -36.75 -130.8 -48.5 -127.85 -48.5 -127.85 -33.8 -136.65 -33.8 -136.65 -30.85 -139.6 -30.85 -139.6 -22.05 -136.65 -22.05 -136.65 -19.1 -133.7 -19.1 -133.7 -16.15 -136.65 -16.15 -136.65 -10.3 -139.6 -10.3 -139.6 10.3 -142.55 10.3 -142.55 19.1 -145.45 19.1 -145.45 33.8 -142.55 33.8 -142.55 30.85 -139.6 30.85 -139.6 27.9 -136.65 27.9 -136.65 36.75 -133.7 36.75 -133.7 33.8 -127.85 33.8 -127.85 30.85 -121.95 30.85 -121.95 33.8 -124.9 33.8 -124.9 36.75 -121.95 36.75 -121.95 39.65 -116.1 39.65 -116.1 42.6 -121.95 42.6 -121.95 48.5 -119 48.5 -119 51.4 -121.95 51.4 -121.95 57.3 -116.1 57.3 -116.1 54.35 -110.2 54.35 -110.2 63.15 -119 63.15 -119 72 -116.1 72 -116.1 74.95 -113.15 74.95 -113.15 80.8 -95.5 80.8 -95.5 77.85 -89.65 77.85 -89.65 95.5 -80.8 95.5 -80.8 98.45 -72 98.45 -72 101.4 -57.3 101.4 -57.3 98.45 -54.35 98.45 -54.35 95.5 -45.55 95.5 -45.55 101.4 -42.6 101.4 -42.6 104.3 -33.8 104.3 -33.8 92.55 -30.85 92.55 -30.85 89.6 -33.8 89.6 -33.8 80.8 -36.75 80.8 -36.75 72 -27.9 72 -27.9 69.05 -25 69.05 -25 63.15 -22.05 63.15 -22.05 57.3 -19.1 57.3 -19.1 42.6 -16.15 42.6 -16.15 39.65 -13.25 39.65 -13.25 42.6 -10.3 42.6 -10.3 48.5 -4.4 48.5 -4.4 51.4 -1.45 51.4 -1.45 54.35 1.45 54.35 1.45 57.3 4.4 57.3 4.4 60.25 13.2 60.25 13.2 66.1 16.15 66.1 16.15 69.05 22.05 69.05 22.05 72 25 72 25 80.8 27.9 80.8 27.9 86.7 30.85 86.7 30.85 92.55 27.9 92.55 27.9 104.3 30.85 104.3 30.85 110.2 33.8 110.2 33.8 113.15 36.75 113.15 36.75 124.9 30.85 124.9 30.85 127.85 33.8 127.85 33.8 136.65 30.85 136.65 30.85 139.6 27.9 139.6 27.9 142.5 25 142.5 25 154.3 27.9 154.3 27.9 157.2 33.8 157.2 33.8 160.15 51.4 160.15 51.4 163.1 89.65 163.1 89.65 160.15 95.5 160.15 95.5 157.2 119 157.2 119 154.3 124.9 154.3 124.9 151.35 130.75 151.35 130.75 148.4 136.65 148.4 136.65 145.45 142.55 145.45 142.55 142.5 145.45 142.5 145.45 139.6 148.4 139.6 148.4 136.65 151.35 136.65 151.35 121.95 160.15 121.95 160.15 116.05 163.1 116.05 163.1 110.2 166.05 110.2 166.05 107.25 169 107.25 169 95.5 171.9 95.5 171.9 92.55 177.8 92.55 177.8 89.6 180.75 89.6 180.75 86.7 183.65 86.7 183.65 83.75 186.6 83.75 186.6 72 183.65 72 183.65 66.1 186.6 66.1 186.6 63.15 189.55 63.15 189.55 60.25 192.5 60.25 192.5 57.3 195.4 57.3 195.4 -7.35 192.5 -7.35 192.5 -16.15 189.55 -16.15 189.55 -22.05 183.65 -22.05 183.65 -27.95 180.75 -27.95 180.75 -30.85 177.8 -30.85 177.8 -33.8 171.9 -33.8 171.9 -36.75 169 -36.75 169 -39.7 166.05 -39.7 166.05 -45.55 163.1 -45.55 163.1 -48.5 160.15 -48.5 160.15 -51.45 169 -51.45 169 -54.4 171.9 -54.4 171.9 -57.3 174.85 -57.3 174.85 -63.2 171.9 -63.2 171.9 -77.9 169 -77.9 169 -80.8 166.05 -80.8 166.05 -95.5 163.1 -95.5 163.1 -98.45 166.05 -98.45 166.05 -110.2 163.1 -110.2 163.1 -116.1 160.15 -116.1 160.15 -119.05 148.4 -119.05 148.4 -116.1 142.55 -116.1 142.55 -121.95 136.65 -121.95 136.65 -124.9 130.75 -124.9 130.75 -127.85 127.85 -127.85 127.85 -130.8 113.15 -130.8 113.15 -127.85 107.25 -127.85 Z"/>
</g>
</defs>

<g transform="matrix( 1, 0, 0, 1, 0,0) ">
<use xlink:href="#Layer0_0_FILL"/>
</g>
</svg>
