
<svg xmlns="http://www.w3.org/2000/svg" version="1.1" xmlns:xlink="http://www.w3.org/1999/xlink" preserveAspectRatio="none" x="0px" y="0px" width="1920px" height="1080px" viewBox="0 0 1920 1080">
<defs>
<g id="Layer0_0_FILL">
<path fill="#231F20" stroke="none" d="
M -30.75 -54.45
Q -30.75 -68.6 -29.85 -79.1
L -65.55 -79.1
Q -64.5 -69.4 -64.5 -54.8
L -64.5 -18.4
Q -64.5 0.6 -65.55 8.5
L -29.85 8.5
Q -30.75 -0.65 -30.75 -17.75
L -30.75 -54.45
M -245.75 -67.5
L -258.1 -67.85
Q -251.15 -53.45 -248.75 -39.9 -216.55 -41.35 -200.05 -43.05
L -200.45 -22.45 -239.1 -22.45
Q -259.35 -22.45 -268.45 -23.7
L -268.45 6.55
Q -258.75 5.65 -239.65 5.65
L -203.4 5.65
Q -205.65 20.55 -212.4 29.55 -223.3 44.7 -254.05 55.9 -240.45 67.25 -231.2 83.55 -220.6 78.85 -213.3 74.2 -193.7 61.75 -182.7 44.7 -173.55 29.55 -170.4 5.65
L -137.65 5.65
Q -118.45 5.65 -109.05 6.55
L -109.05 -23.7
Q -120.2 -22.45 -138.15 -22.45
L -168.4 -22.45 -167.85 -47.45
Q -148 -51.15 -132.05 -56.25
L -121.8 -59.4 -141.85 -85.6
Q -152.3 -80.35 -165.05 -77.15 -180.9 -73.1 -204.1 -70.3 -227.5 -67.5 -245.75 -67.5
M 194.05 -70.3
Q 194.05 -80.3 195.15 -85.25
L 161.6 -85.25
Q 162.6 -79.45 162.6 -70.85 162.6 -19.75 145.05 11.1 136.6 26.15 124.15 37.05 111.55 48.1 91.25 58.25 103 70.95 110.05 85.35 132.8 72.5 149.65 54.75 160.4 43.6 167.15 31.7 173.9 19.85 179.85 1.75 189.4 29.1 204.8 47.65 221.4 68.15 249.65 85.6 257.7 68.8 268.45 56.45 249.65 47.45 236.25 35.4 211.5 13.65 201.65 -15.95 194.05 -38 194.05 -70.3
M 54.9 -54.3
Q 54.9 -66.25 55.9 -79.1
L 20.1 -79.1
Q 21.25 -69.65 21.25 -53.9
L 21.25 -34.75
Q 21.25 -8.2 19.2 4.3 14.95 27.7 -8.25 40.1 -21.15 46.85 -44.7 51.35 -31.55 66.45 -26 82.8 -1.8 75.9 12.35 67.7 42.55 50.45 50.65 20.95 54.9 4.55 54.9 -32.7
L 54.9 -54.3 Z"/>
</g>
</defs>

<g transform="matrix( 1, 0, 0, 1, 0,0) ">
<use xlink:href="#Layer0_0_FILL"/>
</g>
</svg>
