
<svg xmlns="http://www.w3.org/2000/svg" version="1.1" xmlns:xlink="http://www.w3.org/1999/xlink" preserveAspectRatio="none" x="0px" y="0px" width="1920px" height="1080px" viewBox="0 0 1920 1080">
<defs>
<g id="Layer0_0_FILL">
<path fill="#231F20" stroke="none" d="
M -173.1 -48
L -172.35 -32.9 -172.35 14.45 -173.1 29.35 -140.7 28.85 -140.7 37.1 -157.25 37.1
Q -168.15 37.1 -178.2 36.2
L -178.2 62.9
Q -169.7 61.85 -157.1 61.85
L -140.7 61.85 -140.7 67.35
Q -140.7 78.95 -141.8 87.75
L -113.55 87.75
Q -114.7 80.9 -114.7 67.35
L -114.7 61.85 -85.55 62.2 -94.2 67.15
Q -83.2 77.25 -76 87.75 -61.7 77.3 -51.3 67.15 -38.7 87.75 -26.8 87.75 -16.2 87.75 -10.1 73.45 -6.3 64.7 -3.8 48.15 -13.85 42.05 -22.4 33.75 -24.85 55 -27.15 55 -28.45 55 -32.5 46.1 -21.4 31.15 -11.5 10.55
L -7.65 3 -31.4 -9.3
Q -33.75 2.1 -41 15.15 -42 8.6 -43.55 -10.6
L -25.1 -12.1
Q -13.4 -13 -7.85 -13
L -8.9 -39.35
Q -15.65 -37.85 -26.25 -37.1
L -44.7 -35.7 -44.9 -67.9
Q -37.05 -56.75 -29.4 -39.2
L -8 -50.05
Q -16.2 -66.35 -27 -81.2
L -44.9 -72.5
Q -44.9 -79.5 -43.9 -84.1
L -72.85 -84.1 -71.95 -69.05 -71 -33.45 -82.05 -32.55
Q -82.05 -43.05 -81.35 -48
L -90.95 -47.45
Q -83.65 -59.8 -76.55 -76
L -102.55 -85.25
Q -107.95 -68.05 -112.1 -59.45 -115.25 -72.05 -120.35 -85.6
L -145.3 -79.85
Q -139.25 -65 -135.65 -48.9
L -115.05 -53.75 -118.6 -47.45 -161.85 -47.45 -142.5 -53.5
Q -148.25 -69.15 -156 -83
L -179.4 -75.45
Q -172.1 -61.85 -167.15 -47.65
L -173.1 -48
M -148.8 -26.05
L -138.65 -26.05 -138.65 -18.15 -148.8 -18.15 -148.8 -26.05
M -115.95 -18.15
L -115.95 -26.05 -105.6 -26.05 -105.6 -18.15 -115.95 -18.15
M -82.05 -7.45
L -69.35 -8.4
Q -67.1 20.45 -61.65 42.05 -68.3 48.7 -78.35 57
L -78.35 36.4 -97.7 37.1 -114.7 37.1 -114.7 28.85 -99.05 28.85
Q -88.8 28.85 -81.35 29.35 -82.05 24.25 -82.05 13.55
L -82.05 -7.45
M -115.95 0.05
L -105.6 0.05 -105.6 8.2 -115.95 8.2 -115.95 0.05
M -148.8 0.05
L -138.65 0.05 -138.65 8.2 -148.8 8.2 -148.8 0.05
M 51.75 -87.75
Q 49.2 -81.55 42.3 -73.3 28.5 -55.9 4.3 -44.15 13.75 -34.95 21.3 -20.4
L 31.75 -27.6 31.75 -18.5
Q 37.15 -19.3 48.05 -19.3
L 76 -19.3 76 -10.6 25.55 -10.6
Q 13.75 -10.6 4.3 -11.75
L 4.3 14.95
Q 14.55 13.9 25.9 13.9
L 76 13.9 76 23.35 39.15 23.35 23.5 22.55 23.5 48.7
Q 29.95 47.8 40.65 47.8
L 76 47.8 76 57
Q 76 60.3 74.85 61.4 73.7 62.55 69.9 62.55 58.85 62.55 42.8 60.85 49.5 75.05 52.8 87.4
L 71.95 87.75
Q 91.6 87.75 97.95 83.8 104.35 79.75 104.35 67.35
L 104.35 47.8 133.85 47.8 133.85 55.2 162.05 55.2
Q 161.15 47.8 161.15 33.4
L 161.15 14.45 162.2 14.45
Q 173.8 14.45 179.4 15.35
L 179.4 -12.1
Q 171.65 -10.95 162.2 -10.95
L 161.15 -10.95 161.65 -44.3
Q 155.8 -43.6 142.15 -43.6
L 123.5 -43.6 140.35 -63.3 141.05 -64 126.3 -77.7
Q 121.35 -76.95 107.85 -76.95
L 79.15 -76.95 83.75 -83.35 51.75 -87.75
M 51.1 -43.6
L 60.2 -52.4 97 -52.4
Q 94 -48.1 89.45 -43.6
L 51.1 -43.6
M 104.35 -10.6
L 104.35 -19.3 133.85 -19.3 133.85 -10.6 104.35 -10.6
M 133.85 13.9
L 133.85 23.35 104.35 23.35 104.35 13.9 133.85 13.9 Z"/>
</g>
</defs>

<g transform="matrix( 1, 0, 0, 1, 0,0) ">
<use xlink:href="#Layer0_0_FILL"/>
</g>
</svg>
