
<svg xmlns="http://www.w3.org/2000/svg" version="1.1" xmlns:xlink="http://www.w3.org/1999/xlink" preserveAspectRatio="none" x="0px" y="0px" width="1920px" height="1080px" viewBox="0 0 1920 1080">
<defs>
<g id="Layer0_0_FILL">
<path fill="#231F20" stroke="none" d="
M -19.15 -31.9
L -35.7 -24.5
Q -27.25 -14.8 -18.25 2.05
L -1.1 -5.9
Q -9.35 -21 -19.15 -31.9
M -43.8 -21.2
L -61.55 -13.65
Q -51.3 -1.85 -43.65 13.65
L -26 5.55
Q -32.95 -8.6 -43.8 -21.2
M -167.45 -63
L -174.45 -63.2 -172.65 -29.65
Q -165.65 -31.1 -146.65 -33.15
L -93 -37.75
Q -105.1 -29.45 -111.1 -22.1 -126.75 -3.45 -126.75 19.55 -126.75 54.65 -93.75 70.05 -76.75 77.8 -47.15 80.3
L -40.3 81.3 -36.1 46.2
Q -38.85 46.45 -41.65 46.45 -50.45 46.45 -60.8 44.5 -71.35 42.5 -76.85 39.8 -92.3 32.45 -92.3 16.95 -92.3 5.6 -84.55 -5.45 -76.85 -16.4 -63 -24.85 -42.3 -37.75 -20.8 -37.75
L -15.65 -37.4 -17.25 -70.75 -21.5 -70.05
Q -23.55 -69.85 -29.85 -69.7
L -56.6 -68.5
Q -99.15 -67 -135.95 -64.65
L -167.45 -63
M -384.85 -90.1
L -402.25 -84.8
Q -393.95 -73.2 -387.3 -56.35
L -369.95 -62.3
Q -375.6 -77.4 -384.85 -90.1
M -325.6 -59.35
Q -338.45 -59.35 -346.55 -60.25
L -344.95 -33.15 -331.05 -33.5
Q -302.85 -33.5 -283.05 -35.6
L -278.7 -25.75
Q -301.95 -23.25 -329 -23.25 -340.9 -23.25 -348 -23.95
L -346.75 3.3 -330.7 2.4
Q -289.85 1.2 -267.3 -1.65
L -258.85 11.4
Q -269.9 9.2 -284.3 9.2 -307.6 9.2 -323.7 16.05 -333.75 20.3 -339.7 28.55 -345.65 36.75 -345.65 46.45 -345.65 57.8 -338.8 66.7 -325.25 84.15 -283.05 84.15 -257.2 84.15 -231.4 78.5
L -218.55 75.9 -222.75 44.75
Q -246.8 56.2 -281.3 56.2 -310.45 56.2 -310.45 46 -310.45 34.05 -278.7 34.05 -255.5 34.05 -240.05 42.15
L -212.95 28.2
Q -227 11.1 -236.5 -5.7 -234.2 -6.25 -225.55 -7.8
L -202.85 -12.2 -205.55 -39.25
Q -216.35 -35.3 -248.6 -29.45
L -252.8 -39.1
Q -237.4 -41.5 -223.5 -44.4
L -209.8 -47.2 -212.4 -74.1
Q -230.95 -67.95 -262.35 -63.75 -266.95 -75.5 -268.1 -82.9
L -300.3 -79.05 -292.55 -60.6
Q -307.05 -59.35 -325.6 -59.35
M -545.55 -45.95
L -538.55 -9.6
Q -533.05 -12.2 -522.7 -15.35 -480.5 -28.4 -451.7 -28.4 -433.1 -28.4 -424.45 -19.55 -417.7 -12.75 -417.7 -1.65 -417.7 8.4 -423.55 16.8 -433.55 30.8 -455.25 37.4 -475.75 43.3 -507.75 43.85 -499.6 58.7 -494.7 77.25 -450.8 73.2 -425.65 60.95 -405.2 51.15 -393.8 34.5 -382.45 17.75 -382.45 -2.4 -382.45 -33.95 -407.75 -49.8
L -395.4 -54
Q -400.45 -69.15 -410.7 -82.9
L -428.35 -77.6
Q -422.5 -69.5 -416.7 -57.1
L -415.3 -53.65
Q -429.95 -59.7 -451.35 -59.7 -474.3 -59.7 -521.25 -49.95 -537.8 -46.45 -545.55 -45.95
M -586.85 -16.4
L -608.9 -15.9 -708.2 -15.9
Q -718.2 -15.9 -722.6 -16.6
L -722.6 9.4
Q -713.05 8.5 -699.4 8.5
L -695.55 8.5 -714.35 25.6
Q -699.05 34.85 -686.35 44.05 -702.9 55.65 -730.9 66 -719.9 76.7 -712.45 90.1 -682.65 76.7 -663.85 61.5 -648.65 74 -634.9 87.5
L -615.55 66
Q -630.55 52.95 -644 42.8 -636.4 34.4 -630.3 25.6
L -624 17.3 -644 8.5 -615 8.5
Q -614.75 45.5 -605.45 67.05 -595.75 88.4 -580.75 88.4 -570.9 88.4 -565.25 79.4 -559.7 69.85 -557.15 44.2 -567.4 39.45 -576.85 30.9
L -576.85 34.25
Q -576.85 49.6 -579.65 54.4 -587.75 42.7 -587.75 1.85 -587.75 -9.2 -586.85 -16.4
M -652.95 8.5
Q -658 17.4 -666.2 26.5 -678.05 18.3 -695 8.5
L -652.95 8.5
M -568.6 -75.35
Q -577.65 -74.25 -591.25 -74.25
L -671.4 -74.25 -666.55 -84 -696.95 -87.5
Q -697.95 -82.65 -701.65 -75.35 -711.55 -55.75 -733.65 -37 -723.25 -29 -713.45 -16.6 -704.7 -24.85 -696.45 -34.85
L -696.45 -21 -678.6 -21.7 -602.3 -21.7
Q -589.2 -21.7 -581.25 -21
L -581.25 -44.05
Q -586.95 -43.3 -602.3 -43.3
L -689.75 -43.3 -685.9 -49 -591.25 -49
Q -579.65 -49 -568.6 -48.1
L -568.6 -75.35
M 559.4 -40
L 562.2 -9.6
Q 573.15 -12.45 590.9 -14.7 585.3 7.25 575.25 31 565.05 55 556.25 66.7
L 586.65 82.75 589.65 76.05
Q 601.85 49.6 609.15 28.55 617.6 4.2 622.2 -17.3
L 629.6 -17.7
Q 638.05 -17.7 640.65 -14.55 644.15 -10.75 644.15 0.4 644.15 26.7 639.2 41.25 636.35 49.55 630.95 49.55 622.85 49.55 605.65 42.95 608.45 55 608.45 64.8
L 607.9 75.55
Q 625.6 80.5 637.15 80.5 645.75 80.5 651.55 77.95 659.45 73.8 663.3 66.9 674.9 46.85 674.9 1.5 674.9 -27.65 661.9 -38.1 652.5 -45.5 635.7 -45.5
L 627.8 -45.1 634.15 -79.4 600.9 -82.55 600.9 -79.4
Q 600.9 -70.75 596.65 -42.95 572.65 -40 561.05 -40
L 559.4 -40
M 474.1 -32.25
Q 447.2 -32.25 412.2 -26.5 393.6 -23.45 387.85 -23.45
L 395.05 10.65
Q 409.15 5.45 432.4 1.4 455.5 -2.55 471.7 -2.55 495.1 -2.55 495.1 14.15 495.1 20.3 491.55 26.7 485.2 38.45 466.75 45.3 447.5 52.95 415.45 54.4 424 69.05 428.25 86.05 469.1 81 491.05 69.5 509.05 60.05 519.3 44.95 529.55 29.9 529.55 12.9 529.55 -0.75 522.5 -12 509.85 -32.25 474.1 -32.25
M 418.05 -83.6
L 408.55 -53.65
Q 450.1 -43.95 503 -42.4
L 507.05 -73.7 494.35 -73.55
Q 451.2 -73.55 418.05 -83.6
M 288.7 -53.2
L 259.1 -53.85
Q 260 -49 260 -38.75 260.35 -11.9 262 24.15
L 252.45 23.8
Q 233.1 23.8 221.5 32.45 209.9 41 209.9 55.3 209.9 69.75 220.6 77.8 231.4 85.85 250.65 85.85 279.8 85.85 287.25 69.25 289.35 64.75 289.35 57.1 307.25 66.1 319.9 80.1
L 337.35 54.95 332.25 51.6
Q 311 36.5 289.35 28.75
L 288 1.85
Q 305.45 1.6 319.9 0.15
L 332.4 -0.95 330.9 -27.3
Q 313 -22.9 287.1 -22.9 287.1 -43.75 288.7 -53.2
M 253.5 47.55
L 262.25 48.45
Q 262.6 50.9 262.6 51.95 262.6 61.5 250 61.5 238.75 61.5 238.75 55.1 238.75 47.55 253.5 47.55
M 31.95 -78.15
Q 32.85 -71.5 32.85 -64.1
L 31.15 21
Q 31.15 40.35 34.2 50.7 37.25 61.15 45.15 68.7 60 82.75 87.9 82.75 123.9 82.75 145.75 58.95 159.6 43.6 168.95 6.6 154.85 0.85 137.45 -12.75 135.05 7.35 130.1 20.65 124.7 35.6 114.1 43.7 103.45 51.8 89.15 51.8 73.25 51.8 67.65 42.95 63.8 36.75 63.8 14 63.8 -9.3 65.15 -39 66.5 -68.95 68 -77.6
L 31.95 -78.15
M 696.15 -59.7
L 669.1 -47.2
Q 694.35 -17.15 703.45 33.35
L 733.65 18.95
Q 722.95 -26.15 696.15 -59.7 Z"/>
</g>
</defs>

<g transform="matrix( 1, 0, 0, 1, 0,0) ">
<use xlink:href="#Layer0_0_FILL"/>
</g>
</svg>
