
<svg xmlns="http://www.w3.org/2000/svg" version="1.1" xmlns:xlink="http://www.w3.org/1999/xlink" preserveAspectRatio="none" x="0px" y="0px" width="1920px" height="1080px" viewBox="0 0 1920 1080">
<defs>
<g id="Layer0_0_FILL">
<path fill="#231F20" stroke="none" d="
M -555.2 94.6
L -555.2 62.95 -623.75 62.95 -623.75 221.05 -552.45 221.05 -552.45 189.4 -582.65 189.4 -582.65 154.65 -556.95 154.65 -556.95 124.55 -582.65 124.55 -582.65 94.6 -555.2 94.6
M -471.7 132.85
L -457.25 62.95 -491.7 62.95 -500.5 106.1 -509 62.95 -548.75 62.95 -533.8 132.85 -548.75 221.05 -508.7 221.05 -500.5 163.45
Q -494.85 197.4 -488 221.05
L -449.9 221.05 -471.7 132.85
M -376.9 65.6
Q -386 62.95 -402.8 62.95
L -444.2 62.95 -444.2 221.05 -403.1 221.05 -403.1 157.4 -392.05 157.4
Q -378.55 157.4 -370.15 153.65 -361.85 149.95 -358.75 143 -355.6 136.1 -355.6 120.95
L -355.6 107.2
Q -355.6 92.35 -357.2 85.3 -358.85 78.2 -363.35 73.2 -367.95 68.2 -376.9 65.6
M -403.1 90
Q -395.1 90 -392.55 92.45 -390 94.9 -390 103
L -390 115.95
Q -390 124.75 -392.15 127.6 -394.4 130.35 -400.05 130.35
L -403.1 130.25 -403.1 90
M -258.5 76.7
Q -265.05 67.45 -275.3 65.2 -285.65 62.95 -314.75 62.95
L -343.85 62.95 -343.85 221.05 -302.75 221.05 -302.75 149.75
Q -294.25 149.75 -292.2 152.8 -290.25 155.8 -290.25 168.5
L -290.25 221.05 -252.05 221.05 -252.05 179.35
Q -252.05 160.2 -253.05 156 -254.1 151.7 -258.3 146.65 -262.5 141.55 -274.7 138.55 -261.25 137.25 -256.65 130.9 -252.05 124.55 -252.05 106.1 -252.05 85.9 -258.5 76.7
M -302.75 90
Q -295.6 90 -292.85 92.35 -290.25 94.7 -290.25 102.2
L -290.25 110.9
Q -290.25 121.35 -292.95 123.3 -295.8 125.15 -302.75 125.15
L -302.75 90
M -167.6 94.6
L -167.6 62.95 -236.15 62.95 -236.15 221.05 -164.85 221.05 -164.85 189.4 -195.05 189.4 -195.05 154.65 -169.35 154.65 -169.35 124.55 -195.05 124.55 -195.05 94.6 -167.6 94.6
M -136.85 64.4
Q -147.2 69.1 -151.8 77.5 -156.45 85.9 -156.45 104.05 -156.45 116.65 -153.15 124.75 -149.9 132.85 -144.95 137.45 -139.95 142.05 -124.65 152.2 -109.3 162.25 -105.4 166.55 -101.6 170.85 -101.6 184.8 -101.6 191.15 -103.55 194.4 -105.6 197.6 -109.7 197.6 -113.8 197.6 -115.35 195.05 -117 192.55 -117 183.65
L -117 164.4 -155.2 164.4 -155.2 174.75
Q -155.2 192.55 -151.6 202.2 -147.95 211.85 -136.25 218.1 -124.65 224.35 -108.1 224.35 -93.1 224.35 -81.75 219 -70.45 213.55 -66.45 205.5 -62.5 197.5 -62.5 180.6 -62.5 157.4 -69.65 146.95 -76.8 136.5 -104.2 120.15 -113.8 114.5 -115.85 110.5 -118 106.5 -118 98.6 -118 92.45 -116.05 89.4 -114.2 86.4 -110.45 86.4 -107.05 86.4 -105.6 88.65 -104.1 90.85 -104.1 99.1
L -104.1 110.8 -65.95 110.8 -65.95 104.55
Q -65.95 85.7 -69.55 77.9 -73.25 70 -84.5 64.8 -95.8 59.6 -111.85 59.6 -126.5 59.6 -136.85 64.4
M -8.55 62.95
L -49.65 62.95 -49.65 221.05 -8.55 221.05 -8.55 62.95
M -203.6 -224.35
Q -218.25 -224.35 -228.6 -219.55 -238.95 -214.85 -243.55 -206.45 -248.2 -198.05 -248.2 -179.9 -248.2 -167.3 -244.9 -159.2 -241.65 -151.1 -236.7 -146.5 -231.7 -141.9 -216.4 -131.75 -201.05 -121.7 -197.15 -117.4 -193.35 -113.1 -193.35 -99.15 -193.35 -92.8 -195.3 -89.55 -197.35 -86.35 -201.45 -86.35 -205.55 -86.35 -207.1 -88.9 -208.75 -91.4 -208.75 -100.3
L -208.75 -119.55 -246.95 -119.55 -246.95 -109.2
Q -246.95 -91.4 -243.35 -81.75 -239.7 -72.1 -228 -65.85 -216.4 -59.6 -199.85 -59.6 -184.85 -59.6 -173.5 -64.95 -162.2 -70.4 -158.2 -78.45 -154.25 -86.45 -154.25 -103.35 -154.25 -126.55 -161.4 -137 -168.55 -147.45 -195.95 -163.8 -205.55 -169.45 -207.6 -173.45 -209.75 -177.45 -209.75 -185.35 -209.75 -191.5 -207.8 -194.55 -205.95 -197.55 -202.2 -197.55 -198.8 -197.55 -197.35 -195.3 -195.85 -193.1 -195.85 -184.85
L -195.85 -173.15 -157.7 -173.15 -157.7 -179.4
Q -157.7 -198.25 -161.3 -206.05 -165 -213.95 -176.25 -219.15 -187.55 -224.35 -203.6 -224.35
M -58.6 -221
L -148.45 -221 -148.45 -189.35 -124.1 -189.35 -124.1 -62.9 -83 -62.9 -83 -189.35 -58.6 -189.35 -58.6 -221
M -355.2 -221
L -355.2 -62.9 -307.65 -62.9
Q -282.85 -62.9 -274.85 -65.75 -266.8 -68.55 -263.1 -76.3 -259.5 -84 -259.5 -100
L -259.5 -114.65
Q -259.5 -130.1 -264.55 -137.6 -269.65 -145.05 -283.9 -148.25 -271.1 -151.2 -266.7 -156.65 -262.4 -162.1 -262.4 -176 -262.4 -196.5 -268.6 -205.75 -274.75 -214.95 -284.7 -218 -294.75 -221 -314.2 -221
L -355.2 -221
M -314.1 -193.95
L -305.5 -193.1
Q -303.35 -192.3 -301.95 -189.25 -300.6 -186.35 -300.6 -178.9 -300.6 -164.85 -302.25 -161.85 -303.95 -158.9 -310 -158.9
L -314.1 -158.8 -314.1 -193.95
M -314.1 -134.2
Q -304.9 -133.9 -302.75 -131.75 -300.6 -129.6 -300.6 -119.45
L -300.6 -104.7
Q -300.6 -95.15 -302.95 -92.7 -305.4 -90.25 -314.1 -89.95
L -314.1 -134.2
M -385.65 -221
L -445.15 -221 -466 -62.9 -423.55 -62.9 -421.1 -91.3 -406.35 -91.3 -404.2 -62.9 -362.1 -62.9 -385.65 -221
M -407.45 -119.35
L -421.6 -119.35
Q -420.05 -140.35 -413.7 -185.75 -410.55 -146.2 -407.45 -119.35
M 100.75 94.3
Q 99.55 84.55 93.4 76.25 87.25 67.95 77.2 63.8 67.05 59.6 54.35 59.6 40.95 59.6 30.9 64 20.85 68.4 15 76.6 9.05 84.8 7.95 94.8 6.8 104.65 6.8 128.45
L 6.8 155.5
Q 6.8 179.95 7.95 189.7 9.15 199.45 15.3 207.75 21.45 216.05 31.6 220.25 41.65 224.35 54.35 224.35 67.7 224.35 77.8 220 87.85 215.6 93.8 207.4 99.65 199.2 100.8 189.3 101.9 179.35 101.9 155.5
L 101.9 128.45
Q 101.9 104.05 100.75 94.3
M 54.55 86.4
Q 58.35 86.4 59.6 89.5 60.8 92.55 60.8 103.55
L 60.8 176.25
Q 60.8 190.2 59.6 193.9 58.45 197.6 54.25 197.6 50.15 197.6 49.05 194.4 47.9 191.15 47.9 177.4
L 47.9 103.55
Q 47.9 91.35 49.65 88.9 51.3 86.4 54.55 86.4
M 266.6 62.95
L 225.5 62.95 225.5 221.05 266.6 221.05 266.6 62.95
M 209 62.95
L 174.65 62.95 174.65 134.15 151.6 62.95 117.2 62.95 117.2 221.05 151.6 221.05 151.6 149.2 172.95 221.05 209 221.05 209 62.95
M 439.75 62.95
L 386.5 62.95 386.5 221.05 422.45 221.05 422.55 116.75 437.6 221.05 463.05 221.05 477.4 114.3 477.4 221.05 513.35 221.05 513.35 62.95 459.85 62.95 450.45 136.75 439.75 62.95
M 325.7 86.4
Q 329.1 86.4 330.55 88.65 332.05 90.85 332.05 99.1
L 332.05 110.8 370.2 110.8 370.2 104.55
Q 370.2 85.7 366.6 77.9 362.9 70 351.65 64.8 340.35 59.6 324.3 59.6 309.65 59.6 299.3 64.4 288.95 69.1 284.35 77.5 279.7 85.9 279.7 104.05 279.7 116.65 283 124.75 286.25 132.85 291.2 137.45 296.2 142.05 311.5 152.2 326.85 162.25 330.75 166.55 334.55 170.85 334.55 184.8 334.55 191.15 332.6 194.4 330.55 197.6 326.45 197.6 322.35 197.6 320.8 195.05 319.15 192.55 319.15 183.65
L 319.15 164.4 280.95 164.4 280.95 174.75
Q 280.95 192.55 284.55 202.2 288.2 211.85 299.9 218.1 311.5 224.35 328.05 224.35 343.05 224.35 354.4 219 365.7 213.55 369.7 205.5 373.65 197.5 373.65 180.6 373.65 157.4 366.5 146.95 359.35 136.5 331.95 120.15 322.35 114.5 320.3 110.5 318.15 106.5 318.15 98.6 318.15 92.45 320.1 89.4 321.95 86.4 325.7 86.4
M 599.1 63.8
Q 588.95 59.6 576.25 59.6 562.85 59.6 552.8 64 542.75 68.4 536.9 76.6 530.95 84.8 529.85 94.8 528.7 104.65 528.7 128.45
L 528.7 155.5
Q 528.7 179.95 529.85 189.7 531.05 199.45 537.2 207.75 543.35 216.05 553.5 220.25 563.55 224.35 576.25 224.35 589.6 224.35 599.7 220 609.75 215.6 615.7 207.4 621.55 199.2 622.7 189.3 623.8 179.35 623.8 155.5
L 623.8 128.45
Q 623.8 104.05 622.65 94.3 621.45 84.55 615.3 76.25 609.15 67.95 599.1 63.8
M 576.45 86.4
Q 580.25 86.4 581.5 89.5 582.7 92.55 582.7 103.55
L 582.7 176.25
Q 582.7 190.2 581.5 193.9 580.35 197.6 576.15 197.6 572.05 197.6 570.95 194.4 569.8 191.15 569.8 177.4
L 569.8 103.55
Q 569.8 91.35 571.55 88.9 573.2 86.4 576.45 86.4
M 385.8 -219.95
Q 375.75 -215.55 369.9 -207.35 363.95 -199.15 362.85 -189.15 361.7 -179.3 361.7 -155.5
L 361.7 -128.45
Q 361.7 -104 362.85 -94.25 364.05 -84.5 370.2 -76.2 376.35 -67.9 386.5 -63.7 396.55 -59.6 409.25 -59.6 422.6 -59.6 432.7 -63.95 442.75 -68.35 448.7 -76.55 454.55 -84.75 455.7 -94.65 456.8 -104.6 456.8 -128.45
L 456.8 -155.5
Q 456.8 -179.9 455.65 -189.65 454.45 -199.4 448.3 -207.7 442.15 -216 432.1 -220.15 421.95 -224.35 409.25 -224.35 395.85 -224.35 385.8 -219.95
M 414.5 -194.45
Q 415.7 -191.4 415.7 -180.4
L 415.7 -107.7
Q 415.7 -93.75 414.5 -90.05 413.35 -86.35 409.15 -86.35 405.05 -86.35 403.95 -89.55 402.8 -92.8 402.8 -106.55
L 402.8 -180.4
Q 402.8 -192.6 404.55 -195.05 406.2 -197.55 409.45 -197.55 413.25 -197.55 414.5 -194.45
M 263.65 -189.35
L 288 -189.35 288 -62.9 329.1 -62.9 329.1 -189.35 353.5 -189.35 353.5 -221 263.65 -221 263.65 -189.35
M 129.55 -221
L 70.05 -221 49.2 -62.9 91.65 -62.9 94.1 -91.3 108.85 -91.3 111 -62.9 153.1 -62.9 129.55 -221
M 107.75 -119.35
L 93.6 -119.35
Q 95.15 -140.35 101.5 -185.75 104.65 -146.2 107.75 -119.35
M 36.1 -207.25
Q 29.55 -216.5 19.3 -218.75 8.95 -221 -20.15 -221
L -49.25 -221 -49.25 -62.9 -8.15 -62.9 -8.15 -134.2
Q 0.35 -134.2 2.4 -131.15 4.35 -128.15 4.35 -115.45
L 4.35 -62.9 42.55 -62.9 42.55 -104.6
Q 42.55 -123.75 41.55 -127.95 40.5 -132.25 36.3 -137.3 32.1 -142.4 19.9 -145.4 33.35 -146.7 37.95 -153.05 42.55 -159.4 42.55 -177.85 42.55 -198.05 36.1 -207.25
M 4.35 -173.05
Q 4.35 -162.6 1.65 -160.65 -1.2 -158.8 -8.15 -158.8
L -8.15 -193.95
Q -1 -193.95 1.75 -191.6 4.35 -189.25 4.35 -181.75
L 4.35 -173.05
M 183.15 -219.75
Q 172.8 -215.25 167.05 -207.35 161.2 -199.4 160 -190.85 158.85 -182.35 158.85 -165.25
L 158.85 -119.05
Q 158.85 -95.8 162.65 -84.2 166.45 -72.65 178.15 -66.1 189.9 -59.6 207.95 -59.6 225.35 -59.6 237.25 -67.3 249.05 -75 252.6 -85.25 256 -95.6 256 -120.15
L 256 -126.3 214.9 -126.3 214.9 -106.35
Q 214.9 -93.35 213.5 -89.85 212.05 -86.35 207.45 -86.35 202.7 -86.35 201.3 -89.85 199.95 -93.35 199.95 -104.9
L 199.95 -178.35
Q 199.95 -190.35 201.3 -193.95 202.7 -197.55 207.75 -197.55 212.25 -197.55 213.6 -194.65 214.9 -191.6 214.9 -179.6
L 214.9 -152.15 256 -152.15 256 -167.2
Q 256 -189.25 252.3 -199.8 248.6 -210.25 236.75 -217.3 224.95 -224.35 206.8 -224.35 193.4 -224.35 183.15 -219.75 Z"/>
</g>
</defs>

<g transform="matrix( 1, 0, 0, 1, 0,0) ">
<use xlink:href="#Layer0_0_FILL"/>
</g>
</svg>
