
<svg xmlns="http://www.w3.org/2000/svg" version="1.1" xmlns:xlink="http://www.w3.org/1999/xlink" preserveAspectRatio="none" x="0px" y="0px" width="1920px" height="1080px" viewBox="0 0 1920 1080">
<defs>
<g id="Layer0_0_FILL">
<path fill="#231F20" stroke="none" d="
M -182.1 -73.75
Q -193.75 -65.25 -196.2 -55 -198.6 -44.75 -198.6 -22.05
L -198.6 24.9
Q -198.6 41.2 -197.45 49.4 -196.25 57.5 -191.6 64.95 -186.9 72.35 -177.8 77.45 -168.85 82.4 -158.5 82.4 -149.8 82.4 -143.35 78.8 -137 75.1 -132.7 67.75
L -129 79.1 -103.1 79.1 -103.1 -5.75 -151.25 -5.75 -151.25 18.25 -142.95 18.25 -142.95 37
Q -142.95 48.05 -144.5 51.85 -146.2 55.65 -150.65 55.65 -154.75 55.65 -156.15 52.35 -157.5 48.9 -157.5 38.3
L -157.5 -37.6
Q -157.5 -49.7 -156.15 -52.65 -154.75 -55.55 -150.95 -55.55 -146.55 -55.55 -145.4 -52.15 -144.2 -48.75 -144.2 -35.15
L -144.2 -20.8 -103.1 -20.8 -103.1 -27.65
Q -103.1 -47.05 -106.7 -57.25 -110.35 -67.5 -122.25 -74.9 -134.15 -82.35 -152.25 -82.35 -170.6 -82.35 -182.1 -73.75
M -263.15 -79
L -322.65 -79 -343.5 79.1 -301.05 79.1 -298.6 50.7 -283.85 50.7 -281.7 79.1 -239.6 79.1 -263.15 -79
M -284.95 22.65
L -299.1 22.65
Q -297.55 1.65 -291.2 -43.75 -288.05 -4.2 -284.95 22.65
M -374.2 -79
L -415.3 -79 -415.3 79.1 -349.2 79.1 -349.2 47.45 -374.2 47.45 -374.2 -79
M 5.1 51.95
Q 6.25 44.65 6.25 26.65
L 6.25 -79 -34.85 -79 -34.85 37.5
Q -34.85 49.3 -35.95 52.55 -37.1 55.65 -41 55.65 -44.4 55.65 -45.5 52.85 -46.65 49.9 -46.65 39.55
L -46.65 -79 -87.8 -79 -87.8 14.55
Q -87.8 41.3 -86.8 49.7 -85.85 58 -80.45 65.55 -75.1 73.05 -64.25 77.75 -53.4 82.4 -39.25 82.4 -26.45 82.4 -17 78.5 -7.6 74.5 -1.85 66.9 3.9 59.2 5.1 51.95
M 391.75 -79
L 332.25 -79 311.4 79.1 353.85 79.1 356.3 50.7 371.05 50.7 373.2 79.1 415.3 79.1 391.75 -79
M 369.95 22.65
L 355.8 22.65
Q 357.35 1.65 363.7 -43.75 366.85 -4.2 369.95 22.65
M 242.05 -79
L 212.95 -79 212.95 79.1 254.05 79.1 254.05 7.8
Q 262.55 7.8 264.6 10.85 266.55 13.85 266.55 26.55
L 266.55 79.1 304.75 79.1 304.75 37.4
Q 304.75 18.25 303.75 14.05 302.7 9.75 298.5 4.7 294.3 -0.4 282.1 -3.4 295.55 -4.7 300.15 -11.05 304.75 -17.4 304.75 -35.85 304.75 -56.05 298.3 -65.25 291.75 -74.5 281.5 -76.75 271.15 -79 242.05 -79
M 254.05 -51.95
Q 261.2 -51.95 263.95 -49.6 266.55 -47.25 266.55 -39.75
L 266.55 -31.05
Q 266.55 -20.6 263.85 -18.65 261 -16.8 254.05 -16.8
L 254.05 -51.95
M 134.35 -79
L 105.25 -79 105.25 79.1 146.35 79.1 146.35 7.8
Q 154.85 7.8 156.9 10.85 158.85 13.85 158.85 26.55
L 158.85 79.1 197.05 79.1 197.05 37.4
Q 197.05 18.25 196.05 14.05 195 9.75 190.8 4.7 186.6 -0.4 174.4 -3.4 187.85 -4.7 192.45 -11.05 197.05 -17.4 197.05 -35.85 197.05 -56.05 190.6 -65.25 184.05 -74.5 173.8 -76.75 163.45 -79 134.35 -79
M 146.35 -51.95
Q 153.5 -51.95 156.25 -49.6 158.85 -47.25 158.85 -39.75
L 158.85 -31.05
Q 158.85 -20.6 156.15 -18.65 153.3 -16.8 146.35 -16.8
L 146.35 -51.95
M 63.25 -17.4
L 63.25 -47.35 90.7 -47.35 90.7 -79 22.15 -79 22.15 79.1 93.45 79.1 93.45 47.45 63.25 47.45 63.25 12.7 88.95 12.7 88.95 -17.4 63.25 -17.4 Z"/>
</g>
</defs>

<g transform="matrix( 1, 0, 0, 1, 0,0) ">
<use xlink:href="#Layer0_0_FILL"/>
</g>
</svg>
