
<svg xmlns="http://www.w3.org/2000/svg" version="1.1" xmlns:xlink="http://www.w3.org/1999/xlink" preserveAspectRatio="none" x="0px" y="0px" width="1920px" height="1080px" viewBox="0 0 1920 1080">
<defs>
<g id="Layer0_0_FILL">
<path fill="#020303" stroke="none" d="
M 116.8 -276.45
Q 61.05 -300 0 -300 -61.05 -300 -116.8 -276.45 -170.6 -253.65 -212.15 -212.15 -253.65 -170.6 -276.45 -116.8 -300 -61.05 -300 0 -300 61 -276.45 116.75 -253.65 170.6 -212.15 212.1 -170.6 253.65 -116.8 276.4 -61.05 300 0 300 61.05 300 116.8 276.4 170.6 253.65 212.15 212.1 253.65 170.6 276.45 116.75 300 61 300 0 300 -61.05 276.45 -116.8 253.65 -170.6 212.15 -212.15 170.6 -253.65 116.8 -276.45
M 0 -287.8
Q 57.7 -287.8 110.5 -265.8 161.5 -244.6 201.15 -205.8 240.8 -167.05 263.15 -116.55 286.3 -64.4 287.65 -7
L 231.55 -7
Q 229.35 -7 227.55 -5.75 225.75 -4.5 224.95 -2.45 224.15 -0.3 223.25 1.45 221.6 -0.8 219.9 -4.4 213.7 -17.4 207.6 -24.35 198.85 -34.45 189.25 -33.85 180.5 -33.3 173.25 -23.85 166.05 -14.45 159.65 4.7 153.4 23.4 148.65 29.05 144.4 22.15 140.6 -0.45 136.75 -23.6 132.7 -32.65 128.55 -41.75 121.9 -41.75
L 121.65 -41.75
Q 116.1 -41.65 112.4 -35.5 109.4 -30.45 106.6 -19.35 102.35 -2.05 97.95 32.4 95.4 52.65 92.4 61.65 87.75 51.1 81.85 23.45 73.6 -15.3 64.05 -82.8 57.15 -131.5 51.15 -156.05 47.4 -171.45 43.8 -177.9 39.45 -185.6 33.15 -185.2 26.25 -184.8 22.5 -174.8 18.1 -162.95 14.7 -130.65 9.75 -83.4 6.55 13.15 2.4 142.95 -5.1 178.5 -12.8 151.5 -22.4 71.75 -35.1 -33.65 -46.35 -70.95 -51.05 -86.5 -56.05 -92.45 -59.85 -96.95 -65.05 -96.95
L -65.15 -96.95
Q -73.8 -96.95 -79.3 -83 -85.9 -66.25 -91.75 -22.15 -98.05 25.2 -104.25 51.3 -108.6 69.45 -112.35 75.45 -117.6 66.35 -123.3 37.15 -131.7 -6.3 -139.1 -22.75 -145.35 -36.5 -153.75 -36.5
L -153.8 -36.5
Q -160.8 -36.45 -165.4 -27.75 -170 -19.05 -173.75 1.3 -174.65 6.25 -175.45 9.45 -176.85 4.2 -178.05 -1.7 -180.25 -12.25 -183.1 -17.7 -187.1 -25.2 -193.5 -25.9 -200.1 -26.6 -205.9 -19.45 -210.15 -14.3 -214.75 -3.6 -216.3 -0.1 -217.1 0.7 -219.8 1.5 -237 -6.4 -238.4 -7 -239.9 -7
L -287.65 -7
Q -286.3 -64.4 -263.15 -116.55 -240.8 -167.05 -201.15 -205.8 -161.5 -244.6 -110.5 -265.8 -57.7 -287.8 0 -287.8
M 27.8 -121.15
Q 30.65 -151.3 34.1 -165.1 41.2 -144.15 50.2 -80.85 61.3 -2.75 70.2 35.6 76.2 61.5 81.8 71.35 86.45 79.55 92.9 79.55
L 93 79.55
Q 100.25 79.5 104.45 69.4 108.65 59.25 111.85 34.15 116.9 -5.7 121.8 -21.8 124.25 -13.5 126.8 1.85 130.45 23.7 135.3 33.6 140.1 43.45 147.5 44 154.65 44.55 160.6 36.4 166.5 28.3 172.9 9.15 178.75 -8.4 184.7 -15.75 187.9 -19.75 190.1 -19.9 192.1 -19.9 195.1 -17.1 200.8 -11.8 207.25 1.65 210.45 8.35 213.7 11.9 218.5 17.1 224.05 16.85 231.4 16.5 236.15 7
L 287.65 7
Q 286.3 64.4 263.15 116.55 240.8 167 201.15 205.75 161.5 244.55 110.5 265.75 57.7 287.75 0 287.75 -57.7 287.75 -110.5 265.75 -161.5 244.55 -201.15 205.75 -240.8 167 -263.15 116.55 -286.3 64.4 -287.65 7
L -241.4 7
Q -229.4 12.4 -223.75 13.85 -216.85 15.6 -212.1 13.75 -208.35 12.35 -205.7 8.8 -203.85 6.4 -201.95 2 -198.2 -6.55 -195.15 -10.5 -193.3 -6.5 -191.75 1.1 -188.5 17.05 -185.25 23.6 -181.4 31.35 -175.25 31.35
L -175.15 31.35
Q -169.2 31.3 -165.6 24.05 -162.6 18.05 -159.95 3.85 -156.8 -13.3 -153.5 -20.35 -150.6 -15.3 -147.1 -3.65 -142.25 12.7 -137 39.85 -131.65 67.75 -126.05 79.4 -120.45 91 -112.45 91
L -112.1 91
Q -105.7 90.8 -100.95 83.4 -96.25 76 -91.85 59.25 -84.8 32.15 -77.85 -20.3 -74.2 -47.65 -70.35 -64.2 -67.6 -75.9 -65 -81 -60.05 -72.45 -54.15 -44.25 -45.5 -3.1 -36.3 73.4 -29.1 133.6 -22.75 164.8 -18.6 184.9 -14.75 192.65 -10.8 200.4 -4.8 200.35
L -4.3 200.35
Q 2.4 200.05 5.85 190.7 9.95 179.7 13.05 148.8 17.6 104.1 20.55 13.6 23.4 -73.45 27.8 -121.15 Z"/>
</g>
</defs>

<g transform="matrix( 1, 0, 0, 1, 0,0) ">
<use xlink:href="#Layer0_0_FILL"/>
</g>
</svg>
