
<svg xmlns="http://www.w3.org/2000/svg" version="1.1" xmlns:xlink="http://www.w3.org/1999/xlink" preserveAspectRatio="none" x="0px" y="0px" width="1920px" height="1080px" viewBox="0 0 1920 1080">
<defs>
<g id="Layer0_0_FILL">
<path fill="#231F20" stroke="none" d="
M -118 -79
L -120.85 -49.6
Q -124.45 -14.15 -127.55 31.55 -130.9 -13.65 -138.4 -79
L -181.75 -79 -158.05 79.1 -95.55 79.1 -74.65 -79 -118 -79
M -198.45 -79
L -257.95 -79 -278.8 79.1 -236.35 79.1 -233.9 50.7 -219.15 50.7 -217 79.1 -174.9 79.1 -198.45 -79
M -220.25 22.65
L -234.4 22.65
Q -232.85 1.65 -226.5 -43.75 -223.35 -4.2 -220.25 22.65
M -336.1 -79
L -378.8 -79
Q -387.85 -11.9 -390.1 29.5
L -398.7 -79 -438.65 -79 -420.3 79.1 -369.2 79.1 -357.7 -3.8
Q -352.3 42.65 -345.3 79.1
L -293.9 79.1 -275.65 -79 -315.6 -79
Q -323.6 -24.1 -327.05 33.3
L -331.6 -26.85 -336.1 -79
M 375.8 -5.2
L 365.1 -79 311.85 -79 311.85 79.1 347.8 79.1 347.9 -25.2 362.95 79.1 388.4 79.1 402.75 -27.65 402.75 79.1 438.7 79.1 438.7 -79 385.2 -79 375.8 -5.2
M 233.25 -79
L 204.15 -79 204.15 79.1 245.25 79.1 245.25 7.8
Q 253.75 7.8 255.8 10.85 257.75 13.85 257.75 26.55
L 257.75 79.1 295.95 79.1 295.95 37.4
Q 295.95 18.25 294.95 14.05 293.9 9.75 289.7 4.7 285.5 -0.4 273.3 -3.4 286.75 -4.7 291.35 -11.05 295.95 -17.4 295.95 -35.85 295.95 -56.05 289.5 -65.25 282.95 -74.5 272.7 -76.75 262.35 -79 233.25 -79
M 245.25 -51.95
Q 252.4 -51.95 255.15 -49.6 257.75 -47.25 257.75 -39.75
L 257.75 -31.05
Q 257.75 -20.6 255.05 -18.65 252.2 -16.8 245.25 -16.8
L 245.25 -51.95
M 117.85 -77.95
Q 107.8 -73.55 101.95 -65.35 96 -57.15 94.9 -47.15 93.75 -37.3 93.75 -13.5
L 93.75 13.55
Q 93.75 38 94.9 47.75 96.1 57.5 102.25 65.8 108.4 74.1 118.55 78.3 128.6 82.4 141.3 82.4 154.65 82.4 164.75 78.05 174.8 73.65 180.75 65.45 186.6 57.25 187.75 47.35 188.85 37.4 188.85 13.55
L 188.85 -13.5
Q 188.85 -37.9 187.7 -47.65 186.5 -57.4 180.35 -65.7 174.2 -74 164.15 -78.15 154 -82.35 141.3 -82.35 127.9 -82.35 117.85 -77.95
M 141.5 -55.55
Q 145.3 -55.55 146.55 -52.45 147.75 -49.4 147.75 -38.4
L 147.75 34.3
Q 147.75 48.25 146.55 51.95 145.4 55.65 141.2 55.65 137.1 55.65 136 52.45 134.85 49.2 134.85 35.45
L 134.85 -38.4
Q 134.85 -50.6 136.6 -53.05 138.25 -55.55 141.5 -55.55
M 0.8 -47.35
L 0.8 -79 -67.75 -79 -67.75 79.1 3.55 79.1 3.55 47.45 -26.65 47.45 -26.65 12.7 -0.95 12.7 -0.95 -17.4 -26.65 -17.4 -26.65 -47.35 0.8 -47.35
M 56.45 -17.4
L 56.45 -47.35 85 -47.35 85 -79 15.35 -79 15.35 79.1 56.45 79.1 56.45 12.7 81.85 12.7 81.85 -17.4 56.45 -17.4 Z"/>
</g>
</defs>

<g transform="matrix( 1, 0, 0, 1, 0,0) ">
<use xlink:href="#Layer0_0_FILL"/>
</g>
</svg>
