
<svg xmlns="http://www.w3.org/2000/svg" version="1.1" xmlns:xlink="http://www.w3.org/1999/xlink" preserveAspectRatio="none" x="0px" y="0px" width="1920px" height="1080px" viewBox="0 0 1920 1080">
<defs>
<g id="Layer0_0_FILL">
<path fill="#231F20" stroke="none" d="
M -392.45 77
L -433.55 77 -433.55 235.1 -367.45 235.1 -367.45 203.45 -392.45 203.45 -392.45 77
M -475.55 108.65
L -448.1 108.65 -448.1 77 -516.65 77 -516.65 235.1 -445.35 235.1 -445.35 203.45 -475.55 203.45 -475.55 168.7 -449.85 168.7 -449.85 138.6 -475.55 138.6 -475.55 108.65
M -316.4 108.65
L -288.95 108.65 -288.95 77 -357.5 77 -357.5 235.1 -286.2 235.1 -286.2 203.45 -316.4 203.45 -316.4 168.7 -290.7 168.7 -290.7 138.6 -316.4 138.6 -316.4 108.65
M -182.1 98.2
Q -185.8 87.75 -197.65 80.7 -209.45 73.65 -227.6 73.65 -241 73.65 -251.25 78.25 -261.6 82.75 -267.35 90.65 -273.2 98.6 -274.4 107.15 -275.55 115.65 -275.55 132.75
L -275.55 178.95
Q -275.55 202.2 -271.75 213.8 -267.95 225.35 -256.25 231.9 -244.5 238.4 -226.45 238.4 -209.05 238.4 -197.15 230.7 -185.35 223 -181.8 212.75 -178.4 202.4 -178.4 177.85
L -178.4 171.7 -219.5 171.7 -219.5 191.65
Q -219.5 204.65 -220.9 208.15 -222.35 211.65 -226.95 211.65 -231.7 211.65 -233.1 208.15 -234.45 204.65 -234.45 193.1
L -234.45 119.65
Q -234.45 107.65 -233.1 104.05 -231.7 100.45 -226.65 100.45 -222.15 100.45 -220.8 103.35 -219.5 106.4 -219.5 118.4
L -219.5 145.85 -178.4 145.85 -178.4 130.8
Q -178.4 108.75 -182.1 98.2
M -80.9 108.65
L -80.9 77 -170.75 77 -170.75 108.65 -146.4 108.65 -146.4 235.1 -105.3 235.1 -105.3 108.65 -80.9 108.65
M -256.3 -206.95
L -309.55 -206.95 -309.55 -48.85 -273.6 -48.85 -273.5 -153.15 -258.45 -48.85 -233 -48.85 -218.65 -155.6 -218.65 -48.85 -182.7 -48.85 -182.7 -206.95 -236.2 -206.95 -245.6 -133.15 -256.3 -206.95
M -72.75 -206.95
L -113.85 -206.95 -113.85 -90.45
Q -113.85 -78.65 -114.95 -75.4 -116.1 -72.3 -120 -72.3 -123.4 -72.3 -124.5 -75.1 -125.65 -78.05 -125.65 -88.4
L -125.65 -206.95 -166.8 -206.95 -166.8 -113.4
Q -166.8 -86.65 -165.8 -78.25 -164.85 -69.95 -159.45 -62.4 -154.1 -54.9 -143.25 -50.2 -132.4 -45.55 -118.25 -45.55 -105.45 -45.55 -96 -49.45 -86.6 -53.45 -80.85 -61.05 -75.1 -68.75 -73.9 -76 -72.75 -83.3 -72.75 -101.3
L -72.75 -206.95
M -86.3 -238.4
L -121.1 -238.4 -138.25 -211.95 -118.45 -211.95 -86.3 -238.4
M 15.65 144.95
Q 20.25 138.6 20.25 120.15 20.25 99.95 13.8 90.75 7.25 81.5 -3 79.25 -13.35 77 -42.45 77
L -71.55 77 -71.55 235.1 -30.45 235.1 -30.45 163.8
Q -21.95 163.8 -19.9 166.85 -17.95 169.85 -17.95 182.55
L -17.95 235.1 20.25 235.1 20.25 193.4
Q 20.25 174.25 19.25 170.05 18.2 165.75 14 160.7 9.8 155.6 -2.4 152.6 11.05 151.3 15.65 144.95
M -30.45 104.05
Q -23.3 104.05 -20.55 106.4 -17.95 108.75 -17.95 116.25
L -17.95 124.95
Q -17.95 135.4 -20.65 137.35 -23.5 139.2 -30.45 139.2
L -30.45 104.05
M 105.4 77.85
Q 95.25 73.65 82.55 73.65 69.15 73.65 59.1 78.05 49.05 82.45 43.2 90.65 37.25 98.85 36.15 108.85 35 118.7 35 142.5
L 35 169.55
Q 35 194 36.15 203.75 37.35 213.5 43.5 221.8 49.65 230.1 59.8 234.3 69.85 238.4 82.55 238.4 95.9 238.4 106 234.05 116.05 229.65 122 221.45 127.85 213.25 129 203.35 130.1 193.4 130.1 169.55
L 130.1 142.5
Q 130.1 118.1 128.95 108.35 127.75 98.6 121.6 90.3 115.45 82 105.4 77.85
M 76.1 117.6
Q 76.1 105.4 77.85 102.95 79.5 100.45 82.75 100.45 86.55 100.45 87.8 103.55 89 106.6 89 117.6
L 89 190.3
Q 89 204.25 87.8 207.95 86.65 211.65 82.45 211.65 78.35 211.65 77.25 208.45 76.1 205.2 76.1 191.45
L 76.1 117.6
M 115.75 45.55
L 81 45.55 63.8 72 83.6 72 115.75 45.55
M 237.2 77
L 202.85 77 202.85 148.2 179.8 77 145.4 77 145.4 235.1 179.8 235.1 179.8 163.25 201.15 235.1 237.2 235.1 237.2 77
M 294.8 77
L 253.7 77 253.7 235.1 294.8 235.1 294.8 77
M 472.4 206.7
L 474.55 235.1 516.65 235.1 493.1 77 433.6 77 412.75 235.1 455.2 235.1 457.65 206.7 472.4 206.7
M 471.3 178.65
L 457.15 178.65
Q 458.7 157.65 465.05 112.25 468.2 151.8 471.3 178.65
M 358.1 73.65
Q 344.7 73.65 334.45 78.25 324.1 82.75 318.35 90.65 312.5 98.6 311.3 107.15 310.15 115.65 310.15 132.75
L 310.15 178.95
Q 310.15 202.2 313.95 213.8 317.75 225.35 329.45 231.9 341.2 238.4 359.25 238.4 376.65 238.4 388.55 230.7 400.35 223 403.9 212.75 407.3 202.4 407.3 177.85
L 407.3 171.7 366.2 171.7 366.2 191.65
Q 366.2 204.65 364.8 208.15 363.35 211.65 358.75 211.65 354 211.65 352.6 208.15 351.25 204.65 351.25 193.1
L 351.25 119.65
Q 351.25 107.65 352.6 104.05 354 100.45 359.05 100.45 363.55 100.45 364.9 103.35 366.2 106.4 366.2 118.4
L 366.2 145.85 407.3 145.85 407.3 130.8
Q 407.3 108.75 403.6 98.2 399.9 87.75 388.05 80.7 376.25 73.65 358.1 73.65
M 30.25 -159.1
L 30.25 -165.35
Q 30.25 -184.2 26.65 -192 22.95 -199.9 11.7 -205.1 0.4 -210.3 -15.65 -210.3 -30.3 -210.3 -40.65 -205.5 -51 -200.8 -55.6 -192.4 -60.25 -184 -60.25 -165.85 -60.25 -153.25 -56.95 -145.15 -53.7 -137.05 -48.75 -132.45 -43.75 -127.85 -28.45 -117.7 -13.1 -107.65 -9.2 -103.35 -5.4 -99.05 -5.4 -85.1 -5.4 -78.75 -7.35 -75.5 -9.4 -72.3 -13.5 -72.3 -17.6 -72.3 -19.15 -74.85 -20.8 -77.35 -20.8 -86.25
L -20.8 -105.5 -59 -105.5 -59 -95.15
Q -59 -77.35 -55.4 -67.7 -51.75 -58.05 -40.05 -51.8 -28.45 -45.55 -11.9 -45.55 3.1 -45.55 14.45 -50.9 25.75 -56.35 29.75 -64.4 33.7 -72.4 33.7 -89.3 33.7 -112.5 26.55 -122.95 19.4 -133.4 -8 -149.75 -17.6 -155.4 -19.65 -159.4 -21.8 -163.4 -21.8 -171.3 -21.8 -177.45 -19.85 -180.5 -18 -183.5 -14.25 -183.5 -10.85 -183.5 -9.4 -181.25 -7.9 -179.05 -7.9 -170.8
L -7.9 -159.1 30.25 -159.1
M 87.65 -206.95
L 46.55 -206.95 46.55 -48.85 87.65 -48.85 87.65 -206.95
M 150.95 -210.3
Q 137.55 -210.3 127.3 -205.7 116.95 -201.2 111.2 -193.3 105.35 -185.35 104.15 -176.8 103 -168.3 103 -151.2
L 103 -105
Q 103 -81.75 106.8 -70.15 110.6 -58.6 122.3 -52.05 134.05 -45.55 152.1 -45.55 169.5 -45.55 181.4 -53.25 193.2 -60.95 196.75 -71.2 200.15 -81.55 200.15 -106.1
L 200.15 -112.25 159.05 -112.25 159.05 -92.3
Q 159.05 -79.3 157.65 -75.8 156.2 -72.3 151.6 -72.3 146.85 -72.3 145.45 -75.8 144.1 -79.3 144.1 -90.85
L 144.1 -164.3
Q 144.1 -176.3 145.45 -179.9 146.85 -183.5 151.9 -183.5 156.4 -183.5 157.75 -180.6 159.05 -177.55 159.05 -165.55
L 159.05 -138.1 200.15 -138.1 200.15 -153.15
Q 200.15 -175.2 196.45 -185.75 192.75 -196.2 180.9 -203.25 169.1 -210.3 150.95 -210.3
M 285.95 -206.95
L 226.45 -206.95 205.6 -48.85 248.05 -48.85 250.5 -77.25 265.25 -77.25 267.4 -48.85 309.5 -48.85 285.95 -206.95
M 264.15 -105.3
L 250 -105.3
Q 251.55 -126.3 257.9 -171.7 261.05 -132.15 264.15 -105.3 Z"/>
</g>
</defs>

<g transform="matrix( 1, 0, 0, 1, 0,0) ">
<use xlink:href="#Layer0_0_FILL"/>
</g>
</svg>
