
<svg xmlns="http://www.w3.org/2000/svg" version="1.1" xmlns:xlink="http://www.w3.org/1999/xlink" preserveAspectRatio="none" x="0px" y="0px" width="1920px" height="1080px" viewBox="0 0 1920 1080">
<defs>
<g id="Layer0_0_FILL">
<path fill="#231F20" stroke="none" d="
M -162.95 -24.9
L -162.95 -5.75 -143.25 -6.75 -126.8 -6.75 -126.8 -0.1 -150.65 -0.1 -172.15 -1 -172.15 19.1 -150.65 18.2 -134.55 18.2
Q -151.1 28.9 -174.55 33.1 -168.35 43.3 -164.4 56.15 -144.6 49.6 -132.55 42.85
L -125.2 49.65
Q -149.45 58.5 -160.7 60
L -153 84.1 -143.6 80.1 -116.55 69.75
Q -115 75.05 -113.4 84.85
L -98.3 85.55
Q -83.1 85.55 -77.75 80.9 -72.45 76.1 -72.45 62.55
L -72.45 58.65
Q -64 65.4 -59.25 68.1 -43.6 77.75 -18.1 84.3 -13 72.45 -5.6 62.15 -32 57.4 -47.1 49.15
L -39.55 42.85
Q -25.05 50.5 -7.6 55.95 -3.45 42.75 2.65 32.2 -22.15 28.15 -38.55 18.2
L -22.7 18.2
Q -9.95 18.2 -1.2 19.1
L -1.2 -1
Q -11.9 -0.1 -22.7 -0.1
L -46.35 -0.1 -46.35 -6.75 -29.35 -6.75
Q -19.65 -6.75 -9.5 -5.75
L -9.5 -24.9
Q -19.3 -24 -29.35 -24
L -46.35 -24 -46.35 -30.15 -15.5 -29.75
Q -16.3 -36.15 -16.3 -46.85
L -16.3 -66.55
Q -16.3 -77.35 -15.5 -83.75 -23.45 -82.95 -34.95 -82.95
L -137.35 -82.95 -156.65 -83.75 -155.95 -66.55 -155.95 -46.7 -156.65 -29.6 -126.8 -30.15 -126.8 -24 -143.25 -24 -162.95 -24.9
M -129.05 -61.8
L -129.05 -67.1 -43.4 -67.1 -43.4 -61.8 -129.05 -61.8
M -129.05 -44.45
L -129.05 -49.5 -43.4 -49.5 -43.4 -44.45 -129.05 -44.45
M -100.9 -24
L -100.9 -30.15 -72.3 -30.15 -72.3 -24 -100.9 -24
M -100.9 -0.1
L -100.9 -6.75 -72.3 -6.75 -72.3 -0.1 -100.9 -0.1
M -72.45 32.95
Q -72.45 26.2 -71.75 22.95
L -99.35 22.95 -98.8 32.95 -98.8 56.85
Q -98.8 59.4 -99.8 60 -100.8 60.75 -104.6 60.75
L -108.45 46 -102.15 39.95 -113.05 29.4
Q -107.65 24.65 -101.8 18.2
L -70.65 18.2
Q -64.7 24.85 -59.05 29.6 -65.8 35.65 -72.45 39.95
L -72.45 32.95
M -72.45 40.5
L -61.85 48.4 -72.45 57.75 -72.45 40.5
M 71.95 -52.15
L 42.9 -52.15
Q 29.75 -52.15 18.95 -53.5
L 18.95 -22.4
Q 28.65 -23.65 41.9 -23.65
L 70.3 -23.65
Q 67.25 2.95 57 19.6 43.35 42.45 10.05 57.2 21.8 68.3 31.25 85 60.6 68.75 75.8 48.6 95.7 21.95 101.1 -23.65
L 143.45 -23.65
Q 143.2 34.65 138.5 46.35 136.35 51.9 123.6 51.9 115.4 51.9 98.85 49.5 104.25 62.6 106.2 80.6 120.45 81.7 129.8 81.7 147.4 81.7 156.5 76.75 165.85 71.55 168.45 56.7 172.8 31.4 173.7 -33.8 173.7 -43.9 174.6 -53.15 165.85 -52.15 148.75 -52.15
L 103.5 -52.15 103.7 -58.45
Q 104.4 -80.05 105.3 -85.55
L 70.7 -85.55
Q 71.95 -77.55 71.95 -62.9
L 71.95 -52.15 Z"/>
</g>
</defs>

<g transform="matrix( 1, 0, 0, 1, 0,0) ">
<use xlink:href="#Layer0_0_FILL"/>
</g>
</svg>
