
<svg xmlns="http://www.w3.org/2000/svg" version="1.1" xmlns:xlink="http://www.w3.org/1999/xlink" preserveAspectRatio="none" x="0px" y="0px" width="1920px" height="1080px" viewBox="0 0 1920 1080">
<defs>
<g id="Layer0_0_FILL">
<path fill="#231F20" stroke="none" d="
M -164.65 -63.5
Q -163.6 -52.7 -163.6 -39.2 -163.6 10.55 -168.9 35.65 -172.5 51.85 -181.05 65.9 -170.15 74.7 -158.9 88.75 -147.1 71.45 -141.8 45.4 -139 54.75 -137.6 65.7
L -130.9 65.9
Q -120.5 65.9 -111.75 63.8 -104 73.9 -98.15 85.95 -76.3 73.25 -61.3 58.5 -42.3 85.75 -26.65 85.75 -10.3 85.75 -3.45 46.1 -14.5 39.45 -24.65 29.55 -26.9 46.35 -29.8 53.3 -35.75 48.25 -42.5 36.55 -28.1 16.4 -17.85 -9.5
L -14.3 -18.3 -41.2 -28.3
Q -43.65 -13.1 -53.55 6.15 -57.25 -10.65 -58.7 -36.75
L -31.25 -36.75
Q -17.1 -36.75 -7.15 -35.7
L -7.15 -63.5
Q -13.6 -62.6 -25.4 -62.6
L -14.5 -71.6
Q -24.85 -81 -37.9 -88.75
L -55.6 -72.3
Q -49.7 -69.05 -40.85 -62.6
L -59.5 -62.6 -59.5 -71.2 -58.5 -84.55 -88.55 -84.55
Q -87.85 -79.3 -87.45 -62.6
L -139.55 -62.6 -164.65 -63.5
M -136.15 -17.6
L -135.85 -36.75 -86.4 -36.75
Q -83.7 5.9 -73.8 33.95 -84.15 44.55 -99.05 53.85 -94.5 43.85 -93.3 15.6
L -91.85 -18.15 -104 -17.6 -136.15 -17.6
M -140.75 39
Q -138.4 23.7 -137.2 7.4
L -119.85 7.4
Q -120.65 31.9 -122.65 36.4 -124.25 40.05 -129.85 40.05
L -140.75 39
M -349.65 -53.95
Q -357.55 -53.95 -361.4 -54.85
L -361.4 -28.1
Q -357.55 -29 -349.65 -29
L -345.95 -29
Q -350.9 -1.5 -366.65 20.55 -359.6 33.7 -354.6 47.8 -348.35 38.1 -343.6 22.7
L -344.15 42.25 -344.15 64.55
Q -344.15 79.05 -345.4 88.3
L -316.7 88.3
Q -317.8 78.4 -317.8 64.55
L -317.8 26.05 -318.3 8.05
Q -314.9 15.95 -310.95 21.45 -306.7 10.85 -301.75 2.45
L -301.6 36.75
Q -308.85 36.45 -310.75 36
L -310.75 59.95 -301.6 59.4 -301.6 63.1
Q -301.6 78.85 -302.65 88.1
L -275.6 88.1
Q -276.3 80.75 -276.3 63.1
L -276.3 59.4 -225.45 59.4 -225.45 63.8
Q -225.45 66.05 -226.8 66.7 -228.25 67.35 -232.85 67.35
L -245 66.25
Q -241.3 75.6 -240.4 87.05
L -228.25 87.4
Q -210.8 87.4 -205.5 83.8 -200.2 80.1 -200.2 68.05
L -200.2 59.4 -190.5 60.15 -190.5 35.85 -200.2 36.55 -200.2 12.45
Q -200.2 2.55 -199.45 -5.1 -205.4 -4.35 -215.85 -4.35
L -238.35 -4.35 -238.35 -9.5 -207.55 -9.5
Q -198.2 -9.5 -190.85 -8.8
L -190.85 -29.9
Q -199.75 -29 -207.4 -29
L -216.05 -29 -216.05 -34.35 -209.8 -34.35
Q -201.55 -34.35 -197.5 -33.8
L -197.5 -50.95 -216.05 -50.25 -216.05 -55.75 -207.75 -55.75
Q -198.95 -55.75 -193 -55
L -193 -74.7 -207.75 -73.8 -216.05 -73.8
Q -216.05 -80.75 -214.95 -84.55
L -242.95 -84.55
Q -242.1 -81.65 -241.85 -73.8
L -259.75 -73.8
Q -259.75 -80.95 -258.6 -84.55
L -286.65 -84.55
Q -285.5 -80.5 -285.5 -73.8
L -290.15 -73.8
Q -299 -73.8 -304.45 -74.7
L -304.45 -55 -285.5 -55.75 -285.5 -50.25 -301.4 -50.95 -301.4 -33.8 -285.5 -34.35 -285.5 -29 -291.8 -29
Q -301.75 -29 -306 -29.75
L -306 -54.65 -317.8 -53.95 -317.8 -66.45
Q -317.8 -79.4 -316.9 -85.6
L -345.4 -85.6
Q -344.3 -77.85 -344.3 -66.45
L -344.3 -53.95 -349.65 -53.95
M -259.75 -50.25
L -259.75 -55.75 -241.85 -55.75 -241.85 -50.25 -259.75 -50.25
M -316.25 -29
L -306.55 -28.5 -306.55 -10.2
Q -312.75 -18.7 -316.25 -29
M -301.6 -4.75
L -305.65 -8.95 -290.35 -9.5 -264.5 -9.5 -264.5 -4.35 -301.6 -4.75
M -259.75 -29
L -259.75 -34.35 -241.85 -34.35 -241.85 -29 -259.75 -29
M -225.45 18.65
L -240.05 18.65 -240.05 12.45 -225.45 12.45 -225.45 18.65
M -225.45 39.35
L -240.05 39.35 -240.05 32.7 -225.45 32.7 -225.45 39.35
M -262.45 18.65
L -276.3 18.65 -276.3 12.45 -262.45 12.45 -262.45 18.65
M -262.45 39.35
L -276.3 39.35 -276.3 32.7 -262.45 32.7 -262.45 39.35
M 236.85 -70.7
L 218.4 -70.7
Q 206.2 -70.7 199.05 -71.6
L 199.05 -51.7 218.4 -52.4 260.25 -52.4 260.25 -47.45 228.95 -47.45 209.95 -48 209.95 -31.1 228.95 -31.65 260.25 -31.65 260.25 -26.4 210.3 -26.4
Q 197.45 -26.4 190.8 -27.4
L 190.8 -7.45
Q 197.65 -8.25 210.3 -8.25
L 257.1 -8.25
Q 238.2 -3.65 195.95 -2.85 200.4 3.65 203.65 11.1
L 227.6 9.65 227.6 14.25 209.8 14.25
Q 197.9 14.25 190.8 13.35
L 190.8 33.95
Q 198.1 32.85 209.8 32.85
L 227.6 32.85 227.6 40.25 200.7 40.8 192.05 40.6 195.95 61.4 200.7 60.65 227.6 59.05 227.6 63.45
Q 227.6 65.8 226.5 66.35 225.45 66.95 220.95 66.95
L 202.6 66.05
Q 207.55 76.95 209.6 87.75
L 225.6 87.95
Q 242.8 87.95 248.3 83.7 253.6 79.4 253.6 68.4
L 253.6 57 277.9 54.1 278.05 36.4 253.6 39 253.6 32.7 282.55 32.7
Q 285.9 43.4 292.65 54.45 276.65 61.4 257.45 64.55 264.65 74.25 269.6 86.15 291 79.3 306.15 71.4 323.85 87.75 341.5 87.75 351.05 87.75 356.7 81.2 362.25 74.55 366.7 58 358.15 53.1 348.15 43.75 345.8 54.9 343.85 58.85 341.95 62.75 338.9 62.75 335.35 62.75 328.35 57.35 339.25 49.35 342.2 45.75
L 345.7 42.25 331.7 32.35 342.55 32.35
Q 357.15 32.35 362.1 33.25
L 362.1 12.65
Q 355.7 13.7 342.55 13.7
L 335.9 13.7 349.6 4.9
Q 340.3 -2.75 330.8 -8.25
L 342.75 -8.25
Q 355 -8.25 362.1 -7.25
L 362.1 -27.4
Q 355.45 -26.4 342.75 -26.4
L 288.95 -26.4 288.95 -31.65 323.6 -31.65 342.55 -31.1 342.55 -48
Q 337.45 -47.45 323.6 -47.45
L 288.95 -47.45 288.95 -52.4 334.85 -52.4
Q 345.8 -52.4 354.2 -51.7
L 354.2 -71.6
Q 347.25 -70.7 334.85 -70.7
L 316.55 -70.7 324.5 -81.55 295.95 -86.35
Q 293.1 -78.75 288.05 -70.7
L 265.2 -70.7
Q 260.5 -78.15 253.95 -86.15
L 228.5 -81.4 236.85 -70.7
M 319.7 -8.25
L 305.95 -0.15
Q 316.5 6.8 324.75 13.9
L 304.8 13.9 303.15 0.05 303.7 -4.75 275.75 -4.75 278.25 14.05 253.6 14.05 253.6 7.05 274.4 3.75 261.15 -8.25 319.7 -8.25
M 314.75 42.5
L 310.2 32.5 326.2 32.5
Q 322.8 36.85 314.75 42.5
M 74.3 -87.75
L 54.4 -68.8
Q 78 -61.5 97.3 -52.05
L 40.2 -52.05
Q 24.1 -52.05 15 -53.15
L 15 -24.95
Q 22.85 -25.7 40.8 -25.7
L 76.55 -25.7 76.55 0.5 45.05 0.5
Q 32.3 0.5 24.2 -0.5
L 24.2 27.4
Q 33 26.4 47.55 26.4
L 76.55 26.4 76.55 56.1 36.95 56.1
Q 19.25 56.1 8.15 54.85
L 8.15 83.7
Q 20.3 82.45 38.05 82.45
L 148.95 82.45
Q 163.35 82.45 176.75 83.7
L 176.75 54.85
Q 163.35 56.1 147.95 56.1
L 105.8 56.1 105.8 26.4 139 26.4
Q 151.75 26.4 159.85 27.4
L 159.85 -0.5
Q 151.05 0.5 138.1 0.5
L 105.8 0.5 105.8 -25.7 143.95 -25.7 169.4 -24.95 169.4 -53.15
Q 157.5 -52.05 143.75 -52.05
L 111.35 -52.05 125.75 -68.05
Q 100.3 -80.05 74.3 -87.75 Z"/>
</g>
</defs>

<g transform="matrix( 1, 0, 0, 1, 0,0) ">
<use xlink:href="#Layer0_0_FILL"/>
</g>
</svg>
