
<svg xmlns="http://www.w3.org/2000/svg" version="1.1" xmlns:xlink="http://www.w3.org/1999/xlink" preserveAspectRatio="none" x="0px" y="0px" width="1920px" height="1080px" viewBox="0 0 1920 1080">
<defs>
<g id="Layer0_0_FILL">
<path fill="#231F20" stroke="none" d="
M -107.4 -76.15
L -107.2 -73.9
Q -107.2 -60.7 -112.45 -37.65 -116.15 -49.35 -119.55 -56.8
L -130.05 -52.2 -130.05 -66.45
Q -130.05 -78.6 -129.15 -86.85
L -158.05 -86.85
Q -156.95 -79.1 -156.95 -66.45
L -156.95 61.65
Q -156.95 76.15 -158.05 86.85
L -129.15 86.85
Q -130.05 78.6 -130.05 63.65
L -130.05 -43.6
Q -126.2 -31.25 -124.6 -22.15
L -115.5 -26.6
Q -118.2 -19.3 -122.35 -12.2 -108.95 -6.15 -98.75 0.5
L -110 -0.4 -110 26.85 -102.8 26.3 -74.3 25.95 -74.3 55.4 -101 55.4
Q -116.3 55.4 -124.05 54.3
L -124.05 82.8
Q -115.15 81.75 -101 81.75
L -28.4 81.75
Q -14.2 81.75 -5.4 82.8
L -5.4 54.3
Q -13.4 55.4 -28.4 55.4
L -46.05 55.4 -46.05 25.95 -33.7 25.95
Q -19.85 25.95 -12.1 26.85
L -12.1 -0.4
Q -18.85 0.5 -33.35 0.5
L -46.05 0.5 -46.05 -25.3 -30.05 -25.3
Q -18.25 -25.3 -8.9 -24.25
L -8.9 -52.6
Q -16.1 -51.5 -30.2 -51.5
L -46.05 -51.5 -46.05 -66.15
Q -46.05 -78.95 -44.95 -86.7
L -75.35 -86.7
Q -74.3 -78.65 -74.3 -66.15
L -74.3 -51.5 -83.45 -51.5 -80.5 -71.4 -107.4 -76.15
M -88.6 -25.3
L -74.3 -25.3 -74.3 0.5 -97.15 0.5
Q -92.65 -8.6 -88.6 -25.3
M -175.4 -43.6
Q -175.4 -23.7 -180 -3
L -164.15 3.45
Q -159.95 -18.05 -159.95 -48.9
L -175.6 -51.15 -175.4 -43.6
M 77.95 -89.65
Q 67.3 -86.15 55.8 -84.8 39.05 -82.45 23.6 -82.45
L 16.55 -82.65 17.1 -74.2
Q 17.1 -43.5 4.05 -29.9 13.5 -20.45 22.35 -3.35
L 26.4 -8.5 26.4 34.4 25.55 56.9 45.55 56.1 54.7 56.1
Q 38.15 63.55 6.4 64.8 14.15 75.9 19.55 89.65 39.7 86.95 52.45 83 64.9 79.15 83.85 69.75
L 64.7 56.1 120.3 56.1 101.7 68.35
Q 115.35 76.05 127.7 80.5 144.8 86.25 167.45 89.45 173 74.25 180.05 64.45 150.35 63.45 131 56.1
L 141.55 56.1
Q 154.3 56.1 161.25 56.9 160.45 50.95 160.45 35.5
L 160.45 -4.25
Q 160.45 -20.75 161.25 -27.85
L 154.75 -27.5 154.75 -38.35 164.75 -38.35
Q 172.05 -38.35 177.8 -37.45
L 177.8 -60.85
Q 172.4 -60.15 164.4 -60.15
L 122.2 -60.15 122.55 -64.2
Q 149.55 -65 174.1 -68.6
L 159.15 -89.2
Q 134.7 -82.45 101.5 -82.45
L 95.3 -82.8 95.65 -75.05
Q 95.65 -54.9 89.35 -41.5
L 89.35 -60.85 77.05 -60.3 43.85 -60.3 44 -64
Q 71.2 -64.9 91.95 -68.8
L 77.95 -89.65
M 36.45 -27.3
L 40.15 -38.35 49.75 -38.35 49.75 -27.3 36.45 -27.3
M 75.7 -27.3
L 75.7 -38.35 87.45 -38 84.05 -33.05 92.85 -27.3 75.7 -27.3
M 54.2 -2.65
L 54.2 -8.7 132.65 -8.7 132.65 -2.65 54.2 -2.65
M 114 -27.3
L 118.05 -38.35 128.4 -38.35 128.4 -27.3 114 -27.3
M 132.65 31.1
L 132.65 37.1 54.2 37.1 54.2 31.1 132.65 31.1
M 132.65 11
L 132.65 17.05 54.2 17.05 54.2 11 132.65 11 Z"/>
</g>
</defs>

<g transform="matrix( 1, 0, 0, 1, 0,0) ">
<use xlink:href="#Layer0_0_FILL"/>
</g>
</svg>
