
<svg xmlns="http://www.w3.org/2000/svg" version="1.1" xmlns:xlink="http://www.w3.org/1999/xlink" preserveAspectRatio="none" x="0px" y="0px" width="1920px" height="1080px" viewBox="0 0 1920 1080">
<defs>
<g id="Layer0_0_FILL">
<path fill="#231F20" stroke="none" d="
M -251 123.2
Q -264.15 163.7 -274 177.2
L -250.8 198.7 -243.8 182.7
Q -235.9 163 -229.5 139.4
L -251 123.2
M -257.65 71.75
L -273.85 93
Q -255.75 103.95 -239.55 117.45
L -223.55 94.05
Q -240.35 81.4 -257.65 71.75
M -320.6 52.4
Q -316.4 77.4 -308.5 97.95 -305.25 106.5 -298.75 118.6
L -313.25 111.05
Q -320 139.7 -351.2 159.3 -364.7 168 -385.65 173.85
L -385.65 119.15
Q -379 126.25 -373.5 133.45 -365.45 116.65 -361 97.4 -356.05 77.25 -354 52.75
L -377.55 46.9
Q -378.55 69.15 -385.3 90.35
L -385.3 89.5 -396.2 90 -414.3 90
Q -408 73.3 -404.45 55.75
L -381.8 56.45 -381.8 29.4
Q -389.45 30.35 -401.5 30.35
L -433.25 30.35
Q -445.05 30.35 -452.4 29.4
L -452.4 56.45 -431.9 55.75
Q -434.05 67.45 -438.55 78.75 -446.75 98.55 -457.2 109.55 -452.15 124.55 -450.15 144.55 -445.5 139.85 -441.7 134.1
L -441.9 176.45 -442.8 196.15 -417.35 196.15 -417.35 180.9 -409.05 180.9 -409.05 189.5 -385.3 189.5 -385.65 177.9
Q -379.1 188.6 -375.4 200.75 -357.35 195 -344.65 187.55 -318.2 172.5 -304.05 151.2 -296.8 140.2 -292.8 131.65
L -288.95 123.75 -297.95 119.15
Q -287.6 105.85 -279.25 98.3 -287.7 83.65 -291.55 73.35 -295.25 63.4 -298.95 45.85
L -320.6 52.4
M -417.95 115.3
L -408.7 115.3 -408.7 157.65 -417.95 157.65 -417.95 115.3
M -323.25 43.25
Q -323.25 32.9 -322.5 25.5
L -351.05 25.5
Q -350.15 32.45 -350.15 42.7
L -350.15 115.65
Q -350.15 120.95 -354.55 120.95
L -366.85 119.9
Q -363.35 130.3 -361.55 145.15 -359.15 145.35 -356.05 145.35 -339.95 145.35 -332.75 142 -323.25 137.15 -323.25 122.65
L -323.25 43.25
M -154.8 34.95
L -154.8 36.4 -174.9 36.4 -174.9 34.95 -174.15 25.5 -201.6 25.5 -200.9 34.95 -200.9 36.4 -223.75 35.5 -223.75 44.15
Q -235.35 34.8 -251.55 25.35
L -269.25 46
Q -252.5 56.65 -237.6 70.15
L -223.75 52.4 -223.75 60.95
Q -217.25 59.95 -205.45 59.95
L -200.9 59.95 -200.9 66.8 -220.05 66.25 -219.5 81.9 -219.5 115.1
Q -219.5 125.35 -220.05 130.4
L -204.75 129.85 -180.65 129.85 -181 136.1 -204.55 136.1
Q -220.15 136.1 -227.25 135.35
L -227.25 160.65
Q -219.25 159.65 -205.3 159.65
L -190.35 159.65
Q -197.55 166.85 -210.7 170.9 -220.65 173.85 -236.95 175.1 -228.05 187.65 -223.35 200.05 -196.75 194.8 -180.45 184.05 -172.55 178.35 -166.8 171.6 -146.55 192.15 -108.2 199.7 -103.9 185.4 -96.95 173.15 -129.45 171.35 -144.45 159.65
L -122.25 159.65
Q -107.95 159.65 -100.85 160.65
L -100.85 135.2
Q -107.95 136.1 -122.45 136.1
L -153.9 136.1 -153.55 129.85 -123.5 129.85
Q -116.4 129.85 -108.4 130.4 -109.1 124.2 -109.1 113.6
L -109.1 81.2
Q -109.1 72.4 -108.4 66.25 -115.6 66.8 -124.75 66.8
L -128.8 66.8 -128.8 59.95 -121.45 59.95
Q -109.55 59.95 -100.65 60.95
L -100.65 35.3
Q -108.95 36.4 -121.9 36.4
L -128.8 36.4 -128.8 34.95 -128.1 25.5 -155.55 25.5 -154.8 34.95
M -136.55 84.15
L -136.55 90.2 -193.5 90.2 -193.5 84.15 -136.55 84.15
M -154.8 59.95
L -154.8 66.8 -174.9 66.8 -174.9 59.95 -154.8 59.95
M -136.55 106.2
L -136.55 112.5 -193.7 112.5 -193.7 106.2 -136.55 106.2
M -31.9 35.3
L -66 32.55
Q -66.4 38.45 -68.8 52.25 -75.75 91 -75.75 123.2 -75.75 147.6 -70.95 181.4
L -70.05 191.15 -38.4 189.7 -38.95 180.7
Q -38.95 154 -31.75 129.05
L -45.95 124.3
Q -43.9 70.15 -31.9 35.3
M -55.15 -182.1
L -76.35 -156.1
Q -49.55 -141.7 -26.25 -117.25
L -4.5 -146
Q -24.45 -164.1 -55.15 -182.1
M -314.95 -193
Q -306.3 -181.45 -298.95 -164
L -281.2 -170.5
Q -288.4 -187.15 -297.6 -198.85
L -314.95 -193
M -199.6 -149.35
Q -201.25 -158.95 -201.25 -165.2
L -231.45 -160.75
Q -229.15 -153.95 -227.6 -145.05
L -225.6 -133.4 -236.6 -131.6
Q -246.2 -130.1 -256.1 -129.55
L -251.15 -101.4
Q -243 -103.9 -232.9 -105.6
L -220.95 -107.7 -211.05 -50.2
Q -208.15 -34.45 -207.7 -24.55
L -175.7 -30.15
Q -178.55 -38.95 -181.7 -55.7
L -192.6 -112.45 -152.05 -119.5
Q -162.45 -101.6 -179.75 -90.35 -167.05 -83.65 -156.25 -72.7 -130.25 -95.1 -119.45 -124.95 -117.05 -132.15 -114.85 -134.95
L -132.15 -150.8
Q -135.75 -148.35 -143.05 -147.3
L -197.35 -138.3 -199.6 -149.35
M -434.7 -28.05
L -421.65 -31.2
Q -370.45 -39.95 -338.15 -64.4 -305.8 -89 -288.25 -132.35 -302.55 -141 -315.3 -155.4 -335 -95.55 -387.2 -74.85 -416.8 -63.05 -443.9 -63.05
L -434.7 -28.05
M -432.25 -143.6
L -449.25 -117.25
Q -418.35 -105.45 -396.55 -88.55
L -380.9 -117.4
Q -401.75 -131.6 -432.25 -143.6
M -382 -136.2
L -365.6 -164.45
Q -386.4 -177.05 -418.5 -188.75
L -434.9 -162.55
Q -408.8 -154.05 -382 -136.2
M -341.5 -184.35
Q -332.4 -172 -325.2 -154.5
L -307.05 -161.15
Q -313.9 -178.15 -323.25 -190.35
L -341.5 -184.35
M 6.6 141.2
Q 6.6 131.65 18.9 115.85
L -6.9 104.95 -15.55 118.15
Q -24.35 133 -24.35 146.95 -24.35 155.95 -19.8 163.9 -15.2 171.8 -7.45 176.3 6.5 184.05 30.7 184.05 46.45 184.05 62.65 181.6
L 78.3 179.35 76.4 146.8
Q 55.15 154.35 30.5 154.35 6.6 154.35 6.6 141.2
M 58.15 80.3
L 71.8 78.95 70.55 47.45
Q 52.35 52.05 15.6 52.05 -4.2 52.05 -17.15 49.35
L -17.7 80.5 -12.4 80.85
Q 2.6 82.3 19.25 82.3 38.15 82.3 58.15 80.3
M 113.8 81.65
Q 107.8 89.3 95.9 98.85 106.15 104.7 116.95 115.3 128.3 104.75 134.35 96.6 140.45 88.4 147.75 73.65
L 124.35 62.95
Q 119.95 73.9 113.8 81.65
M 266.95 36.75
Q 256.95 37.9 243.2 37.9
L 198.05 37.9 198.05 35.5
Q 198.05 30.55 198.95 24.95
L 166.9 24.95 167.6 37.9 123 37.9
Q 108.5 37.9 99.6 36.75
L 99.6 63.85
Q 109.05 62.75 120.65 62.75
L 154.6 62.75
Q 154.3 74.25 151.6 82.1 149.1 90.1 144.15 95.4 139.3 100.65 129.3 106.05 140.9 113.5 148.3 121.15 142.25 126.1 131.7 131.5 119.85 137.5 102.4 141.5 113.1 152.8 118.6 164.85 132.1 160.55 144.25 154.15 148.55 158.75 156.9 165.25 131.65 172.4 102.05 172.4
L 94.65 172.4
Q 103.4 184.65 107.9 198.7 132.25 196.6 148.8 192.85 165.35 189.05 184.35 181.25 212.4 193.5 257.85 199.5 262.45 185.4 271.15 170.7 236.8 170.25 213.5 164.5 227.65 154.6 239.15 143.1
L 246.45 135.9 230.95 119.35
Q 225.2 120.25 215.65 120.25
L 184.35 120.25 190.1 112.7 191 112.7
Q 205.25 112.7 210.15 111.25 219 108.1 219 96.65
L 219 80.3
Q 232.75 94.05 245.9 115.5
L 269.1 98.45
Q 253.9 80.3 237.25 65
L 219 76.05 219 62.75 244.1 62.75
Q 256.7 62.75 266.95 63.85
L 266.95 36.75
M 181.2 62.75
L 193.1 62.75 193.1 86.85
Q 193.1 89.5 189.75 89.5 183.65 89.5 178.15 88.6 182.55 99.65 184 110.7
L 169.05 106.55
Q 179.95 91.45 181.2 62.75
M 164.85 140.85
L 203 140.85
Q 194.7 148.3 184.55 154 173 148.15 164.85 140.85
M 425.9 90.55
L 425.9 62.2
Q 425.9 46.4 426.8 38.8 419.7 39.55 403.8 39.55
L 374 39.55 381.2 25.5 350.45 22.8
Q 347.9 31.9 343.6 39.55
L 332 39.55
Q 315.6 39.55 307.95 38.65
L 308.8 58 308.8 120.05 296 120.25 285.4 119.9 288.45 147.15 298.05 146.05
Q 328.3 144.1 364.75 140.65 329.55 161.1 282.95 172.05 291.5 183.05 296.8 197.95 354.4 180.9 398.85 149.2
L 398.85 167.55
Q 398.85 171.05 391.1 171.05 384.25 171.05 367.9 169.25 373.75 183.05 375.25 196.55
L 393 196.9
Q 410.6 196.9 417.3 193.55 425.9 189.25 425.9 176.1
L 425.9 127.25
Q 438.6 115.5 444.2 109
L 454.35 98.1 436.8 76.95
Q 433.75 81.55 425.9 90.55
M 336.05 92.8
L 336.05 86.35 398.85 86.35 398.85 92.8 336.05 92.8
M 336.05 68.05
L 336.05 61.7 398.85 61.7 398.85 68.05 336.05 68.05
M 398.85 111.05
L 398.85 116.2 336.05 119.35 336.05 111.05 398.85 111.05
M 397.2 -166.45
Q 397.4 -179.2 398.65 -187.85
L 364 -187.85 364.75 -173.45 363.85 -57.75
Q 363.85 -48.15 361.75 -42.3
L 377.7 -25.65
Q 380.1 -27.15 386.7 -29.5 411.25 -38.5 425.35 -50.55 445.25 -67.55 457.2 -97.35 444.25 -107.35 432.75 -121.65 428 -103.85 418.35 -90.15 410 -78.55 396.2 -69.9
L 397.2 -166.45
M 257.3 -166.8
L 274.85 -173.3
Q 267.75 -189.75 259.55 -200.7
L 242.2 -194.95
Q 249.85 -184.45 257.3 -166.8
M 311.65 -186.85
L 312.45 -169.95
Q 312.45 -134.05 309.85 -114.55 307.35 -94.85 300.85 -81.35 292.95 -64.6 278.9 -52 293.3 -41.85 305.25 -26.3 322.65 -44.65 330.8 -63.05 337.55 -78.3 340.55 -95.75 343.7 -113.45 344.5 -142.15 345.75 -178.6 346.55 -184.9
L 311.65 -186.85
M 53 -162.55
Q 45.45 -142.4 34.9 -126.5 14.7 -94.85 -19.05 -80.95 -45.5 -70 -74.5 -67.65
L -64.95 -32.3 -51.65 -35.65
Q -26.1 -41.55 -10.4 -47.6 5.05 -53.55 20 -63.25 39.4 -75.65 53.45 -93.2 67.5 -110.65 80.1 -137.9 63.25 -150.25 53 -162.55
M 154.15 -194.4
Q 153.3 -186.6 146.2 -172.4 128.85 -137.9 97.25 -116.15 111.55 -107.6 123.35 -94 148.1 -112.9 165.2 -140.25
L 214.2 -140.8
Q 194 -77 121.9 -51.1 135.7 -39.3 144.05 -22.95 185.5 -41.55 210.15 -68.75 234.85 -95.9 247.95 -137.3 251.3 -147.35 252.75 -149.9
L 243.35 -162.75 249.05 -164.8
Q 242.9 -180.95 233.75 -193
L 215.5 -187.05
Q 222.05 -177.85 226 -169.4
L 180.15 -169.05 181.65 -172.2
Q 182.55 -174.2 183.8 -176.95
L 188.95 -188.2 154.15 -194.4 Z"/>
</g>
</defs>

<g transform="matrix( 1, 0, 0, 1, 0,0) ">
<use xlink:href="#Layer0_0_FILL"/>
</g>
</svg>
