
<svg xmlns="http://www.w3.org/2000/svg" version="1.1" xmlns:xlink="http://www.w3.org/1999/xlink" preserveAspectRatio="none" x="0px" y="0px" width="1920px" height="1080px" viewBox="0 0 1920 1080">
<defs>
<g id="Layer0_0_FILL">
<path fill="#231F20" stroke="none" d="
M -464.7 147.25
Q -471.9 142.45 -484.55 130.7 -511.3 106.2 -540.8 73.2 -552.05 60.35 -558 56.45 -563.9 52.6 -572.1 52.6 -579.65 52.6 -586.05 56.1 -592.35 59.6 -601.55 71.4 -634.25 112.85 -643 118.15
L -621.05 149.65 -614.3 141.2
Q -597.05 120.5 -581.1 99.55
L -574.55 91.2
Q -573.3 89.9 -571.4 89.9 -568.6 89.9 -564.75 94.4 -514.55 151.75 -481.05 182.7
L -464.7 147.25
M -485.3 75.9
Q -479.25 69.75 -479.25 61.25 -479.25 52.5 -485.3 46.45 -491.3 40.45 -499.85 40.45 -508.6 40.45 -514.6 46.45 -520.65 52.5 -520.65 61.25 -520.65 69.75 -514.55 75.9 -508.4 82 -499.85 82 -491.3 82 -485.3 75.9
M -499.85 50.7
Q -495.75 50.7 -492.65 53.85 -489.5 57 -489.5 61.25 -489.5 65.35 -492.65 68.4 -495.8 71.55 -500.05 71.55 -504.2 71.55 -507.25 68.4 -510.4 65.35 -510.4 61.25 -510.4 56.9 -507.25 53.85 -504.2 50.7 -499.85 50.7
M -294 47.35
L -323.9 27.5
Q -332.55 42.4 -357.45 61.25 -399.2 93.35 -455.25 109.1 -443.75 123.5 -437.6 138.8 -402.5 126.25 -377.35 111.5
L -377.35 162.35
Q -377.35 180.35 -378.4 192.05
L -342.7 192.05
Q -343.75 180.05 -343.75 162.15
L -343.75 91.25
Q -322.45 76 -301.2 54.2
L -294 47.35
M -189.05 73.75
Q -209 55.65 -239.7 37.65
L -260.9 63.65
Q -234.1 78.05 -210.8 102.5
L -189.05 73.75
M -131.55 57.2
Q -139.1 77.35 -149.65 93.25 -169.85 124.9 -203.6 138.8 -230.05 149.75 -259.05 152.1
L -249.5 187.45 -236.2 184.1
Q -210.65 178.2 -194.95 172.15 -179.5 166.2 -164.55 156.5 -145.15 144.1 -131.1 126.55 -117.05 109.1 -104.45 81.85 -121.3 69.5 -131.55 57.2
M -257.25 -64.95
L -247.95 -30.15 -234.9 -33.1
Q -214.85 -36.9 -201.35 -41.2 -157.45 -55.15 -130.3 -86.35 -114.35 -104.3 -101.5 -134.4 -113.9 -142.05 -128.4 -157.25 -136.65 -133.5 -148.65 -116.8 -168.6 -89.5 -200.3 -77.1 -229.7 -65.6 -257.25 -64.95
M -245.6 -145.5
L -262.55 -119.1
Q -232.95 -107.8 -209.8 -90.6
L -194.15 -119.5
Q -216.4 -134.05 -245.6 -145.5
M -178.85 -166.55
Q -201.1 -179.5 -231.75 -190.65
L -248.15 -164.65
Q -221.7 -155.45 -195.35 -138.3
L -178.85 -166.55
M -394.6 -196.75
Q -395.85 -187.95 -402.6 -174.65 -419.7 -140.9 -451.55 -118.4 -437.15 -109.65 -425.45 -96.25 -400.25 -116.15 -383.65 -142.5
L -334.6 -143.15
Q -344.65 -111.75 -365.35 -90.8 -389.1 -67.05 -426.9 -53.2 -412.95 -40.95 -404.75 -25.2 -361.05 -45.15 -336.95 -72.7 -312.85 -100.15 -298.9 -145.65 -296.2 -154.4 -293.5 -158.8
L -308.8 -173.9
Q -314.2 -171.85 -322.45 -171.85
L -368.7 -171.3 -359.8 -190.45 -394.6 -196.75
M -487.2 -185.7
Q -491.75 -183.65 -503 -183.65
L -599.55 -183.65
Q -618.45 -183.65 -629.4 -185.35
L -629.4 -153.05
Q -617 -154.4 -600.1 -154.4
L -512.2 -154.4
Q -522.45 -133.5 -543.15 -123
L -547.35 -120.85
Q -547.35 -122.65 -547.2 -127.2 -547 -138.3 -546.3 -143.15
L -580.9 -143.15
Q -579.85 -138.3 -579.85 -130.35 -579.85 -111.9 -582.45 -100.95 -585.15 -89.95 -591.8 -81.4 -604.5 -65.15 -634 -55.8 -626.1 -47.8 -622.2 -42.2 -618.6 -37.05 -612.95 -25.9 -596.3 -33.75 -587.05 -40.15 -568.05 -53.25 -558.25 -71.25 -549.15 -88.35 -547.55 -116.05 -536.05 -107.6 -526.95 -95.9 -492.4 -117.3 -475.55 -156.9 -472.9 -163.2 -469.8 -166.55
L -487.2 -185.7
M 59.9 33.45
Q 50.65 34.85 30.4 34.85
L -34.1 34.85
Q -53.2 34.85 -62.65 33.45
L -62.65 64.55
Q -53.9 63.65 -34.65 63.65
L 30.95 63.65
Q 50.9 63.65 59.9 64.55
L 59.9 33.45
M 78.9 80.95
Q 69.15 82.2 49.55 82.2
L -53 82.2
Q -72.35 82.2 -81.45 80.75
L -81.45 111.7
Q -72.15 110.8 -53.65 110.8
L -15.85 110.8
Q -16.95 132.95 -28.6 146.05 -40.3 159.2 -65.6 166.6 -57.3 174.4 -53.2 180.15 -49.05 185.75 -44 195.7 -24.95 188 -13.6 179.35 -2.25 170.8 5.4 158.3 16.65 139.5 18.6 110.8
L 50.1 110.8
Q 68.2 110.8 78.9 111.7
L 78.9 80.95
M 219.85 56.65
Q 210.75 71.5 185.6 89.55 153.45 112.8 110.9 124.65 121.1 137.05 126.55 150.75 146.7 143.35 154.75 139.75 163.1 136 174.7 129.05
L 174.7 167.55
Q 174.7 182.85 173.35 192.95
L 206.2 192.95
Q 205.1 185 205.1 167.55
L 205.1 110.8
Q 224.8 96.65 239.2 80.75
L 245.6 74.25 219.85 56.65
M 341.95 102.5
L 363.7 73.75
Q 343.75 55.65 313.05 37.65
L 291.85 63.65
Q 318.65 78.05 341.95 102.5
M 448.3 81.85
Q 431.45 69.5 421.2 57.2 413.65 77.35 403.1 93.25 382.9 124.9 349.15 138.8 322.7 149.75 293.7 152.1
L 303.25 187.45 316.55 184.1
Q 342.1 178.2 357.8 172.15 373.25 166.2 388.2 156.5 407.6 144.1 421.65 126.55 435.7 109.1 448.3 81.85
M 601.95 26.75
L 583.7 32.7
Q 590.25 41.9 594.2 50.35
L 548.35 50.7 549.85 47.55
Q 550.75 45.55 552 42.8
L 557.15 31.55 522.35 25.35
Q 521.5 33.15 514.4 47.35 497.05 81.85 465.45 103.6 479.75 112.15 491.55 125.75 516.3 106.85 533.4 79.5
L 582.4 78.95
Q 562.2 142.75 490.1 168.65 503.9 180.45 512.25 196.8 553.7 178.2 578.35 151 603.05 123.85 616.15 82.45 619.5 72.4 620.95 69.85
L 611.55 57 617.25 54.95
Q 611.1 38.8 601.95 26.75
M 627.75 19.05
L 610.4 24.8
Q 618.05 35.3 625.5 52.95
L 643.05 46.45
Q 635.95 30 627.75 19.05
M 109.45 -69
L 119 -33.65 132.3 -37
Q 157.85 -42.9 173.55 -48.95 189 -54.9 203.95 -64.6 223.35 -77 237.4 -94.55 251.45 -112 264.05 -139.25 247.2 -151.6 236.95 -163.9 229.4 -143.75 218.85 -127.85 198.65 -96.2 164.9 -82.3 138.45 -71.35 109.45 -69
M 26.5 -127.85
L 26.5 -107.5 -30.95 -107.5
Q -42.05 -107.5 -54.15 -108.7
L -54.15 -81.95
Q -46.25 -82.7 -30.95 -82.7
L 26.5 -82.7 26.5 -60.9 -38.7 -60.9
Q -53.2 -60.9 -61.55 -62.25
L -61.55 -34.9
Q -53.65 -35.7 -38.7 -35.7
L 26.5 -35.7 26.5 -27.65 55.65 -27.65
Q 54.75 -37.7 54.75 -50.4
L 54.75 -136.3 55.15 -153.4
Q 47.65 -152.85 38.5 -152.85
L -36.8 -152.85
Q -50.05 -152.85 -59.65 -154.2
L -59.65 -126.85
Q -52.75 -127.85 -36.8 -127.85
L 26.5 -127.85
M 128.8 -183.45
L 107.6 -157.45
Q 134.4 -143.05 157.7 -118.6
L 179.45 -147.35
Q 159.5 -165.45 128.8 -183.45 Z"/>
</g>
</defs>

<g transform="matrix( 1, 0, 0, 1, 0,0) ">
<use xlink:href="#Layer0_0_FILL"/>
</g>
</svg>
