
<svg xmlns="http://www.w3.org/2000/svg" version="1.1" xmlns:xlink="http://www.w3.org/1999/xlink" preserveAspectRatio="none" x="0px" y="0px" width="1920px" height="1080px" viewBox="0 0 1920 1080">
<defs>
<g id="Layer0_0_FILL">
<path fill="#231F20" stroke="none" d="
M -89.3 -76.35
Q -98.4 -79 -115.2 -79
L -156.6 -79 -156.6 79.1 -115.5 79.1 -115.5 15.45 -104.45 15.45
Q -90.95 15.45 -82.55 11.7 -74.25 8 -71.15 1.05 -68 -5.85 -68 -21
L -68 -34.75
Q -68 -49.6 -69.6 -56.65 -71.25 -63.75 -75.75 -68.75 -80.35 -73.75 -89.3 -76.35
M -112.45 -11.6
L -115.5 -11.7 -115.5 -51.95
Q -107.5 -51.95 -104.95 -49.5 -102.4 -47.05 -102.4 -38.95
L -102.4 -26
Q -102.4 -17.2 -104.55 -14.35 -106.8 -11.6 -112.45 -11.6
M -261.15 -79
L -246.2 -9.1 -261.15 79.1 -221.1 79.1 -212.9 21.5
Q -207.25 55.45 -200.4 79.1
L -162.3 79.1 -184.1 -9.1 -169.65 -79 -204.1 -79 -212.9 -35.85 -221.4 -79 -261.15 -79
M -295.05 -17.4
L -295.05 -47.35 -267.6 -47.35 -267.6 -79 -336.15 -79 -336.15 79.1 -264.85 79.1 -264.85 47.45 -295.05 47.45 -295.05 12.7 -269.35 12.7 -269.35 -17.4 -295.05 -17.4
M 273.5 -79
L 244.4 -79 244.4 79.1 285.5 79.1 285.5 7.8
Q 294 7.8 296.05 10.85 298 13.85 298 26.55
L 298 79.1 336.2 79.1 336.2 37.4
Q 336.2 18.25 335.2 14.05 334.15 9.75 329.95 4.7 325.75 -0.4 313.55 -3.4 327 -4.7 331.6 -11.05 336.2 -17.4 336.2 -35.85 336.2 -56.05 329.75 -65.25 323.2 -74.5 312.95 -76.75 302.6 -79 273.5 -79
M 285.5 -51.95
Q 292.65 -51.95 295.4 -49.6 298 -47.25 298 -39.75
L 298 -31.05
Q 298 -20.6 295.3 -18.65 292.45 -16.8 285.5 -16.8
L 285.5 -51.95
M 202.4 -17.4
L 202.4 -47.35 229.85 -47.35 229.85 -79 161.3 -79 161.3 79.1 232.6 79.1 232.6 47.45 202.4 47.45 202.4 12.7 228.1 12.7 228.1 -17.4 202.4 -17.4
M 144.8 -79
L 110.45 -79 110.45 -7.8 87.4 -79 53 -79 53 79.1 87.4 79.1 87.4 7.25 108.75 79.1 144.8 79.1 144.8 -79
M 29.2 -65.7
Q 23.05 -74 13 -78.15 2.85 -82.35 -9.85 -82.35 -23.25 -82.35 -33.3 -77.95 -43.35 -73.55 -49.2 -65.35 -55.15 -57.15 -56.25 -47.15 -57.4 -37.3 -57.4 -13.5
L -57.4 13.55
Q -57.4 38 -56.25 47.75 -55.05 57.5 -48.9 65.8 -42.75 74.1 -32.6 78.3 -22.55 82.4 -9.85 82.4 3.5 82.4 13.6 78.05 23.65 73.65 29.6 65.45 35.45 57.25 36.6 47.35 37.7 37.4 37.7 13.55
L 37.7 -13.5
Q 37.7 -37.9 36.55 -47.65 35.35 -57.4 29.2 -65.7
M -9.65 -55.55
Q -5.85 -55.55 -4.6 -52.45 -3.4 -49.4 -3.4 -38.4
L -3.4 34.3
Q -3.4 48.25 -4.6 51.95 -5.75 55.65 -9.95 55.65 -14.05 55.65 -15.15 52.45 -16.3 49.2 -16.3 35.45
L -16.3 -38.4
Q -16.3 -50.6 -14.55 -53.05 -12.9 -55.55 -9.65 -55.55 Z"/>
</g>
</defs>

<g transform="matrix( 1, 0, 0, 1, 0,0) ">
<use xlink:href="#Layer0_0_FILL"/>
</g>
</svg>
