
<svg xmlns="http://www.w3.org/2000/svg" version="1.1" xmlns:xlink="http://www.w3.org/1999/xlink" preserveAspectRatio="none" x="0px" y="0px" width="1920px" height="1080px" viewBox="0 0 1920 1080">
<defs>
<g id="Layer0_0_FILL">
<path fill="#231F20" stroke="none" d="
M -97.85 -64.95
L -139.25 -64.95 -139.25 93.15 -98.15 93.15 -98.15 29.5 -87.1 29.5
Q -73.6 29.5 -65.2 25.75 -56.9 22.05 -53.8 15.1 -50.65 8.2 -50.65 -6.95
L -50.65 -20.7
Q -50.65 -35.55 -52.25 -42.6 -53.9 -49.7 -58.4 -54.7 -63 -59.7 -71.95 -62.3 -81.05 -64.95 -97.85 -64.95
M -98.15 -37.9
Q -90.15 -37.9 -87.6 -35.45 -85.05 -33 -85.05 -24.9
L -85.05 -11.95
Q -85.05 -3.15 -87.2 -0.3 -89.45 2.45 -95.1 2.45
L -98.15 2.35 -98.15 -37.9
M -174.1 -63.1
Q -185.4 -68.3 -201.45 -68.3 -216.1 -68.3 -226.45 -63.5 -236.8 -58.8 -241.4 -50.4 -246.05 -42 -246.05 -23.85 -246.05 -11.25 -242.75 -3.15 -239.5 4.95 -234.55 9.55 -229.55 14.15 -214.25 24.3 -198.9 34.35 -195 38.65 -191.2 42.95 -191.2 56.9 -191.2 63.25 -193.15 66.5 -195.2 69.7 -199.3 69.7 -203.4 69.7 -204.95 67.15 -206.6 64.65 -206.6 55.75
L -206.6 36.5 -244.8 36.5 -244.8 46.85
Q -244.8 64.65 -241.2 74.3 -237.55 83.95 -225.85 90.2 -214.25 96.45 -197.7 96.45 -182.7 96.45 -171.35 91.1 -160.05 85.65 -156.05 77.6 -152.1 69.6 -152.1 52.7 -152.1 29.5 -159.25 19.05 -166.4 8.6 -193.8 -7.75 -203.4 -13.4 -205.45 -17.4 -207.6 -21.4 -207.6 -29.3 -207.6 -35.45 -205.65 -38.5 -203.8 -41.5 -200.05 -41.5 -196.65 -41.5 -195.2 -39.25 -193.7 -37.05 -193.7 -28.8
L -193.7 -17.1 -155.55 -17.1 -155.55 -23.35
Q -155.55 -42.2 -159.15 -50 -162.85 -57.9 -174.1 -63.1
M -284.65 -3.35
L -284.65 -33.3 -257.2 -33.3 -257.2 -64.95 -325.75 -64.95 -325.75 93.15 -254.45 93.15 -254.45 61.5 -284.65 61.5 -284.65 26.75 -258.95 26.75 -258.95 -3.35 -284.65 -3.35
M -471.15 -3.35
L -471.15 -33.3 -443.7 -33.3 -443.7 -64.95 -512.25 -64.95 -512.25 93.15 -440.95 93.15 -440.95 61.5 -471.15 61.5 -471.15 26.75 -445.45 26.75 -445.45 -3.35 -471.15 -3.35
M -412.95 -63.5
Q -423.3 -58.8 -427.9 -50.4 -432.55 -42 -432.55 -23.85 -432.55 -11.25 -429.25 -3.15 -426 4.95 -421.05 9.55 -416.05 14.15 -400.75 24.3 -385.4 34.35 -381.5 38.65 -377.7 42.95 -377.7 56.9 -377.7 63.25 -379.65 66.5 -381.7 69.7 -385.8 69.7 -389.9 69.7 -391.45 67.15 -393.1 64.65 -393.1 55.75
L -393.1 36.5 -431.3 36.5 -431.3 46.85
Q -431.3 64.65 -427.7 74.3 -424.05 83.95 -412.35 90.2 -400.75 96.45 -384.2 96.45 -369.2 96.45 -357.85 91.1 -346.55 85.65 -342.55 77.6 -338.6 69.6 -338.6 52.7 -338.6 29.5 -345.75 19.05 -352.9 8.6 -380.3 -7.75 -389.9 -13.4 -391.95 -17.4 -394.1 -21.4 -394.1 -29.3 -394.1 -35.45 -392.15 -38.5 -390.3 -41.5 -386.55 -41.5 -383.15 -41.5 -381.7 -39.25 -380.2 -37.05 -380.2 -28.8
L -380.2 -17.1 -342.05 -17.1 -342.05 -23.35
Q -342.05 -42.2 -345.65 -50 -349.35 -57.9 -360.6 -63.1 -371.9 -68.3 -387.95 -68.3 -402.6 -68.3 -412.95 -63.5
M -592 -64.95
L -622.75 -64.95 -622.75 93.15 -570.9 93.15
Q -556.15 93.15 -548.8 91.6 -541.5 89.95 -536.5 85.9 -531.55 81.8 -529.5 74.7 -527.55 67.45 -527.55 46.2
L -527.55 -9.2
Q -527.55 -31.65 -528.9 -39.25 -530.25 -47 -535.75 -53.25 -541.2 -59.5 -551.65 -62.2 -562.2 -64.95 -592 -64.95
M -581.65 -37.9
Q -574.9 -37.9 -572.45 -36.45 -570 -35.05 -569.35 -32.05
L -568.65 -18.3 -568.65 43.15
Q -568.65 58.95 -570.7 62.6 -572.75 66.1 -581.65 66.1
L -581.65 -37.9
M 565.4 -64.95
L 531 -64.95 531 93.15 565.4 93.15 565.4 21.3 586.75 93.15 622.8 93.15 622.8 -64.95 588.45 -64.95 588.45 6.25 565.4 -64.95
M 405.25 -64.95
L 364.15 -64.95 364.15 93.15 405.25 93.15 405.25 -64.95
M 444.7 -63.9
Q 434.65 -59.5 428.8 -51.3 422.85 -43.1 421.75 -33.1 420.6 -23.25 420.6 0.55
L 420.6 27.6
Q 420.6 52.05 421.75 61.8 422.95 71.55 429.1 79.85 435.25 88.15 445.4 92.35 455.45 96.45 468.15 96.45 481.5 96.45 491.6 92.1 501.65 87.7 507.6 79.5 513.45 71.3 514.6 61.4 515.7 51.45 515.7 27.6
L 515.7 0.55
Q 515.7 -23.85 514.55 -33.6 513.35 -43.35 507.2 -51.65 501.05 -59.95 491 -64.1 480.85 -68.3 468.15 -68.3 454.75 -68.3 444.7 -63.9
M 473.4 -38.4
Q 474.6 -35.35 474.6 -24.35
L 474.6 48.35
Q 474.6 62.3 473.4 66 472.25 69.7 468.05 69.7 463.95 69.7 462.85 66.5 461.7 63.25 461.7 49.5
L 461.7 -24.35
Q 461.7 -36.55 463.45 -39 465.1 -41.5 468.35 -41.5 472.15 -41.5 473.4 -38.4
M 449.4 -69.95
L 469.2 -69.95 501.35 -96.4 466.6 -96.4 449.4 -69.95
M 276.6 -63.7
Q 266.25 -59.2 260.5 -51.3 254.65 -43.35 253.45 -34.8 252.3 -26.3 252.3 -9.2
L 252.3 37
Q 252.3 60.25 256.1 71.85 259.9 83.4 271.6 89.95 283.35 96.45 301.4 96.45 318.8 96.45 330.7 88.75 342.5 81.05 346.05 70.8 349.45 60.45 349.45 35.9
L 349.45 29.75 308.35 29.75 308.35 49.7
Q 308.35 62.7 306.95 66.2 305.5 69.7 300.9 69.7 296.15 69.7 294.75 66.2 293.4 62.7 293.4 51.15
L 293.4 -22.3
Q 293.4 -34.3 294.75 -37.9 296.15 -41.5 301.2 -41.5 305.7 -41.5 307.05 -38.6 308.35 -35.55 308.35 -23.55
L 308.35 3.9 349.45 3.9 349.45 -11.15
Q 349.45 -33.2 345.75 -43.75 342.05 -54.2 330.2 -61.25 318.4 -68.3 300.25 -68.3 286.85 -68.3 276.6 -63.7
M 223 -64.95
L 163.5 -64.95 142.65 93.15 185.1 93.15 187.55 64.75 202.3 64.75 204.45 93.15 246.55 93.15 223 -64.95
M 201.2 36.7
L 187.05 36.7
Q 188.6 15.7 194.95 -29.7 198.1 9.85 201.2 36.7
M 2.2 -33.3
L 29.65 -33.3 29.65 -64.95 -38.9 -64.95 -38.9 93.15 32.4 93.15 32.4 61.5 2.2 61.5 2.2 26.75 27.9 26.75 27.9 -3.35 2.2 -3.35 2.2 -33.3
M 73.3 -64.95
L 44.2 -64.95 44.2 93.15 85.3 93.15 85.3 21.85
Q 93.8 21.85 95.85 24.9 97.8 27.9 97.8 40.6
L 97.8 93.15 136 93.15 136 51.45
Q 136 32.3 135 28.1 133.95 23.8 129.75 18.75 125.55 13.65 113.35 10.65 126.8 9.35 131.4 3 136 -3.35 136 -21.8 136 -42 129.55 -51.2 123 -60.45 112.75 -62.7 102.4 -64.95 73.3 -64.95
M 85.3 -37.9
Q 92.45 -37.9 95.2 -35.55 97.8 -33.2 97.8 -25.7
L 97.8 -17
Q 97.8 -6.55 95.1 -4.6 92.25 -2.75 85.3 -2.75
L 85.3 -37.9 Z"/>
</g>
</defs>

<g transform="matrix( 1, 0, 0, 1, 0,0) ">
<use xlink:href="#Layer0_0_FILL"/>
</g>
</svg>
