
<svg xmlns="http://www.w3.org/2000/svg" version="1.1" xmlns:xlink="http://www.w3.org/1999/xlink" preserveAspectRatio="none" x="0px" y="0px" width="1920px" height="1080px" viewBox="0 0 1920 1080">
<defs>
<g id="Layer0_0_FILL">
<path fill="#231F20" stroke="none" d="
M -50.35 -22.45
L -62.65 -22.45 -62.65 -79 -103.75 -79 -103.75 79.1 -62.65 79.1 -62.65 12.7 -50.35 12.7 -50.35 79.1 -9.2 79.1 -9.2 -79 -50.35 -79 -50.35 -22.45
M -202.95 -47.35
L -178.6 -47.35 -178.6 79.1 -137.5 79.1 -137.5 -47.35 -113.1 -47.35 -113.1 -79 -202.95 -79 -202.95 -47.35
M -269.8 -79
L -304.2 -79 -304.2 79.1 -269.8 79.1 -269.8 7.25 -248.45 79.1 -212.4 79.1 -212.4 -79 -246.75 -79 -246.75 -7.8 -269.8 -79
M -360.4 -16.7
Q -361.6 -32.7 -370.4 -79
L -408.15 -79 -379.25 21.85 -379.25 79.1 -341.2 79.1 -341.2 21.85 -311.2 -79 -349 -79
Q -357 -42 -360.4 -16.7
M -502.3 -17.2
Q -499.05 -9.1 -494.1 -4.5 -489.1 0.1 -473.8 10.25 -458.45 20.3 -454.55 24.6 -450.75 28.9 -450.75 42.85 -450.75 49.2 -452.7 52.45 -454.75 55.65 -458.85 55.65 -462.95 55.65 -464.5 53.1 -466.15 50.6 -466.15 41.7
L -466.15 22.45 -504.35 22.45 -504.35 32.8
Q -504.35 50.6 -500.75 60.25 -497.1 69.9 -485.4 76.15 -473.8 82.4 -457.25 82.4 -442.25 82.4 -430.9 77.05 -419.6 71.6 -415.6 63.55 -411.65 55.55 -411.65 38.65 -411.65 15.45 -418.8 5 -425.95 -5.45 -453.35 -21.8 -462.95 -27.45 -465 -31.45 -467.15 -35.45 -467.15 -43.35 -467.15 -49.5 -465.2 -52.55 -463.35 -55.55 -459.6 -55.55 -456.2 -55.55 -454.75 -53.3 -453.25 -51.1 -453.25 -42.85
L -453.25 -31.15 -415.1 -31.15 -415.1 -37.4
Q -415.1 -56.25 -418.7 -64.05 -422.4 -71.95 -433.65 -77.15 -444.95 -82.35 -461 -82.35 -475.65 -82.35 -486 -77.55 -496.35 -72.85 -500.95 -64.45 -505.6 -56.05 -505.6 -37.9 -505.6 -25.3 -502.3 -17.2
M 442.9 -79
L 413.8 -79 413.8 79.1 454.9 79.1 454.9 7.8
Q 463.4 7.8 465.45 10.85 467.4 13.85 467.4 26.55
L 467.4 79.1 505.6 79.1 505.6 37.4
Q 505.6 18.25 504.6 14.05 503.55 9.75 499.35 4.7 495.15 -0.4 482.95 -3.4 496.4 -4.7 501 -11.05 505.6 -17.4 505.6 -35.85 505.6 -56.05 499.15 -65.25 492.6 -74.5 482.35 -76.75 472 -79 442.9 -79
M 454.9 -51.95
Q 462.05 -51.95 464.8 -49.6 467.4 -47.25 467.4 -39.75
L 467.4 -31.05
Q 467.4 -20.6 464.7 -18.65 461.85 -16.8 454.9 -16.8
L 454.9 -51.95
M 371.8 -47.35
L 399.25 -47.35 399.25 -79 330.7 -79 330.7 79.1 402 79.1 402 47.45 371.8 47.45 371.8 12.7 397.5 12.7 397.5 -17.4 371.8 -17.4 371.8 -47.35
M 248.05 -47.35
L 275.95 -47.35 244.3 56.15 244.3 79.1 320.1 79.1 320.1 47.45 289.45 47.45 320.1 -47.35 320.1 -79 248.05 -79 248.05 -47.35
M 234.85 -79
L 193.75 -79 193.75 79.1 234.85 79.1 234.85 -79
M 132.95 -55.55
Q 136.35 -55.55 137.8 -53.3 139.3 -51.1 139.3 -42.85
L 139.3 -31.15 177.45 -31.15 177.45 -37.4
Q 177.45 -56.25 173.85 -64.05 170.15 -71.95 158.9 -77.15 147.6 -82.35 131.55 -82.35 116.9 -82.35 106.55 -77.55 96.2 -72.85 91.6 -64.45 86.95 -56.05 86.95 -37.9 86.95 -25.3 90.25 -17.2 93.5 -9.1 98.45 -4.5 103.45 0.1 118.75 10.25 134.1 20.3 138 24.6 141.8 28.9 141.8 42.85 141.8 49.2 139.85 52.45 137.8 55.65 133.7 55.65 129.6 55.65 128.05 53.1 126.4 50.6 126.4 41.7
L 126.4 22.45 88.2 22.45 88.2 32.8
Q 88.2 50.6 91.8 60.25 95.45 69.9 107.15 76.15 118.75 82.4 135.3 82.4 150.3 82.4 161.65 77.05 172.95 71.6 176.95 63.55 180.9 55.55 180.9 38.65 180.9 15.45 173.75 5 166.6 -5.45 139.2 -21.8 129.6 -27.45 127.55 -31.45 125.4 -35.45 125.4 -43.35 125.4 -49.5 127.35 -52.55 129.2 -55.55 132.95 -55.55
M 48.35 -47.35
L 75.8 -47.35 75.8 -79 7.25 -79 7.25 79.1 78.55 79.1 78.55 47.45 48.35 47.45 48.35 12.7 74.05 12.7 74.05 -17.4 48.35 -17.4 48.35 -47.35 Z"/>
</g>
</defs>

<g transform="matrix( 1, 0, 0, 1, 0,0) ">
<use xlink:href="#Layer0_0_FILL"/>
</g>
</svg>
