
<svg xmlns="http://www.w3.org/2000/svg" version="1.1" xmlns:xlink="http://www.w3.org/1999/xlink" preserveAspectRatio="none" x="0px" y="0px" width="1920px" height="1080px" viewBox="0 0 1920 1080">
<defs>
<g id="Layer0_0_FILL">
<path fill="#231F20" stroke="none" d="
M -130.85 -79
L -171.95 -79 -171.95 79.1 -105.85 79.1 -105.85 47.45 -130.85 47.45 -130.85 -79
M -98.95 -48.85
Q -100.1 -40.35 -100.1 -23.25
L -100.1 22.95
Q -100.1 46.2 -96.3 57.8 -92.5 69.35 -80.8 75.9 -69.05 82.4 -51 82.4 -33.6 82.4 -21.7 74.7 -9.9 67 -6.35 56.75 -2.95 46.4 -2.95 21.85
L -2.95 15.7 -44.05 15.7 -44.05 35.65
Q -44.05 48.65 -45.45 52.15 -46.9 55.65 -51.5 55.65 -56.25 55.65 -57.65 52.15 -59 48.65 -59 37.1
L -59 -36.35
Q -59 -48.35 -57.65 -51.95 -56.25 -55.55 -51.2 -55.55 -46.7 -55.55 -45.35 -52.65 -44.05 -49.6 -44.05 -37.6
L -44.05 -10.15 -2.95 -10.15 -2.95 -25.2
Q -2.95 -47.25 -6.65 -57.8 -10.35 -68.25 -22.2 -75.3 -34 -82.35 -52.15 -82.35 -65.55 -82.35 -75.8 -77.75 -86.15 -73.25 -91.9 -65.35 -97.75 -57.4 -98.95 -48.85
M -258.25 -77.95
Q -268.3 -73.55 -274.15 -65.35 -280.1 -57.15 -281.2 -47.15 -282.35 -37.3 -282.35 -13.5
L -282.35 13.55
Q -282.35 38 -281.2 47.75 -280 57.5 -273.85 65.8 -267.7 74.1 -257.55 78.3 -247.5 82.4 -234.8 82.4 -221.45 82.4 -211.35 78.05 -201.3 73.65 -195.35 65.45 -189.5 57.25 -188.35 47.35 -187.25 37.4 -187.25 13.55
L -187.25 -13.5
Q -187.25 -37.9 -188.4 -47.65 -189.6 -57.4 -195.75 -65.7 -201.9 -74 -211.95 -78.15 -222.1 -82.35 -234.8 -82.35 -248.2 -82.35 -258.25 -77.95
M -234.6 -55.55
Q -230.8 -55.55 -229.55 -52.45 -228.35 -49.4 -228.35 -38.4
L -228.35 34.3
Q -228.35 48.25 -229.55 51.95 -230.7 55.65 -234.9 55.65 -239 55.65 -240.1 52.45 -241.25 49.2 -241.25 35.45
L -241.25 -38.4
Q -241.25 -50.6 -239.5 -53.05 -237.85 -55.55 -234.6 -55.55
M -331.45 -79
L -334.3 -49.6
Q -337.9 -14.15 -341 31.55 -344.35 -13.65 -351.85 -79
L -395.2 -79 -371.5 79.1 -309 79.1 -288.1 -79 -331.45 -79
M 262.7 -17.4
L 262.7 -47.35 290.15 -47.35 290.15 -79 221.6 -79 221.6 79.1 292.9 79.1 292.9 47.45 262.7 47.45 262.7 12.7 288.4 12.7 288.4 -17.4 262.7 -17.4
M 320.9 -77.55
Q 310.55 -72.85 305.95 -64.45 301.3 -56.05 301.3 -37.9 301.3 -25.3 304.6 -17.2 307.85 -9.1 312.8 -4.5 317.8 0.1 333.1 10.25 348.45 20.3 352.35 24.6 356.15 28.9 356.15 42.85 356.15 49.2 354.2 52.45 352.15 55.65 348.05 55.65 343.95 55.65 342.4 53.1 340.75 50.6 340.75 41.7
L 340.75 22.45 302.55 22.45 302.55 32.8
Q 302.55 50.6 306.15 60.25 309.8 69.9 321.5 76.15 333.1 82.4 349.65 82.4 364.65 82.4 376 77.05 387.3 71.6 391.3 63.55 395.25 55.55 395.25 38.65 395.25 15.45 388.1 5 380.95 -5.45 353.55 -21.8 343.95 -27.45 341.9 -31.45 339.75 -35.45 339.75 -43.35 339.75 -49.5 341.7 -52.55 343.55 -55.55 347.3 -55.55 350.7 -55.55 352.15 -53.3 353.65 -51.1 353.65 -42.85
L 353.65 -31.15 391.8 -31.15 391.8 -37.4
Q 391.8 -56.25 388.2 -64.05 384.5 -71.95 373.25 -77.15 361.95 -82.35 345.9 -82.35 331.25 -82.35 320.9 -77.55
M 82.85 -79
L 23.35 -79 2.5 79.1 44.95 79.1 47.4 50.7 62.15 50.7 64.3 79.1 106.4 79.1 82.85 -79
M 61.05 22.65
L 46.9 22.65
Q 48.45 1.65 54.8 -43.75 57.95 -4.2 61.05 22.65
M 147.7 -79
L 113.3 -79 113.3 79.1 147.7 79.1 147.7 7.25 169.05 79.1 205.1 79.1 205.1 -79 170.75 -79 170.75 -7.8 147.7 -79 Z"/>
</g>
</defs>

<g transform="matrix( 1, 0, 0, 1, 0,0) ">
<use xlink:href="#Layer0_0_FILL"/>
</g>
</svg>
