
<svg xmlns="http://www.w3.org/2000/svg" version="1.1" xmlns:xlink="http://www.w3.org/1999/xlink" preserveAspectRatio="none" x="0px" y="0px" width="1920px" height="1080px" viewBox="0 0 1920 1080">
<defs>
<g id="Layer0_0_FILL">
<path fill="#231F20" stroke="none" d="
M -83.65 -79
L -124.75 -79 -124.75 79.1 -58.65 79.1 -58.65 47.45 -83.65 47.45 -83.65 -79
M -164.75 -78.15
Q -174.9 -82.35 -187.6 -82.35 -201 -82.35 -211.05 -77.95 -221.1 -73.55 -226.95 -65.35 -232.9 -57.15 -234 -47.15 -235.15 -37.3 -235.15 -13.5
L -235.15 13.55
Q -235.15 38 -234 47.75 -232.8 57.5 -226.65 65.8 -220.5 74.1 -210.35 78.3 -200.3 82.4 -187.6 82.4 -174.25 82.4 -164.15 78.05 -154.1 73.65 -148.15 65.45 -142.3 57.25 -141.15 47.35 -140.05 37.4 -140.05 13.55
L -140.05 -13.5
Q -140.05 -37.9 -141.2 -47.65 -142.4 -57.4 -148.55 -65.7 -154.7 -74 -164.75 -78.15
M -187.4 -55.55
Q -183.6 -55.55 -182.35 -52.45 -181.15 -49.4 -181.15 -38.4
L -181.15 34.3
Q -181.15 48.25 -182.35 51.95 -183.5 55.65 -187.7 55.65 -191.8 55.65 -192.9 52.45 -194.05 49.2 -194.05 35.45
L -194.05 -38.4
Q -194.05 -50.6 -192.3 -53.05 -190.65 -55.55 -187.4 -55.55
M -250.5 -79
L -291.6 -79 -291.6 79.1 -250.5 79.1 -250.5 -79
M -341.85 -79
L -344.7 -49.6
Q -348.3 -14.15 -351.4 31.55 -354.75 -13.65 -362.25 -79
L -405.6 -79 -381.9 79.1 -319.4 79.1 -298.5 -79 -341.85 -79
M 382.1 -79
L 322.6 -79 301.75 79.1 344.2 79.1 346.65 50.7 361.4 50.7 363.55 79.1 405.65 79.1 382.1 -79
M 360.3 22.65
L 346.15 22.65
Q 347.7 1.65 354.05 -43.75 357.2 -4.2 360.3 22.65
M 294.5 -79
L 253.4 -79 253.4 79.1 294.5 79.1 294.5 -79
M 142.7 -48.85
Q 141.55 -40.35 141.55 -23.25
L 141.55 22.95
Q 141.55 46.2 145.35 57.8 149.15 69.35 160.85 75.9 172.6 82.4 190.65 82.4 208.05 82.4 219.95 74.7 231.75 67 235.3 56.75 238.7 46.4 238.7 21.85
L 238.7 15.7 197.6 15.7 197.6 35.65
Q 197.6 48.65 196.2 52.15 194.75 55.65 190.15 55.65 185.4 55.65 184 52.15 182.65 48.65 182.65 37.1
L 182.65 -36.35
Q 182.65 -48.35 184 -51.95 185.4 -55.55 190.45 -55.55 194.95 -55.55 196.3 -52.65 197.6 -49.6 197.6 -37.6
L 197.6 -10.15 238.7 -10.15 238.7 -25.2
Q 238.7 -47.25 235 -57.8 231.3 -68.25 219.45 -75.3 207.65 -82.35 189.5 -82.35 176.1 -82.35 165.85 -77.75 155.5 -73.25 149.75 -65.35 143.9 -57.4 142.7 -48.85
M 68.8 -79
L 34.4 -79 34.4 79.1 68.8 79.1 68.8 7.25 90.15 79.1 126.2 79.1 126.2 -79 91.85 -79 91.85 -7.8 68.8 -79
M 19.85 -47.35
L 19.85 -79 -48.7 -79 -48.7 79.1 22.6 79.1 22.6 47.45 -7.6 47.45 -7.6 12.7 18.1 12.7 18.1 -17.4 -7.6 -17.4 -7.6 -47.35 19.85 -47.35 Z"/>
</g>
</defs>

<g transform="matrix( 1, 0, 0, 1, 0,0) ">
<use xlink:href="#Layer0_0_FILL"/>
</g>
</svg>
