
<svg xmlns="http://www.w3.org/2000/svg" version="1.1" xmlns:xlink="http://www.w3.org/1999/xlink" preserveAspectRatio="none" x="0px" y="0px" width="1920px" height="1080px" viewBox="0 0 1920 1080">
<defs>
<g id="Layer0_0_FILL">
<path fill="#020303" stroke="none" d="
M -40.1 -158.75
L -36.65 -160.6 -36.4 -162 -40.9 -161.75
Q -46.9 -159.8 -51.9 -154.75
L -44.35 -158.65 -40.1 -158.75
M -33.45 -164.15
L -35.5 -162.4
Q -35.5 -161 -31.05 -163.1
L -26.8 -166.95 -33.45 -164.15
M 108.2 67.6
L 107.95 66.95
Q 107.4 65.5 106.25 63.5
L 105.6 62.5 105.4 62.2
Q 105.0654296875 62.13046875 104.7 62.05
L 83.65 58.35
Q 83.30625 58.3015625 82.95 58.25
L 64.45 53.15 63.5 57.25 63.5 57.25
Q 66.4978515625 59.2041015625 65.85 60.45
L 62.1 62.65 59.05 62.65 59 62.65 57.25 64.8
Q 56.9953125 65.1078125 56.75 65.4 56.690625 65.499609375 56.6 65.55 56.566796875 65.6490234375 56.5 65.7 56.4427734375 65.7984375 56.35 65.85 56.3189453125 65.9478515625 56.25 66 56.2197265625 66.0970703125 56.15 66.15 56.120703125 66.246484375 56.05 66.3 55.96796875 66.4669921875 55.85 66.6 50.5466796875 73.8037109375 50.5 81.1
L 50.7 83.95
Q 50.7439453125 84.2716796875 50.8 84.6
L 50.8 84.65
Q 53.3 91.25 56.25 92.6
L 64.45 127.35
Q 69.3 135.45 66.55 138.2 77.35 147.9 97.8 145.25 109.65 140.5 115.6 132.7
L 112.8 122.2 114.65 120.65 113.9 118.65 109.35 121.1 111.4 116.95 108.65 106.6 105.2 108.55 104.6 107.35 107.85 103.8
Q 107.05 101.05 103.2 103.8
L 103.2 101.85 106.55 99 103.05 85.75 109.05 73.8
Q 109.15 71.7 108.7 69.7 108.65 69.2 108.2 67.6
M 91.1 94.05
Q 89.65 94.15 88.95 93.65 88.2 93.2 90.25 92.6
L 94.25 91.3
Q 94.8 91.3 95.1 91.65 95.45 91.95 94 92.4 92.45 92.75 92.45 93.3 92.45 94 91.1 94.05
M 82.5 87.55
Q 82.65 88.4 81.95 89.1 81.35 89.7 80.3 89.7 79.4 89.7 78.65 89.1 77.9 88.25 77.75 87.15 77.45 85.9 78.35 85.5 79.05 85.15 79.45 85.3
L 81 86.05
Q 82.3 86.65 82.5 87.55
M 67.45 103.85
Q 68.15 103.65 68.55 103.65 69.25 103.65 69.75 104 70.2 104.4 70.2 104.75 70.2 105.35 69.75 105.55 69.45 105.8 68.7 105.95 68.2 105.95 67.6 105.3 67.05 104.5 67.05 104.3 66.95 104 67.45 103.85
M 86.8 107.95
Q 86.9 107.6 87.55 106.85
L 88 106.55
Q 88.55 106.25 89 106.25 89.75 106.25 89.6 107.05 89.35 107.85 89.8 108.95 90.25 109.95 89.85 110.9 89.55 111.6 87.95 111.75 86.35 111.85 86.55 110.15 86.55 109.35 86.8 107.95
M 261.95 146.15
L 263 147.1 269.35 152.65 274.75 145.35 276.9 142.45 277 142.45 271.25 138.5 265.1 143.55 265.1 143.55 261.95 146.15
M 197.75 89.55
L 200.9 92.35 211.45 101.6 223 110.65
Q 229.6 111.05 227.45 107.75
L 198.65 88.2 198.6 88.2 197.75 89.55
M 191.8 74.2
L 189.55 74 186.65 75.7 185.95 77.65 185 76 182.25 76.8 181.4 79.35 176.65 82.5 174.95 80.5 172.8 80.35 172.8 79.65 170.75 78.8 168.75 80.25 166.5 80.25 167.45 83.25 169.45 83.9 166.9 84.75 165.35 82.4 163.1 80.9 161.25 77.2 156.8 75.4 148.55 79 156.75 78.8 160.7 80.3 160.85 85.3 165.25 88.55 173.05 85.75 180.75 85.9
Q 185.05 88.45 188.9 88.05
L 190.65 86.75 190.65 86.6
Q 192.7 87.85 195.25 87.45
L 195.4 87.4
Q 196 87.35 196.8 87
L 197.75 86.6 197.65 81.75 195.3 80.75 195.3 78.8 194.75 78.05 193.05 75.9 193 75.9 191.8 74.2
M 81.85 -181.2
L 81.5 -181.15 75.25 -180.05 75.2 -180.05 75.15 -179.9 72.4 -176 73.95 -173.55 70.7 -170 67.35 -174.55 62.65 -171.85 60.55 -166.5 63.7 -169.9 67.6 -169.9 67.7 -166.25 56.05 -161.75 56.05 -161.7 53.85 -162.1 44.35 -163.6 42.8 -163.15 42.3 -163 44.25 -161.75 30.45 -154.85 18.05 -151.15 17.95 -148.3 0.05 -140.4 -1.9 -138 -5.5 -138 -7.9 -135.35 -10.9 -135.85
Q -11.6 -138.9 -2.4 -145.15
L 18.25 -154 18.15 -152.6 25.25 -157 37.4 -161.65 31.15 -166.5
Q 27.1 -166.7 23.3 -165.45
L 23.15 -167.2 25.05 -168.05 23.7 -168.05 21.2 -168
Q 10.45 -168 2.4 -169.55
L -1.1 -170.85 -5.35 -170.55 -5.6 -170.45 -10.55 -168.45 -30.65 -157.6 -30.9 -157.2 -30.9 -157.15 -31 -157 -31.2 -156.4 -0.1 -166.35 -9.4 -159.95 -14.9 -159.3 -30.15 -151.35 -33.25 -154.45 -45.15 -142.3 -45.15 -152 -61.95 -135 -62.8 -139.65 -60.8 -145.6 -68.6 -135.2 -69.45 -143.85 -74.35 -136.1 -79.35 -140.1 -73.5 -144.7 -72.25 -150.55 -55.7 -158.55 -60.65 -152.2 -54.2 -156.4 -54.2 -156.5 -40.45 -166.5 -40.4 -166.5 -40.6 -166.45
Q -43.75 -165.9 -47.15 -164.25
L -58.45 -159.15
Q -67.2 -155.9 -70.3 -156.6
L -77.45 -152.5 -81.3 -149.2 -87.4 -149.2 -112.85 -134.35
Q -115.5 -141.7 -121.05 -142.35
L -129.65 -130.4 -132.55 -121.1 -138.3 -116.9 -142.25 -110.3 -143.15 -107.4 -147.35 -100.8 -147.8 -97 -153.95 -90.65 -161.95 -67.2 -163.1 -57 -165.7 -51.45 -166.15 -48.8 -169.25 -41.5 -168.35 -37.75 -177.2 -16.25 -189.35 10.95 -189.55 14.9 -199.95 23.3 -208.8 28 -209.3 30.85 -216.35 35.65 -217.2 38.8 -219.9 39.05 -233.8 54.95 -236.65 57.4 -236.65 62.95 -246 68.2 -257.05 81.75 -258.85 86.8 -262.25 96.45 -266.85 101.35 -268.05 102.7 -272.25 103.75 -284.3 111.3 -293.3 115.55 -304.4 123.9 -305 124.6 -305.05 124.7
Q -305.410546875 125.162890625 -305.8 125.65
L -311 134.35
Q -312.6322265625 137.534375 -314.3 141.3 -318.7 150 -308.3 157.55 -305.3 160.45 -292.65 157.75 -286.9 155.75 -271.7 139.8
L -267.6 139.8 -263.1 134.65 -256.8 130.45 -254.25 131.2 -242.45 134.85 -239.55 133.2 -231.45 128.6 -231.45 126.3 -220.65 119.75 -219.7 116.15 -187.2 78.8 -181.45 62.5
Q -144.55 43.05 -128.9 24.85
L -118.3 14.95 -112 9 -110.15 7.55 -109.8 7.25 -108.8 6.5 -103.3 0.45 -102.25 -0.65
Q -101.7349609375 -1.222265625 -101.2 -1.8
L -98.15 -5.45
Q -95.6373046875 -8.40078125 -93.2 -11.55 -86.9 -17.2 -80.05 -22.75
L -69.7 -25.75
Q -55.9 -10.75 -44.8 5.55
L -41.65 34.25 -40.4 36.45 -43.6 48.35 -39.6 59.5 -39.4 59.6 -37.8 60.45 -37.85 60.45 -42.75 66.75 -42.55 71 -45.45 77.75 -44.15 79.25 -49 92.35 -48.35 95.85 -63.25 138.5 -69.6 148.65 -70.35 160.85 -69.3 163.2 -74.05 179.65 -72.2 182.85
Q -73.85 185.8 -72.65 188.8 -69.6 192.2 -65.15 193.7
L -55.5 196.8 -53.7 195.75 -45.55 198.8
Q -42.15 200.3 -39.6 201.9 -34.6 205.05 -32.25 208.6 -27.3 214.45 -6.4 217.8 6.4 215.4 9.6 210.3
L 9.2 208.5 9.05 206.65 9.05 206.6 8.95 206.65 8.95 206.6 8.9 206.75 8.55 207
Q 8.35 207.2 7.85 207.2 7.45 207.35 7.1 207 6.75 206.75 6.8 206.4 7 206.1 7.25 205.9
L 7.75 205.45
Q 7.75 205.3 8.2 205.5
L 8.95 205.9
Q 8.9 204.6 8.95 203.4
L 7.75 200.7 -18.5 181.95 -25 169.65 -22.25 166.9 -22.25 161.1 -14.55 154.95 -10.05 135.05 0.85 101.6 1.7 94.3 5.5 88.7 5.5 88.65 5 84.35 5 84.35 4.65 81.2 9.1 70.3 17.8 43.95 19.3 29.5 17.05 21.05 11.25 5.4 11.05 -1.55
Q 2.8 -17.25 1.7 -36.95 4.1 -39.2 7.2 -40.55 11 -42.15 15.8 -42.8 31.4 -42.6 45.6 -36.65
L 52.55 -10.6 52.55 -10.65 57.85 -16.25 57.85 -51 50.2 -66.1 44.45 -64.3 49.85 -82.25 61.6 -82.9 63.1 -87.05 65.55 -85.45
Q 75.15 -70.1 79.55 -70.25
L 80.3 -70.2
Q 89.4 -69.8 91.95 -75.55
L 91.15 -74.9
Q 84.65 -69.95 80.35 -71.75 78.15 -72.7 76.55 -75.75 71.3 -80.75 68.2 -86.75
L 67.05 -89.15
Q 66.65 -89.8 66.5 -90.65
L 67.2 -95.1 65.7 -99.4
Q 63.3 -101.4 61.35 -108.7
L 61.35 -112.45
Q 52.45 -115.35 53.55 -126.05 51.95 -124.05 49.65 -125.85 49.75 -123.65 47.4 -121.6 46.7 -126.45 46.45 -129.8 46.05 -135.55 46.5 -141.15 46.65 -143.5 48.7 -145.1 50.75 -145.55 50.75 -148.85 52.65 -147.35 51.05 -142.7
L 52.3 -138.65
Q 51.6 -136.4 51.9 -132.15
L 52.3 -129.5 53.75 -128.3 53.85 -130.25 54.25 -132.3
Q 55.4 -135.85 59 -137.5 66.1 -139.8 70.3 -132.85
L 71.9 -132.1
Q 72 -130.25 69.65 -128.65 66.25 -134.75 62.45 -134.75 58.85 -134.8 56.35 -130.7
L 57.95 -130.9
Q 60.55 -133.75 62.7 -132.6 64.65 -130.5 62.3 -129.7 57.6 -128.9 59 -126.95
L 60 -125.65 63.25 -124.9
Q 64.3 -122.6 67.2 -125.05 67.9 -125.6 68.5 -125.4 69.15 -125.1 69.75 -123.9
L 72.95 -123.6
Q 72.9 -121.15 70.8 -118.55 69.25 -116.3 70.45 -113.85
L 72.8 -112.65 75.25 -112.45 79.05 -117.2 85.15 -122.5
Q 92.3 -120.1 94 -128.65
L 94.85 -140 92.1 -143.9 92.75 -146.8 97.8 -147.35 98.7 -149.05 98.05 -151.8 101.7 -154.25 99.5 -155.7 95.9 -152.05 95.7 -154.9 91.45 -156.35 97.8 -162.1 94.4 -163.5 89.05 -158.7 86.8 -161.3 86.8 -164.4 88.95 -167.4 83.1 -173.55 83.6 -175.6 79.95 -174.55 78.35 -178 77.75 -178.35 81.85 -181.2
M 73.6 -169.15
L 73.95 -168.45 72.55 -167.75 71.45 -167.85 71.35 -168.45 73.6 -169.15
M 68.7 -162.8
L 70.15 -162.55 70.15 -162 70.05 -161.5
Q 70.1 -161.45 68.65 -160.4
L 67.85 -160.95 66.8 -161.1 66.55 -160.6 65 -161.1
Q 65.05 -161.05 65.85 -161.9
L 66.85 -161.5 68.7 -162.8
M 68.7 -159.35
L 70.25 -159.35 70.7 -158.75
Q 70.8 -158.65 68.9 -157.85
L 69.5 -156.85
Q 69.6 -156.75 69.4 -155.95 69.6 -155.85 68.65 -155.4
L 68.3 -154.85 68.85 -154.2
Q 68.95 -153.9 69.1 -153.9
L 70.4 -153.7
Q 70.45 -153.65 70.4 -153.35
L 70.4 -153.05 70.05 -152.25 68.75 -151.95
Q 68.9 -151.95 67.6 -151.2
L 65.85 -151.1 67.2 -152.3
Q 67.45 -152.3 68.45 -152.85
L 67.7 -154.1 66.55 -154 66.2 -156.55
Q 66.3 -156.55 65.9 -156.95
L 65.55 -157.4 64.65 -157.25 64.6 -156.5
Q 64.6 -156.4 63.1 -156.7
L 62.95 -158.05 64.4 -158.9 64.85 -158.65
Q 64.9 -158.6 65.2 -159.55
L 66.5 -159.65 65.7 -158.85 66.6 -158.2 68.45 -159.4 68.7 -159.35
M 64.65 -148.95
L 65.55 -150.35
Q 65.7 -150.65 65.7 -150.35
L 67.85 -149.9 68 -148.75 68.65 -147.95 67.15 -146.8 66.4 -147.5 65.65 -146.9 64.75 -147.3 64.9 -148.4
Q 65.1 -148.25 64.65 -148.95
M 22.1 -165.15
Q 22.25 -164.9 21.65 -164.55 15 -161.45 13.8 -159
L -8.75 -148.95
Q -5.75 -154.35 3.3 -158
L 21.25 -165.35
Q 22 -165.35 22.1 -165.15
M 31.8 -143.35
Q 22.25 -140.15 13.4 -140.3 31.15 -148.05 45.75 -152.9
L 31.8 -143.35
M 50.1 -94.35
L 52.7 -94.85 54.7 -90.1 58.4 -89.25 60.55 -89.25 63.8 -87.7 49.45 -87.7 47.7 -89.2
Q 50.2 -91.65 50.1 -94.35
M 2.4 -44.55
L 6.05 -43.15 -9.7 -40.55 -5.35 -44.65 -4.5 -44.35
Q -3.7 -44.2 -3.7 -44.25
L -4.45 -45.6
Q -5.05 -46.85 -5.2 -46.85 -5.2 -46.8 -5.7 -47.5
L -6 -48.2
Q -6 -48.15 -2.4 -49.45
L 1.1 -50.75 2 -49.25 -3.65 -47.1 -3.7 -46.45
Q -3.7 -45.85 -3.8 -45.85
L -1.25 -46.15
Q -1.35 -46.05 2.4 -44.55
M -76.45 -147.55
L -80.75 -141.85 -83.2 -141.85 -88.9 -134.6 -91.5 -133.05 -93.15 -135.65 -96.9 -132.95 -96.9 -131.3 -94.75 -130.65 -103.1 -129.5 -99.3 -131.3 -98 -135.45 -82.7 -143.6 -77.9 -147.85 -76.45 -147.55
M -130.75 -109.95
L -126.5 -119.35 -121.05 -125.3 -113.35 -130.05 -121.95 -121.1 -122.8 -114.65 -127.35 -107.35 -129.85 -108.8 -138.6 -97.15 -138.75 -102.6 -130.75 -109.95
M -29.45 184.15
L -28.85 183.4
Q -28.4 182.9 -27.85 182.9 -27.25 182.9 -27.1 184.1 -26.95 185.25 -26.7 185.25 -26.4 185.25 -26.3 186.25
L -26.35 186.55
Q -26.05 186.5 -25.65 186.95
L -24.6 188.9
Q -24.5 189.4 -24.7 190.15 -24.7 190.95 -25.65 191.2 -26.5 191.35 -26.65 190.4 -26.8 189.45 -27.3 188.65
L -27.35 188.6
Q -27.6 188.1 -27.6 187.85 -27.6 187.75 -27.4 187.45
L -27.4 187.4 -26.9 186.9 -27.5 186.65
Q -28.45 186.15 -29.3 185.5
L -29.55 185.25
Q -29.8 184.85 -29.6 184.5
L -29.55 184.5 -29.5 184.2
Q -29.4 184.2 -29.45 184.15
M -221.75 54.45
L -220.1 54.4 -216.65 55.75 -216 58.3 -218.15 59.15 -220.2 58.05 -221.95 57.55 -221.7 56.95
Q -221.4 56.35 -221.45 56.35
L -222.4 55.6
Q -222.5 55.6 -223.25 52.9
L -222.05 53.25 -221.75 54.45
M -262.3 121.05
L -263.1 120.6 -263.05 120 -263.5 119.1 -262.65 117.8 -261.1 118.7 -260.75 119.85 -262.3 121.05
M -282.05 111.55
L -282.35 113.45 -282.35 118.45 -283.9 122.65 -286.9 122.65 -285.2 118.95 -288.8 118.95 -293.3 122.15 -295.65 120.05 -295.55 122.65
Q -306.15 131.4 -310.35 143.75
L -311.95 142.5
Q -309.9 134.7 -303.65 125.7 -297.75 120.55 -295.65 120.05
L -293.8 117.6 -291.05 117.6 -287.7 114.4 -282.05 111.55
M -305.85 145.45
Q -304.25 144.55 -304.15 144.4
L -303.25 146.3 -304.95 148.1
Q -304.95 148.3 -305.85 145.45
M -293.75 140.95
L -296.3 138.3 -296.45 136.15 -294.4 135.75 -294.4 136.2 -294.45 136.55 -292.3 138.15 -291.45 140.55 -293.75 140.95
M 89.25 -77.75
Q 89.25 -77.9 89 -78.25 88.8 -78.45 88.5 -78.45 88.15 -78.45 87.9 -78.25 87.65 -77.95 87.75 -77.7 87.8 -77.4 88.15 -77.05 88.4 -76.8 88.75 -76.9
L 89.05 -76.9 89.45 -77.1 89.5 -77.1 89.6 -77.15 89.5 -77.25 89.25 -77.75
M 83.6 -78.65
L 85.7 -77.6 87.1 -77.6 85.95 -78.65 83.6 -78.65
M 86.9 -81.7
Q 88.8 -82.65 90.3 -81.7
L 92.3 -80.1 95.75 -79
Q 96.65 -79.6 96.8 -80.85
L 96.8 -81.7
Q 94.35 -81.55 91.6 -83.4 88.2 -82.95 86.9 -81.7
M 65.65 -117.55
L 63.95 -117.45 64.65 -115.25 63.95 -113.75 63.95 -112.5 64.8 -111.15
Q 64.95 -110.65 65.85 -110.75 66.75 -110.75 66.8 -110.95
L 67.35 -112.3 67.15 -112.45
Q 66.85 -112.65 66.95 -112.75 66.7 -112.75 66.55 -115.95
L 65.65 -117.55
M 48.05 -129.95
Q 49.3 -128.9 49.95 -130
L 49.05 -137.8
Q 49 -131.65 48.05 -129.95
M 92.6 -108.85
L 90.6 -109.45
Q 92.7 -104.95 95.9 -101.65
L 95.95 -99.5 100.4 -98.1 108.3 -100.9 111.75 -103.5 114.4 -103.95 114.4 -105 109.15 -104.95 106.3 -105.25 104.25 -103.95
Q 101.45 -103.45 97.45 -105.25
L 92.6 -108.85
M 90.7 -164.9
Q 89.05 -163.15 87.75 -163.45 89.5 -163 90.05 -161.95
L 93.05 -163.6 90.7 -164.9
M 248.25 127.45
L 251.6 124.7 250.9 124.15 245.35 128.4 246.25 129.1 247.25 128.3 248.25 127.45
M 255.75 136.65
L 255.75 136.7 257.25 137.9 263.5 133 262.35 132.25 255.75 136.65
M 258.7 132.35
L 259.2 131.75 253.7 135.05 255.65 136.6 258 133.35 258.7 132.35
M 229.8 116.05
L 231.1 115.05 234.35 112.6 232.3 111.1 227.55 114.25 229.8 116.1 229.8 116.05
M 247.65 130.2
L 252.85 134.4 258.9 129.75 252.9 125.6 247.65 130.2
M 249 122.85
L 249.05 122.85 247.45 121.75 242.3 126 244.4 127.65 246.7 125.25 249 122.85
M 233.65 119.15
L 234.8 120.05 240.05 116.55 238.6 115.5 233.65 119.15
M 240.95 117.2
L 236.25 121.25 239.5 123.85 239.5 123.75 242.8 120.85 244.3 119.55 240.95 117.2
M 230.65 116.8
L 231.45 117.4 236.4 113.95 235.4 113.3 230.65 116.8
M -34.75 -165.6
L -35.8 -166.7 -37.15 -166.75 -42.1 -163.4 -39.85 -162.85 -34.75 -165.6
M 103.75 -86.85
L 104.3 -87.1 107.95 -85.1 103.9 -89.2 101.8 -89.65 98.05 -91.55 97.85 -87.85 101.1 -85.45 103.75 -86.85 Z"/>

<path fill="#231F20" stroke="none" d="
M 276.9 142.45
L 274.75 145.35 276.95 142.5 277 142.45 276.9 142.45
M 132.4 -276.45
Q 76.65 -300 15.6 -300 -45.4 -300 -101.15 -276.45 -155 -253.65 -196.5 -212.15 -238.05 -170.6 -260.8 -116.8 -284.4 -61.05 -284.4 0 -284.4 52.6599609375 -266.85 101.35
L -262.25 96.45 -258.85 86.8
Q -272.15 44.917578125 -272.15 0 -272.15 -58.55 -249.55 -112 -227.7 -163.65 -187.85 -203.45 -148.05 -243.3 -96.4 -265.15 -42.95 -287.75 15.6 -287.75 74.15 -287.75 127.6 -265.15 179.25 -243.3 219.1 -203.45 258.9 -163.65 280.75 -112 303.35 -58.55 303.35 0 303.35 58.55 280.75 112 273.828515625 128.3615234375 265.1 143.55
L 271.25 138.5 277 142.45 276.95 142.5 274.75 145.35 269.35 152.65 263 147.1
Q 244.80703125 177.7607421875 219.1 203.5 179.25 243.3 127.6 265.15 74.15 287.75 15.6 287.75 -42.95 287.75 -96.4 265.15 -148.05 243.3 -187.85 203.5 -219.3171875 172.0328125 -239.55 133.2
L -242.45 134.85 -254.25 131.2
Q -232.3896484375 176.2603515625 -196.5 212.15 -155 253.65 -101.15 276.45 -45.4 300 15.6 300 76.65 300 132.4 276.45 186.2 253.65 227.75 212.15 269.25 170.6 292.05 116.8 315.6 61.05 315.6 0 315.6 -61.05 292.05 -116.8 269.25 -170.6 227.75 -212.15 186.2 -253.65 132.4 -276.45 Z"/>
</g>

<path id="Layer0_0_1_STROKES" stroke="#020303" stroke-width="2.6" stroke-linejoin="round" stroke-linecap="round" fill="none" d="
M -254.25 131.225
L -256.8 130.45 -263.1 134.65 -267.6 139.8 -271.7 139.8
Q -286.9 155.75 -292.65 157.75 -305.3 160.45 -308.3 157.55 -318.7 150 -314.3 141.3 -312.6322265625 137.534375 -311 134.375
L -305.775 125.65
Q -305.3916015625 125.1060546875 -305 124.6
L -304.4 123.9 -293.3 115.55 -284.3 111.3 -272.25 103.75 -268.05 102.7
M -258.85 86.825
L -262.25 96.45
M 265.125 143.55
L 271.25 138.5 277 142.45 276.95 142.5 274.775 145.35 269.35 152.65 263.025 147.1
M -239.55 133.2
L -242.45 134.85 -254.25 131.225
M 81.525 -181.15
L 94.2 -183.4
Q 100.65 -184.7 106.75 -182.75 114 -180.5 118 -176.65
L 118 -176.6 126.75 -164.6 131.55 -152.7
Q 135.9 -140.55 132.6 -123.45 129.4 -114.75 123.6 -107.7
L 115.1 -104.05 112.05 -85.25
Q 109.6 -83.1 107.6 -84.25
L 104.3 -87.1 103.775 -86.825 103.45 -86.65
Q 102.7 -81.1 97.9 -81.85
L 97.9 -80.3
Q 96.9 -74.25 91.95 -75.55 89.4 -69.8 80.3 -70.2
L 79.55 -70.25
Q 75.15 -70.1 65.55 -85.45
L 63.1 -87.05 61.6 -82.9 55.4 -65.8 68.05 -7.45 73.75 14.05 73.75 14.15 94.65 25.25
Q 106.8 31.85 117.35 34.45
L 151.1 50.55 178.9 47.65 194 73.4 193.05 75.9 194.75 78.075 197.65 81.75 197.75 86.6 196.8 87 198.6 88.2 198.65 88.2 227.45 107.75
Q 229.6 111.05 223 110.65
L 211.45 101.6 200.925 92.375 199.4 91.075 195.25 87.45
Q 192.7 87.85 190.65 86.6
L 190.65 86.75 188.9 88.05
Q 185.05 88.45 180.75 85.9
L 173.05 85.75 165.25 88.55
M 160.85 85.3
L 160.7 80.3 156.75 78.8 148.55 79
Q 145.35 79.35 134.7 70 125.25 66.9 113.65 64.05
L 110 69.55 120.7 120.3
Q 119.7 127.25 115.6 132.7 109.65 140.5 97.8 145.25 77.35 147.9 66.55 138.2 64.6 136.55 63.15 134.75
L 50.8 84.65
Q 50.7400390625 84.2970703125 50.7 83.95
L 50.5 81.1
Q 50.5466796875 73.8037109375 55.875 66.6 55.96796875 66.4669921875 56.075 66.325 56.120703125 66.246484375 56.175 66.175 56.2197265625 66.0970703125 56.275 66.025 56.3189453125 65.9478515625 56.375 65.875 56.4427734375 65.7984375 56.5 65.725 56.566796875 65.6490234375 56.625 65.575 56.690625 65.499609375 56.75 65.425 56.9953125 65.1078125 57.25 64.8
M 59.05 62.65
L 63.5 57.35 63.525 57.275
M 64.45 53.15
Q 59.45 47.35 53.45 43.95 35.75 32.75 21.7 29.95
L 19.3 29.5 17.8 43.95 9.1 70.3
M 5.5 88.65
L 5.5 88.7 1.7 94.3 0.85 101.6 -10.05 135.05 -14.55 154.95 -13.75 154.2
M 81.525 -181.15
L 75.25 -180.05 75.2 -180.05
M 62.65 -171.85
L 67.35 -174.55
M 53.85 -162.075
L 44.35 -163.6 42.8 -163.15
M 37.4 -161.65
L 31.15 -166.5
M 23.7 -168.05
L 21.2 -168
Q 10.45 -168 2.4 -169.55
L -1.1 -170.85 -5.35 -170.55 -5.6 -170.45
M -40.6 -166.45
Q -43.75 -165.9 -47.15 -164.25
L -58.45 -159.15
Q -67.2 -155.9 -70.3 -156.6
L -77.45 -152.5 -81.3 -149.2 -87.4 -149.2 -112.85 -134.35
Q -115.5 -141.7 -121.05 -142.35
L -129.65 -130.4 -132.55 -121.1 -138.3 -116.9 -142.25 -110.3 -143.15 -107.4 -147.35 -100.8 -147.8 -97 -153.95 -90.65 -161.95 -67.2 -163.1 -57 -165.7 -51.45 -166.15 -48.8 -169.25 -41.5 -168.35 -37.75 -177.2 -16.25 -189.35 10.95 -189.55 14.9 -199.95 23.3 -208.8 28 -209.3 30.85 -216.35 35.65 -217.2 38.8 -219.9 39.05 -233.8 54.95 -236.65 57.4 -236.65 62.95 -246 68.2 -257.05 81.75 -258.85 86.825
M 67.35 -174.55
Q 71.05 -178.25 75.2 -180.05
M 62.65 -171.85
L 60.65 -169.55 56.05 -161.75 53.85 -162.075
M 23.7 -168.05
L 28.95 -168.2 31.15 -166.5
M 42.8 -163.15
L 37.4 -161.65
M 45.6 -36.65
Q 31.4 -42.6 15.8 -42.8 11 -42.15 7.2 -40.55 4.1 -39.2 1.7 -36.95 2.8 -17.25 11.05 -1.55
L 11.25 5.4 17.05 21.05 19.3 29.5
M 73.75 14.05
Q 57.25 6.1 54.6 -3
L 52.575 -10.625
M 91.15 -74.9
L 91.95 -75.55
M 198.6 88.2
L 197.75 89.55 199.4 91.075
M 196.8 87
Q 196 87.35 195.4 87.4
L 195.25 87.45
M 231.1 115.075
L 234.35 112.6 232.3 111.1 227.55 114.25 229.8 116.1 229.85 116.05 231.1 115.075 Z
M 235.4 113.3
L 230.65 116.8 231.45 117.4 236.4 113.95 235.4 113.3 Z
M 239.5 123.85
L 239.525 123.825 240.9 122.6
Q 241.1236328125 122.4046875 241.35 122.2
L 242.825 120.875
M 239.5 123.85
L 236.25 121.25 240.95 117.2 244.3 119.55 242.825 120.875
M 238.6 115.5
L 240.05 116.55 234.8 120.05 233.65 119.15 238.6 115.5 Z
M 249.05 122.85
L 247.45 121.75 242.3 126 244.4 127.65 246.7 125.275 249.05 122.9 249.05 122.85 Z
M 259.2 131.75
L 259.3 131.65 259.2 131.7 259.2 131.75 258.725 132.375 258.55 132.65 259.3 131.65
M 258.55 132.65
L 258 133.375 255.65 136.6 255.75 136.7
M 262.35 132.25
L 263.5 133 257.25 137.9 255.75 136.7
M 255.65 136.6
L 253.7 135.05 259.2 131.75
M 245.35 128.4
L 250.9 124.15 251.6 124.7 248.275 127.475 247.8 127.875 246.25 129.15 245.35 128.4 246.25 129.1 247.25 128.3 247.8 127.875
M 258.9 129.75
L 252.9 125.6 247.65 130.2 252.85 134.4 258.9 129.75 Z
M 265.125 143.55
L 265.1 143.575 261.95 146.15 263.025 147.1
M 104.725 62.05
L 83.65 58.35
Q 83.30625 58.3015625 82.95 58.25
L 64.45 53.15
M 105.6 62.5
L 105.45 62.2
Q 105.09140625 62.12578125 104.725 62.05
M 105.45 62.2
L 113.65 64.05
M -14.55 154.95
L -22.25 161.1 -22.25 166.9 -25 169.65 -18.5 181.95 7.75 200.7 8.95 203.4
Q 8.9 204.6 8.95 205.9
L 9.05 206.3 9.05 206.6 9.05 206.65 9.2 208.5 9.6 210.3
Q 6.4 215.4 -6.4 217.8 -27.3 214.45 -32.25 208.6 -34.6 205.05 -39.6 201.9 -42.15 200.3 -45.55 198.8
L -53.7 195.75 -55.5 196.8 -65.15 193.7
Q -69.6 192.2 -72.65 188.8 -73.85 185.8 -72.2 182.85
L -74.05 179.65 -69.3 163.2 -70.35 160.85 -69.6 148.65 -63.25 138.5 -48.35 95.85 -49 92.35 -44.15 79.25 -45.45 77.75 -42.55 71 -42.75 66.75
M -37.825 60.475
L -39.375 59.625 -39.6 59.5 -43.6 48.35 -40.4 36.45 -41.65 34.25 -44.8 5.55
Q -55.9 -10.75 -69.7 -25.75
L -80.05 -22.75
Q -86.9 -17.2 -93.2 -11.55 -95.6373046875 -8.40078125 -98.125 -5.425
L -101.2 -1.8
Q -101.72578125 -1.192578125 -102.25 -0.6
L -103.275 0.475 -108.8 6.5 -109.775 7.25 -110.225 7.625 -118.3 14.975 -128.9 24.85
Q -144.55 43.05 -181.45 62.5
L -187.2 78.8 -219.7 116.15 -220.65 119.75
M -231.45 126.3
L -231.45 128.6 -239.55 133.2
M -40.45 -166.475
L -37.15 -166.75 -35.8 -166.7
Q -34.15 -166.65 -32.1 -166
L -25.9 -168.65 -5.6 -170.45
M -110.225 7.625
L -110.15 7.55"/>
</defs>

<g transform="matrix( 1, 0, 0, 1, 0,0) ">
<use xlink:href="#Layer0_0_FILL"/>

<use xlink:href="#Layer0_0_1_STROKES"/>
</g>
</svg>
