
<svg xmlns="http://www.w3.org/2000/svg" version="1.1" xmlns:xlink="http://www.w3.org/1999/xlink" preserveAspectRatio="none" x="0px" y="0px" width="1920px" height="1080px" viewBox="0 0 1920 1080">
<defs>
<g id="Layer0_0_FILL">
<path fill="#231F20" stroke="none" d="
M 114.85 -277.3
Q 60.1 -300 0 -300 -60.1 -300 -114.85 -277.3 -169.6 -254.65 -212.15 -212.15 -254.65 -169.65 -277.3 -114.9 -300 -60.1 -300 0 -300 60.1 -277.3 114.85 -254.65 169.6 -212.15 212.1 -169.65 254.6 -114.85 277.3 -60.1 300 0 300 60.1 300 114.85 277.3 169.65 254.6 212.15 212.1 254.65 169.6 277.3 114.85 300 60.1 300 0 300 -60.1 277.3 -114.9 254.65 -169.65 212.15 -212.15 169.6 -254.65 114.85 -277.3
M 42.7 -248.9
L 42.7 -247.85 43.35 -246.85
Q 43.75 -246.45 44 -245.85 44.25 -245.25 44.4 -245.1
L 45.8 -243.4
Q 46.05 -243.1 46.6 -242.3 46.95 -241.7 47.15 -241.7 47.5 -241.35 47.5 -239.95
L 47.5 -239.25
Q 47.5 -238.6 46.8 -237.9
L 46.1 -237.2
Q 45.6 -236.8 43.9 -235.2 43.1 -234.45 42.7 -234.45
L 42.5 -234.1
Q 42.2 -233.6 42 -232.75
L 45.1 -232.05
Q 43.1 -232.05 41.8 -231.85 40.6 -231.6 40.6 -231.35
L 37.15 -231.35
Q 36.5 -230.6 36.5 -229.95
L 36.5 -226.2 35.45 -225.15 34.05 -224.1
Q 34.05 -224 33.4 -223.05 32.6 -221.85 32 -220.7 31.55 -220.7 29.95 -219.65
L 28.2 -218.95
Q 26.85 -218.6 24.45 -218.25 22.7 -217.65 22.7 -217.25
L 22 -216.55 22 -215.85
Q 22.35 -215.5 22.7 -215.5
L 23.4 -215.5
Q 24.05 -215.5 24.8 -214.85
L 22.35 -214.85
Q 22 -214.85 22 -214.15
L 22 -213.8
Q 22 -213.2 21 -211.75
L 21.7 -211.4
Q 22.35 -210.7 23.4 -210.7
L 24.45 -210.35 26.15 -210.35
Q 26.5 -210 27.9 -209.3 28.9 -208.3 29.25 -208.3 31.3 -207.6 32 -206.9 32.45 -206.9 33.05 -205.2 33.25 -205 33.55 -204.8 33.85 -204.55 34.05 -204.15 34.4 -203.45 34.75 -203.45 34.75 -202.45 35.1 -201.4 34.75 -200.85 33.95 -199.15 33.45 -198.15 33.05 -197.95
L 30.3 -195.55
Q 30.3 -195.2 28.9 -195.2
L 22.7 -194.15 19.95 -194.15 19.95 -193.15
Q 19.95 -191.75 19.25 -191.05 19.25 -190.95 18.6 -189
L 18.6 -186.25
Q 18.6 -184.9 18.25 -184.55 18.25 -183.85 17.9 -183.15 17.9 -182.45 16.85 -182.45
L 15.85 -182.1 15.5 -181.8
Q 15.3 -181.4 14.35 -180.7 12.5 -179.45 12.4 -179.35
L 10 -178.7 10.05 -178.5
Q 10.1 -178.2 10.3 -178 11 -177.3 11.7 -176.95 12.4 -176.25 12.4 -175.95 10.95 -175.7 10.5 -175.6 9.85 -175.45 9.65 -175.25
L 9.3 -175.25
Q 6.9 -175.6 4.45 -175.6 5.7 -175.4 7.4 -174.95 8.8 -174.55 9.3 -174.55
L 9.65 -174.55
Q 11.65 -173.85 11.7 -173.85
L 13.4 -172.5
Q 14.1 -172.5 14.8 -172.15
L 15.15 -172.15 15.15 -170.4 15.85 -168
Q 15.85 -167 16.5 -165.95
L 16.5 -163.2
Q 16.5 -162.15 14.8 -162.15 14.1 -162.15 14.1 -162.85 13.4 -163.55 13.05 -163.55
L 12.05 -163.55
Q 11.4 -164.2 10.65 -164.2 10.05 -164.2 9.55 -164.35 9.05 -164.55 8.95 -164.55 8.95 -164.75 8.45 -164.95 7.65 -165.3 7.2 -165.6 6.9 -165.6 6.2 -165.75 5.5 -165.95 5.15 -165.95
L 3.1 -165.95
Q 2.05 -165.95 1 -165.6 -0.7 -165.6 -1.4 -165.25 -3.9 -163.9 -4.85 -163.55 -5.4 -162.8 -6.3 -161.9 -7.1 -161.1 -7.25 -160.8
L -7.25 -158.7
Q -7.25 -156.65 -7.6 -155.95
L -7.9 -153.9
Q -8.25 -153.2 -8.25 -152.15 -8.25 -151.15 -6.55 -148.4
L -5.5 -147.7
Q -7.6 -148.4 -7.9 -148.75 -8.95 -148.75 -10 -149.1 -11.5 -149.55 -12.05 -149.1
L -14.45 -149.1
Q -15.3 -149.3 -16.15 -149.35
L -16.85 -149.4
Q -18.35 -148.75 -20.3 -148.75
L -22.75 -148.4
Q -23.1 -148.4 -24.2 -148.1 -25.65 -147.7 -27.2 -147
L -34.75 -145.3
Q -35.1 -145.3 -35.8 -144.95
L -36.5 -144.95 -38.55 -144.6
Q -39.95 -143.55 -40.3 -143.55
L -41.3 -142.9
Q -41.4 -142.8 -41.8 -142.55 -42 -142.4 -42 -142.2 -42.1 -142.1 -42.5 -141.85 -42.7 -141.7 -42.7 -141.5
L -42.7 -140.15 -43.75 -139.45
Q -44.4 -138.75 -44.4 -138.05 -44.75 -138.05 -45.45 -137.35
L -46.15 -136.35
Q -47.45 -134.25 -47.85 -134.25 -47.85 -133.6 -48.2 -133.25 -48.55 -132.55 -48.9 -132.2 -48.9 -130.85 -48.2 -128.4
L -45.45 -128.75
Q -44.3 -128.05 -43.75 -127.4
L -43.7 -127.2
Q -43.6 -126.9 -43.4 -126.7 -43.4 -125.65 -43.05 -125.3 -42.45 -124.8 -43.4 -124.3 -43.75 -123.6 -43.75 -123.25 -43.75 -123 -43.95 -122.75 -44.15 -122.55 -44.4 -122.55 -45 -122.3 -45.2 -122.25 -45.45 -122.1 -45.45 -121.9 -45.45 -121.55 -44.75 -120.85 -44.05 -120.15 -44.05 -119.8
L -43.75 -119.15
Q -43.4 -118.8 -42.7 -118.8 -42.5 -118.7 -41.85 -118.45 -41.5 -118.3 -41.3 -118.1 -41 -118.1 -39.95 -117.05 -39.25 -116.35 -38.55 -116.35 -38.15 -116.55 -37.7 -116.5 -36.95 -116.35 -36.85 -116.35 -36.85 -116.05 -36.15 -115.35 -35.8 -115.35 -35.1 -114.65
L -34.9 -114.2
Q -34.75 -113.7 -34.75 -113.25 -34.45 -112.95 -34.45 -111.9
L -35.1 -110.85
Q -35.45 -110.5 -35.8 -110.5
L -36.85 -110.5
Q -37.3 -110.7 -37.55 -111.1 -37.85 -111.7 -38.2 -112.25 -38.7 -113.65 -39.95 -114.3 -39.95 -114.55 -40 -114.6 -40.05 -114.65 -40.3 -114.65 -42 -114.65 -42.7 -113.95 -42.7 -114.65 -44.4 -114.65 -45 -114.65 -45.3 -114.8 -45.8 -115 -46.5 -115.7 -48.2 -117.05 -48.55 -117.05 -49.6 -117.4 -50.25 -117.4 -51.3 -118.1 -52.35 -118.1 -53.7 -118.1 -55.45 -117.4
L -58.85 -117.4
Q -59.2 -117.4 -60.6 -118.1
L -61.65 -118.1
Q -62.65 -118.1 -64.05 -117.4 -66.1 -116.7 -66.1 -116.35 -66.3 -116.35 -66.65 -116 -67.15 -115.5 -67.5 -115.35 -68.5 -114.65 -69.55 -113.95 -69.8 -113.95 -70.05 -113.75 -70.25 -113.5 -70.25 -113.25 -70.25 -112.6 -70.55 -112.25 -70.75 -112.25 -71.15 -111.75 -71.95 -110.85 -72.3 -110.5
L -73.65 -108.45 -74 -108.45
Q -74.2 -108.05 -74.55 -107.75 -75.3 -107.2 -75.4 -107.1
L -76.75 -106.75
Q -76.9 -106.6 -77.15 -106.2 -77.4 -105.75 -77.8 -105.35
L -78.85 -104.35
Q -78.85 -103.65 -79.55 -103.3 -79.85 -102.6 -79.85 -102.25 -79.85 -102.05 -81.6 -99.15
L -82.95 -96.05
Q -83.1 -95.9 -84.25 -94.9 -84.85 -94.4 -85.05 -94 -85.2 -94 -85.4 -93.95 -85.85 -93.85 -86.05 -93.65
L -88.15 -93.3
Q -89.25 -92.9 -90.55 -91.6
L -91.9 -89.85
Q -93.45 -88.4 -95 -86.4
L -96.75 -84.35
Q -96.9 -84.35 -97.1 -84 -97.25 -83.65 -97.45 -83.65 -97.75 -83 -98.1 -82.65
L -98.8 -81.25
Q -99.25 -80.8 -99.45 -80.4 -99.6 -80.15 -99.85 -79.55 -100.2 -79.2 -100.5 -77.8 -100.95 -77.4 -101.15 -76.95 -101.3 -76.7 -101.55 -76.1 -101.55 -75.75 -102.25 -75.05 -102.25 -74.45 -103.6 -73.7
L -104.8 -72.65
Q -106.05 -71.6 -107.05 -70.6 -107.25 -70.4 -107.4 -70.05 -107.65 -69.35 -107.75 -69.2 -108.1 -68.85 -108.1 -68.5 -108.5 -68.3 -108.75 -67.85 -109.05 -67.25 -109.15 -67.15
L -109.15 -65.1 -110.85 -62.35 -111.55 -60.25 -111.55 -57.85
Q -110.5 -53.2 -110.5 -52 -110.05 -51.1 -110.5 -50.3
L -110.85 -49.95 -110.85 -49.25
Q -110.85 -48.8 -111.05 -48.4 -111.2 -48.1 -111.55 -47.55 -111.9 -47.2 -111.9 -45.8
L -110.5 -44.75
Q -111.1 -43.6 -112.25 -43.05 -112.85 -42.35 -113.6 -42.35
L -115 -42.35 -116.7 -41.35 -118.45 -39.6
Q -121.75 -36.75 -123.6 -35.8 -125.05 -35.2 -125.5 -35.05 -126.25 -34.8 -126.7 -34.8 -127 -34.8 -128.05 -33.75 -129.1 -32.7 -129.45 -32.7
L -132.55 -32.7
Q -133.55 -32.7 -135.65 -33.75
L -135.65 -32.7
Q -136.35 -32.7 -136.35 -32.05
L -135.65 -31.35
Q -135.65 -31 -136 -31 -136.35 -30.3 -138.4 -30.3
L -139.1 -29.3
Q -141.45 -26.25 -141.5 -26.2
L -142.2 -25.85 -142.35 -25.65
Q -142.5 -25.35 -142.5 -25.15
L -144.25 -25.15
Q -145.3 -24.8 -146.65 -24.8
L -149.05 -25.15
Q -149.4 -25.15 -150.45 -24.8 -151.15 -24.45 -152.15 -24.45
L -152.85 -25.15
Q -152.65 -25.15 -152.7 -25.35 -152.85 -25.75 -152.85 -25.85
L -153.55 -25.85 -154.55 -25.5
Q -154.75 -25.25 -156.05 -25.4 -158 -25.65 -159.4 -25.85 -160 -26.05 -160.65 -26 -161.25 -25.85 -161.45 -25.85
L -161.1 -25.5 -161.1 -25.15 -161.15 -24.95
Q -161.25 -24.65 -161.45 -24.45
L -161.45 -23.45
Q -161.45 -22.4 -161.8 -22.05 -162.85 -21 -163.5 -20 -164.2 -18.8 -164.55 -18.55 -164.85 -18.3 -164.55 -18.95
L -168.7 -17.6 -168.7 -11.4
Q -168.7 -10.95 -168.9 -10.5 -169.05 -10.25 -169.35 -9.65
L -170.05 -8.95 -173.15 -6.55
Q -173.15 -6.4 -173.35 -6.1 -173.65 -5.75 -173.85 -5.2
L -175.55 -2.1
Q -175.9 -1.75 -176.25 -1.05 -176.7 -0.1 -178.3 0.65 -178 1.35 -178 2.05
L -178.3 8.25
Q -178.3 11 -178.65 11.35 -178.65 12.05 -179.35 12.7 -179.6 12.95 -180.15 13.35 -180.4 13.55 -180.4 13.75 -181.1 14.45 -182.45 15.15 -183.15 16.45 -183.15 16.85 -182.95 16.85 -183 17.15 -183.15 17.8 -183.15 18.25
L -183.5 20.3 -183.5 22.7 -185.55 28.2
Q -185.55 28.9 -185.7 30.7 -185.75 31.65 -185.55 31.65
L -184.5 35.45
Q -184.2 35.8 -184.2 37.5
L -183.85 46.45
Q -183.85 47.6 -183.7 50.55 -183.65 52.1 -183.85 52.3 -183.85 52.85 -183.95 52.95 -184 53.1 -184.5 53.35
L -188.65 53.35
Q -189.1 53.15 -189.8 53.2 -190.5 53.35 -190.7 53.35 -191.2 54.05 -192 55 -192.55 55.8 -192.8 56.45 -193.15 56.8 -194.15 58.5 -194.15 60.2 -194.85 60.9 -195.55 61.95 -195.9 62.65 -196.05 62.85 -196.45 63.35 -196.95 63.8 -197.6 64 -197.25 64.35 -197.25 65.05
L -197.5 65.7
Q -197.85 66.45 -198.3 67.1
L -204.85 71.95
Q -205.15 72.45 -205.65 73.2 -205.95 73.65 -206.2 73.65 -206.55 74.4 -207.6 75.35
L -207.6 77.45
Q -207.6 78.1 -208.6 78.1
L -210 78.8
Q -211 78.8 -211.35 79.5
L -212.75 80.9 -214.45 83.3
Q -215.15 84.6 -215.15 87.05 -215.15 89.5 -215.5 91.55 -215.5 99.45 -215.15 103.95 -215 104.1 -214.8 104.6 -214.65 104.95 -214.45 104.95 -214.35 105.05 -214.1 105.45 -213.95 105.65 -213.8 105.65 -213.55 105.65 -213.3 106.1 -213.1 106.55 -213.1 107.05 -213.05 107.15 -212.75 107.85 -212.6 108.2 -212.4 108.4 -211.85 108.95 -212.4 111.5 -210 111.15 -207.95 111.15 -206.2 111.15 -204.85 111.85 -203.1 111.85 -201.75 112.2 -199.8 112.2 -198.3 113.25 -197.95 113.45 -197.6 113.75 -197.25 114.1 -196.9 114.25
L -194.85 115.3
Q -193.45 116 -193.15 116.35
L -192.45 117.35
Q -192.3 117.5 -191.7 117.9 -191.1 118.35 -190.7 118.75 -190.05 119.4 -190.05 119.75
L -187.95 122.2
Q -187.95 122.45 -186.6 123.2
L -184.2 124.6
Q -183.85 124.6 -182.8 125.65
L -179.35 127.7
Q -178.65 128.05 -177.65 128.5 -176.95 128.85 -176.95 129.05 -176.6 129.4 -175.9 129.05
L -173.5 128.7
Q -172.8 128.4 -171.1 128.4 -169.7 128.4 -169.35 128.05
L -166.6 128.05 -166.35 128.25
Q -166 128.4 -165.6 128.4 -164.9 128.7 -164.9 129.05
L -164.55 129.75 -164.3 129.95
Q -163.95 130.1 -163.5 130.1 -163.2 130.45 -162.5 130.45 -162.05 130.7 -161.6 130.5 -161.4 130.4 -160.4 129.75 -160 129.35 -159.45 128.95
L -158.7 128.4
Q -158.15 128.4 -158.1 128.45 -158 128.5 -158 128.7
L -157.65 129.4
Q -157.6 129.45 -157.2 129.75 -157 129.9 -157 130.1 -156.6 130.3 -156.35 130.65
L -155.95 131.15
Q -155.6 131.15 -154.9 131.5 -153.75 132.5 -153.2 132.85 -152.9 133 -152 133.2 -151.3 133.35 -151.15 133.55 -150.9 133.8 -150.25 133.8 -149.65 133.8 -149.4 133.55 -148.7 133.15 -147.45 132.15 -146.7 131.5 -146.3 131.5
L -146.05 131.65
Q -145.7 131.8 -145.3 131.8 -144.6 132.5 -143.9 132.5 -143.35 132.75 -143.15 132.1 -142.95 131.45 -143.2 130.45
L -140.45 126.3
Q -140.95 131.35 -141.5 131.8 -141.85 133.2 -141.85 134.25 -141.85 134.9 -141.5 135.95
L -141.15 137.35
Q -141.15 137.6 -140.95 137.8 -140.7 138 -140.45 138 -139.45 138.35 -138.75 138.35 -138.4 138.35 -137 139.05
L -134.95 139.75
Q -134.95 140.1 -133.55 140.1 -132.7 140.1 -132.5 140.15 -132.2 140.2 -132.2 140.45
L -129.45 143.2
Q -129.35 143.3 -128.95 143.55 -128.75 143.7 -128.75 143.85
L -127.7 143.55 -126.7 143.55
Q -126.35 143.7 -125.9 143.85 -125.65 144 -125.65 144.2 -125.65 144.45 -125.45 144.7 -125.2 144.9 -124.95 144.9
L -123.95 145.25 -114.3 145.25
Q -113.6 145.25 -113.25 144.9 -113.25 144.45 -113.05 144.3
L -112.9 144.2
Q -112.65 144.2 -112.45 144 -112.25 143.8 -112.25 143.55
L -111.9 142.15 -110.85 142.15 -110.85 145.6
Q -110.85 146.05 -111.35 146.7 -111.6 147 -112.9 148.35
L -110.85 149.05
Q -109.5 149.05 -108.1 148.7 -105.8 149.85 -105.35 150.75 -105.1 151.3 -104.8 151.3 -104.45 151.3 -103.95 150.75
L -101.2 148.35 -97.75 150.05 -95 149.7 -94.35 150.75 -95 151.1
Q -95 151.8 -95.35 151.8
L -95.35 152.15
Q -95.35 152.4 -95.45 152.5 -95.5 152.6 -96.05 152.8
L -97.75 153.15 -100.2 153.15
Q -100.4 153.15 -100.4 153.35 -100.4 153.6 -100.2 153.85 -99.85 154.05 -99.55 154.35 -99.3 154.55 -99.15 154.55 -98.7 155.45 -99.15 157.3 -100.5 159.05 -100.5 159.35
L -100.45 159.55
Q -100.4 159.85 -100.2 160.05
L -100.15 160.25
Q -100.05 160.4 -99.85 160.4 -99.85 160.6 -99.65 160.95 -99.5 161.3 -99.5 161.45
L -98.45 162.45
Q -98.1 162.6 -97.4 163.35 -96.6 164.15 -96.05 164.5
L -95 165.9
Q -94.6 165.9 -94.4 166.1 -94.25 166.25 -94 166.6 -93.65 166.95 -93.3 168.3
L -91.55 173.8 -91.55 178.3
Q -91.55 178.7 -90.9 179.35
L -90.2 180 -90.15 180.4
Q -90.05 180.85 -89.85 181.05 -89.85 181.75 -89.5 181.75 -89.15 182.1 -89.15 182.45
L -88.5 183.1 -87.45 183.45 -87.1 183.45
Q -85.7 183.45 -85.7 184.15
L -85.05 185.2
Q -84.7 186.2 -84.7 186.55 -84.7 186.75 -84.5 187.1 -84.1 187.8 -84 187.95 -83.85 188.05 -82.9 188.7 -82.5 188.95 -82.3 188.95 -82.3 189.5 -81.25 190 -80.55 190.35 -80.2 190.7 -80.15 190.75 -79.75 191.05 -79.55 191.2 -79.55 191.4
L -78.15 192.4
Q -77.9 192.95 -77.75 193 -77.6 193.1 -77.1 193.1
L -76.45 192.75
Q -76.45 192.4 -75.75 192.4 -75.55 192.6 -75.2 192.55 -74.5 192.4 -74.35 192.4
L -73.65 192.05
Q -72.3 191.7 -70.55 191.7 -70.4 191.9 -70.15 192.05 -70.05 192.2 -70.25 192.4
L -70.55 193.45
Q -71.05 193.45 -70.55 194.5 -70.1 195.5 -69.55 195.5 -68.75 195.75 -68.65 195.75 -68.5 195.75 -68.5 195.5
L -69.2 193.45
Q -68.5 193.1 -67.5 192.05
L -67.15 192.05
Q -66.35 192.05 -65.7 192.25 -65.05 192.5 -65.05 192.75
L -62.3 194.8
Q -61 195.5 -60.6 195.5
L -59.2 196.2
Q -58.85 196.55 -58.2 196.55
L -57.15 196.55 -56.5 197
Q -56.3 197.1 -56.1 196.9
L -55.75 196.55
Q -54.75 196.55 -54.75 195.15 -52.35 194.55 -52.35 194.8 -52.3 194.8 -48.9 195.5
L -43.05 198.25 -42 199.3
Q -42 200 -40.95 200 -40.8 200 -40.45 200.2 -40.15 200.35 -39.95 200.35
L -37.55 202.4 -34.75 202.4 -34.75 206.2
Q -34.75 207.2 -34.45 207.9 -34.1 208.6 -33.75 208.95
L -33.05 209.3
Q -33.05 209.6 -32.35 210.3 -31.7 211 -31 211.35 -30.3 212.05 -29.6 212.05 -28.75 212.8 -28.25 213.05 -28.05 213.45 -27.7 213.7
L -27.2 214.1
Q -26.15 214.45 -25.5 215.15
L -25.5 215.45
Q -24.95 215.45 -24.85 215.5 -24.7 215.55 -24.45 215.8
L -23.05 216.15
Q -23.05 216.5 -22.05 216.5
L -19.95 216.15
Q -19.3 216.15 -19.3 216.85
L -19.3 217.2 -18.25 217.2 -18.6 216.85
Q -18.25 216.5 -17.9 216.5 -17.4 216.5 -16.85 218.55
L -17.2 219.6
Q -16.623046875 220.705859375 -17.1 221.3
L -16.85 221
Q -16.4 220.75 -16.1 220.9 -15.85 221.05 -15.85 221.35 -16 221.35 -16.45 221.7 -17 222.15 -17.55 222.35 -17.2 223.05 -16.55 223.05 -16.2 223.4 -15.15 223.4
L -14.1 223.4 -13.45 224.4
Q -13.45 225.45 -12.75 225.45
L -11.35 225.45
Q -10.7 225.8 -10 225.8
L -8.25 225.8
Q -7.95 225.95 -7.65 226.3 -7.45 226.5 -7.25 226.5 -6.95 226.5 -5.85 227.5
L -4.85 228.2
Q -4.4 228.2 -4 228.6 -3.8 228.8 -3.45 229.25 -3.25 229.25 -3.1 229.6 -2.9 229.95 -2.75 229.95 -2.75 230.25 -3.05 230.6 -3.45 231.05 -4.15 231.3 -4.85 232 -4.85 232.7
L -4.85 233.05
Q -4.85 233.3 -4.8 233.3 -4.75 233.35 -4.5 233.35
L -2.05 233.35 -1.4 233.7 0.35 233.7
Q 0.45 233.7 0.95 233.55 1.45 233.35 2.05 233.35
L 3.1 232.7 5.5 232.7
Q 5.8 232.7 6.55 233.35 7.05 233.35 7.55 234.4
L 7.9 235.1
Q 8.25 235.1 8.25 236.15 8.95 236.15 9.3 236.45
L 10.3 236.45
Q 10.65 236.8 10.65 235.8
L 10.3 234.05
Q 10.65 233.7 10.65 233.05 10.65 232.7 9.65 232.7
L 8.95 230.25 10.65 229.95 15.85 228.2
Q 18.85 229.5 21 230.95
L 21.35 230.95
Q 22.7 232.35 24.8 233.05 25.2 233.25 25.9 232.95 27.15 232.45 27.55 232.35
L 35.45 232.35
Q 36.15 232.35 36.5 232 37.5 231.65 38.2 231.65 38.8 231.65 39 231.75 39.25 231.85 39.25 232.35 39.6 232.7 39.95 233.35 39.95 233.75 40.6 234.4 40.6 236.15 40.25 236.8 42.6 237.4 43 237.85 43.35 237.85 47.5 238.55 49.5 239.55 50.25 239.55
L 51.3 240.6 51.95 242
Q 53 243 53 243.7
L 52.65 245.4 53 247.5 54.4 248.2 54.75 244.05 57.15 243 55.4 240.6 56.1 237.85
Q 56.9 237.85 57.9 237.7 58.95 237.5 59.2 237.5 59.4 237.5 59.55 237.35 59.75 237.15 59.9 237.15
L 59.9 236.8
Q 59.9 236.7 60 236.65 60.15 236.45 60.6 236.45 60.9 236.85 62.65 235.1
L 64.7 234.05 65.05 231.3 62.65 227.2 61.95 223.05 63.7 221 67.45 221 69.2 224.1 69.85 227.2 68.15 230.95 66.1 233.05 66.45 235.45 67.8 236.8 69.2 238.9 63.7 240.25
Q 63.5 240.25 63.35 241.3 63.25 242 63 244.4 65.25 245.2 66 245.4 67 245.65 67.45 245.4 68.5 245.4 70.9 242
L 75.4 239.55
Q 75.7 239.4 78.8 237.5 80.2 237.85 81.9 237.85
L 86.05 237.85
Q 86.25 237.85 86.4 237.6 86.6 237.15 86.75 236.8 87.2 236.2 87.35 235.6
L 87.45 235.1
Q 87.45 235.05 87.8 234.3 88.1 233.5 88.1 232.7
L 89.15 235.45
Q 89.85 235.8 90.85 235.8 91.55 235.8 91.55 235.45
L 92.6 234.75
Q 92.6 234.6 93 234.2 93.5 233.7 93.65 233.35 94.3 232.7 94.3 232.35 94.3 232 94.9 230.6 95.7 228.8 97.05 226.5
L 97.4 223.05 97.8 222.55
Q 98.05 222.2 98.45 222 98.65 221.6 99 221.4 99.45 221.05 99.5 221 101.2 219.95 103.25 218.9 103.7 218.45 105.35 217.9 106.35 217.2 106.35 216.85
L 107.05 216.15
Q 107.3 216.15 107.35 216.1 107.4 216.05 107.4 215.8
L 109.45 216.5
Q 111.15 217.35 111.85 218.9 112.3 219.75 114.95 220.3
L 117.7 223.05
Q 117.7 223.4 118.4 224.1
L 119.8 224.1
Q 121.15 224.1 121.5 223.75 121.7 223.55 122 223.45 122.1 223.4 122.2 223.4 122.9 223.4 123.6 224.1 123.9 224.75 124.95 224.75
L 126.65 224.75
Q 127.6 224.75 128.75 223.05 129.65 222.45 130.8 221.35 131.85 221.35 131.85 220.65
L 132.55 219.6
Q 133.25 219.25 134.45 218.95 135.45 218.7 135.6 218.55 136.35 218.1 137 218.05 137.6 218 138.4 218.25 139.4 218.55 140.1 218.9 140.35 219.4 140.75 219.5 141.05 219.6 142.15 219.6
L 144.25 219.6 144.65 219.8
Q 145.15 219.95 145.6 219.95 147 219.95 147.35 220.3
L 147.35 222.35 147.5 222.55
Q 147.75 222.85 148.35 223.05 149.4 223.75 149.75 224.1 150.5 224.75 150.75 224.75
L 150.95 224.8
Q 151.1 224.9 151.1 225.1 151.55 225.4 152.35 225.75 152.85 225.95 152.85 226.15
L 155.6 228.9 158 232.7
Q 158 236.15 157.65 237.85 147.527734375 244.8689453125 138.1 250.65 124.2998046875 258.2826171875 109.55 264.4 57.3 286.05 0 286.05 -57.3 286.05 -109.5 264.4 -161.75 242.75 -202.25 202.25 -242.8 161.7 -264.4 109.5 -286.05 57.3 -286.05 0 -286.05 -57.35 -264.4 -109.55 -242.8 -161.75 -202.25 -202.3 -161.75 -242.8 -109.5 -264.4 -57.3 -286.05 0 -286.05 57.3 -286.05 109.55 -264.4 161.75 -242.8 202.25 -202.3 242.8 -161.75 264.4 -109.55 286.05 -57.35 286.05 0 286.05 57.3 264.4 109.5 242.8 161.7 202.25 202.25 186.835546875 217.664453125 169.7 230.35 169.9474609375 227.5736328125 170.05 225.45 169.9 225.3 168.95 224.9 167.85 224.45 167.3 224.1 164.55 223.4 164.55 223.05
L 162.45 223.05
Q 161.1 222.35 160.75 222.35 160.3 221.25 160.05 220.5 159.6 219.2 159.4 217.9
L 159.05 216.15
Q 159.65 216.15 159.3 216 158.95 215.8 158 215.8
L 155.95 215.8 152.85 212.7
Q 150.45 213.4 149.75 213.4
L 147.35 213.4 145.6 212.7
Q 143.7 212.2 142.85 211.35
L 142.85 211
Q 142.65 211 142.55 210.65
L 142.5 210.3
Q 142.3 210.3 142 209.95
L 141.8 209.6
Q 141.4 209.4 141 208.95 140.65 208.45 140.45 208.25
L 139.05 211 137.35 206.85
Q 135.2 205.85 134.6 205.85 133.55 208.6 133.55 211
L 133.55 213.75
Q 132.1 215.2 131.5 215.45
L 130.8 215.45
Q 130.45 216.15 130.1 216.15
L 128.75 217.2
Q 126.2 218.9 125.3 219.6
L 122.2 219.6
Q 122.2 218.6 121.5 217.9 121.15 217.9 121.15 217.55 117.95 216.15 117.4 216.15
L 116.35 216.15
Q 116.1 216.15 116.05 216.05 116 216 116 215.45 116.7 213.45 116.7 211
L 114.95 208.95 114.65 207.55 114.65 207.2
Q 114.65 206.95 114.7 206.9 114.75 206.85 114.95 206.85
L 114.65 205.85
Q 114.45 205.05 114 204.25 113.6 203.5 113.6 203.4
L 110.15 195.85 110.15 194.15 111.55 192.75 111.55 189.65 109.8 184.85
Q 109.8 183.45 110.5 182.1 109.1 181.15 109.1 180.7
L 109.1 179.65
Q 108.85 179.45 108.85 179 108.85 178.55 109.1 178.3 109.1 177.75 110.15 176.25 110.55 175.25 111.1 174.35 111.55 173.6 111.55 173.5 111.95 173.15 112.2 172.9 112.7 172.4 112.9 171.75 113.45 170.7 113.95 170.7 114.3 170.4 114.95 170.4
L 117.4 170.4 118.05 170.7
Q 118.35 171 119.1 170.4
L 119.8 168.3
Q 120.15 167.6 120.15 166.95 120.35 166.75 120.3 166.25 120.15 165.75 120.15 165.55
L 119.8 164.5
Q 119.8 164 121.5 162.8 121.5 162.65 121.7 162.45 121.85 162.3 121.85 162.1 122 162.1 122.4 161.8 122.85 161.45 123.25 161.45
L 126.35 160.05
Q 126.95 159.35 128.4 159 130.1 159 130.1 158 130.5 157.8 130.75 157.5
L 131.15 156.95
Q 131.5 156.6 131.5 155.6
L 131.85 152.5
Q 131.85 151.45 132.2 150.4
L 133.55 148
Q 134.1 147.5 134.6 147.1 134.8 146.95 134.6 146.95 134.25 146.6 134.25 146.3 134.25 146.15 134.3 145.95 134.4 145.6 134.6 145.6 135.95 144.65 135.95 144.2
L 136.65 143.55
Q 136.85 143.35 137 143 137.25 142.35 137.35 142.15 137.7 140.45 137.7 138.7 137.7 138.5 137.9 138.1 138.25 137.5 138.4 137 138.4 135.95 138.7 135.95
L 138.7 134.9
Q 138.4 134.6 138.4 133.9 137.8 132.7 136.3 133.2
L 130.1 134.9
Q 129.75 134.6 129.75 133.9 129.75 131.8 130.1 131.5 130.65 129.25 131.5 128.05 131.85 127.55 132.15 127.1 132.75 126.25 133.55 125.65 133.55 125.5 133.75 125.15 133.9 124.8 133.9 124.6 134.95 123.55 135.3 122.85 135.3 122.5 135.95 121.85 137 121.5 137.7 121.15 138.7 120.8 139.4 120.1 139.4 119.9 140 119.55 140.8 119.1 141.15 118.75 142.15 118.05 142.15 117.7 142.15 116.95 142 115.9 141.8 114.85 141.8 114.6 141.45 114.2 140.8 112.2 139.95 111.4 139.35 110.45 138.75 109.5 138.7 109.45
L 138.05 109.1
Q 137.7 108.75 137.7 108.05
L 137.7 107.05
Q 137.7 106.8 137.9 106.55 138.15 106.35 138.4 106.35 138.9 106 139.8 105.7 140.45 105.5 140.45 105.3 140.45 104.65 139.4 103.6 136 103 135.6 102.2 134.8 102.2 132.55 99.45
L 131.85 98.8
Q 131.5 98.8 130.8 98.1
L 129.45 95.7
Q 129 95.25 128.65 94.5 128.4 93.95 128.4 93.6 128.2 93.4 126 89.5 125.9 89.4 125.65 89 125.5 88.8 125.3 88.8
L 124.25 88.1
Q 123.8 88.1 123.25 87.05
L 122.9 85.7
Q 122.05 85.7 121.5 84.65 120.5 84.15 120.5 83.3
L 119.1 79.15
Q 119.1 78.75 118.4 77.45
L 115.3 71.25
Q 114 69.9 113.25 68.5 113.25 68.15 112.2 65.05 111.85 65.05 111.85 63.65 111.85 63.35 111.7 62.8 111.55 62.3 111.55 61.95 111.3 61.1 111.2 60.85 111.1 60.55 110.85 60.55 110.6 60.05 110.15 59.65 109.7 59.2 109.45 59.2 109.45 58.6 108.1 58.15 107.75 58.15 107.05 57.45 105.9 56.4 105.35 54.7 103.2 52.6 102.6 50.6 102.25 48.85 102.25 48.15
L 102.25 44.4 102.6 43
Q 102.6 42.55 102.4 42.15 102.1 41.65 101.9 41.3
L 101.9 40.25
Q 101.9 40.1 101.5 39.65 101.05 39.1 100.85 38.55
L 98.1 36.8
Q 96.25 35.65 95.7 35.1 95.1 34.5 94 33.75 92.85 32.95 92.6 32.7 92.25 32.7 91.55 32.35 91.55 32.1 91.15 31.85 90.8 31.65 90.55 31.65
L 87.45 29.95
Q 86.8 29.95 79.5 24.75
L 75.05 23.4
Q 74.35 23.05 73.65 23.05 73.45 22.85 73.1 22.7 72.5 22.45 72.3 22.35 71.8 22.35 71.65 22.25 71.5 22.2 71.25 21.65 70.9 21 70.2 20.3 69.5 19.6 69.2 19.6 69.2 18.903125 68.85 18.9 69.047265625 18.898046875 68.7 18.65 68 18.1 67.8 17.9
L 66.45 16.5
Q 66.1 16.35 65.75 15.8 65.4 15.3 65.05 15.15 64.9 15.15 64.65 14.8 64.4 14.45 64 14.45
L 62.65 13.75
Q 62.4 13.5 62.25 13.45 62.15 13.4 61.6 13.4 61.25 13.05 61.25 12.7 60.05 12.05 59.9 12.05 59.25 11.85 58.65 11.4
L 58.15 11 57.85 10.3 57.15 10.3 55.4 1.7 55.4 -2.8 56.8 -7.95
Q 56.1 -9.95 56.1 -10.7
L 55.4 -12.05
Q 54.4 -13.65 54.4 -14.15
L 54.4 -15.5
Q 54.4 -17.25 54.75 -17.6 54.75 -17.9 55.1 -18.7 55.6 -19.65 55.75 -20.35 56.2 -21.2 56.35 -21.9
L 56.45 -22.4 56.45 -24.45
Q 57.45 -24.7 57.85 -25 58.15 -25.3 58.15 -25.85 58.4 -26.1 58.65 -26.95 58.85 -27.8 58.85 -28.6 58.85 -29.15 57.85 -30.3
L 57.15 -31.35 57.15 -32.7 58.85 -37.2
Q 59.4 -38.85 58.85 -39.95 58.5 -40.9 58.35 -41.35 58.15 -42.15 58.15 -43.05 58.15 -43.45 58.35 -44.4 58.75 -46 58.85 -46.5 58.85 -48.9 59.2 -49.25 59.4 -49.65 59.75 -51.25 60.45 -54.05 60.6 -54.75
L 63 -66.45
Q 63.2 -67.1 63.7 -67.8
L 64.35 -68.85 65.4 -69.9
Q 65.6 -70.1 65.7 -70.4
L 65.75 -70.6
Q 65.75 -72.65 65.05 -75.05 63.7 -75.95 63.7 -76.8 63.7 -78 65.05 -80.25
L 67.1 -83.65 66.1 -93.3 66.1 -99.15 68.15 -103.3 67.8 -106.75 68.85 -110.5 70.2 -111.55 70.2 -115 71.25 -118.1 74.35 -123.25 77.1 -129.45
Q 77.7 -128.85 78.15 -131.2 78.85 -133.25 81.25 -134.6
L 82.95 -133.6 82.95 -137.7
Q 81.25 -141.1 81.25 -141.85 81.25 -142.55 80.9 -143.55 80.9 -144.35 80.75 -145.05 80.55 -145.75 80.55 -146 80 -146.5 79.5 -148.4
L 78.8 -151.5 79.85 -154.25 84 -162.5 84 -165.25
Q 84 -165.95 81.9 -169.05
L 80.2 -168.35 78.5 -167.3 76.05 -167 74.35 -168 71.6 -166.3 74 -169.05 74.7 -173.15
Q 75.4 -175.25 75.05 -175.95 75.05 -177.65 74.35 -179 74.55 -179.15 75.05 -179.85 75.35 -180.2 75.75 -180.4 76.05 -180.4 77.1 -180.75 77.8 -181.1 77.8 -181.45 78.05 -181.9 77.85 -182.55 77.7 -182.95 77.1 -184.2
L 75.05 -184.2 79.5 -186.6 77.8 -188.65
Q 77.1 -189.35 77.1 -190.05 78.65 -191.55 79.5 -192.8 79.75 -192.8 79.8 -192.85 79.85 -192.9 79.85 -193.15 79.5 -193.15 78.8 -193.15 78.15 -193.15 76.75 -191.75 75.4 -190.4 75.4 -190.05 75.4 -189.7 74.7 -189.7 74 -190.65 73.85 -191.25 73.7 -191.75 74 -191.75
L 76.75 -194.5 77.45 -198.3 78.8 -198.65 80.2 -200 82.6 -201.4 83.65 -201.4 80.2 -199.7 80.2 -198.3 80.55 -196.6
Q 80.95 -196.2 81.2 -195.6 81.45 -195 81.6 -194.85 81.65 -194.8 81.9 -194.35 82.05 -194.15 82.25 -194.15 82.25 -193.15 81.9 -192.8
L 81.9 -192.45
Q 81.6 -191.75 81.6 -191.05
L 83.65 -189 82.6 -188 82.6 -187.3 83.3 -186.95 83.65 -184.2 84.7 -184.2
Q 85 -183.85 85.7 -183.85 86.25 -183.6 86.3 -183.6 86.4 -183.6 86.4 -183.85 86.75 -183.85 86.4 -184.2
L 85.35 -186.25 84.7 -186.6
Q 84.9 -187.35 85.25 -187.45 85.55 -187.6 86.4 -187.3 87.45 -186.25 87.45 -187.3
L 88.45 -189.7 89.15 -189 90.85 -189
Q 91.55 -189 91.55 -189.35
L 91.55 -191.05 89.5 -191.75
Q 88.4 -192.3 88.25 -192.6 88.05 -193 88.8 -193.5
L 88.8 -194.5
Q 88.8 -195 89.85 -195.55
L 88.8 -196.6 86.75 -197.6 86.4 -196.6 86.4 -194.15
Q 85.95 -192.8 85 -192.8
L 84 -194.15 85 -195.2
Q 85.2 -195.85 85.55 -196.35 85.9 -196.9 86.05 -197.25 86.4 -197.95 86.4 -199.35 87.1 -199.35 87.45 -199.7
L 89.15 -200.35
Q 91.15 -201.35 92.6 -202.8 93.05 -202.8 95 -203.45 97 -204.75 97.05 -204.85 97.75 -204.85 98.45 -205.55 98.45 -206 98.05 -206.3 97.75 -206.55 97.4 -206.55 97.2 -206.55 96.95 -206.7
L 96.75 -206.9 96.05 -207.25
Q 95.6 -207.35 95.3 -207.4 94.75 -207.45 94.3 -207.25 93.3 -207.25 92.6 -207.05
L 91.9 -206.9
Q 91.35 -206.9 89.85 -207.95 89.55 -207.95 88.75 -208.1 88 -208.3 87.45 -208.3
L 87.1 -208.65 87.1 -209.65 87.45 -210.35 87.75 -210.35
Q 87.75 -210.55 87.55 -210.7 87.15 -211 87.1 -211.05 86.9 -211.25 86.6 -211.35
L 86.4 -211.4 86.4 -211.05
Q 86.4 -210.85 85.95 -211.15 85.2 -211.65 85 -211.75
L 82.95 -213.8
Q 82.95 -213.95 82.8 -214.3 82.6 -214.65 82.6 -214.85 82.6 -215.05 82.55 -215.1 82.5 -215.15 82.25 -215.15 82.25 -215.5 81.9 -215.85 80.65 -215.85 82.2 -216 83.25 -216.05 85 -215.85
L 87.1 -215.85
Q 87.45 -215.15 88.1 -215.15
L 89.15 -215.85
Q 89.4 -215.85 89.65 -216.25 89.85 -216.6 89.85 -216.9 89.85 -217.1 89.65 -217.5 89.3 -218.1 89.15 -218.6
L 88.1 -220.35 84.7 -224.1 84 -226.9 84.7 -228.6 86.4 -229.65 86.4 -231 88.1 -231.35
Q 89.15 -231.35 89.85 -232.05 90.55 -232.05 90.85 -232.4
L 90.85 -233.75 89.85 -234.8
Q 89.85 -235.2 89.15 -235.8
L 90.85 -236.85
Q 90.85 -236.5 91.2 -236.15 92.25 -236.15 92.25 -236.5
L 92.25 -237.9 91.9 -239.95 89.85 -241.35 87.45 -241.35 88.1 -239.25 88.1 -238.25 86.05 -239.25 85.7 -239.6 85.7 -240.65 85.35 -242.35
Q 84.7 -243 84.7 -244.45
L 80.55 -246.15 81.9 -247.2 83.65 -246.15 85 -244.8 86.05 -244.8
Q 87 -244.8 87.45 -246.15
L 88.1 -247.2 87.45 -246.85 86.05 -246.85 85 -247.85
Q 84.4 -248.55 85.35 -248.55
L 87.45 -249.25
Q 87.8 -249.25 88 -249.1 88.1 -249.05 88.1 -249.25 87.75 -249.6 87.45 -250.3 86.95 -250.95 86.15 -251.75 85.55 -252.35 85.35 -252.7
L 85 -253.05 83.65 -253.05 82.95 -252 83.65 -250.95 83.65 -249.95 81.9 -249.95 80.55 -248.55
Q 79.85 -248.2 79.5 -248.2
L 75.05 -246.5
Q 75.05 -246.85 74.35 -246.85
L 72.95 -246.5 75.4 -248.2
Q 77.6 -249.55 78.15 -250.65 78.5 -251.3 78.5 -252.35 79.15 -251.65 79.85 -251.65 80.55 -251.65 80.55 -252.7
L 81.25 -254.05 81.25 -254.4
Q 81.25 -254.65 81.2 -254.7 81.15 -254.75 80.9 -254.75
L 80.2 -255.1
Q 80.2 -255.45 79.5 -255.45 79.05 -255.7 78.6 -255.5 78.5 -255.45 77.45 -254.75 77.25 -254.75 77.15 -254.55 77.1 -254.5 77.1 -254.4
L 75.05 -252.35
Q 75.05 -251.75 74.9 -251.6 74.6 -251.4 73.65 -251.65 72.65 -251.65 72.65 -251.3 72.5 -251.3 72.15 -251.45 71.8 -251.65 71.6 -251.65 70.25 -251.65 68.15 -252.7
L 70.2 -254.05
Q 70.3 -254.05 72.75 -254.4 73.8 -254.55 74 -254.75
L 74.35 -254.75 75.05 -254.4
Q 75.4 -254.75 76.05 -255.1 76.75 -255.1 76.75 -255.45 76.95 -255.45 77.1 -255.8 77.3 -256.15 77.45 -256.15 77.8 -256.5 78.5 -256.8
L 79.65 -256.95
Q 80.75 -257.15 81.6 -257.15
L 84 -259.6
Q 83.3 -259.6 82.95 -259.25 79.6 -258.3 78.45 -258 76.7 -257.5 76.05 -257.5
L 74.35 -257.5
Q 73.65 -257.5 72.65 -256.5
L 70.9 -255.8 70.2 -255.1 69.85 -255.1 69.85 -255.45
Q 70.2 -255.8 70.2 -256.5
L 70.9 -257.15
Q 71.35 -258.55 70.9 -258.55
L 70.2 -258.55 70.2 -258.9 69.55 -258.9
Q 69.2 -258.9 68.85 -258.55 68.15 -258.2 67.1 -258.2 66.8 -257.85 66.45 -257.15 66.45 -256.8 66.1 -256.5
L 65.95 -256.45
Q 65.75 -256.35 65.75 -256.15
L 65.05 -255.45
Q 64.7 -255.1 64 -254.75
L 62.65 -253.7 61.95 -253.7 60.6 -253.4
Q 60.6 -253.05 59.9 -253.05 59.55 -252.7 58.85 -253.05 58.85 -252.7 57.5 -252.7 56.45 -252.35 55.4 -252.35 54.75 -252 54.05 -252
L 51.95 -252 50.6 -250.3 50.6 -248.2
Q 49.55 -248.9 49.2 -249.25 46.1 -249.6 43.35 -249.6
L 42.7 -249.6
Q 42.45 -249.6 42.45 -249.5 42.45 -249.4 42.7 -248.9
M -9.3 228.2
L -9.3 227.2 -15.85 227.2
Q -15.5 228.2 -15.5 228.9 -15.5 229.45 -14.45 230.95
L -16.2 231.65 -15.15 233.35 -13.1 233.35 -11 232.7 -9.3 231.65 -11 230.95 -11 229.25 -9.3 228.2
M -97.1 165.55
L -97.75 164.85 -98.1 167.3 -96.75 169.7 -95 169
Q -95 167.6 -95.35 167.3 -96.05 165.9 -97.1 165.55
M -35.8 -249.25
Q -35.8 -248.2 -36.85 -248.2 -37.85 -248.2 -38.55 -247.85
L -40.65 -247.85
Q -41.3 -247.85 -41.3 -246.85
L -40.95 -245.1
Q -40.95 -244.75 -40.3 -244.1
L -40.1 -243.9
Q -39.95 -243.6 -39.95 -243.4 -39.85 -243.4 -39.45 -243.25 -39.25 -243.2 -39.25 -243.4 -38.5 -243.4 -37.55 -244.45
L -36.5 -244.45 -35.45 -242.35
Q -33.2 -241.25 -32.35 -241.7 -32 -241.7 -29.95 -242.35
L -29.3 -242.75
Q -28.9 -243 -28.9 -243.4 -28.25 -243.4 -28.25 -243.75
L -28.25 -244.1 -26.85 -244.45 -25.5 -244.45 -24.8 -244.1
Q -23.75 -244.45 -22.75 -245.1 -22.05 -245.8 -20.3 -246.85 -20.3 -247.05 -19.95 -247.35
L -19.65 -247.55
Q -19.25 -247.55 -16.55 -246.15
L -15.5 -246.15
Q -14.1 -246.6 -14.1 -247.55
L -13.45 -248.55
Q -13.45 -249.6 -13.8 -249.6
L -14.8 -249.6
Q -15.1 -249.6 -15.45 -249.8 -15.85 -250.05 -15.85 -250.3 -16.35 -250.75 -17.65 -250.85 -18.5 -250.95 -21 -250.95
L -23.05 -248.9
Q -24.35 -248.35 -24.95 -248.35 -25.5 -248.35 -25.5 -248.9 -25.5 -250.3 -26.15 -250.95 -26.15 -251.65 -27.2 -251.65
L -28.9 -251.3 -31 -251.3
Q -32.85 -250.4 -35.8 -249.25
M 24.45 240.25
L 23.4 240.25 24.1 243 25.1 243 25.1 241.3
Q 25.1 240.25 24.45 240.25
M 29.6 240.25
L 26.5 240.25 26.85 242 27.55 242.3
Q 28.55 242 28.9 242 28.9 241.85 29.1 241.4 29.45 240.8 29.6 240.25
M 9.3 240.6
Q 8.6 241.3 8.25 242
L 13.05 242
Q 13.3 242 13.4 241.9 13.5 241.85 13.75 241.3
L 13.05 240.25 11 240.25 9.3 240.6
M 18.25 233.35
L 16.5 234.4 17.55 235.8 18.95 236.15 20.3 235.1 19.6 234.05 18.25 233.35
M 44.05 242
L 44.4 243.7 46.8 246.45 48.55 246.45 47.85 243.7 45.8 242 44.05 242
M 42.35 245.4
L 40.6 242.3 39.6 241.65 38.55 242.65 40.6 244.75 41.65 246.1 42.35 245.4
M 124.25 216.15
L 124.95 213.75 121.85 212.7 121.15 214.45
Q 121.85 215.45 122.9 216.15 122.9 216.7 123.2 216.7 123.5 216.7 124.25 216.15
M 143.2 204.8
L 142.5 205.15 141.8 207.55 142.85 208.6
Q 143.5 209.9 143.9 210.3 145.05 211.45 145.95 209.6
L 146.65 207.55 145.95 205.15 143.2 204.8
M 85.35 -181.1
L 84.35 -182.1 81.25 -178.7 78.8 -178.7 80.55 -175.95
Q 81.1 -174.9 80.55 -173.85 79.65 -173.4 78.5 -172.15
L 81.25 -169.75 84.7 -171.1 87.1 -172.5
Q 86.4 -172.85 86.4 -174.55 86.4 -175.15 86.85 -176 87.55 -177.4 87.75 -178
L 88.1 -179.7 85.35 -181.1
M 89.85 -184.2
L 88.8 -182.8 89.85 -182.1
Q 91.55 -182.1 92.25 -182.45
L 92.25 -184.2
Q 92.25 -184.8 89.85 -184.2
M 92.25 -194.15
L 92.25 -192.8 92.6 -191.75 93.95 -191.75 93.95 -193.5 92.25 -194.15
M 89.85 -200
L 88.45 -199.7 88.1 -198.3 88.8 -197.95
Q 89.85 -197.95 90.55 -197.6 90.75 -197.35 90.8 -197.55 90.85 -197.7 90.85 -198.3
L 89.85 -200
M 94.65 -232.05
L 93.65 -230.65 93.3 -229.95 94.65 -228.6 95.7 -229.3 96.05 -231 94.65 -232.05
M 90.85 -227.2
Q 90.45 -224.9 90.85 -224.45
L 93.65 -223.1 93.3 -220.35
Q 93.05 -219.6 92.8 -219.5 92.6 -219.45 92.6 -220
L 92.6 -220.7
Q 92.6 -221 92.25 -221 92.25 -221.25 92.2 -221.3 92.15 -221.35 91.9 -221.35
L 91.9 -221.7
Q 91.9 -222.05 90.85 -222.05
L 88.8 -222.05 89.85 -220.35 90.55 -218.25 90.55 -215.5 91.55 -213.8 93.3 -214.15 95 -215.5 95 -217.25 94.3 -218.6
Q 95.7 -218.6 95.7 -219.3
L 96.05 -219.65 96.4 -219.65
Q 96.7 -219.65 97.4 -220.35 98.1 -222.05 98.45 -222.75
L 97.4 -223.8 96.05 -223.8 98.1 -225.5
Q 97.75 -226.6 97.65 -226.7 97.4 -227.1 96.75 -226.9 96.05 -226.9 95.35 -225.5 95.2 -225.5 94.95 -225.7 94.65 -226 94.3 -226.2
L 93.95 -226.9
Q 93.3 -226.9 92.6 -227.2
L 90.85 -227.2
M 96.05 -235.5
L 93.65 -235.5 93.3 -234.45
Q 94.3 -234.1 95 -233.4 95.55 -233.1 95.85 -233.2 96.15 -233.25 96.4 -233.75
L 96.05 -235.5
M 94.3 -239.25
L 94.65 -238.6 93.65 -237.9 94.3 -237.2 95.35 -237.2 96.05 -238.25 94.3 -239.25
M 88.9 -248.25
Q 88.9 -248.1 89.15 -247.85 89.15 -247.4 89.55 -247.1 89.9 -246.85 90.2 -246.85
L 91.55 -246.5 91.55 -242.7 94.3 -241
Q 95.7 -241 95.7 -241.7
L 95.7 -243.4
Q 95.7 -244.25 94.3 -245.1
L 93.95 -246.15 93.95 -247.55
Q 93.75 -247.3 93.5 -247.5 93.3 -247.7 93.3 -248.2 93.3 -249.25 92.95 -249.25
L 92.25 -249.6
Q 90.85 -249.95 90.55 -250.3
L 89.15 -249.95 89.15 -248.9
Q 88.9 -248.35 88.9 -248.25
M 87.75 -254.4
L 86.4 -253.7 88.8 -252.35 90.55 -251.65
Q 92.05 -252.2 91.55 -252.7 91.25 -252.7 90.65 -252.85 90.05 -253.05 89.5 -253.05
L 87.75 -254.4
M 87.45 -256.15
Q 87.45 -256.6 86.4 -257.15
L 84.7 -256.5 84 -255.45 87.1 -255.45
Q 87.45 -255.8 87.45 -256.15
M 11.7 -267.15
L 13.05 -269.2 10.65 -269.55 7.55 -268.85 6.2 -267.15 6.9 -266.8 10 -266.8
Q 11.35 -266.8 11.7 -267.15
M 32.15 -278.4
Q 31.9 -278.4 31.65 -278.15 30.9 -277.4 31.3 -276.45
L 31 -275.05
Q 31.55 -275.35 31.9 -275.25 32.35 -275.2 32.35 -274.7 32.35 -274.05 32 -273.7
L 34.75 -273.7 35.8 -274.4
Q 35.55 -274.4 35.55 -274.5 35.55 -274.55 35.8 -275.05 36.2 -275.45 36.8 -275.7 37.35 -275.95 37.5 -276.1 36 -277.15 35.45 -277.15 34.05 -277.15 33.75 -276.45
L 32.7 -277.15
Q 32.45 -277.4 32.4 -277.55 32.35 -277.65 32.35 -278.15 32.35 -278.4 32.15 -278.4
M 78.15 -262
L 80.55 -261.65 82.25 -262 80.55 -263.35 79.5 -263.35
Q 78.5 -263.35 77.8 -263
L 78.15 -262
M 42.7 -276.1
L 42 -277.15 39.25 -277.15
Q 38.75 -277.15 38.7 -276.85 38.65 -276.55 38.9 -275.75 39.2 -274.55 40.25 -273.35
L 40.95 -271.95
Q 42.05 -271.5 40.95 -270.95
L 40.6 -270.95 39.25 -270.6 36.5 -270.6
Q 36.5 -270.25 35.1 -270.95
L 32 -272.3 31.3 -272.3 30.3 -273.35
Q 29.85 -273.8 28.9 -273.35
L 28.55 -272.65 28.9 -271.95
Q 28.55 -271.65 27.2 -271.65
L 17.55 -271.65
Q 16.85 -271.65 16.5 -270.95 15.7 -270.5 15.15 -268.85 14.85 -268.05 15.2 -267.65 15.55 -267.25 16.5 -267.5
L 20.3 -267.5
Q 21 -267.15 22.7 -267.15
L 24.45 -266.8
Q 26.15 -266.8 27.55 -266.1 28.25 -265.9 29.15 -265.65 29.85 -265.45 30.3 -265.45 32.45 -263.95 33.05 -263.35 34.3 -261.65 35.45 -261.65 35.9 -261.65 37.05 -261.15 37.8 -260.85 39.95 -259.9
L 40.6 -258.2
Q 40.45 -257.5 40.2 -256.55 40.05 -255.9 40.25 -255.45
L 40.6 -254.75
Q 40.6 -254.55 40.8 -254.2 40.95 -253.85 40.95 -253.7 41.5 -253.55 42.3 -253.25 42.95 -253.05 43.35 -253.05
L 46.1 -253.05
Q 48.55 -253.05 49.55 -253.4 51.95 -253.7 53.7 -253.7 55.4 -253.7 56.45 -254.4
L 54.4 -262
Q 55.25 -262.8 55.3 -263.3 55.35 -263.9 54.4 -264.4 53.35 -265.1 53 -265.45
L 54.4 -265.75 56.1 -265.45 57.15 -263.35 57.15 -259.6
Q 57.7 -258.8 57.8 -258.75 57.95 -258.7 58.15 -259.25 58.5 -260.95 58.5 -262 58.85 -263.35 58.85 -264.75
L 61.25 -263.35 62.3 -262
Q 63.05 -261 63.55 -260.65 64 -260.3 64 -260.6
L 64 -262
Q 63.6 -262.9 64 -263.35 64 -263.5 64.35 -263.9 64.7 -264.35 64.7 -264.75
L 65.75 -263.7
Q 65.75 -262.95 66.1 -262.1 66.45 -261.2 66.45 -260.95 66.65 -260.5 67.2 -260.3 67.55 -260.15 68.5 -259.9 68.75 -259.9 69.2 -259.9
L 70.55 -259.9
Q 72.65 -260.25 73.65 -260.6 73.85 -260.7 74.35 -261.1 74.65 -261.3 75.05 -261.3 76.05 -262 76.4 -262.35
L 76.05 -263
Q 76.05 -263.25 75.95 -263.25 75.8 -263.25 75.05 -263 74.4 -263 73.8 -262.8
L 73.3 -262.65
Q 72.95 -263 72.95 -263.7
L 73.3 -264.05 73.65 -265.1
Q 74.15 -265.35 74 -265.55 73.85 -265.75 73.3 -265.75
L 71.25 -265.75
Q 70.9 -265.75 70.2 -265.45 69.85 -265.1 69.2 -265.1 70.2 -266.65 70.2 -267.5 69.65 -267.85 69.35 -268 68.95 -268.2 68.5 -268.2 68.25 -268.2 68.15 -268.1 68.05 -268 67.8 -267.5
L 67.45 -267.15
Q 66.8 -267.15 66.45 -267.5
L 65.75 -268.2
Q 65.75 -267.85 64.7 -268.85 64.3 -269.25 64.05 -269.7 63.8 -270.15 63.7 -270.25
L 62.3 -270.25 62.3 -269.9
Q 61.95 -269.55 61.25 -269.2 58.5 -269.2 57.5 -270.25
L 55.05 -270.25
Q 56.1 -269.2 56.1 -268.85 56.1 -268.55 55.05 -268.55
L 53 -268.2 51.95 -268.2 51.3 -268.55
Q 50.25 -268.55 49.9 -268.85
L 49.2 -269.55 48.55 -269.9 48.55 -270.95 53.7 -271.3 53.7 -272.3
Q 53 -273.7 51.3 -273.7
L 49.55 -273.7
Q 48.9 -273.7 48.55 -274.05 47.5 -274.4 46.8 -274.4 46.2 -274.7 45.95 -274.85 45.55 -275.05 45.1 -275.05
L 44.05 -275.75
Q 43.35 -275.75 42.7 -276.1 Z"/>
</g>
</defs>

<g transform="matrix( 1, 0, 0, 1, 0,0) ">
<use xlink:href="#Layer0_0_FILL"/>
</g>
</svg>
