
<svg xmlns="http://www.w3.org/2000/svg" version="1.1" xmlns:xlink="http://www.w3.org/1999/xlink" preserveAspectRatio="none" x="0px" y="0px" width="1920px" height="1080px" viewBox="0 0 1920 1080">
<defs>
<g id="Layer0_0_FILL">
<path fill="#231F20" stroke="none" d="
M 125.7 -319
Q 69.95 -342.55 8.9 -342.55 -52.15 -342.55 -107.9 -319 -161.7 -296.2 -203.25 -254.7 -244.75 -213.15 -267.55 -159.35 -291.1 -103.6 -291.1 -42.55 -291.1 18.5 -267.55 74.25 -244.75 128.05 -203.25 169.6 -161.7 211.1 -107.9 233.9 -52.15 257.45 8.9 257.45 69.95 257.45 125.7 233.9 179.5 211.1 221.05 169.6 262.55 128.05 285.35 74.25 308.9 18.5 308.9 -42.55 308.9 -103.6 285.35 -159.35 262.55 -213.15 221.05 -254.7 179.5 -296.2 125.7 -319
M 8.9 -330.3
Q 67.45 -330.3 120.9 -307.7 172.55 -285.85 212.35 -246 252.2 -206.2 274.05 -154.55 296.65 -101.1 296.65 -42.55 296.65 16 274.05 69.45 252.2 121.1 212.35 160.95 172.55 200.75 120.9 222.6 67.45 245.2 8.9 245.2 -49.65 245.2 -103.1 222.6 -154.75 200.75 -194.6 160.95 -234.4 121.1 -256.25 69.45 -278.85 16 -278.85 -42.55 -278.85 -101.1 -256.25 -154.55 -234.4 -206.2 -194.6 -246 -154.75 -285.85 -103.1 -307.7 -49.65 -330.3 8.9 -330.3 Z"/>

<path fill="#1F1A17" stroke="none" d="
M 24.3 -245.15
Q 21.2 -245 19.7 -244.95 17.05 -244.8 15.4 -245 14.05 -245.2 12.15 -245.7 9.9 -246.35 8.55 -246.75 7.25 -247.05 6.6 -247.2 3.85 -247.8 0.15 -248.25 -3.4 -248.7 -7.2 -248.9 -11 -249.1 -14.35 -249 -17.8 -248.9 -20.2 -248.55 -22.1 -248.25 -24.2 -247.6 -26.8 -246.75 -27.45 -246.6 -28.8 -246.3 -31.3 -246 -35.45 -245.55 -35.95 -245.5 -41.5 -244.75 -48.25 -243 -56.7 -240.8 -64.95 -237.75
L -68.25 -236.5
Q -76.15 -233.4 -81.75 -230.15 -87.1 -227 -92.4 -222.5
L -95.7 -219.6
Q -97.3 -218.05 -99.55 -215.85 -101.95 -213.45 -102.55 -212.9 -103.75 -211.75 -105.2 -210.6 -107 -209.2 -108.25 -208.2
L -109.2 -207.4
Q -114.25 -203.1 -116.25 -200.45 -117.45 -198.8 -118.05 -196.95 -118.5 -195 -118.75 -194.15 -119.1 -192.9 -119.75 -191.7 -120.3 -190.65 -121.35 -189.25 -122.7 -187.4 -123.5 -186.3 -124.85 -184.35 -125.7 -182.5 -126.6 -180.65 -127.2 -178.4 -127.85 -176.15 -128.15 -173.9
L -128.3 -172.65
Q -128.4 -171.7 -128.4 -170.25 -128.45 -167.75 -127.95 -164.05
L -127.7 -161.8 -127.7 -161.75 -127.65 -161.35 -127.65 -161.3 -127.55 -159.85
Q -127.55 -159.1 -127.7 -158.3 -127.9 -157.2 -128.5 -155.95 -129 -155 -129.9 -153.7 -131.35 -151.55 -131.55 -151.25 -132.45 -149.8 -132.9 -148.55 -133.55 -146.55 -133.55 -143.5 -133.6 -142.9 -133.55 -141.4 -133.4 -138.65 -133.05 -136.4 -132.6 -133.3 -131.7 -130.4 -130.4 -126.35 -127.2 -120
L -126.25 -118.1
Q -125 -115.6 -122.8 -111.35 -123.5 -109.15 -124.25 -107.55
L -124.6 -106.8
Q -124.8 -106.4 -126.45 -103.3 -127.75 -100.8 -128.55 -99.05 -129.85 -95.95 -130.45 -94.5 -131.6 -91.8 -132.45 -90.4 -133.4 -88.8 -134.8 -87.4 -135.7 -86.5 -137.45 -85.1 -139.3 -83.6 -140.2 -82.9 -141.7 -81.6 -142.7 -80.75
L -143.25 -80.2
Q -144.6 -78.95 -145.2 -78.5 -146.4 -77.5 -147.85 -76.7 -149.3 -75.95 -152.3 -74.6 -155.95 -73 -156.8 -72.6 -158.35 -71.85 -159.95 -70.8 -161.75 -69.7 -162.8 -69.1 -164.45 -68.15 -166.35 -67.2 -168.35 -66.15 -169.95 -65.6
L -170.35 -65.45
Q -171.65 -64.95 -172.85 -64.7 -173.65 -64.5 -174.9 -64.4 -176.45 -64.2 -177.05 -64.05 -178.25 -63.8 -179.2 -63.3 -179.95 -62.9 -181.25 -61.9 -182.95 -60.55 -183.65 -60.05 -186.7 -58 -190 -57 -191.45 -56.55 -193.25 -56.3 -194.35 -56.1 -196.5 -55.9 -193.85 -55.15 -192.5 -54.85 -190.35 -54.4 -188.9 -54.5 -188.7 -54.5 -188.1 -54.6
L -188.05 -54.6 -187.5 -54.75 -187.4 -54.75
Q -187.1 -54.85 -186.85 -54.95
L -185.8 -55.35 -185.75 -55.35 -185.5 -55.5 -185.45 -55.55 -183 -56.9
Q -179.9 -58.6 -177.35 -59.5 -174.6 -60.45 -172.7 -60.4 -172 -60.35 -171.05 -60.1 -169.65 -59.75 -169.25 -59.7
L -169 -59.65 -168.95 -59.65 -168.75 -59.6 -166.65 -59.35 -166.6 -59.3 -166.55 -59.3 -164.25 -58.9 -164.05 -58.85
Q -163.85 -58.8 -163.75 -58.75 -163.6 -58.7 -163.45 -58.65
L -162.55 -58.3 -162.5 -58.3 -161.4 -57.55 -160.95 -57
Q -160.55 -56.45 -160.25 -55.4 -159.85 -53.8 -159.75 -53.55 -159.1 -51.75 -157.5 -49.75 -157.05 -49.25 -156.25 -48.3 -155.6 -47.55 -155.3 -46.95 -154.7 -45.9 -154.7 -44.6 -154.7 -44.2 -154.8 -43.8 -155 -42.35 -156.15 -41.8 -156.8 -41.55 -157.6 -41.55 -158.45 -41.6 -159.35 -41.95 -160.25 -42.3 -161.1 -43 -162 -43.7 -162.6 -44.65 -163.15 -45.5 -163.6 -46.8 -163.85 -47.55 -164.25 -49.15 -164.5 -46.75 -164.5 -45.6 -164.5 -44.5 -164.35 -43.65 -164.2 -42.7 -163.8 -41.6 -163.55 -40.95 -163.05 -39.9
L -162.9 -39.5
Q -162.45 -38.5 -162.45 -38.1 -162.45 -37.8 -162.65 -37.65 -162.9 -37.4 -163.55 -37.4 -164.2 -37.4 -165.1 -37.75 -166.1 -38.05 -167.25 -38.7 -168.5 -39.35 -169.65 -40.15 -171.35 -41.3 -174.15 -43.7
L -172.4 -40 -172.35 -40 -172.35 -39.9 -171.55 -38.85
Q -169.65 -36.55 -166.4 -34.75 -165.5 -34.25 -164 -33.6 -162.3 -32.8 -161.8 -32.6
L -161.35 -32.35
Q -161 -32.15 -160.95 -32.1
L -160.25 -31.65
Q -160.2 -31.6 -160.15 -31.55 -160 -31.45 -159.85 -31.35
L -159.3 -30.8 -159.05 -30.45
Q -159 -30.45 -158.95 -30.35
L -158.5 -29.7 -158.5 -29.65 -158.15 -28.95
Q -157.65 -27.7 -157.65 -25.75 -157.65 -25.35 -157.7 -24.35 -157.75 -23.45 -158 -21 -158.2 -18.65 -158.3 -17.3
L -158.3 -16.8
Q -158.35 -15.9 -158.35 -14.85 -158.35 -13.4 -158.25 -11.95 -158.1 -10.4 -157.85 -9.05 -157.3 -6.35 -157 -4.95 -156.5 -2.45 -156.45 -0.85
L -156.4 -0.35
Q -156.4 3.05 -157.85 6.35 -159 8.85 -161.05 11.05 -163.15 13.2 -165.15 14.05 -167.35 14.95 -170.05 14.65 -171.5 14.45 -172.5 14 -173.8 13.4 -174.65 12.25 -175.55 11.1 -176.15 9.4 -176.75 7.65 -176.8 6
L -176.8 5.55
Q -176.8 4 -176.2 2.25 -175.85 1.15 -174.9 -0.8 -176.3 0 -177.2 0.4
L -177.55 0.6
Q -178.35 0.95 -178.85 1.35 -179.6 2 -180.2 2.95 -180.95 4.2 -181.45 5.9 -182 7.8 -182.05 9.8
L -182.05 10.35 -182 10.65 -182 11.2 -181.9 11.95 -181.85 12.15 -181.8 12.5 -181.75 12.65 -181.75 12.7 -181.15 14.8 -181.1 14.85 -180.85 15.4 -180.85 15.45 -180.4 16.3 -179.35 17.75 -178.45 18.7
Q -176.75 20.25 -173.95 21.35 -171.6 22.3 -168.65 22.8 -163.4 23.8 -159.1 22.85
L -156.25 22.05 -156 21.95 -155.95 21.9 -152.5 20.45 -152.45 20.4 -151 19.7
Q -149.85 19.1 -148 18.1 -146.55 17.35 -145.75 17.15 -144.9 16.95 -144.15 17.15 -143.55 17.35 -142.8 17.9 -141.45 19 -139.5 21.35 -137.2 24.15 -135.35 26.85
L -133.35 30.35
Q -133.15 30.8 -133.05 31.2 -132.95 31.7 -132.95 32 -132.9 33.05 -133.6 33.95 -134 34.4 -134.85 35.1 -136.25 36.25 -136.4 36.4 -138 37.9 -139.05 39.4
L -139.25 39.75
Q -139.8 40.6 -139.8 41.4
L -139.75 41.65
Q -139.75 41.95 -139.55 42.75 -139.35 43.4 -139.35 43.75
L -139.35 44
Q -139.5 44.8 -141.05 44.95 -142.8 45.05 -145.25 44.3
L -145.65 44.2
Q -147.25 43.7 -148.85 42.95 -150.75 42.1 -152.1 41.15 -152.65 40.8 -152.9 40.6
L -153.3 40.3
Q -155.8 38.15 -156.55 35.35 -156.8 34.35 -156.8 33.2
L -156.5 30.3
Q -156.05 27.75 -155.4 24.2 -157.75 25.95 -159.05 27.15 -161.8 29.75 -162.75 32.2
L -162.9 32.6
Q -163.45 34.3 -163.45 36.45 -163.45 37.85 -163.25 39.45 -162.6 44.25 -160.7 47.65
L -160.35 48.2
Q -157.85 52.35 -152.7 56.05 -150.65 57.55 -147.9 59.1 -146.25 60.05 -142.9 61.8 -146.55 61.75 -148.3 61.7 -151.25 61.55 -153.3 61.15 -157.85 60.35 -161.1 58.05 -162.5 57.1 -164.05 55.6 -164.95 54.7 -166.65 52.8 -166.1 55.1 -165.75 56.2 -165.2 58.1 -164.5 59.5 -163.9 60.7 -162.7 62.45 -161.3 64.45 -161 64.9 -160.45 65.9 -160.1 67 -160.05 67.05 -159.6 68.85 -159.05 71.05 -158.1 72.8 -156.75 75.05 -155.05 76.25 -154.15 76.85 -152.9 77.15 -151.65 77.5 -149.4 77.6 -146.6 77.8 -138.6 77.95 -136.7 77.95 -132.5 78.05
L -131.8 78.1
Q -132.8 79.4 -133.3 80.15 -134.1 81.4 -134.65 82.8 -135.1 83.9 -135.9 86.55 -136.75 89.45 -137.3 90.85 -138 92.85 -139.15 95.3 -139.8 96.8 -141.25 99.75 -139.55 99.7 -138.65 99.6 -137.1 99.45 -135.65 99.05 -132.95 98.25 -127.85 95.9 -125.35 94.7 -123.8 93.8 -121.7 92.6 -120.4 91.3 -119.95 90.85 -119.75 90.55 -118.8 89.4 -117.95 87.75 -117.5 86.8 -116.65 84.7 -115.45 87.65 -114.5 90.05
L -113.9 91.45
Q -112.75 94.35 -112.1 96.15 -111.15 99 -110.7 100.95 -110.3 102.95 -110.3 104.95 -110.3 106.15 -110.5 108.35 -109.95 111.7 -109.35 113.5 -108.3 116.55 -106.1 119.4 -103.55 122.65 -99.3 126.25 -94.9 129.9 -89.95 132.85 -85.45 135.45 -79.55 137.9 -75.75 139.5 -69.4 141.75 -63.9 143.7 -60.6 144.75 -56.25 146.1 -52.85 146.85
L -51.3 147.15 -51.25 147.15 -47.2 147.75 -47.15 147.75
Q -43.2 148.15 -40.85 147.75 -38.2 147.3 -38.15 145.8 -38.1 145.15 -38.55 144.35 -39.2 143.25 -41.05 141.4 -43.25 139.3 -44.25 138.35 -47.15 135.5 -48.1 133.75 -48.4 133.2 -48.4 132.9 -48.4 132.5 -48.1 132.3 -47.8 132.05 -47.1 131.95 -46.2 131.75 -44.25 131.7 -43.05 131.7 -39.85 131.7 -32.15 131.7 -28.55 131.5
L -23.6 131.1
Q -23.45 131.1 -23.4 131.1
L -21.85 131
Q -21.75 131 -21.65 131
L -18.85 131
Q -16.6 131.05 -14.55 131.4 -12.3 131.85 -10.45 132.6
L -9.45 133.05
Q -7.75 133.9 -5.85 135.5 -4.75 136.45 -2.6 138.45 1.05 141.6 4.75 143.4 6.7 144.3 8.3 144.7 10 145.05 10.9 144.75 12 144.35 12.05 142.8 12.05 142.05 11.8 140.85 11.75 140.55 10.95 137.85 10.4 135.95 10.25 134.8
L 10.25 134.4
Q 10.15 132.9 10.7 131.55 11.1 130.3 11.85 129.6 12.55 128.9 13.3 128.95 14.1 129 15 129.85 15.95 130.7 17 132.3 18 133.9 18.8 135.7 19.2 136.65 20.2 139.35 21.05 141.75 21.75 143.2 22.65 144.95 24.2 147.2 25.25 148.75 27.55 151.8 29.95 155 31.6 156.95 33.95 159.9 35.75 161.8
L 36.5 162.55
Q 37.05 163.05 37.2 163.2 38.95 164.75 41.3 166.1 43.85 167.55 48.4 169.45
L 57.15 172.85
Q 69.65 177.4 77.95 178.9 84.35 180.05 89.75 179.55 93.9 179.15 98.8 177.5 107.85 174.45 114.2 169.85 117.55 167.4 119.8 164.75 122.2 162 123.1 159.3 123.85 157.15 123.8 154.5 123.8 153.35 123.65 151.7 123.4 149.35 123.35 149.2 123.05 145.15 124.55 144.05 125.25 143.55 126.5 143.5 127.3 143.5 129.15 143.8 131.5 144.15 132.55 144.2 134.85 144.45 137.2 144.35 139.7 144.3 143.5 143.85 145.95 143.6 150.75 142.95 145.85 141.3 143.35 140.4 141.75 139.85 140.9 139.4 139.65 138.8 138.55 137.95
L 137.45 137.05
Q 136 135.7 134.5 133.95 132.95 132.05 131.8 130.2 129.5 126.55 128.4 122 127.6 118.85 127.3 115.05
L 127.2 114.1
Q 127.15 112.85 127.1 110.8 127.05 108.85 127 108.15 126.9 107.1 126.7 106.25 126.5 105.5 126.15 104.75 125.7 103.75 125.45 103.3 125.1 102.45 125 101.9 124.95 101.7 124.95 101.4 125 100.35 126 99.55
L 126.95 99
Q 127.75 98.6 129.95 97.65
L 130.7 97.3 133.6 95.55 133.65 95.55 136.7 92.95 137.3 92.25
Q 139.05 90 139.05 87.2
L 139.05 87.15
Q 139.05 86.8 139 86.4 138.9 84.9 138.35 83.35 137.8 81.85 137.05 80.55 136.3 79.35 135.35 78.45 134.4 77.55 133.1 76.75 132.25 76.25 130.35 75.25 128.6 74.35 128.1 74 127.45 73.55 127.4 73.25 127.4 72.9 128.05 72.7
L 128.25 72.7
Q 129.6 72.35 132.75 72.45 134.35 72.45 135.4 72.6 136.85 72.75 138 73.2
L 138.65 73.5
Q 140.25 74.25 142.7 76.25 143.35 76.8 144.55 77.8 145.55 78.65 146.2 79.1
L 146.65 79.35
Q 148.25 80.3 149.5 80 150 79.85 150.55 79.45 150.9 79.25 151.55 78.8 152.8 78 153.4 78.35
L 153.5 78.4 153.65 78.55 153.7 78.55 153.85 78.75 154 79.05 154.2 79.6 154.4 80.55 154.4 80.6 154.45 80.95 154.45 81
Q 154.5 81.6 154.5 82.25 154.5 84.3 153.95 86 153.8 86.35 153.65 86.75 153.05 88.05 151.8 89.5 150.95 90.5 149.6 91.8 148.2 93.1 146.1 94.8 146.7 94.9 147.05 94.9 147.65 94.95 148.45 94.9 150.9 94.7 153.8 93.25 156.05 92.15 158 90.7 160.5 88.8 162.25 86.5 162.7 85.95 163.15 85.2
L 163.55 84.6
Q 164.85 82.4 165.9 79.7 166.85 77.3 167.45 74.8 168 72.4 168.2 69.8 168.25 69.6 168.4 66 168.5 64.35 168.65 63.55 168.85 62.7 169.25 62.6 169.65 62.5 170.25 63.1 170.85 63.65 171.35 64.6 171.75 65.4 172.1 66.5 172.35 67.25 172.65 68.6 172.9 66.45 173 65.45 173.25 63.65 173.6 62.05
L 174.4 58.5 174.45 58.4 174.45 58.35 174.5 58.05 174.5 58 174.55 57.9 174.6 57.6 174.6 57.55 174.65 57.45 174.65 57.4 174.7 57.15 174.7 56.95 174.75 56.65 174.8 56.5 174.8 56.2 174.85 56.15 174.9 55.75 174.9 55.3 174.95 55 174.95 54.4
Q 174.95 53 174.5 51.1 173.7 48 173.7 47.95 173.45 46.45 173.4 44.7 173.4 43.6 173.55 42.35
L 173.65 41.65
Q 173.75 40.7 174.15 39.2 174.45 37.85 174.5 37.4
L 174.5 37
Q 174.5 36.65 174.35 35.9 174.2 35.15 174.2 34.6 174.15 32.3 175.5 29.55
L 175.95 28.75
Q 176.45 27.75 177.85 25.5 179.2 23.25 180.1 21.25 181.3 18.6 182.4 15.35 183.55 12.05 184.3 8.65
L 184.55 7.75
Q 186.05 0.9 186 -5.8
L 185.95 -7.3
Q 185.9 -9.65 185.55 -12.65 185.4 -14.15 184.7 -19.2 183 -32.5 182.7 -37.95
L 182.6 -40.75
Q 182.6 -42.7 182.85 -44.15 183 -45.15 183.35 -46.3
L 183.55 -46.75
Q 183.6 -46.95 183.7 -47.15
L 183.9 -47.6 183.9 -47.65 184.1 -48.1 184.15 -48.1
Q 184.35 -48.45 184.6 -48.7
L 184.8 -48.9 185.15 -49.15 185.6 -49.35 185.95 -49.45
Q 187.15 -49.7 188.9 -49.25 190.8 -48.75 192.85 -47.45 194.85 -46.2 197.3 -44.05 199.4 -42.25 201.55 -40 203.25 -38.25 204.9 -36.25 205.9 -35.1 207.8 -32.75 205.1 -37.6 203.7 -40 201.3 -43.85 199.15 -46.45
L 198.5 -47.15
Q 196.7 -49.25 193.9 -51.75 190.7 -54.6 190.45 -54.85 189.5 -55.9 189.5 -56.4 189.5 -56.95 190.7 -56.85
L 191.1 -56.8
Q 191.3 -56.75 191.5 -56.7 191.75 -56.65 192.05 -56.55
L 193.1 -56.2 193.1 -56.15 193.2 -56.15 194.75 -55.4 194.85 -55.3 195.45 -54.95
Q 196.55 -54.25 197.8 -53.15 198.55 -52.5 200 -51.1 199.95 -51.65 199.85 -52 199.65 -52.6 199.2 -53.35 198.7 -54.25 197.8 -55.45 196.85 -56.7 195.8 -57.8 193.45 -60.25 190.85 -61.4 189.6 -62 187.65 -62.5 187.45 -62.55 184.15 -63.35 180.45 -64.3 178.65 -65.1
L 178.15 -65.3
Q 177.35 -65.75 177.05 -66.25 176.7 -66.7 176.55 -67.65 176.4 -68.3 176.3 -69.65 176.25 -70.4 176.1 -72.05
L 176 -72.75
Q 175.85 -74.45 175.2 -77.9 174.65 -73.5 174.15 -71.95 173.8 -70.85 173.35 -70.3 172.9 -69.8 172.15 -69.7 170.7 -69.55 168.35 -71.05 165.55 -72.8 163.35 -75.6 161.25 -78.3 159.15 -82.6 157.3 -86.5 157.15 -88.2
L 157.15 -88.4
Q 157.2 -89.1 157.6 -89.4 158 -89.65 158.85 -89.55
L 159.05 -89.5
Q 160.2 -89.3 161.45 -88.65 162.9 -87.85 164.1 -86.7 166.15 -84.55 168 -80.35 168.6 -78.95 169.05 -77.5 169.35 -76.65 169.8 -75.05 170.5 -76.95 170.7 -78.05
L 170.75 -78.4 170.75 -79 170.8 -79.5
Q 170.75 -80.25 170.6 -80.85 170.45 -81.3 170.1 -81.95 169.95 -82.3 169.6 -82.95
L 169.5 -83.2
Q 169.3 -83.65 169.25 -84.15 169.2 -84.4 169.2 -85.2 169.15 -86.8 168.9 -87.85 168.5 -89.5 167.3 -90.6 166 -91.85 163.6 -92.8 162.4 -93.3 161.95 -93.45 161.25 -93.8 161.05 -94.1 161 -94.2 161 -94.4 161 -94.65 161.2 -95.15 161.25 -95.25 161.6 -95.9 161.95 -96.6 162.35 -96.9 163.1 -97.45 164.8 -97.95 166.9 -98.6 170.1 -99.15 173.6 -99.8 176.75 -100.05 179.65 -100.25 182.95 -100.2 184.85 -100.15 188.7 -99.9
L 187.85 -100.2
Q 184.2 -101.45 181.95 -102.1 179.05 -102.9 176.55 -103.2
L 175.8 -103.3
Q 174.6 -103.4 173.1 -103.45 171.45 -103.5 170.7 -103.55 168.55 -103.6 167.35 -103.85 166.85 -103.95 166.7 -104.15 166.45 -104.4 166.45 -105.1
L 166.6 -106.85
Q 166.75 -108 167.3 -111.35 167.75 -114.7 167.9 -117.2 167.9 -118.05 167.9 -118.9 167.9 -123.95 166.75 -129.7
L 166.25 -132.1
Q 164.95 -137.7 163.25 -141.7 163.1 -142.1 161.55 -145.25 160.7 -147.05 160.45 -148.35 160.35 -148.7 160.05 -152.1 159.75 -154.65 159.05 -156.5 157.55 -160.55 152.15 -166.45 148.45 -170.5 143 -175.55 140.8 -177.55 140.1 -178.4 138.9 -179.85 137.75 -182.3 136.9 -184.05 134.8 -189.1 132.7 -193.9 130.8 -196.8 128.65 -200.15 125.6 -203.1 123.1 -205.5 119.5 -208.1 114.25 -211.85 106.25 -216.35 102.2 -218.65 99.3 -220 95.2 -221.95 90.45 -223.45 86.1 -224.9 78.6 -226.8 70.25 -228.95 66.75 -229.85 61.45 -231.25 57.9 -232.35 54.3 -233.5 51.3 -234.8 46.85 -236.7 40.9 -240.2
L 39.85 -240.85
Q 37.65 -242.15 36.45 -242.75 34.65 -243.65 33.1 -244.15 29.5 -245.25 24.3 -245.15
M 82.65 -146.6
Q 84.8 -145.2 86.25 -143.65 87.55 -142.2 88.85 -139.85 90 -137.85 91.2 -135.25 92.45 -132.5 93.8 -129.1 94.8 -126.6 95.7 -124.2 96.3 -122.6 97.4 -119.5 98.2 -117.15 98.55 -115.9 98.9 -114.45 98.95 -113.4 98.95 -113.1 98.9 -112.75 98.7 -110.6 96.75 -109 95.9 -108.3 95.25 -108.3 94.8 -108.3 94.2 -108.55 93.55 -108.85 92.6 -109.6 91.7 -110.25 90 -111.7 87.1 -114.2 84.4 -116.7 82.4 -118.5 82.1 -118.75 80.95 -119.7 80.2 -120.2 79.55 -120.6 78.3 -121.05 76.9 -121.6 76.45 -121.85 75.55 -122.3 74.3 -123.1 73.55 -123.6 72.1 -124.7
L 71.25 -125.3
Q 69.1 -126.85 67.9 -127.25 67 -127.5 66.1 -127.4 65.3 -127.3 64.3 -126.9 63.75 -126.7 62.35 -126.1 61.1 -125.5 60.35 -125.25 59.6 -125 58.35 -124.65 56.9 -124.3 56.55 -124.2 55.5 -123.85 55 -123.7 54.1 -123.4 53.25 -123.25 52.35 -123.15 50.9 -123.1 49.3 -123.05 48.65 -123 47 -122.95 45.9 -122.65 44.25 -122.05 43.05 -121.85 42.25 -121.7 40.85 -121.55 39 -121.4 37.8 -121.3 34.05 -121 28.95 -120.45 22.75 -119.8 19.6 -119.1 15.45 -118.15 13.35 -116.65
L 13.05 -116.4
Q 11.95 -115.55 11.25 -114.4 10.65 -113.25 10.3 -111.75 10.15 -110.85 9.9 -108.45 9.65 -106.25 9.4 -105.05 9.05 -103.75 8.3 -102.1 7.45 -100.35 7.05 -99.55 6.5 -98.35 6.3 -97.45 6.05 -96.4 6.2 -95.45 6.25 -95.2 6.35 -94.85 6.6 -94.15 7.4 -92.75 8.35 -91.2 8.65 -90.4 8.8 -90.05 8.9 -89.65 9.3 -88.4 9.25 -86.75 9.25 -84.95 8.75 -82.85 8.15 -80.65 7.85 -79.65 7.4 -77.8 7.4 -76.4 7.35 -74.85 7.85 -73.1 8.25 -71.5 8.8 -70.6 9.2 -69.9 9.65 -69.95 10.15 -70 10.85 -71.1 11 -71.3 12.2 -73.4 13.15 -75.05 13.8 -75.9
L 14.05 -76.15
Q 14.65 -76.85 15.8 -77.85 17.15 -79 17.7 -79.6 18.85 -80.8 19.8 -82.15 20.8 -83.65 21.15 -84.75 21.3 -85.35 21.25 -85.85 21.25 -87.05 20.2 -88.2 19.45 -88.95 19.15 -89.25 18.65 -89.85 18.65 -90.3 18.65 -90.85 19.1 -91.6 19.45 -92.2 20.1 -92.8 21.3 -94 22.25 -94 22.65 -93.95 23.4 -93.7 24.3 -93.35 24.75 -93.25 25.45 -93.1 26.4 -93.15 27.25 -93.2 28.15 -93.45 29.85 -93.85 31.3 -94.8 32.65 -95.75 33.65 -97
L 33.85 -97.3
Q 34.3 -97.95 34.7 -98.85
L 34.7 -98.8
Q 35.25 -97.05 35.65 -96
L 35.75 -95.7
Q 36.4 -94.15 37.15 -93.25
L 37.45 -92.9
Q 38.6 -91.8 40.6 -91.15
L 40.8 -91.05
Q 42.5 -90.55 44.6 -90.35 45.35 -90.3 46.1 -90.3 47.35 -90.3 48.3 -90.55 49.05 -90.75 49.85 -91.2 50.35 -91.5 51.2 -92.1 52.85 -93.35 53.5 -94.4 53.85 -95.05 54.2 -95.95 54.35 -96.5 54.65 -97.6 55.55 -96.95 56.1 -96.2 56.5 -95.65 56.9 -94.9 57.3 -94.1 57.5 -93.45 57.7 -92.85 57.7 -92.45 57.8 -91.65 57.45 -91 56.95 -89.95 55.65 -89.15
L 55.3 -88.95
Q 53.85 -88.1 51.7 -87.8 50.7 -87.65 49.55 -87.6 48.4 -87.6 47.3 -87.7
L 45.95 -87.9
Q 43.1 -88.35 42.9 -88.35 42.05 -88.45 41.45 -88.4 40.85 -88.3 40.7 -88.15 40.6 -88 40.85 -87.65
L 41 -87.55
Q 41.25 -87.3 41.5 -87.15
L 41.6 -87.05
Q 42.75 -86.3 44.4 -85.7 45.25 -85.35 46.1 -85.1 48 -84.6 49.45 -84.5 51.9 -84.25 54.4 -85.1 55.15 -85.3 56.65 -85.95 58.05 -86.55 58.75 -86.75 59.8 -87.05 60.65 -87.05 61.6 -87 62.55 -86.65 63.35 -86.3 64.5 -85.45 64.8 -85.2 66.45 -83.9 67.65 -82.95 68.5 -82.5 69.65 -81.85 70.95 -81.65 71.9 -81.45 73.75 -81.45 74.75 -81.45 76.65 -81.5
L 77.4 -81.5
Q 78.85 -81.45 80 -81.15 81 -80.85 82.2 -80.25 82.6 -80.05 84.65 -78.95 86.3 -78.05 87.45 -77.55 88.9 -76.9 90.4 -76.5 91.85 -76.1 92.55 -76.1 93.2 -76.1 93.15 -76.5 93.1 -76.8 92.6 -77.55
L 91.7 -78.9
Q 91.1 -79.85 90.85 -80.3 90.2 -81.55 90.6 -81.8 90.75 -81.9 90.9 -81.9 91.45 -81.95 92.5 -81.3
L 92.9 -81.05
Q 94.65 -79.85 95.45 -78.35 95.85 -77.55 96.05 -76.4 96.2 -75.05 96.3 -74.4 96.55 -73.1 96.6 -72.45 96.75 -71.3 96.55 -70.3
L 96.4 -69.7
Q 96.15 -68.85 95.5 -67.35 94.65 -65.35 94.5 -65 94.3 -64.5 93.6 -62.45 93.05 -60.9 92.55 -59.8 91.3 -57.3 88.75 -53.7 87.5 -52 86.5 -50.85 85.25 -49.4 83.95 -48.25 83.4 -47.75 80.95 -45.9 79 -44.35 77.9 -43.25 74.55 -39.85 74.6 -36.1 74.6 -34.2 75.65 -31.2 75.95 -30.25 76.45 -28.95 77 -27.5 77.3 -26.8 78.35 -23.85 78.8 -22.55 79.65 -20.25 80.3 -18.95 80.7 -18.15 81.3 -17.2 81.65 -16.65 82.3 -15.65 83.15 -14.2 83.45 -13.4 83.75 -12.4 83.75 -11.5 83.75 -10.5 83.4 -9.65 83.25 -9.35 83.1 -9.1 82.9 -8.8 82.75 -8.55 81.9 -7.45 80.5 -6.8 79.1 -6.1 77.65 -6.1 76.5 -6.1 75.1 -6.55 74.2 -6.9 72.8 -7.6
L 72.25 -7.9
Q 70.95 -8.6 70.3 -8.8 69.35 -9.1 68.45 -8.95 67.45 -8.8 66.35 -8.15 65.2 -7.45 64.5 -6.5
L 64.3 -6.25
Q 63.9 -5.65 63.35 -4.35 62.85 -3.2 62.5 -2.8 61.75 -1.9 60.55 -2.2 60 -2.3 59.6 -2.55 59.1 -2.85 58.35 -3.5 57.9 -3.9 57.2 -4.65 56.4 -5.5 56 -5.95 54.8 -7.1 54 -7.8 52.65 -8.85 51.5 -9.35 50.55 -9.8 48.9 -10.1 46.2 -10.65 45.8 -10.75
L 44.95 -11
Q 43.7 -11.35 41.6 -12.05 39.1 -12.9 37.65 -13.4 34.7 -14.4 33.15 -14.95 30.5 -15.85 28.8 -16.6
L 27.75 -17.15
Q 26 -18.05 24.35 -19.4 22.6 -20.85 21.8 -21.5 20.35 -22.65 18.75 -23.5 17.95 -23.85 17.2 -24.15 14.8 -25.05 13.35 -24.6 12.65 -24.4 11.95 -23.75 11.45 -23.25 10.7 -22.2 9.85 -21.05 9.4 -20.15 8.7 -18.9 8.4 -17.65 8.25 -16.8 8.2 -15.85 8.2 -13.7 9.1 -12.1 9.75 -11 10.95 -10.15 11.9 -9.45 13.55 -8.75 14.65 -8.25 16.4 -7.6 18.85 -6.65 19.45 -6.4 20.6 -5.9 21.7 -5.3 22.35 -5 23.6 -4.25 26.05 -2.8 26.25 -2.4
L 26.25 -2.35
Q 26.25 -2.05 24.25 -2.25
L 24 -2.3
Q 21.5 -2.6 18.4 -3.2 16.2 -3.65 15.15 -3.85 13.2 -4.25 12 -4.35 9.55 -4.65 7.55 -4.15 6.45 -3.85 4.8 -3.05 4.1 -2.7 3.75 -2.55 3.15 -2.3 2.65 -2.25
L 2.35 -2.2
Q 1.2 -2.1 -0.7 -2.8 -2.2 -3.4 -2.65 -3.5 -3.9 -3.85 -4.95 -3.75 -6.05 -3.6 -7.45 -2.95 -8.55 -2.4 -10.05 -1.4 -11 -0.75 -12.7 0.5 -14.55 1.8 -15.35 2.4 -17.85 4.05 -21.5 6.05 -24.85 7.9 -29.35 10.15 -31.5 11.25 -32.1 11.6 -33.15 12.25 -33.35 12.75 -33.4 12.85 -33.45 13.05 -33.45 13.5 -32.9 13.95 -32.4 14.35 -31.5 14.6 -31 14.75 -30.4 14.85 -28.6 15 -26.35 14.45 -25.2 14.15 -22.95 13.35 -20.05 12.3 -19.05 12 -14.45 10.5 -9.7 10.1
L -8.35 10
Q -6.55 9.9 -4.2 9.9 -2.55 9.9 0.8 10 3 10.05 3.65 10.05 5.75 10.05 7.55 9.75 8.25 9.65 10.95 9.05 13.15 8.55 14.5 8.45 17 8.2 19.5 8.7 20.25 8.85 21.1 9.1 21.8 9.3 23.75 10.05 25.3 10.7 26.4 10.9 27.5 11.15 29.2 11.25 30.2 11.3 32.2 11.35
L 32.8 11.4
Q 33.2 11.4 34.85 11.5 36.1 11.55 36.8 11.55 37.55 11.6 38.15 11.5 38.5 11.5 38.75 11.45 39.75 11.3 40.8 10.75 41.35 10.45 42.35 9.9 44.05 9.1 45.2 9.75 46.1 10.3 47.05 12.3
L 47.8 14.05
Q 48.8 16.5 49 18.1
L 49 18.2
Q 49 18.45 49 18.75 49.05 19.85 48.5 20.55 48 21.2 46.95 21.55
L 46.45 21.7
Q 44.35 22.15 41.6 21.35 40.3 21 38.5 20.2 37.5 19.75 35.4 18.8
L 34.65 18.45
Q 32.95 17.65 31.95 17.4 30.7 17.05 29.2 17.15 27.95 17.3 25.7 17.8 22.95 18.45 21.4 18.8
L 19.45 19.2
Q 17.5 19.6 14.7 20.05 13.65 20.25 9.5 20.9 2.05 22.1 -0.95 22.5 -1.8 22.6 -2.2 22.65 -4.45 22.9 -6.5 23 -7.85 23.05 -10.3 23.1 -11.3 23.15 -16.6 22.25 -21.3 21.5 -22.35 21.85 -23.25 22.1 -23.3 22.65 -23.3 23 -22.85 23.65 -22.3 24.6 -22.2 24.9 -21.9 25.7 -19.95 27.55 -18.15 29.25 -16.5 30.4
L -16.1 30.65
Q -12.4 33 -10.2 33.65 -9.05 34 -7.8 33.95 -7.2 33.9 -5.6 33.65
L -5.05 33.55
Q -2.35 33.15 -0.3 33.2 0.9 33.2 2.55 33.35 2.7 33.35 5.45 33.6
L 6.2 33.7
Q 8.95 33.9 12.4 33.9 15.1 33.9 15.9 33.95 17.95 34 19.35 34.25 20.75 34.5 22.25 35.15 22.65 35.3 24.7 36.25 26.05 36.85 26.9 37.15 28.1 37.5 29.2 37.5
L 29.55 37.5
Q 30.6 37.45 32.3 37 33.25 36.75 35.1 36.25 36.15 36 37.7 35.8 39.8 35.5 40.3 35.4 40.8 35.3 43.1 34.8 44.75 34.45 45.5 34.4
L 45.95 34.4
Q 46.65 34.4 47.05 34.7 47.45 35 47.65 35.7 47.85 36.45 47.9 37.65 47.95 38.9 47.75 40.3 47.3 43.5 45.7 46.45 44.65 48.4 43.3 49.95 41.75 51.85 40.1 52.95 38.8 53.8 36.35 54.65 33.95 55.55 33.25 56 32.3 56.6 31.6 57.8 30.85 59.25 30.35 60 29.65 60.95 28.75 61.8 27.75 62.65 26.75 63.05
L 26.5 63.2 25.9 63.35
Q 25.05 63.55 23.6 63.3 22.2 63.05 21.6 63.15 20.55 63.4 18.15 64.75 15.4 66.3 14.4 66.65 13.3 67.05 11.1 68.2 9 69.3 7.75 69.7
L 6.15 70.05
Q 4.4 70.3 1.45 70.35 -2.35 70.35 -3.25 70.4 -4.35 70.45 -5.45 70.45 -7.4 70.4 -11.85 69.95 -16 69.55 -18.35 69.6 -19.5 69.6 -20.55 69.7 -21.1 69.75 -21.7 69.75
L -23.65 69.6
Q -27 69.1 -30.85 66.7 -33.4 65.1 -37.05 62.05 -38.5 60.85 -39.15 60.3 -40.25 59.4 -40.9 58.75 -42.5 57 -42.9 54.3 -43.1 52.85 -43.2 52.1 -43.35 50.8 -43.65 49.95 -44 48.9 -44.65 48.05 -45.3 47.25 -46 46.8
L -46.2 46.7 -46.35 46.65
Q -47.75 46.1 -49 47.25 -50 48.2 -51.45 50.95
L -51.75 51.6
Q -52.8 53.7 -53.05 54.2 -53.75 55.55 -54.25 56.2 -55.25 57.5 -56.4 57.45 -56.95 57.45 -57.45 57.15 -58.05 56.8 -58.8 55.95 -59.75 54.85 -60.5 53.6 -61.4 51.95 -61.6 50.55 -61.7 50 -61.7 49.45 -61.7 48.4 -61.3 47 -60.85 45.45 -60.65 44.8 -60.1 42.85 -60 41 -59.9 39.15 -60.35 38.25 -60.55 37.9 -61.1 37.3 -61.8 36.65 -62.1 36.2 -62.65 35.45 -62.95 34.6 -63.3 33.55 -63.2 32.6 -63.1 31.75 -62.55 30.5 -61.75 28.6 -61.7 28.45 -60.95 26.35 -61.7 24.8
L -61.85 24.55
Q -62.3 23.7 -63.45 22.7 -64.3 21.95 -66.1 20.6 -68.4 18.95 -69.3 18.25 -71.35 16.65 -72.95 15.1 -73.7 14.4 -73.85 14.25 -77.3 10.65 -80.55 5.65
L -81.3 4.4
Q -82.75 1.95 -83.7 -0.25 -84.65 -2.65 -85.55 -6
L -85.65 -6.45
Q -85.9 -7.45 -86.2 -8.75 -86.65 -10.85 -87.7 -15.5 -88.65 -19.75 -89.4 -22.4
L -90.1 -24.7
Q -90.9 -27.3 -92.55 -31.4 -94.3 -35.8 -95.05 -37.95
L -95.65 -39.85
Q -96.7 -43.35 -97.45 -47.1 -98.2 -51 -98.55 -54.55 -98.85 -57.5 -98.8 -60.6 -98.8 -64.5 -98.2 -69.4
L -98.1 -70.4
Q -97.8 -72.5 -96.8 -79 -95.9 -84.8 -95.45 -88.75 -95.05 -92.25 -93.4 -104.2 -91.95 -115.45 -91.8 -119.75
L -91.75 -120.05
Q -91.75 -122.25 -93 -122.9 -93.8 -123.35 -95.7 -123.2 -97.9 -122.95 -98.35 -123.05 -99.6 -123.25 -99.6 -124.65
L -99.55 -124.85
Q -99.4 -127.7 -95.65 -133 -95.55 -133.2 -92.85 -136.85 -91.35 -138.9 -90.95 -139.75 -89.95 -141.9 -88.25 -143.8 -86.5 -145.7 -83.5 -147.95 -82.25 -148.85 -81.05 -149.65 -78.15 -151.7 -74.85 -153.55 -71.35 -155.55 -68.05 -157.05 -64.85 -158.5 -61.4 -159.6 -58.3 -160.65 -54.5 -161.55 -53.45 -161.8 -51 -162.3
L -49.8 -162.55
Q -38.9 -164.8 -29.05 -165.7 -17.3 -166.8 -2.75 -166.15 4.5 -165.85 12.85 -165.15 20.7 -164.5 27.4 -163.65 33.8 -162.9 38.6 -161.95 43.3 -161.05 48.4 -159.6 56.55 -157.3 66.75 -153.55
L 69.15 -152.7
Q 73.95 -150.85 77.1 -149.45 80.5 -147.95 82.65 -146.6
M 168.6 36.05
Q 168.85 36.1 169.05 36.2 169.4 36.4 169.55 37 169.6 37.4 169.7 38.65
L 169.95 44.75
Q 170.05 47.15 170.05 48.45 170.05 50.45 169.9 51.5 169.7 52.4 169.4 52.85 169.15 53.25 168.8 53.25 168.55 53.25 168.35 53.1 167.6 52.6 166.8 50.15 166.6 49.5 166.3 48.4 166 47.25 165.85 46.8 165.35 45.2 164.7 44.75 164.35 44.5 163.85 44.5 163.4 44.5 162.75 44.7 161.95 45 161.6 45.15 160.9 45.4 160.55 45.45 160.45 45.45 160.3 45.45 159.9 45.35 159.8 44.9 159.7 44.45 160 43.7 160.6 42.25 162.55 40.15 164.6 37.9 166.4 36.8 167.75 36 168.6 36.05
M -21.55 -221.45
L -21.45 -221.2
Q -21.2 -220.8 -20.55 -219.05 -20.05 -217.7 -19.55 -216.5 -18.85 -214.65 -18.25 -214 -17.9 -213.6 -17.4 -213.45 -16.95 -213.3 -16.3 -213.35 -15.75 -213.4 -14.9 -213.55 -14.45 -213.65 -13.3 -213.9 -12.2 -214.15 -11.15 -214.3
L -10 -214.45
Q -8.55 -214.6 -7.9 -214.4 -7.4 -214.2 -7.35 -213.8
L -7.4 -213.5
Q -7.6 -212.7 -8.6 -212 -9.5 -211.3 -11.95 -210.1 -13.5 -209.35 -14.95 -208.65 -16.05 -208.1 -16.25 -207.95
L -16.35 -207.85
Q -16.6 -207.55 -16.35 -206.85 -16.1 -206.15 -15.2 -204.55 -13.7 -201.8 -13.4 -201.1 -12.85 -199.95 -12.7 -198.9
L -12.65 -198.2
Q -12.65 -197.85 -12.7 -197.7 -12.9 -197.35 -13.6 -197.6 -14.45 -197.95 -15.65 -198.85 -16.5 -199.45 -17.75 -200.65 -18.95 -201.75 -19.25 -202 -19.65 -202.25 -19.9 -202.3 -20.25 -202.35 -20.7 -202.2 -21.5 -201.75 -22.7 -200.55 -23 -200.15 -23.6 -199.5 -24.15 -198.85 -24.4 -198.6 -25.2 -197.8 -25.75 -197.7 -26.1 -197.65 -26.3 -197.8 -26.55 -198 -26.6 -198.4 -26.6 -199 -26.25 -200.25
L -26.05 -200.9
Q -25.9 -201.35 -25.6 -202.25 -25.3 -203 -25.2 -203.5
L -25.15 -203.8
Q -24.9 -204.95 -25.15 -205.45 -25.3 -205.75 -25.75 -205.95 -26 -206.05 -26.85 -206.3 -28.75 -206.9 -30.35 -207.45 -32 -208.05 -33.05 -208.55 -34.15 -209.15 -34.15 -209.5 -34.1 -209.9 -33 -210.3
L -31.7 -210.7 -31.7 -210.75 -30.75 -211
Q -28.9 -211.45 -27.9 -211.6 -27.05 -211.75 -25.75 -211.85
L -25.55 -211.85
Q -24.8 -212 -24.65 -212.4
L -24.6 -212.55
Q -24.55 -212.75 -24.55 -213.2 -24.5 -213.45 -24.5 -214.15 -24.5 -215.15 -24.35 -217.25
L -24.3 -217.8
Q -24.15 -219.6 -24.05 -220.3
L -24.05 -220.4
Q -24 -220.8 -23.9 -221.05 -23.75 -221.6 -23.5 -221.9 -23.25 -222.25 -23 -222.35 -22.85 -222.45 -22.65 -222.45 -22.1 -222.35 -21.55 -221.45
M 66.95 -34.8
Q 65.4 -34.85 64.15 -34.35 63.2 -34 62.55 -33.4 61.9 -32.8 61.45 -31.9
L 61.05 -31
Q 60.25 -28.85 59.85 -28.1 59.6 -27.7 59.05 -27.05 58.65 -26.55 58.55 -26.15 58.3 -25.25 58.95 -23.55
L 59.15 -23.1
Q 59.8 -21.85 60.05 -21.2 60.55 -20 60.5 -19.15
L 60.45 -18.65
Q 60.3 -17.85 59.8 -16.8 59.2 -15.65 58.95 -15.15 58.1 -13.4 58.65 -12.8 58.9 -12.5 59.55 -12.5 60.2 -12.5 61.05 -12.8 62.8 -13.35 65 -14.9 66.2 -15.75 67.1 -16.65 68.2 -17.75 69 -19.1 69.9 -20.5 70.65 -22.3 71.35 -24.1 71.7 -25.85 72.4 -29.3 71.6 -31.65 70.8 -33.9 68.65 -34.55 67.9 -34.8 66.95 -34.8
M 19.1 -66.35
Q 18.6 -66.35 18 -66
L 17.5 -65.6
Q 17.05 -65.2 16.75 -64.6 16.5 -64.1 16.35 -63.55
L 16.2 -63.05
Q 16 -61.75 16.65 -60.4 17.1 -59.4 18.4 -57.65 19.5 -56.3 20.2 -55.75
L 20.5 -55.55
Q 20.9 -55.3 21.6 -55.05 22 -54.9 22.75 -54.6
L 23.3 -54.4
Q 24.15 -54 24.6 -53.5 24.75 -53.3 25 -52.9 25.2 -52.6 25.35 -52.5 25.55 -52.3 25.75 -52.3 26 -52.25 26.1 -52.5
L 26.15 -52.55 26.15 -52.65 26.2 -52.75
Q 26.3 -53.3 26.1 -54.25 25.75 -55.8 24.9 -57.6
L 24.05 -59.2 24.05 -59.25
Q 24 -59.3 23.85 -59.55
L 23.6 -59.95 23.55 -60 22.75 -61.2
Q 21.85 -62.3 21.45 -62.8 20.75 -63.7 20.45 -64.25 20.3 -64.55 20.2 -64.8
L 20.2 -64.85 20.1 -65.05 20.1 -65.1 19.8 -65.95 19.7 -66.05
Q 19.7 -66.1 19.65 -66.1
L 19.5 -66.25
Q 19.4 -66.3 19.2 -66.35
L 19.1 -66.35
M 35.15 -38.2
Q 35 -38.75 34.65 -39.4 33.55 -41.25 31.15 -43.5 30.45 -44.15 29.6 -44.85
L 28.45 -45.65 26.85 -46.4
Q 25.7 -46.8 23.85 -46.75
L 22.25 -46.65
Q 21.6 -46.65 19.3 -46.55 17.25 -46.55 15.95 -46.45 15.25 -46.4 14.85 -46.4 12.25 -46.2 10.65 -45.9 9.85 -45.75 9.2 -45.6 8.1 -45.3 7 -44.7 5.85 -44.05 5.3 -43.75 3.55 -42.95 1.25 -42.7 0.6 -42.65 -0.3 -42.65
L -4.35 -42.7
Q -7.25 -42.8 -8.7 -43.05 -9.25 -43.15 -9.75 -43.3
L -12.4 -44.15 -12.55 -44.15 -14 -44.55 -15.35 -44.7 -18.2 -44.45
Q -19.1 -44.25 -20.25 -43.95
L -21.05 -43.7
Q -23.6 -43 -24.9 -42.2 -25.35 -41.95 -25.75 -41.65 -26.8 -40.75 -27.35 -39.55 -28.05 -38.05 -28.2 -35.8 -28.25 -35.2 -28.25 -34.85 -28.25 -34.2 -28.2 -33.75 -28.1 -32.95 -27.8 -32.25 -27.2 -30.75 -25.65 -29.35 -24.35 -28.15 -23.15 -27.75 -22.45 -27.5 -22 -27.55 -21.45 -27.65 -21.35 -28.1
L -21.3 -28.2 -21.3 -28.6 -21.35 -28.85
Q -21.4 -29.3 -21.6 -30.05
L -21.9 -31.35
Q -22.4 -33.55 -22.25 -34.85
L -22.15 -35.3 -21.9 -35.95 -21.65 -36.25 -21.6 -36.25
Q -21.45 -36.4 -21.3 -36.45 -21.2 -36.5 -21.1 -36.5
L -20.8 -36.5
Q -20.55 -36.45 -20.1 -36.2 -19.85 -36.1 -19.2 -35.85
L -19.1 -35.75 -18.6 -35.55
Q -16.85 -34.9 -14.85 -34.75 -14.4 -34.7 -13.95 -34.7
L -13.7 -34.7 -13.4 -34.75 -13.1 -34.75 -12.4 -34.95
Q -12 -35.1 -11.8 -35.3 -11.35 -35.6 -10.9 -36.35 -10.35 -37.2 -10.1 -37.45 -9.6 -37.9 -9 -38.05 -8.4 -38.15 -7.85 -37.85 -7.45 -37.6 -7.05 -37 -7 -36.9 -6.55 -36.3 -6.25 -35.8 -6 -35.5 -4.7 -33.9 -2.95 -33.3 -1.15 -32.65 0.95 -33.2
L 1.85 -33.5
Q 2.1 -33.6 2.3 -33.7 3.4 -34.25 4 -35 4.35 -35.45 4.65 -36.25 4.95 -37.2 5.1 -37.4 5.45 -37.95 5.95 -38.2 6.45 -38.45 7.15 -38.4 7.65 -38.4 8.55 -38.1 9.05 -37.9 10.15 -37.55
L 10.45 -37.45
Q 12.3 -36.95 14.15 -36.95
L 14.5 -36.95
Q 14.95 -36.95 15.7 -37.05 16.45 -37.15 16.85 -37.15
L 17.6 -37.15
Q 19.25 -37.15 19.9 -36.8 20.25 -36.65 20.35 -36.35 20.5 -35.9 20.05 -35.25 19.55 -34.55 19.3 -34.25 18.85 -33.6 18.85 -33.15 18.85 -32.75 19.2 -32.35 19.6 -31.95 20.3 -31.7
L 20.4 -31.65
Q 20.85 -31.5 21.45 -31.4 22.6 -31.15 24.55 -31.2 25.75 -31.25 27.95 -31.4
L 28.7 -31.4 29.3 -31.5 29.45 -31.5 30 -31.55 31.35 -31.8 32.3 -32.1 32.4 -32.15
Q 32.55 -32.2 32.75 -32.3
L 32.8 -32.35 33 -32.45 33 -32.5 33.05 -32.5 33.35 -32.7 33.35 -32.75 33.4 -32.75 33.9 -33.3 34.1 -33.6
Q 34.35 -33.95 34.5 -34.25
L 34.8 -34.95
Q 34.85 -35.15 35 -35.5
L 35.2 -36.4 35.25 -36.8 35.25 -37.3
Q 35.25 -37.75 35.15 -38.2
M 9.7 -33.65
Q 9.15 -33.45 8.85 -32.65 8.5 -31.9 8.8 -31.25
L 8.95 -31
Q 9.2 -30.6 9.65 -30.15 10.4 -29.45 11.25 -28.9 12.8 -27.85 13.85 -27.55
L 14.1 -27.5 14.65 -27.5 14.8 -27.6
Q 14.85 -27.6 14.9 -27.6
L 15.1 -27.75 15.6 -28.3 15.65 -28.5 15.7 -28.5 15.75 -28.6 15.75 -28.7 15.8 -28.8 15.85 -28.85 15.9 -29.05 15.9 -29.1 15.95 -29.35 16 -29.85 16 -30
Q 16 -30.25 15.95 -30.6
L 15.65 -31.35
Q 15.15 -32.35 14 -33
L 12.75 -33.45 12.65 -33.5 12.3 -33.55 12.3 -33.6 12.05 -33.6 11.9 -33.65 11.85 -33.65 11.15 -33.75 11.1 -33.75 10.75 -33.8 10.2 -33.75 9.95 -33.75
Q 9.75 -33.7 9.7 -33.65
M -13.2 -21.5
Q -13.65 -21.2 -14.5 -20.25 -15.55 -19.15 -15.9 -18.8 -16.85 -18.05 -17.3 -17.65 -18.1 -17 -18.5 -16.35
L -18.7 -15.95
Q -19.1 -15.2 -19.35 -14.25 -19.6 -13.4 -19.65 -12.6
L -19.7 -12.2
Q -19.7 -11.65 -19.6 -11.1 -19.6 -11 -19.35 -10 -19 -8.5 -18.85 -6.95 -18.85 -6.1 -18.8 -5.75 -18.75 -5.15 -18.55 -4.8 -18.2 -4.2 -17.3 -3.65
L -16.95 -3.45
Q -16.6 -3.35 -16.4 -3.3
L -16.1 -3.3 -15.55 -3.4 -15.3 -3.5
Q -13.65 -4.1 -12.7 -5.45 -11.6 -6.95 -11 -10 -10.65 -11.95 -10.4 -15.5
L -10.3 -18.9 -10.35 -18.95 -10.35 -19.5 -10.45 -19.85 -10.45 -19.9 -10.5 -20.25 -10.55 -20.25 -10.6 -20.55 -10.65 -20.6 -10.75 -20.9 -10.9 -21.15 -10.9 -21.2 -11.05 -21.4 -11.1 -21.4 -11.3 -21.6
Q -11.65 -21.9 -12.1 -21.9 -12.65 -21.9 -13.2 -21.5
M -41.7 -1.45
Q -42.35 -1.15 -42.9 -0.8
L -44.2 0 -47.85 3.25
Q -49.25 4.5 -49.85 5.05 -51 6.1 -51.65 6.85
L -52.6 8.15 -53.3 9.45 -53.3 9.5 -53.45 9.9 -53.45 9.95 -53.5 10.05 -53.65 10.5 -53.8 11.2
Q -53.8 11.4 -53.85 11.75
L -53.85 16.25
Q -53.85 17 -54.1 18.5 -54.3 19.85 -54.3 20.35 -54.3 20.55 -54.3 20.7 -54.2 21.25 -53.7 21.6 -53.05 22.05 -52.9 22.25
L -52.8 22.45 -52.55 23.5 -52.5 24.3 -52.55 25.55
Q -52.6 25.9 -52.65 26.25
L -52.7 26.95 -52.75 27 -52.75 28.4 -52.5 29.25 -52.1 29.9
Q -51.75 30.4 -50.95 31.1
L -49.7 32.25
Q -49.25 32.65 -48.5 33.5 -47.85 34.15 -47.4 34.4
L -47.1 34.5
Q -46.8 34.6 -46.55 34.55 -46 34.55 -45.4 34.25 -44.8 33.95 -44.3 33.5
L -44.05 33.2
Q -43.65 32.7 -43.35 32 -43.05 31.3 -42.85 30.15 -42.65 29.15 -42.4 27.2 -42.15 24.9 -42 23.8 -41.6 20.4 -41.15 18.8
L -40.85 17.95 -40.8 17.9 -40.5 17.25
Q -40.45 17.15 -40.1 16.55
L -40.05 16.55 -40 16.4 -39.75 15.95 -39.75 15.9 -39.65 15.6
Q -39.5 15.1 -39.3 13.9 -39.15 12.6 -38.95 11.9 -38.5 10.2 -37.45 9.25 -37 8.85 -36.6 8.65 -35.8 8.25 -34.45 8.05 -33.7 7.9 -32.15 7.7 -29.85 7.35 -28.8 6.65
L -28.55 6.45 -28.45 6.35
Q -28.3 6.2 -28.25 6.1 -28.15 5.8 -28.15 5.45 -28.15 5.1 -28.25 4.45 -28.25 4.15 -28.25 3.8 -28.25 2.6 -27.9 1.55 -27.35 -0.1 -26 -1.45 -25.4 -2.05 -24.45 -2.8 -23.95 -3.25 -22.95 -4.05 -22.65 -4.3 -22.4 -4.5 -21.45 -5.4 -21.45 -6 -21.4 -6.4 -21.8 -6.7 -22.25 -7.05 -23.05 -7.15 -24.75 -7.35 -27.45 -6.8 -29.45 -6.35 -32.5 -5.2 -33.25 -4.9 -38.4 -2.85 -39.8 -2.3 -40.35 -2.05
L -41.7 -1.45
M -60.8 -113.6
Q -61.15 -113.65 -62.55 -114
L -63.05 -114.15
Q -66.05 -114.9 -68.1 -115.2 -70.25 -115.45 -72.75 -115.3 -74.25 -115.2 -75.25 -114.95 -76.65 -114.6 -77.7 -113.9 -77.9 -113.75 -78.25 -113.5 -79 -112.85 -80.1 -111.6 -81.55 -109.95 -81.9 -109.6 -82.5 -109.05 -83.9 -107.85 -85.1 -106.8 -85.7 -106.15
L -85.85 -105.9
Q -86.6 -105 -87 -103.95 -87.45 -102.9 -87.5 -101.95 -87.55 -100.25 -86.35 -98.55
L -86 -98.1
Q -84.4 -96.1 -82.4 -95.4 -81.35 -95.05 -80.15 -95.05 -79 -95.05 -77.95 -95.35 -77 -95.7 -76.15 -96.25 -75.4 -96.75 -74.95 -97.3 -74.6 -97.75 -74.45 -98.3 -74.35 -98.6 -74.25 -99.1 -74 -100 -73.3 -100.2 -73.1 -100.25 -72.85 -100.25 -72.5 -100.25 -71.55 -100.2 -71.1 -100.2 -70.7 -100.25 -70 -100.35 -68.7 -100.6 -67.95 -100.8 -66.45 -101.1 -64.5 -101.5 -62.6 -101.65 -60.85 -101.8 -60.85 -101.3
L -60.9 -101.2
Q -61 -100.65 -62.8 -99.05 -64.65 -97.4 -66.45 -96.15
L -67 -95.8
Q -67.9 -95.2 -69.35 -94.4 -71.35 -93.3 -72.05 -92.9 -75.7 -90.75 -78.95 -88.2 -81.15 -86.5 -82.45 -85.2 -84.1 -83.45 -84.55 -81.95 -84.7 -81.4 -84.75 -80.8
L -84.75 -80.4
Q -84.65 -79.3 -84.05 -78.2 -83.55 -77.25 -82.7 -76.45 -81.65 -75.4 -80.4 -74.9 -79.4 -74.5 -78.45 -74.55
L -78.4 -74.55
Q -77.45 -74.55 -76.5 -75 -75.7 -75.35 -74.7 -76 -73.3 -77 -72.85 -77.2 -71.75 -77.75 -70.55 -77.75 -69.55 -77.7 -67.55 -77.15 -64.95 -76.4 -64.3 -76.25
L -63.9 -76.2
Q -62.55 -75.95 -61.25 -76.05 -60.15 -76.1 -59.25 -76.4 -58.6 -76.6 -58.2 -76.9 -57.85 -77.15 -57.85 -77.4 -57.85 -77.5 -57.9 -77.55 -58.05 -78 -59.4 -78.2 -59.8 -78.25 -60.65 -78.3 -61.5 -78.3 -61.95 -78.35 -62.65 -78.45 -64.4 -78.85 -65.25 -79 -65.5 -79.15
L -65.55 -79.15
Q -65.65 -79.2 -65.75 -79.3 -65.85 -79.45 -65.85 -79.6
L -65.8 -79.7 -65.8 -79.75
Q -65.8 -79.9 -65.7 -80.1
L -65.6 -80.2
Q -65.5 -80.4 -65.25 -80.75 -65.05 -81.1 -64.9 -81.45 -64.75 -81.8 -64.55 -82.4 -64.4 -82.7 -64.2 -83.4 -63.9 -84.4 -63.4 -84.9 -63 -85.35 -61.7 -86.3 -60.3 -87.35 -60.25 -87.4 -59.95 -87.55 -59.8 -87.6 -59.6 -87.65 -59.45 -87.55 -59.3 -87.45 -59.1 -87.1 -58.95 -86.95 -58.65 -86.45 -57.95 -85.3 -57.05 -84.55 -55.65 -83.35 -54.05 -82.95 -53.45 -82.8 -52.75 -82.8 -51.85 -82.75 -50.45 -83 -47.85 -83.45 -46.6 -84.25 -45.9 -84.7 -45.4 -85.35 -45 -85.9 -44.55 -86.9 -43.7 -88.75 -43.15 -90.5 -42.95 -91.05 -42.7 -91.95 -42.5 -92.6 -42.3 -92.9 -42.1 -93.2 -41.75 -93.3 -41.4 -93.4 -40.85 -93.35
L -40.8 -93.35
Q -39.7 -93.3 -37.75 -92.9 -35.5 -92.45 -34.15 -91.95 -33.25 -91.65 -32.45 -91.2 -32.1 -91 -31.55 -90.65
L -31 -90.25
Q -29.6 -89.2 -29.05 -88.9 -28.4 -88.5 -27.75 -88.25 -27.15 -88 -26.9 -88.05 -26.7 -88.1 -26.7 -88.3 -26.7 -88.5 -26.8 -89.1
L -26.8 -89.35
Q -26.85 -89.85 -26.7 -90.35 -26.55 -90.9 -26.2 -91.2 -25.9 -91.55 -25.3 -91.75 -25.1 -91.85 -24.1 -92.15 -22.7 -92.6 -21.35 -93.35
L -20.95 -93.6
Q -19.2 -94.6 -18.2 -95.6 -17.05 -96.7 -16.75 -97.9
L -16.65 -98.25
Q -16.6 -98.8 -16.75 -99.65 -16.8 -100 -17.15 -101.5 -17.6 -103.4 -17.8 -104.1 -18.25 -105.75 -18.7 -106.85 -19.6 -108.9 -21.05 -110.4 -21.5 -110.85 -21.95 -111.25 -22.5 -111.7 -22.9 -112
L -24 -112.9
Q -25.1 -113.75 -25.85 -114.2 -27.15 -114.95 -28.25 -115 -28.7 -115 -29.05 -114.9 -29.7 -114.8 -30.75 -114.35 -32.1 -113.8 -32.45 -113.7 -33.9 -113.25 -35.25 -113.65 -35.65 -113.75 -36.4 -114.05 -37.2 -114.4 -37.65 -114.55
L -38.5 -114.75
Q -39.1 -114.85 -39.55 -114.85 -40.25 -114.85 -40.85 -114.7 -41.5 -114.55 -42.4 -114.15 -43.4 -113.65 -43.85 -113.45
L -44.25 -113.25
Q -45.65 -112.7 -46.75 -113 -47.25 -113.1 -47.95 -113.6
L -48.35 -113.85
Q -48.75 -114.2 -49.05 -114.3 -49.45 -114.5 -49.95 -114.5
L -50.25 -114.5
Q -50.7 -114.4 -51.95 -114.05 -53.3 -113.65 -54.15 -113.5 -56.45 -113.05 -59 -113.3 -59.85 -113.4 -60.8 -113.6 Z"/>
</g>

<path id="Layer0_0_1_STROKES" stroke="#1F1A17" stroke-width="0.05" stroke-linejoin="round" stroke-linecap="round" fill="none" d="
M -182.025 10.35
L -182 10.65
M 170.775 -79
L 170.8 -79.5
M -182 10.65
L -182 11.05 -181.975 11.2"/>
</defs>

<g transform="matrix( 1, 0, 0, 1, 0,0) ">
<use xlink:href="#Layer0_0_FILL"/>

<use xlink:href="#Layer0_0_1_STROKES"/>
</g>
</svg>
