
<svg xmlns="http://www.w3.org/2000/svg" version="1.1" xmlns:xlink="http://www.w3.org/1999/xlink" preserveAspectRatio="none" x="0px" y="0px" width="1920px" height="1080px" viewBox="0 0 1920 1080">
<defs>
<g id="Layer0_0_FILL">
<path fill="#231F20" stroke="none" d="
M -137.2 24.55
L -159.55 8.9
Q -169.7 50.4 -181.5 66.6
L -157.2 86.45
Q -143.8 55.35 -137.2 24.55
M -82.5 -68.3
L -106.45 -68.3
Q -118.7 -68.3 -126.95 -69.2
L -126.4 -62.9
Q -139.4 -74.6 -158.1 -86.9
L -176 -66.2
Q -158.25 -54.95 -142.6 -40.85
L -126.4 -62.15 -125.9 -41.9
Q -125.9 5.4 -129.75 28 -133.55 50.4 -144.6 67.75 -132 76.4 -122.35 87.45 -115.7 76.95 -110.95 65.3 -104.2 76.3 -100.8 87.1 -77.55 76.95 -61.4 64.05 -43.4 77.9 -18.65 86.1 -12.7 69.2 -4.45 57.6 -25.85 53 -41.05 43.9 -27 26.9 -17.45 4.3
L -12.55 -6.55 -26.9 -20.95
Q -31.8 -20.15 -41.2 -20.15
L -54.7 -20.15 -54.7 -42.65 -38.35 -42.65
Q -41.15 -35.6 -44.75 -29.95 -30.35 -26.6 -19.2 -22.95 -12.8 -36.35 -8.65 -47.85
L -4.95 -56.15 -18 -69.2
Q -22.85 -68.3 -38.7 -68.3
L -54.7 -68.3 -54.7 -70.45
Q -54.7 -81.95 -53.65 -87.25
L -83.7 -87.25
Q -82.5 -81.5 -82.5 -70.7
L -82.5 -68.3
M -82.5 -42.65
L -82.5 -20.15 -98.55 -20.15 -98.55 -42.65 -82.5 -42.65
M -78.45 4.3
L -47.15 4.3
Q -54.25 18.8 -62.3 27.7 -70.55 18.9 -78.45 4.3
M -100.05 15.2
L -99.35 4.3 -79.8 4.3 -100.05 15.2
M -100.25 16.65
Q -90.6 33.65 -81.45 44.7 -94.55 53 -108.15 57.95 -102.3 40.2 -100.25 16.65
M -164.95 -40.5
L -180.95 -19.05
Q -163.2 -8.35 -146.65 5.2
L -131 -18.35
Q -147 -30.4 -164.95 -40.5
M 173.95 38.8
L 181.55 31.4 160.3 11.15
Q 155.7 18.25 145.9 27.55 120.6 50.75 93.25 61.8 104.7 74.25 110.9 86.65 147.6 67.3 173.95 38.8
M 7.55 -54.05
Q 13.1 -54.95 23.2 -54.95
L 23.2 -24.2 21.55 -24.2
Q 10.95 -24.2 5.2 -25.2
L 5.2 3.45
Q 10.95 2.55 21.75 2.55
L 22.65 2.55
Q 21.55 25.2 17.25 38.25 12.85 51.3 1.85 65.15 14.45 74.85 23.55 87.65 36.85 69.9 42.55 52.45 49.45 31.3 50.45 2.55
L 63.95 2.55 63.95 62.55
Q 63.95 77.1 62.85 85.75
L 92.8 85.55
Q 91.75 77.4 91.75 62.35
L 91.75 2.55 96.95 2.55
Q 105.6 13.15 112.45 28.25 145.65 11.35 169.5 -12.75
L 177.05 -19.8 155.35 -39.5
Q 150.95 -33.2 142.6 -26.1 126.65 -12.75 109.1 -3.4
L 109.1 -25.2
Q 103.35 -24.2 91.75 -24.2
L 91.75 -54.95
Q 100.2 -54.95 105.25 -54.4
L 96.7 -50.75
Q 105.05 -41 111.1 -25.55 139.5 -39.2 166.25 -64.05
L 171.7 -68.8 147.8 -87.6
Q 143.75 -81.15 131.15 -71.15 118.45 -61.15 106.85 -55.4
L 106.85 -83.05
Q 96.6 -81.85 85.55 -81.85
L 28.6 -81.85
Q 17.8 -81.85 7.55 -83.05
L 7.55 -54.05
M 50.9 -54.95
L 63.95 -54.95 63.95 -24.2 50.9 -24.2 50.9 -54.95 Z"/>
</g>
</defs>

<g transform="matrix( 1, 0, 0, 1, 0,0) ">
<use xlink:href="#Layer0_0_FILL"/>
</g>
</svg>
