
<svg xmlns="http://www.w3.org/2000/svg" version="1.1" xmlns:xlink="http://www.w3.org/1999/xlink" preserveAspectRatio="none" x="0px" y="0px" width="1920px" height="1080px" viewBox="0 0 1920 1080">
<defs>
<g id="Layer0_0_FILL">
<path fill="#231F20" stroke="none" d="
M -125.5 -79
L -139.25 -75.1
Q -132.2 -60.75 -128.2 -44.7
L -113.7 -49.3
Q -118.3 -65.5 -125.5 -79
M -106.15 -51.55
L -92.3 -56.7
Q -96.05 -70.9 -103.9 -84.65
L -117.55 -80.45
Q -110.45 -66.85 -106.15 -51.55
M -195.65 -63.15
L -230.65 -69.45
Q -231.35 -32.5 -243.25 2 -255.2 36.45 -273.9 55.5 -257.45 63.85 -243.95 77.45 -208.9 34.45 -198.25 -47.15
L -195.65 -63.15
M -174.05 -63.5
L -173.35 -61.25 -171.55 -48.95
Q -160.9 29.05 -123.95 77.45 -111.8 64.5 -94.9 54.25 -122.25 21.15 -135.2 -28.9 -141.85 -54.25 -141.85 -68.85
L -141.85 -69.65 -174.05 -63.5
M 89.35 38.25
Q 82.15 33.2 69.5 21.6 41.6 -4.15 13.25 -35.9 2 -48.75 -3.95 -52.65 -9.85 -56.5 -18.05 -56.5 -25.6 -56.5 -32 -53 -38.3 -49.5 -47.5 -37.7 -80.2 3.8 -88.95 9.1
L -67 40.55 -60.25 32.1
Q -43 11.4 -27.05 -9.55
L -20.5 -17.9
Q -19.25 -19.1 -17.35 -19.1 -14.55 -19.1 -10.7 -14.65 39.5 42.65 73 73.6
L 89.35 38.25
M 213.95 -56.15
Q 214.15 -68.9 215.4 -77.55
L 180.75 -77.55 181.5 -63.15 180.6 52.55
Q 180.6 62.15 178.5 68
L 194.45 84.65
Q 196.85 83.15 203.45 80.8 228 71.8 242.1 59.75 262 42.75 273.95 12.95 261 2.95 249.5 -11.35 244.75 6.45 235.1 20.15 226.75 31.75 212.95 40.4
L 213.95 -56.15
M 128.4 -76.55
L 129.2 -59.65
Q 129.2 -23.75 126.6 -4.25 124.1 15.45 117.6 28.95 109.7 45.7 95.65 58.3 110.05 68.45 122 84 139.4 65.65 147.55 47.25 154.3 32 157.3 14.55 160.45 -3.15 161.25 -31.85 162.5 -68.3 163.3 -74.6
L 128.4 -76.55
M 43.85 -24.3
L 61.4 -32.75
Q 53.8 -47.05 43.1 -59.1
L 25.65 -51.2
Q 36.1 -39.15 43.85 -24.3
M 67.7 -70.2
L 51.05 -62.6
Q 60.4 -51.9 69.1 -36.25
L 86.05 -44.55
Q 77.5 -59.55 67.7 -70.2 Z"/>
</g>
</defs>

<g transform="matrix( 1, 0, 0, 1, 0,0) ">
<use xlink:href="#Layer0_0_FILL"/>
</g>
</svg>
