
<svg xmlns="http://www.w3.org/2000/svg" version="1.1" xmlns:xlink="http://www.w3.org/1999/xlink" preserveAspectRatio="none" x="0px" y="0px" width="1920px" height="1080px" viewBox="0 0 1920 1080">
<defs>
<g id="Layer0_0_FILL">
<path fill="#231F20" stroke="none" d="
M -751.55 -48.85
Q -752.7 -40.35 -752.7 -23.25
L -752.7 22.95
Q -752.7 46.2 -748.9 57.8 -745.1 69.35 -733.4 75.9 -721.65 82.4 -703.6 82.4 -686.2 82.4 -674.3 74.7 -662.5 67 -658.95 56.75 -655.55 46.4 -655.55 21.85
L -655.55 15.7 -696.65 15.7 -696.65 35.65
Q -696.65 48.65 -698.05 52.15 -699.5 55.65 -704.1 55.65 -708.85 55.65 -710.25 52.15 -711.6 48.65 -711.6 37.1
L -711.6 -36.35
Q -711.6 -48.35 -710.25 -51.95 -708.85 -55.55 -703.8 -55.55 -699.3 -55.55 -697.95 -52.65 -696.65 -49.6 -696.65 -37.6
L -696.65 -10.15 -655.55 -10.15 -655.55 -25.2
Q -655.55 -47.25 -659.25 -57.8 -662.95 -68.25 -674.8 -75.3 -686.6 -82.35 -704.75 -82.35 -718.15 -82.35 -728.4 -77.75 -738.75 -73.25 -744.5 -65.35 -750.35 -57.4 -751.55 -48.85
M -26.6 -79
L -67.7 -79 -67.7 37.5
Q -67.7 49.3 -68.8 52.55 -69.95 55.65 -73.85 55.65 -77.25 55.65 -78.35 52.85 -79.5 49.9 -79.5 39.55
L -79.5 -79 -120.65 -79 -120.65 14.55
Q -120.65 41.3 -119.65 49.7 -118.7 58 -113.3 65.55 -107.95 73.05 -97.1 77.75 -86.25 82.4 -72.1 82.4 -59.3 82.4 -49.85 78.5 -40.45 74.5 -34.7 66.9 -28.95 59.2 -27.75 51.95 -26.6 44.65 -26.6 26.65
L -26.6 -79
M -198.65 -79
L -227.75 -79 -227.75 79.1 -186.65 79.1 -186.65 7.8
Q -178.15 7.8 -176.1 10.85 -174.15 13.85 -174.15 26.55
L -174.15 79.1 -135.95 79.1 -135.95 37.4
Q -135.95 18.25 -136.95 14.05 -138 9.75 -142.2 4.7 -146.4 -0.4 -158.6 -3.4 -145.15 -4.7 -140.55 -11.05 -135.95 -17.4 -135.95 -35.85 -135.95 -56.05 -142.4 -65.25 -148.95 -74.5 -159.2 -76.75 -169.55 -79 -198.65 -79
M -186.65 -51.95
Q -179.5 -51.95 -176.75 -49.6 -174.15 -47.25 -174.15 -39.75
L -174.15 -31.05
Q -174.15 -20.6 -176.85 -18.65 -179.7 -16.8 -186.65 -16.8
L -186.65 -51.95
M -326.95 -79
L -326.95 -47.35 -302.6 -47.35 -302.6 79.1 -261.5 79.1 -261.5 -47.35 -237.1 -47.35 -237.1 -79 -326.95 -79
M -407.1 -77.55
Q -417.45 -72.85 -422.05 -64.45 -426.7 -56.05 -426.7 -37.9 -426.7 -25.3 -423.4 -17.2 -420.15 -9.1 -415.2 -4.5 -410.2 0.1 -394.9 10.25 -379.55 20.3 -375.65 24.6 -371.85 28.9 -371.85 42.85 -371.85 49.2 -373.8 52.45 -375.85 55.65 -379.95 55.65 -384.05 55.65 -385.6 53.1 -387.25 50.6 -387.25 41.7
L -387.25 22.45 -425.45 22.45 -425.45 32.8
Q -425.45 50.6 -421.85 60.25 -418.2 69.9 -406.5 76.15 -394.9 82.4 -378.35 82.4 -363.35 82.4 -352 77.05 -340.7 71.6 -336.7 63.55 -332.75 55.55 -332.75 38.65 -332.75 15.45 -339.9 5 -347.05 -5.45 -374.45 -21.8 -384.05 -27.45 -386.1 -31.45 -388.25 -35.45 -388.25 -43.35 -388.25 -49.5 -386.3 -52.55 -384.45 -55.55 -380.7 -55.55 -377.3 -55.55 -375.85 -53.3 -374.35 -51.1 -374.35 -42.85
L -374.35 -31.15 -336.2 -31.15 -336.2 -37.4
Q -336.2 -56.25 -339.8 -64.05 -343.5 -71.95 -354.75 -77.15 -366.05 -82.35 -382.1 -82.35 -396.75 -82.35 -407.1 -77.55
M -497.2 -79
L -531.6 -79 -531.6 79.1 -497.2 79.1 -497.2 7.25 -475.85 79.1 -439.8 79.1 -439.8 -79 -474.15 -79 -474.15 -7.8 -497.2 -79
M -571.6 -78.15
Q -581.75 -82.35 -594.45 -82.35 -607.85 -82.35 -617.9 -77.95 -627.95 -73.55 -633.8 -65.35 -639.75 -57.15 -640.85 -47.15 -642 -37.3 -642 -13.5
L -642 13.55
Q -642 38 -640.85 47.75 -639.65 57.5 -633.5 65.8 -627.35 74.1 -617.2 78.3 -607.15 82.4 -594.45 82.4 -581.1 82.4 -571 78.05 -560.95 73.65 -555 65.45 -549.15 57.25 -548 47.35 -546.9 37.4 -546.9 13.55
L -546.9 -13.5
Q -546.9 -37.9 -548.05 -47.65 -549.25 -57.4 -555.4 -65.7 -561.55 -74 -571.6 -78.15
M -594.25 -55.55
Q -590.45 -55.55 -589.2 -52.45 -588 -49.4 -588 -38.4
L -588 34.3
Q -588 48.25 -589.2 51.95 -590.35 55.65 -594.55 55.65 -598.65 55.65 -599.75 52.45 -600.9 49.2 -600.9 35.45
L -600.9 -38.4
Q -600.9 -50.6 -599.15 -53.05 -597.5 -55.55 -594.25 -55.55
M 642.25 -79
L 588.75 -79 579.35 -5.2 568.65 -79 515.4 -79 515.4 79.1 551.35 79.1 551.45 -25.2 566.5 79.1 591.95 79.1 606.3 -27.65 606.3 79.1 642.25 79.1 642.25 -79
M 454.6 -55.55
Q 458 -55.55 459.45 -53.3 460.95 -51.1 460.95 -42.85
L 460.95 -31.15 499.1 -31.15 499.1 -37.4
Q 499.1 -56.25 495.5 -64.05 491.8 -71.95 480.55 -77.15 469.25 -82.35 453.2 -82.35 438.55 -82.35 428.2 -77.55 417.85 -72.85 413.25 -64.45 408.6 -56.05 408.6 -37.9 408.6 -25.3 411.9 -17.2 415.15 -9.1 420.1 -4.5 425.1 0.1 440.4 10.25 455.75 20.3 459.65 24.6 463.45 28.9 463.45 42.85 463.45 49.2 461.5 52.45 459.45 55.65 455.35 55.65 451.25 55.65 449.7 53.1 448.05 50.6 448.05 41.7
L 448.05 22.45 409.85 22.45 409.85 32.8
Q 409.85 50.6 413.45 60.25 417.1 69.9 428.8 76.15 440.4 82.4 456.95 82.4 471.95 82.4 483.3 77.05 494.6 71.6 498.6 63.55 502.55 55.55 502.55 38.65 502.55 15.45 495.4 5 488.25 -5.45 460.85 -21.8 451.25 -27.45 449.2 -31.45 447.05 -35.45 447.05 -43.35 447.05 -49.5 449 -52.55 450.85 -55.55 454.6 -55.55
M 395.5 -79
L 354.4 -79 354.4 79.1 395.5 79.1 395.5 -79
M 304.15 -79
L 301.3 -49.6
Q 297.7 -14.15 294.6 31.55 291.25 -13.65 283.75 -79
L 240.4 -79 264.1 79.1 326.6 79.1 347.5 -79 304.15 -79
M 233.25 -79
L 192.15 -79 192.15 79.1 233.25 79.1 233.25 -79
M 92.95 -47.35
L 117.3 -47.35 117.3 79.1 158.4 79.1 158.4 -47.35 182.8 -47.35 182.8 -79 92.95 -79 92.95 -47.35
M 30.6 -51.95
Q 32 -55.55 37.05 -55.55 41.55 -55.55 42.9 -52.65 44.2 -49.6 44.2 -37.6
L 44.2 -10.15 85.3 -10.15 85.3 -25.2
Q 85.3 -47.25 81.6 -57.8 77.9 -68.25 66.05 -75.3 54.25 -82.35 36.1 -82.35 22.7 -82.35 12.45 -77.75 2.1 -73.25 -3.65 -65.35 -9.5 -57.4 -10.7 -48.85 -11.85 -40.35 -11.85 -23.25
L -11.85 22.95
Q -11.85 46.2 -8.05 57.8 -4.25 69.35 7.45 75.9 19.2 82.4 37.25 82.4 54.65 82.4 66.55 74.7 78.35 67 81.9 56.75 85.3 46.4 85.3 21.85
L 85.3 15.7 44.2 15.7 44.2 35.65
Q 44.2 48.65 42.8 52.15 41.35 55.65 36.75 55.65 32 55.65 30.6 52.15 29.25 48.65 29.25 37.1
L 29.25 -36.35
Q 29.25 -48.35 30.6 -51.95
M 728 -78.15
Q 717.85 -82.35 705.15 -82.35 691.75 -82.35 681.7 -77.95 671.65 -73.55 665.8 -65.35 659.85 -57.15 658.75 -47.15 657.6 -37.3 657.6 -13.5
L 657.6 13.55
Q 657.6 38 658.75 47.75 659.95 57.5 666.1 65.8 672.25 74.1 682.4 78.3 692.45 82.4 705.15 82.4 718.5 82.4 728.6 78.05 738.65 73.65 744.6 65.45 750.45 57.25 751.6 47.35 752.7 37.4 752.7 13.55
L 752.7 -13.5
Q 752.7 -37.9 751.55 -47.65 750.35 -57.4 744.2 -65.7 738.05 -74 728 -78.15
M 705.35 -55.55
Q 709.15 -55.55 710.4 -52.45 711.6 -49.4 711.6 -38.4
L 711.6 34.3
Q 711.6 48.25 710.4 51.95 709.25 55.65 705.05 55.65 700.95 55.65 699.85 52.45 698.7 49.2 698.7 35.45
L 698.7 -38.4
Q 698.7 -50.6 700.45 -53.05 702.1 -55.55 705.35 -55.55 Z"/>
</g>
</defs>

<g transform="matrix( 1, 0, 0, 1, 0,0) ">
<use xlink:href="#Layer0_0_FILL"/>
</g>
</svg>
