
<svg xmlns="http://www.w3.org/2000/svg" version="1.1" xmlns:xlink="http://www.w3.org/1999/xlink" preserveAspectRatio="none" x="0px" y="0px" width="1920px" height="1080px" viewBox="0 0 1920 1080">
<defs>
<g id="Layer0_0_FILL">
<path fill="#231F20" stroke="none" d="
M -174.95 -76.4
L -174.95 -44.1
Q -162.55 -45.45 -145.65 -45.45
L -57.75 -45.45
Q -68 -24.55 -88.7 -14.05
L -92.9 -11.9
Q -92.9 -13.7 -92.75 -18.25 -92.55 -29.35 -91.85 -34.2
L -126.45 -34.2
Q -125.4 -29.35 -125.4 -21.4 -125.4 -2.95 -128 8 -130.7 19 -137.35 27.55 -150.05 43.8 -179.55 53.15 -171.65 61.15 -167.75 66.75 -164.15 71.9 -158.5 83.05 -141.85 75.2 -132.6 68.8 -113.6 55.7 -103.8 37.7 -94.7 20.6 -93.1 -7.1 -81.6 1.35 -72.5 13.05 -37.95 -8.35 -21.1 -47.95 -18.45 -54.25 -15.35 -57.6
L -32.75 -76.75
Q -37.3 -74.7 -48.55 -74.7
L -145.1 -74.7
Q -164 -74.7 -174.95 -76.4
M -202.75 -30.3
Q -219.6 -42.65 -229.85 -54.95 -237.4 -34.8 -247.95 -18.9 -268.15 12.75 -301.9 26.65 -328.35 37.6 -357.35 39.95
L -347.8 75.3 -334.5 71.95
Q -308.95 66.05 -293.25 60 -277.8 54.05 -262.85 44.35 -243.45 31.95 -229.4 14.4 -215.35 -3.05 -202.75 -30.3
M -338 -74.5
L -359.2 -48.5
Q -332.4 -34.1 -309.1 -9.65
L -287.35 -38.4
Q -307.3 -56.5 -338 -74.5
M -529.45 -78.7
L -529.45 -47.6
Q -520.7 -48.5 -501.45 -48.5
L -435.85 -48.5
Q -415.9 -48.5 -406.9 -47.6
L -406.9 -78.7
Q -416.15 -77.3 -436.4 -77.3
L -500.9 -77.3
Q -520 -77.3 -529.45 -78.7
M -548.25 -31.4
L -548.25 -0.45
Q -538.95 -1.35 -520.45 -1.35
L -482.65 -1.35
Q -483.75 20.8 -495.4 33.9 -507.1 47.05 -532.4 54.45 -524.1 62.25 -520 68 -515.85 73.6 -510.8 83.55 -491.75 75.85 -480.4 67.2 -469.05 58.65 -461.4 46.15 -450.15 27.35 -448.2 -1.35
L -416.7 -1.35
Q -398.6 -1.35 -387.9 -0.45
L -387.9 -31.2
Q -397.65 -29.95 -417.25 -29.95
L -519.8 -29.95
Q -539.15 -29.95 -548.25 -31.4
M -589.35 -35.25
Q -594.4 -33.2 -604 -33.2
L -696.6 -33.2
Q -715.1 -33.2 -726.2 -34.75
L -726.2 -3.8
Q -712.25 -4.85 -696.95 -4.85
L -617.15 -4.85
Q -626.7 18.1 -645.5 32 -663.85 45.7 -694.15 53.55 -679.95 69.25 -673.55 83.75 -639.55 70.6 -621 55.05 -594.4 32.75 -580.1 -8.2 -577.4 -16.1 -574.95 -19.8
L -589.35 -35.25
M -596.1 -49.85
L -596.1 -80.8
Q -604.75 -79.25 -625.05 -79.25
L -683.8 -79.25
Q -701.35 -79.25 -710.9 -80.8
L -710.9 -49.85
Q -700.8 -50.75 -684.15 -50.75
L -624.55 -50.75
Q -607.8 -50.75 -596.1 -49.85
M 404.5 -51.8
Q 389.5 -51.8 378.95 -53.35
L 379.15 -21.8
Q 389.5 -22.95 403.95 -22.95
L 427 -22.95
Q 423.75 -3.7 417.8 8.65 404.85 34.8 369.85 53.15 383.45 64.75 393.9 81.15 421.85 62.7 436.35 42.9 450.75 23.3 456.85 -4.7
L 459.65 -23.15 494.85 -23.15
Q 494.85 4.85 491.3 28.35 489.5 40.3 487 43.8 484.5 47.3 477.85 47.3 468.1 47.3 453.9 43.65 459.3 58.3 460.2 76 476.4 77.45 484.3 77.45 499.7 77.45 507.35 72.4 515 67.3 518.95 54.45 524.6 35.8 526.7 -27.9 526.85 -37.15 529.3 -41.55
L 514.9 -54.05
Q 509.95 -52 502.55 -52
L 462.35 -52 463 -61.45
Q 464.05 -79.7 464.95 -83.75
L 430.3 -84.65 430.85 -75.4 429.95 -51.8 404.5 -51.8
M 293.6 -79.25
Q 294.75 -69.8 294.75 -54.05
L 294.75 -34.9
Q 294.75 -8.35 292.7 4.15 288.45 27.55 265.25 39.95 252.35 46.7 228.8 51.2 241.95 66.3 247.5 82.65 271.7 75.75 285.85 67.55 316.05 50.3 324.15 20.8 328.4 4.4 328.4 -32.85
L 328.4 -54.45
Q 328.4 -66.4 329.4 -79.25
L 293.6 -79.25
M 207.95 -79.25
Q 209 -69.55 209 -54.95
L 209 -18.55
Q 209 0.45 207.95 8.35
L 243.65 8.35
Q 242.75 -0.8 242.75 -17.9
L 242.75 -54.6
Q 242.75 -68.75 243.65 -79.25
L 207.95 -79.25
M 23.5 -33.2
Q 42.05 -22.75 71.45 -0.45 63 9.8 51.65 19.95 32.05 37.7 1.75 52.1 16.5 64.85 24.95 79.9 70.45 54.8 96.3 21.3 116.45 39.95 131.1 59.1
L 156.2 32.9
Q 134.5 10 116 -5.75 129.2 -27.1 140.55 -54.45 145.5 -66.65 148.3 -71.55
L 113.65 -83.15
Q 111.5 -72.25 104.55 -55.85 97.65 -39.4 89.6 -26.65 65.25 -44.45 46.15 -55.5
L 23.5 -33.2
M 651.8 -70.45
Q 651.8 -80.45 652.9 -85.4
L 619.35 -85.4
Q 620.35 -79.6 620.35 -71 620.35 -19.9 602.8 10.95 594.35 26 581.9 36.9 569.3 47.95 549 58.1 560.75 70.8 567.8 85.2 590.55 72.35 607.4 54.6 618.15 43.45 624.9 31.55 631.65 19.7 637.6 1.6 647.15 28.95 662.55 47.5 679.15 68 707.4 85.45 715.45 68.65 726.2 56.3 707.4 47.3 694 35.25 669.25 13.5 659.4 -16.1 651.8 -38.15 651.8 -70.45 Z"/>
</g>
</defs>

<g transform="matrix( 1, 0, 0, 1, 0,0) ">
<use xlink:href="#Layer0_0_FILL"/>
</g>
</svg>
