
<svg xmlns="http://www.w3.org/2000/svg" version="1.1" xmlns:xlink="http://www.w3.org/1999/xlink" preserveAspectRatio="none" x="0px" y="0px" width="1920px" height="1080px" viewBox="0 0 1920 1080">
<defs>
<g id="Layer0_0_FILL">
<path fill="#231F20" stroke="none" d="
M -159.4 80.1
Q -154.95 56.2 -154 21.35
L -172.4 19.55
Q -172.95 51.05 -177.65 70.95
L -159.4 80.1
M -119.8 67.95
L -102.05 64.1
Q -102.6 41.95 -105.6 19.4
L -121.75 22.25
Q -119.5 43.3 -119.5 59.3
L -119.8 67.95
M -113.85 -38.45
Q -104.15 -31 -98 -22.1
L -98 65.25
Q -98 77.7 -89.4 81.55 -80.75 85.5 -53.2 85.5 -35.4 85.5 -27.15 84.35 -17.15 82.9 -12.3 78.95 -7.35 75 -5.2 66.6 -3.4 59.6 -2.4 44.4 -15.25 41.95 -29.1 35.05 -29.1 51.5 -30.9 55.45 -32.15 58.35 -36.65 59.4 -41.05 60.4 -52.15 60.4 -64.55 60.4 -67.9 59.25 -71.1 57.95 -71.1 53.4
L -71.1 30.35 -23.6 30.35
Q -14.25 30.35 -7.35 31 -7.9 26.3 -7.9 13.6
L -7.9 -22.25
Q -7.9 -30.75 -7.35 -37.4 -13 -36.65 -24.35 -36.65
L -31.9 -36.65 -15.05 -63.2 -14.35 -64.1 -25.95 -75.7
Q -32.6 -75 -42.35 -75
L -55.85 -75 -52.3 -82.35 -80.85 -87.15
Q -83.25 -77.5 -92.9 -62.5 -101.8 -48.65 -113.85 -38.45
M -68.5 -51.25
L -52.7 -51.25
Q -55.65 -44.4 -61.3 -36.65
L -78.85 -36.65 -68.5 -51.25
M -72.55 -12.55
L -63.55 -12.55 -63.55 6.25 -72.55 6.25 -72.55 -12.55
M -42.5 -12.55
L -33.35 -12.55 -33.35 6.25 -42.5 6.25 -42.5 -12.55
M -165.85 -9.95
Q -172.7 -9.95 -176.85 -10.65
L -174.65 15.7 -149.75 13.6 -149.75 67.6
Q -149.75 80.4 -150.9 87.85
L -124.4 87.85
Q -125.45 80.85 -125.45 67.6
L -125.45 12 -117 11 -115.95 17.65 -98.55 11.3
Q -102.8 -9.95 -110.55 -29.3
L -125.45 -23.6 -121.75 -11.55 -135.45 -10.65
Q -120.05 -30.75 -108.35 -49.35
L -102.8 -57.45 -124.4 -69.25
Q -127.6 -61.05 -140.95 -39.65
L -145 -44.75
Q -137.35 -56.75 -132.1 -67.25
L -125.45 -79.6 -149.2 -87.85
Q -151.9 -77.7 -160.3 -62.85
L -164.85 -68 -177 -45.15
Q -163.9 -30.75 -155.35 -18.25
L -161.2 -10.15 -165.85 -9.95
M 66.35 -70.75
L 67.05 -85.7 38 -85.7 38.75 -70.75 28.4 -70.75
Q 16.75 -70.75 9.4 -71.65
L 9.4 -44.95 19.9 -45.65 19.9 -15.45
Q 19.9 -5.65 26.4 -2.1 32.8 1.5 50.5 1.5
L 78.65 0.4 89.2 9.4 38 9.4
Q 26.5 9.4 16.75 8.3
L 16.75 30.35
Q 23.7 29.65 38 29.65
L 78.5 29.65 78.5 35.95 44.4 35.95 26.6 35.2 26.6 56.35 44.4 55.65 78.5 55.65 78.5 61.95 30.8 61.95
Q 17.15 61.95 9.4 60.75
L 9.4 84.6
Q 22.35 83.45 33.85 83.45
L 152.9 83.45
Q 166.3 83.45 177.65 84.6
L 177.65 60.75
Q 169.35 61.95 156.2 61.95
L 105.75 61.95 105.75 55.65 142.45 55.65
Q 153.45 55.65 160.25 56.35
L 160.25 35.2
Q 152.15 35.95 142.45 35.95
L 105.75 35.95 105.75 29.65 149 29.65
Q 163.15 29.65 170.25 30.35
L 170.25 8.3
Q 164.5 9.1 152.15 9.4 160.65 7.95 164.75 3.75 172.4 -4.2 174.1 -32.6 174.95 -42.8 175.9 -71.3
L 176.75 -81.65
Q 169.55 -80.65 154.25 -80.65
L 120.5 -80.65
Q 105.85 -80.65 97.3 -81.65 98.35 -75 98.35 -69.7 98.35 -32.1 83.25 -11.55
L 83.25 -25.6
Q 68.95 -24 56.35 -24 49.95 -24 48.45 -24.6 46.8 -25.35 46.8 -28.2
L 46.8 -45.65 73.55 -45.65 92.35 -44.95 92.35 -71.65
Q 85.4 -70.75 73.55 -70.75
L 66.35 -70.75
M 147.95 -59.35
L 147.75 -53.75 124 -53.75 124.35 -59.35 147.95 -59.35
M 136 -8.7
L 122.1 -9.75
Q 126.55 -0.3 127.5 9.4
L 102.25 9.4
Q 111.6 -1.6 116.65 -14.9
L 144.6 -14.9
Q 143.7 -11.05 143 -10.5 141.1 -8.7 136 -8.7
M 122.4 -37.05
L 147.05 -37.05
Q 146.85 -33.9 146.85 -31.35
L 121.2 -31.35 122.4 -37.05 Z"/>
</g>
</defs>

<g transform="matrix( 1, 0, 0, 1, 0,0) ">
<use xlink:href="#Layer0_0_FILL"/>
</g>
</svg>
