
<svg xmlns="http://www.w3.org/2000/svg" version="1.1" xmlns:xlink="http://www.w3.org/1999/xlink" preserveAspectRatio="none" x="0px" y="0px" width="1920px" height="1080px" viewBox="0 0 1920 1080">
<defs>
<g id="Layer0_0_MEMBER_0_FILL">
<path fill="#020303" stroke="none" d="
M 960 1283.15
Q 898.95 1283.15 843.2 1306.7 789.4 1329.5 747.85 1371 706.35 1412.55 683.55 1466.35 660 1522.1 660 1583.15 660 1644.15 683.55 1699.9 706.35 1753.75 747.85 1795.25 789.4 1836.8 843.2 1859.55 898.95 1883.15 960 1883.15 1021.05 1883.15 1076.8 1859.55 1130.6 1836.8 1172.15 1795.25 1213.65 1753.75 1236.45 1699.9 1260 1644.15 1260 1583.15 1260 1522.1 1236.45 1466.35 1213.65 1412.55 1172.15 1371 1130.6 1329.5 1076.8 1306.7 1021.05 1283.15 960 1283.15
M 849.5 1317.35
Q 902.3 1295.35 960 1295.35 1017.7 1295.35 1070.5 1317.35 1121.5 1338.55 1161.15 1377.35 1200.8 1416.1 1223.15 1466.6 1246.3 1518.75 1247.65 1576.15
L 1191.55 1576.15
Q 1189.35 1576.15 1187.55 1577.4 1185.75 1578.65 1184.95 1580.7 1184.15 1582.85 1183.25 1584.6 1181.6 1582.35 1179.9 1578.75 1173.7 1565.75 1167.6 1558.8 1158.85 1548.7 1149.25 1549.3 1140.5 1549.85 1133.25 1559.3 1126.05 1568.7 1119.65 1587.85 1113.4 1606.55 1108.65 1612.2 1104.4 1605.3 1100.6 1582.7 1096.75 1559.55 1092.7 1550.5 1088.55 1541.4 1081.9 1541.4
L 1081.65 1541.4
Q 1076.1 1541.5 1072.4 1547.65 1069.4 1552.7 1066.6 1563.8 1062.35 1581.1 1057.95 1615.55 1055.4 1635.8 1052.4 1644.8 1047.75 1634.25 1041.85 1606.6 1033.6 1567.85 1024.05 1500.35 1017.15 1451.65 1011.15 1427.1 1007.4 1411.7 1003.8 1405.25 999.45 1397.55 993.15 1397.95 986.25 1398.35 982.5 1408.35 978.1 1420.2 974.7 1452.5 969.75 1499.75 966.55 1596.3 962.4 1726.1 954.9 1761.65 947.2 1734.65 937.6 1654.9 924.9 1549.5 913.65 1512.2 908.95 1496.65 903.95 1490.7 900.15 1486.2 894.95 1486.2
L 894.85 1486.2
Q 886.2 1486.2 880.7 1500.15 874.1 1516.9 868.25 1561 861.95 1608.35 855.75 1634.45 851.4 1652.6 847.65 1658.6 842.4 1649.5 836.7 1620.3 828.3 1576.85 820.9 1560.4 814.65 1546.65 806.25 1546.65
L 806.2 1546.65
Q 799.2 1546.7 794.6 1555.4 790 1564.1 786.25 1584.45 785.35 1589.4 784.55 1592.6 783.15 1587.35 781.95 1581.45 779.75 1570.9 776.9 1565.45 772.9 1557.95 766.5 1557.25 759.9 1556.55 754.1 1563.7 749.85 1568.85 745.25 1579.55 743.7 1583.05 742.9 1583.85 740.2 1584.65 723 1576.75 721.6 1576.15 720.1 1576.15
L 672.35 1576.15
Q 673.7 1518.75 696.85 1466.6 719.2 1416.1 758.85 1377.35 798.5 1338.55 849.5 1317.35
M 882.15 1562.85
Q 885.8 1535.5 889.65 1518.95 892.4 1507.25 895 1502.15 899.95 1510.7 905.85 1538.9 914.5 1580.05 923.7 1656.55 930.9 1716.75 937.25 1747.95 941.4 1768.05 945.25 1775.8 949.2 1783.55 955.2 1783.5
L 955.7 1783.5
Q 962.4 1783.2 965.85 1773.85 969.95 1762.85 973.05 1731.95 977.6 1687.25 980.55 1596.75 983.4 1509.7 987.8 1462 990.65 1431.85 994.1 1418.05 1001.2 1439 1010.2 1502.3 1021.3 1580.4 1030.2 1618.75 1036.2 1644.65 1041.8 1654.5 1046.45 1662.7 1052.9 1662.7
L 1053 1662.7
Q 1060.25 1662.65 1064.45 1652.55 1068.65 1642.4 1071.85 1617.3 1076.9 1577.45 1081.8 1561.35 1084.25 1569.65 1086.8 1585 1090.45 1606.85 1095.3 1616.75 1100.1 1626.6 1107.5 1627.15 1114.65 1627.7 1120.6 1619.55 1126.5 1611.45 1132.9 1592.3 1138.75 1574.75 1144.7 1567.4 1147.9 1563.4 1150.1 1563.25 1152.1 1563.25 1155.1 1566.05 1160.8 1571.35 1167.25 1584.8 1170.45 1591.5 1173.7 1595.05 1178.5 1600.25 1184.05 1600 1191.4 1599.65 1196.15 1590.15
L 1247.65 1590.15
Q 1246.3 1647.55 1223.15 1699.7 1200.8 1750.15 1161.15 1788.9 1121.5 1827.7 1070.5 1848.9 1017.7 1870.9 960 1870.9 902.3 1870.9 849.5 1848.9 798.5 1827.7 758.85 1788.9 719.2 1750.15 696.85 1699.7 673.7 1647.55 672.35 1590.15
L 718.6 1590.15
Q 730.6 1595.55 736.25 1597 743.15 1598.75 747.9 1596.9 751.65 1595.5 754.3 1591.95 756.15 1589.55 758.05 1585.15 761.8 1576.6 764.85 1572.65 766.7 1576.65 768.25 1584.25 771.5 1600.2 774.75 1606.75 778.6 1614.5 784.75 1614.5
L 784.85 1614.5
Q 790.8 1614.45 794.4 1607.2 797.4 1601.2 800.05 1587 803.2 1569.85 806.5 1562.8 809.4 1567.85 812.9 1579.5 817.75 1595.85 823 1623 828.35 1650.9 833.95 1662.55 839.55 1674.15 847.55 1674.15
L 847.9 1674.15
Q 854.3 1673.95 859.05 1666.55 863.75 1659.15 868.15 1642.4 875.2 1615.3 882.15 1562.85 Z"/>
</g>
</defs>

<g transform="matrix( 1, 0, 0, 1, -960,-1583.15) ">
<use xlink:href="#Layer0_0_MEMBER_0_FILL"/>
</g>
</svg>
