
<svg xmlns="http://www.w3.org/2000/svg" version="1.1" xmlns:xlink="http://www.w3.org/1999/xlink" preserveAspectRatio="none" x="0px" y="0px" width="1920px" height="1080px" viewBox="0 0 1920 1080">
<defs>
<g id="Layer0_0_FILL">
<path fill="#231F20" stroke="none" d="
M 25.9 46.45
L 0.9 46.45 0.9 -80 -40.2 -80 -40.2 78.1 25.9 78.1 25.9 46.45
M -56.7 -80
L -97.8 -80 -97.8 78.1 -56.7 78.1 -56.7 -80
M -167.7 -23.45
L -167.7 -80 -208.8 -80 -208.8 78.1 -167.7 78.1 -167.7 11.7 -155.4 11.7 -155.4 78.1 -114.25 78.1 -114.25 -80 -155.4 -80 -155.4 -23.45 -167.7 -23.45
M -262.95 -81
L -262.95 -93.6 -281.15 -93.6 -281.15 -81
Q -301.15 -78.65 -311.1 -68.6 -321.2 -58.5 -321.2 -40.85 -321.2 -28.65 -316.4 -18.95 -311.7 -9.3 -305.15 -3.95 -298.7 1.35 -280.65 12.65 -269.8 19.4 -267.95 25.15 -266.1 30.85 -266.1 44.1 -266.1 49.4 -268.05 52.1 -270 54.75 -274 54.75 -278.7 54.75 -279.85 50.95 -281.15 47.05 -281.15 31.15
L -281.15 21.45 -320.6 21.45 -320.6 29.15
Q -320.6 55.55 -308.75 66.2 -296.95 76.75 -281.15 78.3
L -281.15 93.65 -262.95 93.65 -262.95 78.8
Q -242.65 75.95 -232.5 63.95 -222.35 51.95 -222.35 30.85 -222.35 17.65 -226.05 8.85 -229.85 0 -235.35 -4.8 -240.8 -9.7 -255.85 -18.75 -273.5 -29.5 -277.15 -33.25 -280.85 -36.95 -280.85 -46.2 -280.85 -51.8 -279 -54.5 -277.25 -57.35 -273.6 -57.35 -269.15 -57.35 -267.75 -54.15 -266.4 -50.9 -266.4 -40.45
L -266.4 -33.9 -226.95 -33.9 -226.55 -41.35
Q -226.55 -58.8 -235.65 -68.7 -244.7 -78.65 -262.95 -81
M 227.25 -48.15
Q 226.1 -38.3 226.1 -14.5
L 226.1 12.55
Q 226.1 37 227.25 46.75 228.45 56.5 234.6 64.8 240.75 73.1 250.9 77.3 260.95 81.4 273.65 81.4 287 81.4 297.1 77.05 307.15 72.65 313.1 64.45 318.95 56.25 320.1 46.35 321.2 36.4 321.2 12.55
L 321.2 -14.5
Q 321.2 -38.9 320.05 -48.65 318.85 -58.4 312.7 -66.7 306.55 -75 296.5 -79.15 286.35 -83.35 273.65 -83.35 260.25 -83.35 250.2 -78.95 240.15 -74.55 234.3 -66.35 228.35 -58.15 227.25 -48.15
M 268.95 -54.05
Q 270.6 -56.55 273.85 -56.55 277.65 -56.55 278.9 -53.45 280.1 -50.4 280.1 -39.4
L 280.1 33.3
Q 280.1 47.25 278.9 50.95 277.75 54.65 273.55 54.65 269.45 54.65 268.35 51.45 267.2 48.2 267.2 34.45
L 267.2 -39.4
Q 267.2 -51.6 268.95 -54.05
M 153.35 -80
L 118.95 -80 118.95 78.1 153.35 78.1 153.35 6.25 174.7 78.1 210.75 78.1 210.75 -80 176.4 -80 176.4 -8.8 153.35 -80
M 76.95 -18.4
L 76.95 -48.35 104.4 -48.35 104.4 -80 35.85 -80 35.85 78.1 107.15 78.1 107.15 46.45 76.95 46.45 76.95 11.7 102.65 11.7 102.65 -18.4 76.95 -18.4 Z"/>
</g>
</defs>

<g transform="matrix( 1, 0, 0, 1, 0,0) ">
<use xlink:href="#Layer0_0_FILL"/>
</g>
</svg>
