
<svg xmlns="http://www.w3.org/2000/svg" version="1.1" xmlns:xlink="http://www.w3.org/1999/xlink" preserveAspectRatio="none" x="0px" y="0px" width="1920px" height="1080px" viewBox="0 0 1920 1080">
<defs>
<g id="Layer0_0_FILL">
<path fill="#231F20" stroke="none" d="
M -411.2 236.6
L -411.2 204.95 -479.75 204.95 -479.75 363.05 -408.45 363.05 -408.45 331.4 -438.65 331.4 -438.65 296.65 -412.95 296.65 -412.95 266.55 -438.65 266.55 -438.65 236.6 -411.2 236.6
M -74.05 236.6
L -74.05 204.95 -142.6 204.95 -142.6 363.05 -71.3 363.05 -71.3 331.4 -101.5 331.4 -101.5 296.65 -75.8 296.65 -75.8 266.55 -101.5 266.55 -101.5 236.6 -74.05 236.6
M -304.85 363.05
L -304.85 204.95 -339.2 204.95 -339.2 276.15 -362.25 204.95 -396.65 204.95 -396.65 363.05 -362.25 363.05 -362.25 291.2 -340.9 363.05 -304.85 363.05
M -166.1 216.65
Q -171.55 210.4 -182 207.7 -192.55 204.95 -222.35 204.95
L -253.1 204.95 -253.1 363.05 -201.25 363.05
Q -186.5 363.05 -179.15 361.5 -171.85 359.85 -166.85 355.8 -161.9 351.7 -159.85 344.6 -157.9 337.35 -157.9 316.1
L -157.9 260.7
Q -157.9 238.25 -159.25 230.65 -160.6 222.9 -166.1 216.65
M -212 232
Q -205.25 232 -202.8 233.45 -200.35 234.85 -199.7 237.85
L -199 251.6 -199 313.05
Q -199 328.85 -201.05 332.5 -203.1 336 -212 336
L -212 232
M -46.7 -17.4
L -72.1 -17.4 -72.1 -47.35 -43.55 -47.35 -43.55 -79 -113.2 -79 -113.2 79.1 -72.1 79.1 -72.1 12.7 -46.7 12.7 -46.7 -17.4
M -175.4 -82.35
Q -190.05 -82.35 -200.4 -77.55 -210.75 -72.85 -215.35 -64.45 -220 -56.05 -220 -37.9 -220 -25.3 -216.7 -17.2 -213.45 -9.1 -208.5 -4.5 -203.5 0.1 -188.2 10.25 -172.85 20.3 -168.95 24.6 -165.15 28.9 -165.15 42.85 -165.15 49.2 -167.1 52.45 -169.15 55.65 -173.25 55.65 -177.35 55.65 -178.9 53.1 -180.55 50.6 -180.55 41.7
L -180.55 22.45 -218.75 22.45 -218.75 32.8
Q -218.75 50.6 -215.15 60.25 -211.5 69.9 -199.8 76.15 -188.2 82.4 -171.65 82.4 -156.65 82.4 -145.3 77.05 -134 71.6 -130 63.55 -126.05 55.55 -126.05 38.65 -126.05 15.45 -133.2 5 -140.35 -5.45 -167.75 -21.8 -177.35 -27.45 -179.4 -31.45 -181.55 -35.45 -181.55 -43.35 -181.55 -49.5 -179.6 -52.55 -177.75 -55.55 -174 -55.55 -170.6 -55.55 -169.15 -53.3 -167.65 -51.1 -167.65 -42.85
L -167.65 -31.15 -129.5 -31.15 -129.5 -37.4
Q -129.5 -56.25 -133.1 -64.05 -136.8 -71.95 -148.05 -77.15 -159.35 -82.35 -175.4 -82.35
M -267.45 -79
L -267.45 -7.8 -290.5 -79 -324.9 -79 -324.9 79.1 -290.5 79.1 -290.5 7.25 -269.15 79.1 -233.1 79.1 -233.1 -79 -267.45 -79
M -178.65 -362.95
L -238.15 -362.95 -259 -204.85 -216.55 -204.85 -214.1 -233.25 -199.35 -233.25 -197.2 -204.85 -155.1 -204.85 -178.65 -362.95
M -200.45 -261.3
L -214.6 -261.3
Q -213.05 -282.3 -206.7 -327.7 -203.55 -288.15 -200.45 -261.3
M -44.4 -361.1
Q -55.7 -366.3 -71.75 -366.3 -86.4 -366.3 -96.75 -361.5 -107.1 -356.8 -111.7 -348.4 -116.35 -340 -116.35 -321.85 -116.35 -309.25 -113.05 -301.15 -109.8 -293.05 -104.85 -288.45 -99.85 -283.85 -84.55 -273.7 -69.2 -263.65 -65.3 -259.35 -61.5 -255.05 -61.5 -241.1 -61.5 -234.75 -63.45 -231.5 -65.5 -228.3 -69.6 -228.3 -73.7 -228.3 -75.25 -230.85 -76.9 -233.35 -76.9 -242.25
L -76.9 -261.5 -115.1 -261.5 -115.1 -251.15
Q -115.1 -233.35 -111.5 -223.7 -107.85 -214.05 -96.15 -207.8 -84.55 -201.55 -68 -201.55 -53 -201.55 -41.65 -206.9 -30.35 -212.35 -26.35 -220.4 -22.4 -228.4 -22.4 -245.3 -22.4 -268.5 -29.55 -278.95 -36.7 -289.4 -64.1 -305.75 -73.7 -311.4 -75.75 -315.4 -77.9 -319.4 -77.9 -327.3 -77.9 -333.45 -75.95 -336.5 -74.1 -339.5 -70.35 -339.5 -66.95 -339.5 -65.5 -337.25 -64 -335.05 -64 -326.8
L -64 -315.1 -25.85 -315.1 -25.85 -321.35
Q -25.85 -340.2 -29.45 -348 -33.15 -355.9 -44.4 -361.1
M -355.35 -79
L -414.85 -79 -435.7 79.1 -393.25 79.1 -390.8 50.7 -376.05 50.7 -373.9 79.1 -331.8 79.1 -355.35 -79
M -377.15 22.65
L -391.3 22.65
Q -389.75 1.65 -383.4 -43.75 -380.25 -4.2 -377.15 22.65
M -505.05 -79
L -534.15 -79 -534.15 79.1 -493.05 79.1 -493.05 7.8
Q -484.55 7.8 -482.5 10.85 -480.55 13.85 -480.55 26.55
L -480.55 79.1 -442.35 79.1 -442.35 37.4
Q -442.35 18.25 -443.35 14.05 -444.4 9.75 -448.6 4.7 -452.8 -0.4 -465 -3.4 -451.55 -4.7 -446.95 -11.05 -442.35 -17.4 -442.35 -35.85 -442.35 -56.05 -448.8 -65.25 -455.35 -74.5 -465.6 -76.75 -475.95 -79 -505.05 -79
M -493.05 -16.8
L -493.05 -51.95
Q -485.9 -51.95 -483.15 -49.6 -480.55 -47.25 -480.55 -39.75
L -480.55 -31.05
Q -480.55 -20.6 -483.25 -18.65 -486.1 -16.8 -493.05 -16.8
M -633.35 -47.35
L -609 -47.35 -609 79.1 -567.9 79.1 -567.9 -47.35 -543.5 -47.35 -543.5 -79 -633.35 -79 -633.35 -47.35
M -330.8 -362.95
L -330.8 -204.85 -264.7 -204.85 -264.7 -236.5 -289.7 -236.5 -289.7 -362.95 -330.8 -362.95
M 269.95 218.7
Q 263.4 209.45 253.15 207.2 242.8 204.95 213.7 204.95
L 184.6 204.95 184.6 363.05 225.7 363.05 225.7 291.75
Q 234.2 291.75 236.25 294.8 238.2 297.8 238.2 310.5
L 238.2 363.05 276.4 363.05 276.4 321.35
Q 276.4 302.2 275.4 298 274.35 293.7 270.15 288.65 265.95 283.55 253.75 280.55 267.2 279.25 271.8 272.9 276.4 266.55 276.4 248.1 276.4 227.9 269.95 218.7
M 235.6 234.35
Q 238.2 236.7 238.2 244.2
L 238.2 252.9
Q 238.2 263.35 235.5 265.3 232.65 267.15 225.7 267.15
L 225.7 232
Q 232.85 232 235.6 234.35
M 43.9 204.95
L 43.9 363.05 85 363.05 85 204.95 43.9 204.95
M 27.6 246.55
Q 27.6 227.7 24 219.9 20.3 212 9.05 206.8 -2.25 201.6 -18.3 201.6 -32.95 201.6 -43.3 206.4 -53.65 211.1 -58.25 219.5 -62.9 227.9 -62.9 246.05 -62.9 258.65 -59.6 266.75 -56.35 274.85 -51.4 279.45 -46.4 284.05 -31.1 294.2 -15.75 304.25 -11.85 308.55 -8.05 312.85 -8.05 326.8 -8.05 333.15 -10 336.4 -12.05 339.6 -16.15 339.6 -20.25 339.6 -21.8 337.05 -23.45 334.55 -23.45 325.65
L -23.45 306.4 -61.65 306.4 -61.65 316.75
Q -61.65 334.55 -58.05 344.2 -54.4 353.85 -42.7 360.1 -31.1 366.35 -14.55 366.35 0.45 366.35 11.8 361 23.1 355.55 27.1 347.5 31.05 339.5 31.05 322.6 31.05 299.4 23.9 288.95 16.75 278.5 -10.65 262.15 -20.25 256.5 -22.3 252.5 -24.45 248.5 -24.45 240.6 -24.45 234.45 -22.5 231.4 -20.65 228.4 -16.9 228.4 -13.5 228.4 -12.05 230.65 -10.55 232.85 -10.55 241.1
L -10.55 252.8 27.6 252.8 27.6 246.55
M 142.6 266.55
L 142.6 236.6 170.05 236.6 170.05 204.95 101.5 204.95 101.5 363.05 172.8 363.05 172.8 331.4 142.6 331.4 142.6 296.65 168.3 296.65 168.3 266.55 142.6 266.55
M 375.1 236.6
L 375.1 204.95 285.25 204.95 285.25 236.6 309.6 236.6 309.6 363.05 350.7 363.05 350.7 236.6 375.1 236.6
M 469.9 218.25
Q 463.75 209.95 453.7 205.8 443.55 201.6 430.85 201.6 417.45 201.6 407.4 206 397.35 210.4 391.5 218.6 385.55 226.8 384.45 236.8 383.3 246.65 383.3 270.45
L 383.3 297.5
Q 383.3 321.95 384.45 331.7 385.65 341.45 391.8 349.75 397.95 358.05 408.1 362.25 418.15 366.35 430.85 366.35 444.2 366.35 454.3 362 464.35 357.6 470.3 349.4 476.15 341.2 477.3 331.3 478.4 321.35 478.4 297.5
L 478.4 270.45
Q 478.4 246.05 477.25 236.3 476.05 226.55 469.9 218.25
M 424.4 245.55
Q 424.4 233.35 426.15 230.9 427.8 228.4 431.05 228.4 434.85 228.4 436.1 231.5 437.3 234.55 437.3 245.55
L 437.3 318.25
Q 437.3 332.2 436.1 335.9 434.95 339.6 430.75 339.6 426.65 339.6 425.55 336.4 424.4 333.15 424.4 319.4
L 424.4 245.55
M 609.8 -79
L 550.3 -79 529.45 79.1 571.9 79.1 574.35 50.7 589.1 50.7 591.25 79.1 633.35 79.1 609.8 -79
M 588 22.65
L 573.85 22.65
Q 575.4 1.65 581.75 -43.75 584.9 -4.2 588 22.65
M 458.95 -79
L 428.2 -79 428.2 79.1 480.05 79.1
Q 494.8 79.1 502.15 77.55 509.45 75.9 514.45 71.85 519.4 67.75 521.45 60.65 523.4 53.4 523.4 32.15
L 523.4 -23.25
Q 523.4 -45.7 522.05 -53.3 520.7 -61.05 515.2 -67.3 509.75 -73.55 499.3 -76.25 488.75 -79 458.95 -79
M 469.3 -51.95
Q 476.05 -51.95 478.5 -50.5 480.95 -49.1 481.6 -46.1
L 482.3 -32.35 482.3 29.1
Q 482.3 44.9 480.25 48.55 478.2 52.05 469.3 52.05
L 469.3 -51.95
M 397.75 -79
L 338.25 -79 317.4 79.1 359.85 79.1 362.3 50.7 377.05 50.7 379.2 79.1 421.3 79.1 397.75 -79
M 375.95 22.65
L 361.8 22.65
Q 363.35 1.65 369.7 -43.75 372.85 -4.2 375.95 22.65
M 236.55 -79
L 183.3 -79 183.3 79.1 219.25 79.1 219.35 -25.2 234.4 79.1 259.85 79.1 274.2 -27.65 274.2 79.1 310.15 79.1 310.15 -79 256.65 -79 247.25 -5.2 236.55 -79
M 160.95 -65.25
Q 154.4 -74.5 144.15 -76.75 133.8 -79 104.7 -79
L 75.6 -79 75.6 79.1 116.7 79.1 116.7 7.8
Q 125.2 7.8 127.25 10.85 129.2 13.85 129.2 26.55
L 129.2 79.1 167.4 79.1 167.4 37.4
Q 167.4 18.25 166.4 14.05 165.35 9.75 161.15 4.7 156.95 -0.4 144.75 -3.4 158.2 -4.7 162.8 -11.05 167.4 -17.4 167.4 -35.85 167.4 -56.05 160.95 -65.25
M 129.2 -31.05
Q 129.2 -20.6 126.5 -18.65 123.65 -16.8 116.7 -16.8
L 116.7 -51.95
Q 123.85 -51.95 126.6 -49.6 129.2 -47.25 129.2 -39.75
L 129.2 -31.05
M 35.6 -78.15
Q 25.45 -82.35 12.75 -82.35 -0.65 -82.35 -10.7 -77.95 -20.75 -73.55 -26.6 -65.35 -32.55 -57.15 -33.65 -47.15 -34.8 -37.3 -34.8 -13.5
L -34.8 13.55
Q -34.8 38 -33.65 47.75 -32.45 57.5 -26.3 65.8 -20.15 74.1 -10 78.3 0.05 82.4 12.75 82.4 26.1 82.4 36.2 78.05 46.25 73.65 52.2 65.45 58.05 57.25 59.2 47.35 60.3 37.4 60.3 13.55
L 60.3 -13.5
Q 60.3 -37.9 59.15 -47.65 57.95 -57.4 51.8 -65.7 45.65 -74 35.6 -78.15
M 8.05 -53.05
Q 9.7 -55.55 12.95 -55.55 16.75 -55.55 18 -52.45 19.2 -49.4 19.2 -38.4
L 19.2 34.3
Q 19.2 48.25 18 51.95 16.85 55.65 12.65 55.65 8.55 55.65 7.45 52.45 6.3 49.2 6.3 35.45
L 6.3 -38.4
Q 6.3 -50.6 8.05 -53.05
M 139.65 -204.85
L 139.65 -236.5 114.65 -236.5 114.65 -362.95 73.55 -362.95 73.55 -204.85 139.65 -204.85
M 31.55 -301.35
L 31.55 -331.3 59 -331.3 59 -362.95 -9.55 -362.95 -9.55 -204.85 61.75 -204.85 61.75 -236.5 31.55 -236.5 31.55 -271.25 57.25 -271.25 57.25 -301.35 31.55 -301.35
M 238.95 -362.95
L 195.6 -362.95 192.75 -333.55
Q 189.15 -298.1 186.05 -252.4 182.7 -297.6 175.2 -362.95
L 131.85 -362.95 155.55 -204.85 218.05 -204.85 238.95 -362.95
M 314.35 -362.95
L 254.85 -362.95 234 -204.85 276.45 -204.85 278.9 -233.25 293.65 -233.25 295.8 -204.85 337.9 -204.85 314.35 -362.95
M 292.55 -261.3
L 278.4 -261.3
Q 279.95 -282.3 286.3 -327.7 289.45 -288.15 292.55 -261.3 Z"/>
</g>
</defs>

<g transform="matrix( 1, 0, 0, 1, 0,0) ">
<use xlink:href="#Layer0_0_FILL"/>
</g>
</svg>
