
<svg xmlns="http://www.w3.org/2000/svg" version="1.1" xmlns:xlink="http://www.w3.org/1999/xlink" preserveAspectRatio="none" x="0px" y="0px" width="1920px" height="1080px" viewBox="0 0 1920 1080">
<defs>
<image id="FlashAICB_3_Layer_1__Path__116" x="0" y="0" width="1" height="1" xlink:href="./images/FlashAICB_3_Layer_1__Path__116.png"/>

<image id="FlashAICB_3_Layer_1__Path__115" x="0" y="0" width="1" height="1" xlink:href="./images/FlashAICB_3_Layer_1__Path__115.png"/>

<image id="FlashAICB_3_Layer_1__Path__114" x="0" y="0" width="1" height="1" xlink:href="./images/FlashAICB_3_Layer_1__Path__114.png"/>

<image id="FlashAICB_3_Layer_1__Path__113" x="0" y="0" width="1" height="1" xlink:href="./images/FlashAICB_3_Layer_1__Path__113.png"/>

<image id="FlashAICB_3_Layer_1__Path__112" x="0" y="0" width="1" height="1" xlink:href="./images/FlashAICB_3_Layer_1__Path__112.png"/>

<image id="FlashAICB_3_Layer_1__Path__111" x="0" y="0" width="1" height="1" xlink:href="./images/FlashAICB_3_Layer_1__Path__111.png"/>

<image id="FlashAICB_3_Layer_1__Path__110" x="0" y="0" width="1" height="1" xlink:href="./images/FlashAICB_3_Layer_1__Path__110.png"/>

<image id="FlashAICB_3_Layer_1__Path__109" x="0" y="0" width="3" height="1" xlink:href="./images/FlashAICB_3_Layer_1__Path__109.png"/>

<image id="FlashAICB_3_Layer_1__Path__106" x="0" y="0" width="1" height="2" xlink:href="./images/FlashAICB_3_Layer_1__Path__106.png"/>

<image id="FlashAICB_3_Layer_1__Path__104" x="0" y="0" width="1" height="1" xlink:href="./images/FlashAICB_3_Layer_1__Path__104.png"/>

<image id="FlashAICB_3_Layer_1__Path__103" x="0" y="0" width="1" height="1" xlink:href="./images/FlashAICB_3_Layer_1__Path__103.png"/>

<image id="FlashAICB_3_Layer_1__Path__102" x="0" y="0" width="1" height="1" xlink:href="./images/FlashAICB_3_Layer_1__Path__102.png"/>

<image id="FlashAICB_3_Layer_1__Path__99" x="0" y="0" width="1" height="1" xlink:href="./images/FlashAICB_3_Layer_1__Path__99.png"/>

<image id="FlashAICB_3_Layer_1__Path__98" x="0" y="0" width="1" height="1" xlink:href="./images/FlashAICB_3_Layer_1__Path__98.png"/>

<image id="FlashAICB_3_Layer_1__Path__97" x="0" y="0" width="1" height="1" xlink:href="./images/FlashAICB_3_Layer_1__Path__97.png"/>

<image id="FlashAICB_3_Layer_1__Path__95" x="0" y="0" width="1" height="1" xlink:href="./images/FlashAICB_3_Layer_1__Path__95.png"/>

<image id="FlashAICB_3_Layer_1__Path__94" x="0" y="0" width="1" height="1" xlink:href="./images/FlashAICB_3_Layer_1__Path__94.png"/>

<image id="FlashAICB_3_Layer_1__Path__93" x="0" y="0" width="1" height="2" xlink:href="./images/FlashAICB_3_Layer_1__Path__93.png"/>

<image id="FlashAICB_3_Layer_1__Path__92" x="0" y="0" width="1" height="1" xlink:href="./images/FlashAICB_3_Layer_1__Path__92.png"/>

<image id="FlashAICB_3_Layer_1__Path__90" x="0" y="0" width="1" height="1" xlink:href="./images/FlashAICB_3_Layer_1__Path__90.png"/>

<image id="FlashAICB_3_Layer_1__Path__89" x="0" y="0" width="2" height="1" xlink:href="./images/FlashAICB_3_Layer_1__Path__89.png"/>

<image id="FlashAICB_3_Layer_1__Path__88" x="0" y="0" width="1" height="1" xlink:href="./images/FlashAICB_3_Layer_1__Path__88.png"/>

<image id="FlashAICB_3_Layer_1__Path__87" x="0" y="0" width="2" height="1" xlink:href="./images/FlashAICB_3_Layer_1__Path__87.png"/>

<image id="FlashAICB_3_Layer_1__Path__86" x="0" y="0" width="1" height="1" xlink:href="./images/FlashAICB_3_Layer_1__Path__86.png"/>

<image id="FlashAICB_3_Layer_1__Path__85" x="0" y="0" width="1" height="1" xlink:href="./images/FlashAICB_3_Layer_1__Path__85.png"/>

<image id="FlashAICB_3_Layer_1__Path__84" x="0" y="0" width="1" height="1" xlink:href="./images/FlashAICB_3_Layer_1__Path__84.png"/>

<image id="FlashAICB_3_Layer_1__Path__82" x="0" y="0" width="1" height="1" xlink:href="./images/FlashAICB_3_Layer_1__Path__82.png"/>

<image id="FlashAICB_3_Layer_1__Path__81" x="0" y="0" width="1" height="1" xlink:href="./images/FlashAICB_3_Layer_1__Path__81.png"/>

<image id="FlashAICB_3_Layer_1__Path__80" x="0" y="0" width="2" height="1" xlink:href="./images/FlashAICB_3_Layer_1__Path__80.png"/>

<image id="FlashAICB_3_Layer_1__Path__79" x="0" y="0" width="3" height="2" xlink:href="./images/FlashAICB_3_Layer_1__Path__79.png"/>

<image id="FlashAICB_3_Layer_1__Path__78" x="0" y="0" width="3" height="2" xlink:href="./images/FlashAICB_3_Layer_1__Path__78.png"/>

<image id="FlashAICB_3_Layer_1__Path__76" x="0" y="0" width="1" height="1" xlink:href="./images/FlashAICB_3_Layer_1__Path__76.png"/>

<image id="FlashAICB_3_Layer_1__Path__74" x="0" y="0" width="1" height="1" xlink:href="./images/FlashAICB_3_Layer_1__Path__74.png"/>

<image id="FlashAICB_3_Layer_1__Path__73" x="0" y="0" width="1" height="1" xlink:href="./images/FlashAICB_3_Layer_1__Path__73.png"/>

<image id="FlashAICB_3_Layer_1__Path__72" x="0" y="0" width="2" height="1" xlink:href="./images/FlashAICB_3_Layer_1__Path__72.png"/>

<image id="FlashAICB_3_Layer_1__Path__69" x="0" y="0" width="3" height="1" xlink:href="./images/FlashAICB_3_Layer_1__Path__69.png"/>

<image id="FlashAICB_3_Layer_1__Path__68" x="0" y="0" width="2" height="1" xlink:href="./images/FlashAICB_3_Layer_1__Path__68.png"/>

<image id="FlashAICB_3_Layer_1__Path__67" x="0" y="0" width="1" height="1" xlink:href="./images/FlashAICB_3_Layer_1__Path__67.png"/>

<image id="FlashAICB_3_Layer_1__Path__66" x="0" y="0" width="1" height="1" xlink:href="./images/FlashAICB_3_Layer_1__Path__66.png"/>

<image id="FlashAICB_3_Layer_1__Path__65" x="0" y="0" width="3" height="1" xlink:href="./images/FlashAICB_3_Layer_1__Path__65.png"/>

<image id="FlashAICB_3_Layer_1__Path__63" x="0" y="0" width="3" height="1" xlink:href="./images/FlashAICB_3_Layer_1__Path__63.png"/>

<image id="FlashAICB_3_Layer_1__Path__62" x="0" y="0" width="1" height="2" xlink:href="./images/FlashAICB_3_Layer_1__Path__62.png"/>

<image id="FlashAICB_3_Layer_1__Path__61" x="0" y="0" width="1" height="1" xlink:href="./images/FlashAICB_3_Layer_1__Path__61.png"/>

<image id="FlashAICB_3_Layer_1__Path__60" x="0" y="0" width="1" height="2" xlink:href="./images/FlashAICB_3_Layer_1__Path__60.png"/>

<image id="FlashAICB_3_Layer_1__Path__59" x="0" y="0" width="1" height="2" xlink:href="./images/FlashAICB_3_Layer_1__Path__59.png"/>

<image id="FlashAICB_3_Layer_1__Path__58" x="0" y="0" width="1" height="2" xlink:href="./images/FlashAICB_3_Layer_1__Path__58.png"/>

<image id="FlashAICB_3_Layer_1__Path__57" x="0" y="0" width="1" height="1" xlink:href="./images/FlashAICB_3_Layer_1__Path__57.png"/>

<image id="FlashAICB_3_Layer_1__Path__56" x="0" y="0" width="1" height="2" xlink:href="./images/FlashAICB_3_Layer_1__Path__56.png"/>

<image id="FlashAICB_3_Layer_1__Path__55" x="0" y="0" width="1" height="1" xlink:href="./images/FlashAICB_3_Layer_1__Path__55.png"/>

<image id="FlashAICB_3_Layer_1__Path__53" x="0" y="0" width="1" height="2" xlink:href="./images/FlashAICB_3_Layer_1__Path__53.png"/>

<image id="FlashAICB_3_Layer_1__Path__50" x="0" y="0" width="1" height="2" xlink:href="./images/FlashAICB_3_Layer_1__Path__50.png"/>

<image id="FlashAICB_3_Layer_1__Path__47" x="0" y="0" width="1" height="2" xlink:href="./images/FlashAICB_3_Layer_1__Path__47.png"/>

<image id="FlashAICB_3_Layer_1__Path__46" x="0" y="0" width="3" height="1" xlink:href="./images/FlashAICB_3_Layer_1__Path__46.png"/>

<image id="FlashAICB_3_Layer_1__Path__45" x="0" y="0" width="3" height="1" xlink:href="./images/FlashAICB_3_Layer_1__Path__45.png"/>

<image id="FlashAICB_3_Layer_1__Path__44" x="0" y="0" width="3" height="1" xlink:href="./images/FlashAICB_3_Layer_1__Path__44.png"/>

<image id="FlashAICB_3_Layer_1__Path__43" x="0" y="0" width="3" height="1" xlink:href="./images/FlashAICB_3_Layer_1__Path__43.png"/>

<image id="FlashAICB_3_Layer_1__Path__42" x="0" y="0" width="3" height="1" xlink:href="./images/FlashAICB_3_Layer_1__Path__42.png"/>

<image id="FlashAICB_3_Layer_1__Path__41" x="0" y="0" width="3" height="1" xlink:href="./images/FlashAICB_3_Layer_1__Path__41.png"/>

<image id="FlashAICB_3_Layer_1__Path__40" x="0" y="0" width="4" height="1" xlink:href="./images/FlashAICB_3_Layer_1__Path__40.png"/>

<image id="FlashAICB_3_Layer_1__Path__39" x="0" y="0" width="3" height="1" xlink:href="./images/FlashAICB_3_Layer_1__Path__39.png"/>

<image id="FlashAICB_3_Layer_1__Path__38" x="0" y="0" width="3" height="1" xlink:href="./images/FlashAICB_3_Layer_1__Path__38.png"/>

<image id="FlashAICB_3_Layer_1__Path__37" x="0" y="0" width="3" height="1" xlink:href="./images/FlashAICB_3_Layer_1__Path__37.png"/>

<image id="FlashAICB_3_Layer_1__Path__36" x="0" y="0" width="3" height="1" xlink:href="./images/FlashAICB_3_Layer_1__Path__36.png"/>

<image id="FlashAICB_3_Layer_1__Path__35" x="0" y="0" width="3" height="1" xlink:href="./images/FlashAICB_3_Layer_1__Path__35.png"/>

<image id="FlashAICB_3_Layer_1__Path__34" x="0" y="0" width="4" height="1" xlink:href="./images/FlashAICB_3_Layer_1__Path__34.png"/>

<image id="FlashAICB_3_Layer_1__Path__33" x="0" y="0" width="4" height="1" xlink:href="./images/FlashAICB_3_Layer_1__Path__33.png"/>

<image id="FlashAICB_3_Layer_1__Path__32" x="0" y="0" width="3" height="3" xlink:href="./images/FlashAICB_3_Layer_1__Path__32.png"/>

<image id="FlashAICB_3_Layer_1__Path__31" x="0" y="0" width="1" height="1" xlink:href="./images/FlashAICB_3_Layer_1__Path__31.png"/>

<image id="FlashAICB_3_Layer_1__Path__30" x="0" y="0" width="1" height="1" xlink:href="./images/FlashAICB_3_Layer_1__Path__30.png"/>

<image id="FlashAICB_3_Layer_1__Path__28" x="0" y="0" width="1" height="1" xlink:href="./images/FlashAICB_3_Layer_1__Path__28.png"/>

<image id="FlashAICB_3_Layer_1__Path__27" x="0" y="0" width="1" height="1" xlink:href="./images/FlashAICB_3_Layer_1__Path__27.png"/>

<image id="FlashAICB_3_Layer_1__Path__26" x="0" y="0" width="2" height="1" xlink:href="./images/FlashAICB_3_Layer_1__Path__26.png"/>

<image id="FlashAICB_3_Layer_1__Path__25" x="0" y="0" width="2" height="1" xlink:href="./images/FlashAICB_3_Layer_1__Path__25.png"/>

<image id="FlashAICB_3_Layer_1__Path__24" x="0" y="0" width="1" height="1" xlink:href="./images/FlashAICB_3_Layer_1__Path__24.png"/>

<image id="FlashAICB_3_Layer_1__Path__23" x="0" y="0" width="1" height="1" xlink:href="./images/FlashAICB_3_Layer_1__Path__23.png"/>

<image id="FlashAICB_3_Layer_1__Path__22" x="0" y="0" width="1" height="1" xlink:href="./images/FlashAICB_3_Layer_1__Path__22.png"/>

<image id="FlashAICB_3_Layer_1__Path__21" x="0" y="0" width="2" height="1" xlink:href="./images/FlashAICB_3_Layer_1__Path__21.png"/>

<image id="FlashAICB_3_Layer_1__Path__20" x="0" y="0" width="1" height="1" xlink:href="./images/FlashAICB_3_Layer_1__Path__20.png"/>

<image id="FlashAICB_3_Layer_1__Path__19" x="0" y="0" width="2" height="1" xlink:href="./images/FlashAICB_3_Layer_1__Path__19.png"/>

<image id="FlashAICB_3_Layer_1__Path__18" x="0" y="0" width="2" height="1" xlink:href="./images/FlashAICB_3_Layer_1__Path__18.png"/>

<image id="FlashAICB_3_Layer_1__Path__17" x="0" y="0" width="2" height="1" xlink:href="./images/FlashAICB_3_Layer_1__Path__17.png"/>

<image id="FlashAICB_3_Layer_1__Path__16" x="0" y="0" width="3" height="1" xlink:href="./images/FlashAICB_3_Layer_1__Path__16.png"/>

<image id="FlashAICB_3_Layer_1__Path__13" x="0" y="0" width="1" height="2" xlink:href="./images/FlashAICB_3_Layer_1__Path__13.png"/>

<image id="FlashAICB_3_Layer_1__Path__12" x="0" y="0" width="2" height="1" xlink:href="./images/FlashAICB_3_Layer_1__Path__12.png"/>

<image id="FlashAICB_3_Layer_1__Path__11" x="0" y="0" width="2" height="1" xlink:href="./images/FlashAICB_3_Layer_1__Path__11.png"/>

<image id="FlashAICB_3_Layer_1__Path__8" x="0" y="0" width="2" height="1" xlink:href="./images/FlashAICB_3_Layer_1__Path__8.png"/>

<image id="FlashAICB_3_Layer_1__Path__7" x="0" y="0" width="2" height="3" xlink:href="./images/FlashAICB_3_Layer_1__Path__7.png"/>

<g id="Layer0_0_FILL">
<path fill="#231F20" stroke="none" d="
M 1236.45 2737.3
Q 1213.65 2683.5 1172.15 2641.95 1130.6 2600.45 1076.8 2577.65 1021.05 2554.1 960 2554.1 898.95 2554.1 843.2 2577.65 789.4 2600.45 747.85 2641.95 706.35 2683.5 683.55 2737.3 660 2793.05 660 2854.1 660 2915.15 683.55 2970.9 706.35 3024.7 747.85 3066.25 789.4 3107.75 843.2 3130.55 898.95 3154.1 960 3154.1 1021.05 3154.1 1076.8 3130.55 1130.6 3107.75 1172.15 3066.25 1213.65 3024.7 1236.45 2970.9 1260 2915.15 1260 2854.1 1260 2793.05 1236.45 2737.3
M 1163.45 2650.65
Q 1203.3 2690.45 1225.15 2742.1 1247.75 2795.55 1247.75 2854.1 1247.75 2912.65 1225.15 2966.1 1203.3 3017.75 1163.45 3057.6 1123.65 3097.4 1072 3119.25 1018.55 3141.85 960 3141.85 901.45 3141.85 848 3119.25 796.35 3097.4 756.5 3057.6 716.7 3017.75 694.85 2966.1 672.25 2912.65 672.25 2854.1 672.25 2795.55 694.85 2742.1 716.7 2690.45 756.5 2650.65 796.35 2610.8 848 2588.95 901.45 2566.35 960 2566.35 1018.55 2566.35 1072 2588.95 1123.65 2610.8 1163.45 2650.65 Z"/>
</g>

<g id="Layer0_1_MEMBER_0_MEMBER_0_FILL">
<path fill="#1F1A17" stroke="none" d="
M 1284.05 -999.5
L 1270.55 -994.4
Q 1238.3 -981.75 1215.5 -968.45 1193.6 -955.65 1171.95 -937.25
L 1158.55 -925.25
Q 1151.9 -919.05 1142.75 -910.05 1132.85 -900.3 1130.45 -898 1125.5 -893.35 1119.55 -888.55 1112.25 -882.8 1107.25 -878.7
L 1103.25 -875.45
Q 1082.6 -858 1074.5 -847 1069.6 -840.35 1067.2 -832.8 1065.2 -824.75 1064.2 -821.3 1062.8 -816.25 1060.2 -811.4 1057.9 -807.05 1053.75 -801.4 1048.05 -793.85 1044.95 -789.35 1039.4 -781.3 1035.85 -773.8 1032.25 -766.1 1029.65 -756.9 1027.05 -747.8 1025.8 -738.65
L 1025.25 -733.5
Q 1024.85 -729.6 1024.75 -723.65 1024.7 -713.45 1026.7 -698.25
L 1027.75 -689.1 1027.8 -689.05 1027.95 -687.25 1027.95 -687.2 1028.1 -685.35 1028.1 -685 1028.15 -684.8 1028.25 -681.25
Q 1028.25 -678.05 1027.7 -674.85 1026.85 -670.3 1024.35 -665.35 1022.35 -661.4 1018.7 -656 1012.8 -647.3 1012.05 -646.05 1008.3 -640.05 1006.5 -635 1003.7 -626.85 1003.7 -614.45 1003.65 -611.9 1003.85 -605.85 1004.35 -594.55 1005.75 -585.3 1007.65 -572.6 1011.45 -560.85 1016.75 -544.3 1029.75 -518.35
L 1033.6 -510.6
Q 1038.8 -500.35 1047.75 -482.9 1044.9 -474.05 1041.8 -467.4
L 1040.35 -464.45
Q 1039.55 -462.85 1032.85 -450.1 1027.45 -439.9 1024.2 -432.65 1018.95 -420.1 1016.4 -414.05 1011.85 -403.2 1008.35 -397.4 1004.45 -390.9 998.75 -385.2 995.1 -381.55 987.9 -375.75 980.35 -369.65 976.7 -366.65 970.4 -361.5 966.45 -357.9
L 964.15 -355.8
Q 958.65 -350.7 956.15 -348.7 951.2 -344.75 945.3 -341.5 939.45 -338.25 927.15 -332.85 912.2 -326.25 908.8 -324.6 902.45 -321.5 895.85 -317.4 888.65 -312.8 884.35 -310.3 877.6 -306.4 869.8 -302.5 861.5 -298.4 855.1 -295.95
L 853.5 -295.35
Q 848.2 -293.4 843.2 -292.35 839.9 -291.65 834.75 -291.05 828.4 -290.25 826 -289.7 821.05 -288.7 817.35 -286.75 814.25 -285.05 808.9 -280.85 802 -275.4 799.1 -273.4 786.6 -264.95 773.2 -260.9 767.15 -259.05 759.75 -257.95 755.3 -257.3 746.5 -256.5 757.4 -253.25 762.85 -252.05 771.6 -250.2 777.7 -250.65 778.35 -250.7 780.8 -251.05
L 781.05 -251.1 781.15 -251.15 783.35 -251.65 783.45 -251.65 783.7 -251.7 783.75 -251.75
Q 785 -252.05 786.1 -252.5
L 788.5 -253.4 790.35 -254.25 790.4 -254.25 791.6 -254.85 791.65 -254.9 801.65 -260.4
Q 814.3 -267.5 824.8 -271.15 836.15 -275.05 843.75 -274.75 846.65 -274.65 850.6 -273.6 856.25 -272.15 857.85 -271.85
L 859 -271.7 859.05 -271.7 860.05 -271.5 868.55 -270.45 868.8 -270.4 868.95 -270.4 878.25 -268.75 879.2 -268.5
Q 879.876953125 -268.3099609375 880.4 -268.15 881.1162109375 -267.9314453125 881.6 -267.75
L 885.35 -266.2 885.5 -266.15 889.95 -263.1 891.9 -260.9
Q 893.45 -258.65 894.6 -254.45 896.35 -247.9 896.7 -246.85 899.45 -239.4 905.9 -231.35 907.7 -229.15 911.05 -225.45 913.75 -222.3 915 -219.9 917.3 -215.45 917.3 -210.15 917.3 -208.7 917.05 -207.05 916.1 -200.95 911.35 -198.85 908.8 -197.75 905.5 -197.85 902.05 -197.95 898.45 -199.4 894.65 -200.85 891.2 -203.65 887.55 -206.65 885.05 -210.45 882.8 -213.95 881.1 -219.15 880.05 -222.25 878.4 -228.8 877.4 -219.1 877.35 -214.4 877.35 -209.85 877.9 -206.35 878.55 -202.4 880.25 -197.95 881.2 -195.35 883.2 -191.05
L 883.95 -189.4
Q 885.75 -185.4 885.75 -183.7 885.75 -182.5 884.95 -181.85 883.8 -180.85 881.3 -180.85 878.55 -180.9 874.8 -182.15 870.85 -183.45 866 -186.05 861 -188.7 856.25 -192 849.3 -196.75 837.95 -206.65
L 839.5 -202.65 840.55 -200.25 840.55 -200.15 842.5 -196 842.55 -195.95 845.05 -191.45 845.15 -191.35 845.35 -191 846.6 -189.15 848.45 -186.75
Q 856.2 -177.3 869.55 -170.05 873.25 -168 879.35 -165.3 886.4 -162.1 888.3 -161.15
L 890.25 -160.1
Q 891.6 -159.35 891.9 -159.15
L 894.7 -157.25
Q 894.85 -157.2 895.05 -157 895.65 -156.6 896.25 -156
L 898.5 -153.9 899.7 -152.45
Q 899.85 -152.35 900 -152.1
L 901.45 -150 901.8 -149.35 901.9 -149.2 902.35 -148.4 903.25 -146.35
Q 905.3 -141.1 905.3 -133.25 905.3 -131.6 905.1 -127.4 904.9 -123.8 903.95 -113.85 903.05 -104.1 902.75 -98.65
L 902.65 -96.65
Q 902.45 -93.05 902.45 -88.65 902.45 -82.8 902.9 -76.9 903.45 -70.55 904.5 -64.95 906.85 -53.85 908 -48.2 910.05 -38.05 910.3 -31.4
L 910.35 -29.35
Q 910.4 -15.55 904.5 -2.05 899.9 8.2 891.4 17.15 882.9 26.05 874.6 29.45 865.6 33.15 854.6 31.8 848.8 31.15 844.6 29.15 839.4 26.75 835.75 22.1 832.1 17.35 829.7 10.4 827.25 3.35 827 -3.45
L 827 -5.25
Q 827.05 -11.7 829.5 -18.8 831 -23.2 834.85 -31.3 829.15 -28 825.45 -26.3
L 824.05 -25.6
Q 820.75 -24.05 818.7 -22.4 815.6 -19.9 813.2 -16 810.05 -10.9 808.05 -3.9 805.8 3.95 805.7 12
L 806 18.65 806.1 19.4 806.1 19.45 806.25 20.8 806.25 20.85 806.4 21.6 806.4 21.65 806.65 23 806.65 23.05 806.8 23.8 806.8 23.85 809.35 32.5 809.45 32.7 809.5 32.75 810.45 35 810.5 35.05 811.25 36.65 811.3 36.65 812.4 38.7 816.6 44.6 820.35 48.4
Q 827.35 54.7 838.75 59.25 848.4 63.05 860.35 65.25 881.85 69.25 899.35 65.45
L 903.9 64.35 911 62.05 911.05 62.05 912.15 61.65 912.35 61.55 926.45 55.5 926.5 55.45 932.5 52.45
Q 937.15 50.05 944.75 46 950.6 43 953.85 42.15 957.5 41.25 960.45 42.1 962.95 42.85 966.05 45.25 971.45 49.6 979.55 59.3 988.85 70.6 996.4 81.75
L 1002.65 91.95 1004.55 95.95
Q 1005.35 97.8 1005.8 99.6 1006.3 101.45 1006.35 102.85 1006.55 107.1 1003.55 110.65 1002 112.55 998.45 115.5 992.85 120.1 992.1 120.8 985.55 126.85 981.3 133.05
L 980.45 134.35
Q 978.25 137.95 978.3 141.1
L 978.4 142.25
Q 978.55 143.45 979.35 146.65 980.05 149.45 980.1 150.8
L 980.05 151.8
Q 979.5 155.15 973.1 155.6 966 156.15 955.95 153.1
L 954.3 152.6
Q 947.75 150.55 941.2 147.55 933.6 144.1 927.95 140.25 925.65 138.65 924.65 137.85
L 923.1 136.6
Q 912.85 127.9 909.9 116.5 908.8 112.3 908.8 107.65
L 909.55 99.35 909.6 99.25 910.1 95.9
Q 911.85 85.45 914.6 70.8 904.95 78 899.65 83 888.4 93.65 884.55 103.6
L 883.95 105.2
Q 881.65 112.15 881.65 121.05 881.65 126.6 882.5 133.15 885 152.75 892.95 166.8
L 894.25 169
Q 904.5 185.9 925.55 201.1 933.95 207.2 945.1 213.6 951.85 217.4 965.55 224.6 950.6 224.4 943.45 224.05 931.45 223.45 923 221.95 904.6 218.6 891.2 209.3 885.4 205.3 879.25 199.2 875.55 195.5 868.6 187.7 870.85 197.1 872.25 201.75 874.55 209.4 877.4 215.05 879.85 219.95 884.75 227.1 890.5 235.4 891.6 237.3 893.9 241.25 895.3 245.7 895.45 246.05 897.35 253.3 899.65 262.4 903.55 269.45 908.9 278.75 915.95 283.55 919.7 286.1 924.7 287.35 929.8 288.6 938.95 289.2 950.45 289.95 983.1 290.45 990.95 290.55 1008.15 290.95
L 1010.95 291.05
Q 1006.8 296.45 1004.9 299.5 1001.6 304.65 999.25 310.45 997.5 314.9 994.25 325.65 990.7 337.45 988.55 343.35 985.6 351.4 981 361.5 978.2 367.55 972.25 379.65 979.25 379.45 983 379.05 989.25 378.4 995.3 376.7 1006.35 373.55 1027 363.85 1037.4 359 1043.6 355.35 1052.25 350.3 1057.45 345.1 1059.3 343.15 1060.15 342.1 1064.1 337.35 1067.5 330.6 1069.45 326.6 1072.9 318.15 1077.8 330.1 1081.7 339.9
L 1084.05 345.7
Q 1088.75 357.6 1091.35 364.95 1095.4 376.5 1097.1 384.55 1098.85 392.7 1098.85 400.8 1098.85 405.7 1098.05 414.7 1100.25 428.5 1102.75 435.9 1106.95 448.2 1116 459.85 1126.35 473.25 1143.8 487.85 1161.75 502.9 1182.05 514.8 1200.45 525.55 1224.55 535.6 1239.95 541.95 1265.85 551.15 1288.4 559.2 1301.9 563.45 1319.7 569.05 1333.5 572
L 1339.9 573.3 1340.05 573.3 1356.65 575.75 1356.9 575.75
Q 1373 577.4 1382.55 575.7 1393.4 573.85 1393.7 567.8 1393.85 565.2 1391.95 561.8 1389.35 557.3 1381.85 549.85 1372.75 541.25 1368.65 537.25 1356.8 525.65 1352.9 518.5 1351.8 516.4 1351.75 515.05 1351.7 513.5 1352.9 512.55 1354.15 511.6 1357 511.1 1360.75 510.45 1368.7 510.25 1373.7 510.1 1386.65 510.1 1418.1 510.1 1432.8 509.3
L 1435.55 509.1 1436 509.1 1453.05 507.8
Q 1453.6 507.8 1453.9 507.75
L 1460.3 507.4
Q 1460.55 507.35 1461.15 507.35
L 1472.45 507.25
Q 1481.6 507.55 1490.05 509.05 1499.3 510.75 1506.75 513.75
L 1510.9 515.65
Q 1517.8 519.1 1525.55 525.75 1530.05 529.55 1538.9 537.7 1553.8 550.65 1568.9 557.9 1576.8 561.7 1583.4 563.2 1590.3 564.75 1594.05 563.45 1598.5 561.85 1598.75 555.55 1598.8 552.4 1597.75 547.5 1597.45 546.25 1594.25 535.4 1591.95 527.6 1591.5 522.75
L 1591.4 521.15
Q 1591.1 515.05 1593.15 509.5 1594.95 504.5 1597.9 501.5 1600.75 498.7 1603.85 498.9 1607.05 499.1 1610.8 502.55 1614.65 506.1 1618.9 512.6 1623.15 519.15 1626.35 526.45 1628.05 530.3 1632 541.45 1635.45 551.15 1638.4 557.1 1642 564.3 1648.4 573.6 1652.7 579.8 1662.1 592.25 1672 605.35 1678.55 613.45 1688.2 625.45 1695.6 633.1
L 1698.65 636.15
Q 1701 638.35 1701.5 638.8 1708.7 645.3 1718.35 650.8 1728.8 656.7 1747.3 664.4
L 1783 678.25
Q 1834.1 696.85 1868.1 703 1894.3 707.8 1916.3 705.65 1933.3 704 1953.3 697.3 1990.3 684.8 2016.25 666 2029.9 656.1 2039.15 645.3 2048.85 633.95 2052.6 622.9 2055.55 614.2 2055.4 603.4 2055.35 598.6 2054.7 591.85 2053.7 582.3 2053.65 581.6 2052.4 565.2 2058.55 560.55 2061.35 558.5 2066.4 558.45 2069.75 558.45 2077.35 559.55 2086.9 560.95 2091.25 561.35 2100.5 562.25 2110.25 561.9 2120.3 561.6 2135.95 559.9 2145.85 558.8 2165.5 556.2 2145.45 549.45 2135.35 545.75 2128.8 543.45 2125.2 541.65 2120.2 539.25 2115.65 535.75
L 2111.2 532
Q 2105.25 526.6 2099.15 519.35 2092.7 511.65 2088 504.05 2078.75 489.15 2074.2 470.6 2070.95 457.65 2069.65 442.05
L 2069.4 438.3
Q 2069.05 433.15 2068.9 424.7 2068.75 416.8 2068.5 413.9 2068.1 409.6 2067.2 406.1 2066.4 403.2 2065 399.95 2063.15 396.05 2062.25 394.15 2060.8 390.75 2060.4 388.45 2060.2 387.5 2060.2 386.4 2060.3 382 2064.4 378.85
L 2068.25 376.55
Q 2071.55 374.9 2080.55 370.95
L 2083.5 369.55 2095.55 362.45 2095.6 362.4 2098.4 360.45 2103.25 356.55 2103.3 356.5 2108.15 351.85 2110.6 349
Q 2117.8 339.8 2117.7 328.25
L 2117.7 328.2
Q 2117.7 326.7 2117.55 325.1 2117.05 319 2114.8 312.5 2112.65 306.4 2109.45 301.2 2106.45 296.3 2102.55 292.55 2098.8 289 2093.4 285.7 2089.9 283.55 2082.1 279.55 2075.05 275.9 2072.95 274.45 2070.3 272.6 2070.2 271.35 2070.05 270 2072.85 269.15
L 2073.6 269
Q 2079.15 267.75 2091.95 268 2098.6 268.1 2102.85 268.6 2108.8 269.35 2113.45 271.15
L 2116 272.25
Q 2122.6 275.4 2132.6 283.65 2135.2 285.8 2140.1 289.95 2144.2 293.3 2146.95 295.15
L 2148.75 296.25
Q 2155.3 300.15 2160.5 298.85 2162.45 298.3 2164.8 296.75 2166.15 295.9 2168.75 294 2173.85 290.8 2176.45 292.2
L 2176.85 292.45 2177.45 292.95 2177.55 293.05 2178.2 293.9 2178.8 294.95 2179.65 297.35 2180.4 301.1 2180.4 301.3 2180.6 302.8 2180.6 303.05
Q 2180.9 305.4 2180.9 308.2 2180.9 316.5 2178.6 323.35 2178.05 324.95 2177.35 326.45 2174.9 331.85 2169.85 337.75 2166.4 341.8 2160.8 347.05 2155.1 352.35 2146.5 359.35 2148.95 359.75 2150.45 359.85 2152.95 360 2156.1 359.75 2166.15 358.9 2178.05 353.05 2187.25 348.6 2195.25 342.55 2205.4 334.9 2212.5 325.5 2214.3 323.25 2216.3 320.15
L 2217.85 317.65
Q 2223.25 308.7 2227.5 297.75 2231.35 287.85 2233.7 277.75 2235.95 267.9 2236.85 257.15 2236.95 256.35 2237.7 241.7 2238 234.9 2238.75 231.75 2239.55 228.15 2241.15 227.75 2242.8 227.4 2245.25 229.85 2247.6 232.2 2249.65 235.95 2251.35 239.2 2252.8 243.8 2253.7 246.75 2255.05 252.3 2255.95 243.5 2256.45 239.5 2257.45 232.15 2258.85 225.55
L 2261.4 214.6 2261.4 214.55 2261.8 212.9 2261.8 212.85 2262.2 211.1 2262.2 211 2262.3 210.65 2262.3 210.5 2262.6 209.2 2262.65 209.05 2262.7 208.7 2262.75 208.55 2263 207.3 2263 207.25 2263.1 206.7 2263.1 206.6 2263.35 205.45 2263.35 205.35 2263.45 204.85 2263.45 204.65 2263.65 203.55 2263.65 203.45 2263.75 202.95 2263.75 202.7 2263.9 201.65 2263.95 201.55 2264.15 199.8 2264.15 199.75 2264.2 199 2264.25 198.8 2264.3 197.9 2264.4 196.8 2264.45 194.35
Q 2264.45 188.5 2262.5 180.75 2259.4 168.15 2259.35 167.9 2258.25 161.8 2258.15 154.6 2258.15 150.1 2258.65 145.1
L 2259.05 142.15
Q 2259.6 138.3 2261.1 132.15 2262.4 126.75 2262.55 124.75
L 2262.55 123.25
Q 2262.55 121.7 2261.95 118.65 2261.35 115.55 2261.3 113.35 2261.1 104.05 2266.7 92.75
L 2268.45 89.4
Q 2270.65 85.45 2276.3 76.15 2281.7 66.95 2285.45 58.9 2290.45 48.1 2294.95 34.75 2299.5 21.15 2302.7 7.4
L 2303.55 3.7
Q 2309.7 -24.4 2309.55 -51.7
L 2309.45 -57.9
Q 2309.1 -67.4 2307.75 -79.75 2307.05 -85.9 2304.35 -106.35 2297.3 -160.85 2296.05 -183
L 2295.7 -194.55
Q 2295.75 -202.55 2296.7 -208.4 2297.35 -212.45 2298.8 -217.1
L 2299.5 -219.1
Q 2299.7 -219.8 2300.1 -220.7
L 2300.9 -222.6 2300.95 -222.65 2301.9 -224.5 2301.95 -224.55
Q 2302.8 -225.95 2303.8 -226.95
L 2303.85 -227 2303.85 -227.05 2304.5 -227.6 2304.7 -227.8 2305.5 -228.4 2306.1 -228.75 2308 -229.65 2309.35 -230.05
Q 2314.3 -231.15 2321.4 -229.25 2329.1 -227.15 2337.6 -221.95 2345.8 -216.85 2355.85 -208.05 2364.35 -200.6 2373.05 -191.45 2380 -184.25 2386.9 -176.05 2390.85 -171.4 2398.6 -161.75 2387.7 -181.65 2381.8 -191.35 2372.15 -207.25 2363.25 -217.85
L 2360.7 -220.75
Q 2353.2 -229.25 2341.85 -239.5 2328.85 -251.15 2327.85 -252.2 2323.8 -256.35 2323.9 -258.45 2323.95 -260.7 2328.8 -260.3
L 2330.4 -260.05
Q 2331.204296875 -259.90390625 2332.05 -259.7 2333.1171875 -259.445703125 2334.25 -259.1
L 2338.6 -257.55 2338.65 -257.5 2338.95 -257.4 2345.3 -254.3 2345.65 -254.05 2348.1 -252.6
Q 2352.6 -249.7 2357.7 -245.25 2360.9 -242.45 2366.7 -236.8 2366.5 -239.05 2366.1 -240.5 2365.4 -242.9 2363.55 -246.05 2361.4 -249.75 2357.75 -254.5 2353.85 -259.6 2349.65 -264.1 2340.05 -274.2 2329.4 -278.95 2324.2 -281.25 2316.25 -283.4 2315.55 -283.6 2302.1 -286.95 2286.95 -290.7 2279.5 -293.95
L 2277.55 -294.9
Q 2274.3 -296.6 2272.9 -298.65 2271.55 -300.6 2270.9 -304.35 2270.4 -307.15 2269.9 -312.65 2269.65 -315.75 2269.05 -322.45
L 2268.75 -325.3
Q 2268 -332.15 2265.5 -346.3 2263.15 -328.4 2261.2 -321.9 2259.8 -317.45 2257.85 -315.3 2255.95 -313.2 2253 -312.9 2247 -312.25 2237.5 -318.3 2226.05 -325.5 2217.1 -336.9 2208.4 -348 2199.95 -365.5 2192.25 -381.5 2191.75 -388.35
L 2191.75 -389.25
Q 2191.8 -392.15 2193.5 -393.25 2195.15 -394.35 2198.55 -393.85
L 2199.55 -393.7
Q 2204.2 -392.8 2209.25 -390.15 2215.25 -387 2220 -382.2 2228.5 -373.55 2236.05 -356.25 2238.5 -350.6 2240.4 -344.7 2241.55 -341.2 2243.4 -334.65 2246.15 -342.35 2247 -346.85
L 2247.2 -348.3 2247.25 -348.45 2247.45 -352.75
Q 2247.35 -355.85 2246.55 -358.3 2246 -360.2 2244.65 -362.8 2243.9 -364.25 2242.55 -366.9
L 2242.05 -367.95
Q 2241.3 -369.8 2241.1 -371.9 2240.95 -372.95 2240.85 -376.05 2240.65 -382.7 2239.6 -386.9 2238 -393.8 2233.2 -398.3 2227.8 -403.3 2218.05 -407.3 2213.2 -409.2 2211.4 -409.95 2208.4 -411.25 2207.7 -412.45 2207.4 -412.95 2207.4 -413.65 2207.35 -414.85 2208.15 -416.7 2208.4 -417.25 2209.85 -419.95 2211.35 -422.65 2212.95 -423.9 2215.9 -426.1 2222.95 -428.25 2231.5 -430.8 2244.65 -433.15 2258.95 -435.75 2271.7 -436.75 2283.6 -437.7 2297.1 -437.35 2304.85 -437.15 2320.7 -436.15
L 2317.2 -437.35
Q 2302.3 -442.6 2293 -445.15 2281.1 -448.45 2270.9 -449.75
L 2267.95 -450.1
Q 2263.05 -450.6 2256.8 -450.8 2250.05 -451 2247.05 -451.1 2238.25 -451.4 2233.4 -452.35 2231.4 -452.75 2230.7 -453.55 2229.7 -454.65 2229.65 -457.45
L 2230.25 -464.6
Q 2230.9 -469.3 2233.15 -483 2235.1 -496.6 2235.55 -507 2235.7 -510.35 2235.7 -513.75 2235.65 -534.45 2231 -557.95
L 2228.9 -567.8
Q 2223.5 -590.75 2216.6 -607.1 2215.95 -608.65 2209.75 -621.6 2206.25 -628.9 2205.15 -634.25 2204.85 -635.65 2203.45 -649.5 2202.4 -659.95 2199.55 -667.45 2193.35 -684 2171.35 -708.2 2156.2 -724.8 2133.8 -745.4 2124.95 -753.5 2122 -757.05 2117.1 -763 2112.45 -772.9 2109 -780.15 2100.35 -800.7 2091.7 -820.3 2084 -832.25 2075.3 -845.85 2062.75 -857.95 2052.6 -867.7 2037.9 -878.3 2016.45 -893.7 1983.7 -912.15 1967.1 -921.5 1955.3 -927 1938.55 -934.85 1919.1 -941.15 1901.3 -946.95 1870.7 -954.85 1836.65 -963.45 1822.25 -967.2 1800.65 -972.85 1786.1 -977.5 1771.45 -982.2 1759.25 -987.4 1741.05 -995.25 1716.65 -1009.55
L 1712.3 -1012.1
Q 1703.3 -1017.45 1698.4 -1019.95 1691.15 -1023.65 1684.75 -1025.65 1670.05 -1030.25 1648.85 -1029.75 1636.25 -1029.1 1630.1 -1028.85 1619.2 -1028.35 1612.45 -1029.15 1606.85 -1029.85 1599.15 -1032 1589.9 -1034.7 1584.45 -1036.2 1579.1 -1037.6 1576.45 -1038.15 1565.2 -1040.65 1550.15 -1042.5 1535.55 -1044.25 1520.1 -1045.05 1504.6 -1045.8 1490.95 -1045.45 1476.75 -1045.1 1466.95 -1043.6 1459.25 -1042.4 1450.7 -1039.7 1440.05 -1036.3 1437.4 -1035.7 1431.9 -1034.45 1421.7 -1033.3 1404.7 -1031.4 1402.55 -1031.1 1380 -1028.1 1352.3 -1020.95 1317.75 -1011.9 1284.05 -999.5
M 1177.8 -599
Q 1181.95 -607.8 1188.95 -615.55 1196.1 -623.4 1208.25 -632.5 1213.4 -636.3 1218.25 -639.6 1230.25 -647.8 1243.7 -655.5 1258.05 -663.7 1271.35 -669.75 1284.55 -675.7 1298.55 -680.25 1311.2 -684.4 1326.9 -688.1 1331.2 -689.15 1341.1 -691.25
L 1346.05 -692.3
Q 1390.6 -701.45 1430.85 -705.1 1478.75 -709.5 1538.3 -706.95 1567.9 -705.65 1601.95 -702.85 1634.1 -700.15 1661.4 -696.8 1687.7 -693.6 1707.2 -689.8 1726.5 -686.05 1747.3 -680.2 1780.55 -670.85 1822.35 -655.5
L 1832.05 -651.9
Q 1851.7 -644.5 1864.5 -638.75 1878.5 -632.55 1887.3 -627 1896.1 -621.4 1901.95 -614.95 1907.3 -609 1912.65 -599.5 1917.25 -591.3 1922.15 -580.6 1927.25 -569.4 1932.9 -555.5 1937 -545.3 1940.6 -535.5 1943.05 -529 1947.5 -516.25 1950.85 -506.75 1952.2 -501.5 1953.7 -495.6 1953.85 -491.45 1953.9 -490.15 1953.75 -488.65 1952.85 -479.9 1944.95 -473.35 1941.5 -470.5 1938.7 -470.45 1936.9 -470.45 1934.55 -471.5 1931.85 -472.75 1927.85 -475.8 1924.2 -478.55 1917.35 -484.45 1905.45 -494.7 1894.35 -504.85 1886.3 -512.2 1885.05 -513.3 1880.4 -517.2 1877.3 -519.1 1874.55 -520.75 1869.5 -522.65 1863.75 -524.85 1861.85 -525.85 1858.15 -527.7 1853.15 -531.1 1850.15 -533.15 1844.15 -537.55
L 1840.75 -540
Q 1831.9 -546.4 1826.95 -547.9 1823.3 -549.05 1819.55 -548.6 1816.4 -548.2 1812.25 -546.55 1810 -545.7 1804.4 -543.2 1799.15 -540.85 1796.2 -539.8 1793 -538.7 1788.05 -537.4 1782.05 -535.9 1780.65 -535.5 1776.4 -534.1 1774.25 -533.4 1770.5 -532.2 1767.05 -531.7 1763.5 -531.2 1757.55 -530.95 1751 -530.8 1748.3 -530.7 1741.55 -530.45 1737 -529.15 1730.35 -526.8 1725.35 -525.85 1722.15 -525.25 1716.45 -524.75 1708.85 -524.1 1703.95 -523.7 1688.7 -522.45 1667.75 -520.25 1642.5 -517.5 1629.6 -514.6 1612.75 -510.8 1604.05 -504.6
L 1602.85 -503.7
Q 1598.3 -500.2 1595.55 -495.4 1592.95 -490.85 1591.7 -484.55 1591 -481 1590 -471.15 1589.05 -462.1 1587.9 -457.35 1586.55 -451.95 1583.5 -445.3 1579.95 -438.1 1578.4 -434.8 1576.15 -429.9 1575.3 -426.3 1574.25 -421.85 1574.95 -418 1575.1 -416.95 1575.5 -415.65 1576.4 -412.8 1579.85 -407.05 1583.55 -400.75 1584.9 -397.35 1585.45 -396.05 1585.95 -394.3 1587.5 -389.2 1587.4 -382.45 1587.25 -375.15 1585.25 -366.5 1582.8 -357.65 1581.7 -353.4 1579.8 -345.85 1579.75 -340.25 1579.65 -333.85 1581.5 -326.6 1583.2 -320.1 1585.45 -316.5 1587.2 -313.7 1589 -313.85 1591 -314.05 1593.95 -318.5 1594.5 -319.35 1599.45 -327.95 1603.25 -334.6 1606 -338.1
L 1606.9 -339.2
Q 1609.35 -342.05 1614 -346.1 1619.55 -350.9 1621.85 -353.3 1626.55 -358.15 1630.35 -363.6 1634.55 -369.75 1635.85 -374.3 1636.55 -376.7 1636.45 -378.75 1636.35 -383.7 1632.05 -388.35 1629.05 -391.4 1627.85 -392.75 1625.8 -395.05 1625.75 -397.05 1625.7 -399.25 1627.55 -402.25 1629.1 -404.75 1631.65 -407.3 1636.55 -412.2 1640.45 -412.05 1642.05 -412 1645.1 -410.85 1648.75 -409.45 1650.6 -409.1 1653.55 -408.5 1657.3 -408.7 1660.85 -408.9 1664.5 -409.8 1671.6 -411.45 1677.4 -415.4 1683 -419.3 1686.95 -424.45
L 1687.75 -425.5
Q 1689.65 -428.15 1691.25 -431.85
L 1691.3 -431.8
Q 1693.5 -424.65 1695.2 -420.2
L 1695.65 -419.1
Q 1698.25 -412.65 1701.4 -408.95
L 1702.55 -407.7
Q 1707.2 -403.1 1715.35 -400.4
L 1716.15 -400.15
Q 1723.25 -398 1731.75 -397.25 1734.85 -396.95 1737.8 -396.95 1743.05 -396.95 1746.95 -398 1750 -398.85 1753.15 -400.65 1755.35 -401.95 1758.7 -404.35 1765.4 -409.45 1768.1 -413.8 1769.65 -416.35 1770.9 -420.05 1771.65 -422.25 1772.85 -426.9 1776.45 -424.15 1778.7 -421.05 1780.4 -418.75 1781.95 -415.75 1783.65 -412.55 1784.55 -409.8 1785.25 -407.5 1785.4 -405.8 1785.65 -402.55 1784.2 -399.85 1782.15 -395.6 1777 -392.3
L 1775.5 -391.4
Q 1769.5 -388.05 1760.75 -386.7 1756.75 -386.15 1752.1 -386.05 1747.25 -385.95 1742.85 -386.45
L 1737.2 -387.2
Q 1725.7 -389 1724.9 -389.1 1721.25 -389.45 1718.8 -389.2 1716.5 -388.9 1715.9 -388.15 1715.45 -387.5 1716.55 -386.2
L 1717.05 -385.7 1717.15 -385.65
Q 1718.15 -384.75 1719.15 -384.05
L 1719.6 -383.75
Q 1724.15 -380.65 1730.95 -378.1 1734.4 -376.85 1738 -375.8 1745.6 -373.65 1751.5 -373.2 1761.5 -372.3 1771.85 -375.65 1774.95 -376.65 1781.05 -379.2 1786.75 -381.6 1789.55 -382.4 1793.8 -383.7 1797.4 -383.65 1801.3 -383.6 1805.05 -382 1808.45 -380.55 1813.05 -377.15 1814.35 -376.2 1821.15 -370.8 1826 -366.95 1829.35 -365.15 1834.1 -362.5 1839.45 -361.6 1843.4 -360.9 1850.9 -360.9 1854.95 -360.9 1862.8 -361.05
L 1865.9 -361
Q 1871.65 -360.8 1876.35 -359.5 1880.5 -358.4 1885.45 -355.95 1886.95 -355.2 1895.5 -350.55 1902.2 -346.9 1906.9 -344.9 1912.85 -342.3 1918.95 -340.6 1924.85 -338.95 1927.8 -338.95 1930.35 -338.95 1930.1 -340.6 1929.95 -341.75 1927.9 -344.9
L 1924.25 -350.45
Q 1921.8 -354.3 1920.8 -356.15 1918.2 -361.2 1919.8 -362.3 1920.3 -362.65 1920.9 -362.7 1923.3 -362.85 1927.55 -360.25
L 1929.1 -359.25 1929.15 -359.2
Q 1936.35 -354.3 1939.55 -348.15 1941.2 -344.95 1941.95 -340.15 1942.6 -334.6 1943 -331.95 1944 -326.7 1944.35 -324 1944.95 -319.3 1944.15 -315.25
L 1943.5 -312.75
Q 1942.5 -309.25 1939.85 -303.3 1936.2 -295 1935.65 -293.6 1934.85 -291.55 1931.95 -283.2 1929.8 -276.8 1927.65 -272.4 1922.7 -262.15 1912.15 -247.45 1907.15 -240.55 1903 -235.75 1897.95 -229.85 1892.6 -225.2 1890.25 -223.15 1880.25 -215.45 1872.25 -209.3 1867.85 -204.8 1854.2 -190.9 1854.35 -175.6 1854.4 -167.7 1858.55 -155.4 1859.85 -151.65 1861.85 -146.3 1864.2 -140.3 1865.3 -137.45 1869.65 -125.4 1871.6 -120.05 1875 -110.7 1877.75 -105.35 1879.35 -102.25 1881.8 -98.3 1883.2 -96.05 1885.8 -91.9 1889.3 -86.1 1890.45 -82.8 1891.85 -78.6 1891.8 -74.95 1891.8 -70.95 1890.3 -67.45 1889.75 -66.15 1889.1 -65.1 1888.35 -63.85 1887.6 -62.9 1884.15 -58.5 1878.55 -55.7 1872.75 -52.85 1866.85 -52.85 1862.1 -52.85 1856.45 -54.85 1852.65 -56.25 1847.1 -59.1
L 1844.75 -60.3
Q 1839.35 -63.15 1836.75 -64 1832.9 -65.25 1829.2 -64.65 1825.05 -63.9 1820.6 -61.2 1815.95 -58.4 1813.05 -54.6
L 1812.35 -53.6
Q 1810.65 -51.1 1808.35 -45.8 1806.3 -41 1804.95 -39.4 1801.95 -35.8 1796.9 -36.9 1794.8 -37.4 1793 -38.5 1791.05 -39.6 1788.05 -42.25 1786.2 -43.95 1783.35 -46.95 1780.05 -50.45 1778.3 -52.25 1773.55 -57 1770.1 -59.8 1764.65 -64.2 1760 -66.25 1756 -68 1749.25 -69.35 1738.25 -71.55 1736.75 -71.9
L 1733.3 -72.85
Q 1728.15 -74.3 1719.6 -77.2 1709.3 -80.75 1703.45 -82.75 1691.25 -86.8 1685 -89 1674.15 -92.8 1667.3 -95.9
L 1662.85 -98.05
Q 1655.8 -101.7 1648.95 -107.2 1641.85 -113.2 1638.6 -115.8 1632.6 -120.6 1626.05 -123.95 1622.9 -125.5 1619.9 -126.65 1610 -130.45 1604.15 -128.6 1601.2 -127.7 1598.45 -125 1596.35 -122.95 1593.25 -118.7 1589.8 -113.95 1587.85 -110.35 1585 -105.15 1583.9 -100.1 1583.2 -96.7 1583.1 -92.8 1583 -83.95 1586.8 -77.45 1589.35 -73 1594.25 -69.5 1598.25 -66.65 1604.9 -63.7 1609.4 -61.7 1616.45 -59.05 1626.65 -55.15 1629 -54.15 1633.7 -52.2 1638.25 -49.75 1640.8 -48.4 1646 -45.35 1656.05 -39.4 1656.7 -37.85
L 1656.75 -37.6
Q 1656.8 -36.3 1648.7 -37.2
L 1647.5 -37.35
Q 1637.35 -38.55 1624.8 -41.05 1615.8 -42.9 1611.35 -43.8 1603.5 -45.35 1598.65 -45.85 1588.45 -46.95 1580.35 -44.95 1575.85 -43.8 1569.2 -40.55 1566.35 -39.1 1564.9 -38.5 1562.45 -37.45 1560.4 -37.1
L 1559.05 -36.95
Q 1554.5 -36.55 1546.7 -39.5 1540.55 -41.8 1538.6 -42.35 1533.55 -43.75 1529.3 -43.3 1524.75 -42.8 1519.1 -40.05 1514.6 -37.8 1508.45 -33.65 1504.65 -31.1 1497.7 -26.05 1490.15 -20.55 1486.8 -18.25 1476.6 -11.35 1461.75 -3.2 1448 4.25 1429.6 13.55 1420.85 18 1418.4 19.5 1414 22.15 1413.15 24.15 1413 24.5 1412.9 25.25 1412.85 27.15 1415.05 28.95 1417.2 30.65 1420.75 31.7 1422.85 32.3 1425.3 32.6 1432.65 33.4 1441.8 31.1 1446.65 29.9 1455.75 26.6 1467.55 22.35 1471.65 21.05 1490.5 15 1509.9 13.35
L 1515.4 12.95
Q 1522.85 12.55 1532.35 12.55 1539.2 12.5 1552.8 12.85 1561.7 13.05 1564.5 13.05 1573.1 13.15 1580.45 11.9 1583.2 11.45 1594.2 9 1603.2 7 1608.75 6.5 1618.95 5.5 1629.25 7.55 1632.2 8.15 1635.65 9.15 1638.65 10.05 1646.5 13.15 1652.95 15.75 1657.3 16.65 1661.85 17.6 1668.8 18 1672.85 18.2 1681.2 18.4
L 1683.6 18.5
Q 1685.25 18.55 1692 19 1696.95 19.25 1699.8 19.3 1702.95 19.4 1705.4 19.1 1706.75 19.05 1707.95 18.8 1711.9 18.1 1716.15 15.95 1718.45 14.75 1722.55 12.45 1729.45 9.15 1734.15 11.8 1737.9 14 1741.8 22.25
L 1744.9 29.45
Q 1748.85 39.4 1749.65 45.95
L 1749.7 46.3
Q 1749.85 47.45 1749.85 48.55 1749.9 53.2 1747.65 56.05 1745.6 58.6 1741.4 60
L 1739.35 60.6
Q 1730.7 62.55 1719.5 59.3 1714.2 57.8 1706.75 54.55 1702.7 52.8 1694.25 48.8
L 1691.1 47.3
Q 1684.15 44.1 1680.15 43.05 1674.9 41.65 1668.9 42.15 1663.8 42.6 1654.6 44.65 1643.25 47.4 1636.9 48.8
L 1629.05 50.45
Q 1620.95 52.1 1609.5 54 1605.4 54.7 1588.35 57.45 1557.9 62.35 1545.7 63.9 1542.15 64.35 1540.45 64.5 1531.4 65.55 1522.9 66 1517.4 66.25 1507.45 66.45 1503.35 66.55 1481.75 63 1462.5 59.8 1458.1 61.25 1454.6 62.4 1454.4 64.5 1454.3 65.9 1456.05 68.75 1458.45 72.55 1458.85 73.75 1460 77.05 1468 84.6 1475.4 91.5 1482.15 96.2
L 1483.7 97.25
Q 1498.85 106.95 1507.85 109.55 1512.6 110.9 1517.55 110.7 1520.1 110.6 1526.55 109.55
L 1528.95 109.15
Q 1540 107.5 1548.35 107.6 1553.1 107.65 1559.9 108.25 1560.5 108.3 1571.7 109.4
L 1574.95 109.65
Q 1586 110.55 1600.2 110.55 1611.2 110.55 1614.55 110.65 1622.95 110.95 1628.6 112 1634.25 113.05 1640.4 115.55 1642 116.2 1650.5 120.1 1655.9 122.6 1659.5 123.75 1664.4 125.25 1668.9 125.25
L 1670.2 125.25
Q 1674.6 125.05 1681.5 123.2 1685.35 122.2 1692.9 120.1 1697.2 119.1 1703.55 118.25 1712.1 117.05 1714.3 116.65 1716.3 116.3 1725.7 114.3 1732.35 112.85 1735.45 112.6
L 1737.3 112.55
Q 1740.25 112.6 1741.85 113.85 1743.4 115.05 1744.25 117.85 1745.15 121.05 1745.3 125.95 1745.4 131.05 1744.65 136.6 1742.85 149.8 1736.25 161.85 1732 169.7 1726.55 176.2 1720.2 183.85 1713.35 188.3 1708 191.75 1698.15 195.4 1688.2 199.05 1685.45 200.8 1681.55 203.3 1678.65 208.25 1675.65 214.15 1673.5 217.2 1670.75 221.1 1666.95 224.45 1662.9 227.95 1658.9 229.75
L 1657.8 230.2 1655.3 230.95
Q 1651.85 231.7 1646.05 230.7 1640.2 229.65 1637.8 230.15 1633.45 231 1623.6 236.6 1612.45 242.95 1608.45 244.4 1603.9 246 1594.8 250.75 1586.2 255.15 1581.1 256.75
L 1574.6 258.25
Q 1567.5 259.3 1555.5 259.4 1539.9 259.5 1536.15 259.7 1531.7 259.95 1527.25 259.85 1519.25 259.75 1501 257.9 1484.1 256.25 1474.55 256.4 1469.8 256.5 1465.5 256.9 1463.35 257.1 1460.75 257.1
L 1456.05 256.9 1452.85 256.45
Q 1439.1 254.3 1423.4 244.55 1413.05 238.05 1398.15 225.55 1392.1 220.6 1389.45 218.45 1384.95 214.75 1382.45 212 1375.95 204.85 1374.2 193.85 1373.5 187.95 1373.05 184.95 1372.35 179.55 1371.15 176.1 1369.7 171.85 1367.1 168.45 1364.5 165 1361.5 163.3
L 1360.8 162.9 1360.05 162.6
Q 1354.4 160.4 1349.25 165.1 1345.15 168.95 1339.35 180.3
L 1338 182.95
Q 1333.8 191.45 1332.75 193.5 1329.85 199 1327.8 201.75 1323.8 207.05 1319 206.85 1316.8 206.75 1314.75 205.55 1312.35 204.1 1309.3 200.6 1305.35 196.1 1302.4 190.95 1298.65 184.3 1297.75 178.55 1297.4 176.3 1297.45 174.1 1297.5 169.7 1298.95 164.05 1300.8 157.8 1301.6 155.05 1303.95 147.15 1304.4 139.5 1304.75 131.95 1302.85 128.4 1302.05 126.9 1299.75 124.5 1297.05 121.7 1295.8 120 1293.5 116.85 1292.3 113.3 1290.85 109.1 1291.3 105.15 1291.65 101.8 1293.9 96.65 1297.25 88.85 1297.5 88.2 1300.5 79.75 1297.3 73.25
L 1296.8 72.3
Q 1294.85 68.85 1290.25 64.8 1286.85 61.75 1279.35 56.2 1270.1 49.5 1266.25 46.5 1258 40.1 1251.35 33.7 1248.45 30.8 1247.85 30.15 1233.6 15.55 1220.4 -5
L 1217.25 -10.05
Q 1211.3 -19.95 1207.55 -29.05 1203.55 -38.8 1200 -52.6
L 1199.55 -54.3
Q 1198.5 -58.35 1197.3 -63.8 1195.35 -72.3 1191.15 -91.4 1187.25 -108.65 1184.2 -119.5
L 1181.4 -128.85
Q 1178 -139.5 1171.3 -156.35 1164.15 -174.2 1161.2 -183.05
L 1158.75 -190.9
Q 1154.45 -205.2 1151.4 -220.55 1148.2 -236.4 1146.8 -250.95 1145.65 -262.9 1145.75 -275.55 1145.8 -291.6 1148.25 -311.65
L 1148.75 -315.75
Q 1149.85 -324.2 1153.95 -350.8 1157.6 -374.6 1159.5 -390.6 1161.2 -404.85 1167.85 -453.8 1173.85 -499.75 1174.5 -517.35
L 1174.55 -518.65
Q 1174.55 -527.55 1169.55 -530.25 1166.15 -532.1 1158.55 -531.35 1149.5 -530.45 1147.55 -530.75 1142.55 -531.6 1142.6 -537.3
L 1142.65 -538.15
Q 1143.35 -549.75 1158.6 -571.45 1159.15 -572.25 1170.15 -587.3 1176.15 -595.5 1177.8 -599
M 1455.5 -936.65
Q 1456.2 -936.95 1457 -936.9 1459.25 -936.6 1461.4 -932.85
L 1461.95 -931.85
Q 1462.8 -930.15 1465.5 -923.15 1467.55 -917.65 1469.55 -912.7 1472.55 -905.1 1474.85 -902.55 1476.35 -900.9 1478.4 -900.25 1480.25 -899.7 1482.9 -899.9 1485.2 -900 1488.65 -900.65 1490.45 -901 1495.1 -902 1499.7 -903 1504 -903.75
L 1508.65 -904.35
Q 1514.55 -904.95 1517.25 -904.05 1519.3 -903.35 1519.4 -901.6
L 1519.25 -900.4
Q 1518.5 -897.15 1514.4 -894.2 1510.8 -891.5 1500.75 -886.55 1494.45 -883.4 1488.35 -880.5 1483.85 -878.4 1483.15 -877.75
L 1482.8 -877.4
Q 1481.7 -876.05 1482.75 -873.15 1483.8 -870.3 1487.35 -863.85 1493.5 -852.6 1494.85 -849.65 1497 -844.95 1497.6 -840.7
L 1497.9 -837.8
Q 1497.9 -836.5 1497.6 -835.85 1496.9 -834.35 1494.05 -835.4 1490.45 -836.85 1485.55 -840.45 1482.1 -843 1477.05 -847.85 1472.1 -852.5 1470.8 -853.4 1469.3 -854.45 1468.15 -854.65 1466.7 -854.9 1465 -854.15 1461.65 -852.5 1456.8 -847.4 1455.45 -845.95 1453.05 -843.2 1450.8 -840.6 1449.8 -839.55 1446.65 -836.25 1444.25 -835.9 1442.9 -835.65 1442 -836.35 1441.05 -837.1 1440.9 -838.8 1440.75 -841.25 1442.25 -846.2
L 1443.1 -849
Q 1443.75 -850.85 1445 -854.45 1446.05 -857.55 1446.55 -859.55
L 1446.8 -860.75
Q 1447.85 -865.45 1446.75 -867.55 1446.1 -868.75 1444.4 -869.55 1443.35 -870 1439.75 -871.05 1431.95 -873.4 1425.55 -875.65 1418.8 -878.05 1414.55 -880.25 1410 -882.55 1410.05 -884.1 1410.1 -885.65 1414.6 -887.3
L 1420 -889.05 1420.05 -889.1 1423.9 -890.15
Q 1431.35 -892.1 1435.45 -892.7 1439 -893.25 1444.4 -893.65
L 1445.05 -893.75
Q 1448.15 -894.3 1448.8 -896
L 1449 -896.55
Q 1449.25 -897.45 1449.3 -899.2 1449.35 -900.25 1449.35 -903 1449.45 -907.2 1450.1 -915.7
L 1450.25 -918
Q 1450.85 -925.25 1451.2 -928.15
L 1451.3 -928.7
Q 1451.55 -930.25 1451.8 -931.25 1452.4 -933.45 1453.4 -934.8 1454.45 -936.2 1455.5 -936.65
M 2240.35 119.9
Q 2241.75 120.7 2242.3 123.1 2242.65 124.75 2242.9 129.85
L 2244 154.85
Q 2244.45 164.6 2244.45 170 2244.45 178.15 2243.7 182.45 2243.05 186.15 2241.8 187.95 2240.7 189.55 2239.3 189.65 2238.35 189.65 2237.5 189 2234.4 186.85 2231.15 176.95 2230.25 174.25 2229.05 169.7 2227.8 165.05 2227.25 163.3 2225.25 156.75 2222.55 154.85 2221.05 153.85 2219 153.85 2217.2 153.85 2214.5 154.75 2211.4 155.95 2209.85 156.5 2207.05 157.55 2205.6 157.65 2205.1 157.7 2204.65 157.65 2202.85 157.4 2202.5 155.55 2202.1 153.65 2203.3 150.65 2205.75 144.75 2213.75 136 2222.1 126.9 2229.5 122.35 2235 119.1 2238.45 119.4 2239.55 119.5 2240.35 119.9 Z"/>
</g>

<g id="Layer0_1_MEMBER_0_MEMBER_97_FILL">
<path fill="#1F1A17" stroke="none" d="
M 1387.85 -497.3
Q 1384.95 -497.3 1382.55 -496.7 1379.95 -496.1 1376.25 -494.35 1372.2 -492.35 1370.3 -491.5
L 1368.7 -490.8
Q 1362.9 -488.5 1358.5 -489.65 1356.35 -490.15 1353.5 -492.15
L 1351.9 -493.3
Q 1350.25 -494.55 1349.15 -495.1 1347.45 -495.9 1345.45 -495.85
L 1344.1 -495.8
Q 1342.25 -495.55 1337.2 -494.05 1331.65 -492.35 1328.3 -491.7 1318.85 -489.95 1308.35 -491 1304.9 -491.35 1301.1 -492.2 1299.6 -492.5 1294 -493.9
L 1291.8 -494.5
Q 1279.55 -497.6 1271.3 -498.65 1262.5 -499.75 1252.2 -499.05 1246.1 -498.65 1242.05 -497.65 1236.35 -496.25 1232.1 -493.4 1231.3 -492.9 1229.8 -491.7 1226.7 -489.15 1222.2 -484 1216.35 -477.35 1214.95 -475.95 1212.5 -473.5 1206.75 -468.65 1201.7 -464.5 1199.4 -461.8
L 1198.65 -460.8
Q 1195.7 -457.15 1193.95 -452.85 1192.2 -448.55 1192.05 -444.5 1191.8 -437.7 1196.75 -430.65
L 1198.1 -428.85
Q 1204.65 -420.65 1212.85 -417.8 1217.15 -416.3 1222.05 -416.3 1226.65 -416.35 1230.95 -417.7 1234.95 -418.95 1238.35 -421.2 1241.45 -423.25 1243.25 -425.6 1244.7 -427.4 1245.35 -429.6 1245.7 -430.8 1246.1 -433 1247.05 -436.7 1250 -437.35 1250.8 -437.55 1251.9 -437.55 1253.35 -437.6 1257.15 -437.5 1258.95 -437.5 1260.55 -437.7 1263.5 -438 1268.8 -439.15 1271.8 -439.8 1277.9 -441.15 1286.05 -442.85 1293.65 -443.4 1300.85 -444 1300.8 -441.95
L 1300.75 -441.6
Q 1300.2 -439.2 1292.95 -432.75 1285.3 -425.95 1278.05 -420.95
L 1275.7 -419.4
Q 1272.15 -417.1 1266.15 -413.75 1257.95 -409.2 1255.2 -407.6 1240.15 -398.75 1226.9 -388.45 1217.95 -381.5 1212.7 -376.05 1205.9 -368.9 1204.05 -362.95 1203.35 -360.55 1203.25 -358.1
L 1203.3 -356.5
Q 1203.6 -352.05 1206 -347.6 1208.1 -343.7 1211.5 -340.35 1215.85 -336.1 1221 -334.1 1225.15 -332.5 1229.05 -332.6
L 1229.1 -332.6
Q 1232.95 -332.65 1237 -334.4 1240.15 -335.8 1244.3 -338.65 1250.05 -342.55 1251.8 -343.4 1256.4 -345.75 1261.15 -345.65 1265.35 -345.55 1273.45 -343.2 1284.05 -340.15 1286.75 -339.6
L 1288.35 -339.3
Q 1293.85 -338.4 1299.2 -338.7 1303.75 -339 1307.35 -340.1 1310.15 -340.95 1311.7 -342.15 1313.05 -343.2 1313.1 -344.3 1313.1 -344.65 1313 -344.85 1312.3 -346.75 1306.7 -347.45 1305.1 -347.65 1301.75 -347.85 1298.2 -348.05 1296.45 -348.25 1293.45 -348.6 1286.45 -350.1 1282.9 -350.9 1281.9 -351.35
L 1281.65 -351.45 1281.6 -351.5
Q 1281.2 -351.7 1280.85 -352.05 1280.45 -352.55 1280.5 -353.3
L 1280.55 -353.75 1280.6 -353.95
Q 1280.7 -354.4 1281.1 -355.3
L 1281.4 -355.8
Q 1281.85 -356.5 1282.85 -358 1283.75 -359.45 1284.4 -360.8 1285 -362.15 1285.85 -364.65 1286.3 -366 1287.15 -368.7 1288.5 -372.85 1290.4 -374.95 1292.15 -376.85 1297.3 -380.6 1303.1 -384.95 1303.25 -385.05 1304.45 -385.8 1305.15 -385.95 1305.9 -386.1 1306.55 -385.65 1307.15 -385.25 1308 -384 1308.55 -383.2 1309.85 -381.15 1312.7 -376.55 1316.45 -373.45 1322.2 -368.55 1328.7 -366.95 1331.05 -366.35 1333.9 -366.25 1337.55 -366.2 1343.3 -367.2 1353.95 -369.05 1359.05 -372.25 1361.9 -374 1364 -376.85 1365.55 -379.05 1367.4 -383.05 1370.95 -390.6 1373.25 -397.8 1374 -400.05 1375.1 -403.65 1375.95 -406.4 1376.7 -407.55 1377.55 -408.85 1379 -409.25 1380.25 -409.6 1382.65 -409.5
L 1382.8 -409.5
Q 1387.25 -409.3 1395.35 -407.65 1404.55 -405.8 1410 -403.8 1413.6 -402.55 1416.95 -400.65 1418.35 -399.85 1420.55 -398.4
L 1422.9 -396.7
Q 1428.5 -392.55 1430.75 -391.25 1433.55 -389.6 1436.05 -388.65 1438.65 -387.65 1439.7 -387.85 1440.35 -387.95 1440.45 -388.9 1440.45 -389.65 1440.05 -392
L 1439.95 -393
Q 1439.85 -395.15 1440.4 -397.15 1441.05 -399.35 1442.45 -400.75 1443.7 -402 1446.15 -402.95 1446.9 -403.25 1450.95 -404.5 1456.7 -406.4 1462.25 -409.45
L 1463.9 -410.4
Q 1471.05 -414.55 1475.25 -418.7 1479.95 -423.2 1481.15 -428.05
L 1481.4 -429.4
Q 1481.75 -431.8 1481.15 -435.1 1480.85 -436.7 1479.4 -442.75 1477.6 -450.45 1476.8 -453.45 1475 -460.2 1473.1 -464.6 1469.45 -472.95 1463.5 -479.15 1461.75 -481.05 1459.9 -482.55 1457.6 -484.35 1456 -485.6
L 1451.5 -489.3
Q 1446.95 -492.9 1443.9 -494.7 1438.65 -497.7 1434.1 -497.85 1432.2 -497.85 1430.75 -497.6 1428.15 -497.1 1423.8 -495.3 1418.4 -493.1 1416.95 -492.65 1411 -490.8 1405.55 -492.3 1403.8 -492.75 1400.85 -494 1397.45 -495.45 1395.75 -496
L 1392.15 -496.85
Q 1389.7 -497.3 1387.85 -497.3 Z"/>
</g>

<g id="Layer0_1_MEMBER_0_MEMBER_98_FILL">
<path fill="#1F1A17" stroke="none" d="
M 1353.95 -14.7
Q 1348.35 -9.7 1345.75 -7.3 1341.15 -3.1 1338.45 0.1
L 1334.55 5.4 1331.8 10.65 1331.8 10.75 1331.1 12.55 1331.05 12.65 1330.95 13 1330.9 13.05 1330.35 14.85 1330.35 14.9 1329.75 17.75
Q 1329.6 18.5 1329.5 20
L 1329.3 24.9 1329.35 25.25 1329.55 38.35
Q 1329.4 41.5 1328.4 47.6 1327.55 53.1 1327.55 55.1 1327.55 55.9 1327.7 56.65 1328.05 58.75 1330.05 60.2 1332.7 62.05 1333.3 63
L 1333.7 63.65 1334.25 65.15 1334.8 68 1335 71.25 1334.75 76.3 1334.7 76.5
Q 1334.65 77.85 1334.4 79.2
L 1334.1 82.05 1334.05 82.25 1333.95 83.5 1333.95 86.8 1334.05 88 1334.4 89.75 1335.05 91.5 1335.95 93.15 1336.6 94.1
Q 1338.15 96.15 1341.25 99
L 1346.5 103.7
Q 1348.3 105.45 1351.35 108.85 1353.95 111.55 1355.85 112.5
L 1356.45 112.8 1357.15 113
Q 1358.2 113.3 1359.3 113.25 1361.55 113.2 1364.1 111.95 1366.45 110.75 1368.4 108.8
L 1369.45 107.65
Q 1371.25 105.6 1372.4 102.7 1373.55 99.85 1374.4 95.3 1375.25 91.05 1376.25 83.1 1377.35 73.8 1377.9 69.25 1379.55 55.35 1381.4 48.85
L 1382.65 45.3 1382.75 45.15 1384.05 42.55
Q 1384.3 42.05 1385.75 39.7
L 1385.8 39.55 1386.1 39.1 1387.1 37.1 1387.1 37.05 1387.6 35.75
Q 1388.2 33.8 1388.9 28.75 1389.6 23.4 1390.35 20.65 1392.3 13.75 1396.55 9.85 1398.35 8.25 1400 7.4 1403.15 5.75 1408.65 4.85 1411.8 4.3 1418.25 3.5 1427.5 2 1431.75 -0.75
L 1432.8 -1.55 1433.25 -2
Q 1433.8 -2.7 1434 -3.15 1434.5 -4.2 1434.5 -5.8 1434.5 -7.05 1434.15 -9.85 1434 -11.1 1434 -12.55 1434 -17.4 1435.45 -21.6 1437.8 -28.35 1443.35 -33.95 1445.65 -36.35 1449.55 -39.5 1451.7 -41.25 1455.7 -44.45 1457.05 -45.55 1457.9 -46.4 1461.8 -50.05 1461.95 -52.45 1462.05 -54.2 1460.35 -55.4 1458.6 -56.7 1455.3 -57.15 1448.3 -58.1 1437.4 -55.7 1429.2 -54 1416.65 -49.15 1413.6 -48 1392.7 -39.7 1386.85 -37.4 1384.6 -36.45
L 1379.05 -33.95
Q 1376.5 -32.7 1374.2 -31.35
L 1369 -27.9 1363.45 -23.4 1353.95 -14.7 Z"/>
</g>

<g id="Layer0_1_MEMBER_0_MEMBER_99_FILL">
<path fill="#1F1A17" stroke="none" d="
M 1484.55 -104.85
Q 1480.65 -101.65 1478.85 -100.15 1475.65 -97.5 1474 -94.9
L 1473.05 -93.15
Q 1471.5 -90.15 1470.45 -86.25 1469.5 -82.7 1469.2 -79.5
L 1469.1 -77.9
Q 1469.05 -75.6 1469.45 -73.25 1469.5 -73 1470.4 -68.85 1471.8 -62.65 1472.4 -56.45 1472.55 -52.9 1472.7 -51.5 1472.95 -49.1 1473.8 -47.6 1475.25 -45.1 1478.75 -42.95
L 1480.25 -42.15
Q 1481.65 -41.6 1482.6 -41.45
L 1483.4 -41.4 1483.5 -41.45 1483.8 -41.45 1485.9 -41.85 1487.1 -42.3
Q 1493.7 -44.75 1497.6 -50.2 1502.2 -56.45 1504.6 -68.95 1506.1 -76.8 1507.05 -91.4
L 1507.45 -100.85 1507.35 -105.3 1507.3 -105.5 1507.3 -106 1507.15 -107.6
Q 1506.85 -109.1 1506.85 -109.2
L 1506.85 -109.35 1506.55 -110.7 1506.5 -110.8 1506.15 -111.95 1506.05 -112.15 1506.05 -112.25 1505.6 -113.35 1505.55 -113.4 1504.95 -114.5 1504.9 -114.55 1504.3 -115.4 1504.25 -115.4 1503.45 -116.2
Q 1501.95 -117.55 1500 -117.55 1497.9 -117.55 1495.6 -115.9 1493.75 -114.6 1490.3 -110.8 1486 -106.2 1484.55 -104.85 Z"/>
</g>

<g id="Layer0_1_MEMBER_0_MEMBER_100_FILL">
<path fill="#1F1A17" stroke="none" d="
M 1591.15 -165.95
L 1590.15 -165.85
Q 1589.45 -165.65 1589.1 -165.5 1586.9 -164.65 1585.6 -161.45 1584.35 -158.25 1585.55 -155.7
L 1586.05 -154.7
Q 1587.05 -153.1 1589.05 -151.2 1592 -148.4 1595.5 -146.05 1601.8 -141.7 1606.05 -140.6
L 1607.1 -140.4 1607.6 -140.35 1608.55 -140.35 1609.4 -140.45 1610.1 -140.7
Q 1610.2 -140.7 1610.35 -140.85
L 1611.25 -141.4 1611.85 -141.9 1612.1 -142.15 1613.2 -143.7 1613.55 -144.35 1613.6 -144.4 1613.8 -144.9 1613.95 -145.15 1613.95 -145.2 1614.15 -145.7 1614.15 -145.75 1614.25 -145.95 1614.4 -146.6 1614.5 -146.8 1614.5 -146.95 1614.75 -147.95 1614.9 -149.9 1614.85 -150.65
Q 1614.85 -151.6 1614.6 -152.95
L 1614.15 -154.45 1614.15 -154.5 1613.5 -156
Q 1611.4 -160.25 1606.8 -162.75
L 1603.55 -164.15 1601.65 -164.75 1601.3 -164.8 1599.85 -165.15 1599.7 -165.2 1599.55 -165.2
Q 1598.8 -165.35 1598.75 -165.35
L 1598.15 -165.5 1598 -165.5 1595 -165.9 1594.85 -165.9 1593.5 -166.05 1591.25 -166 1591.15 -165.95 Z"/>
</g>

<g id="Layer0_1_MEMBER_0_MEMBER_101_FILL">
<path fill="#1F1A17" stroke="none" d="
M 1475.2 -209.55
Q 1471.4 -208.8 1466.75 -207.55
L 1463.45 -206.65
Q 1453.15 -203.7 1447.75 -200.5 1445.9 -199.4 1444.25 -198.1 1439.95 -194.6 1437.7 -189.6 1434.95 -183.55 1434.25 -174.35 1434.05 -171.75 1434.05 -170.5 1434.05 -167.8 1434.3 -166 1434.7 -162.6 1435.85 -159.7 1438.3 -153.7 1444.65 -147.9 1450.05 -143 1455 -141.3 1457.75 -140.4 1459.65 -140.65 1461.85 -141 1462.35 -142.9
L 1462.45 -143.3 1462.5 -144.85 1462.35 -145.95
Q 1462.15 -147.65 1461.35 -150.7 1460 -156.05 1460 -156.1 1457.95 -165 1458.65 -170.35
L 1459 -172.15 1459.4 -173.45 1460.05 -174.8 1461 -176.05 1461.2 -176.2
Q 1461.85 -176.75 1462.45 -176.95 1462.85 -177.1 1463.25 -177.1
L 1464.5 -177.05
Q 1465.6 -176.85 1467.45 -176 1468.5 -175.55 1471 -174.4
L 1471.5 -174.15 1473.5 -173.35
Q 1480.6 -170.6 1488.85 -169.95 1490.75 -169.8 1492.55 -169.8
L 1493.45 -169.85 1493.6 -169.85 1494.7 -169.95 1495.05 -169.95 1495.9 -170.05 1498.8 -170.8
Q 1500.4 -171.4 1501.4 -172.2 1503.05 -173.45 1505.05 -176.5 1507.25 -179.95 1508.35 -181 1510.3 -182.9 1512.8 -183.4 1515.3 -183.85 1517.35 -182.65 1519 -181.65 1520.75 -179.15 1521 -178.8 1522.75 -176.25 1524.05 -174.35 1525 -173.15 1530.3 -166.6 1537.4 -164.1 1544.85 -161.5 1553.35 -163.7
L 1557.15 -164.95
Q 1558.15 -165.3 1558.85 -165.7
L 1559 -165.75
Q 1563.45 -167.95 1565.85 -170.95 1567.3 -172.8 1568.5 -176.15 1569.85 -179.9 1570.45 -180.9 1571.7 -183.05 1573.75 -184.1 1575.85 -185.2 1578.7 -185 1580.8 -184.85 1584.4 -183.65 1586.45 -182.95 1590.95 -181.45
L 1592.3 -181
Q 1599.75 -178.95 1607.25 -178.95
L 1608.85 -179
Q 1610.65 -179.05 1613.65 -179.35 1616.8 -179.7 1618.45 -179.75
L 1618.8 -179.8 1621.35 -179.85
Q 1628.1 -179.85 1630.85 -178.45 1632.3 -177.7 1632.65 -176.5 1633.25 -174.65 1631.45 -172 1629.35 -169.25 1628.35 -167.85 1626.5 -165.3 1626.55 -163.5
L 1626.55 -163.45
Q 1626.65 -161.75 1628.05 -160.25 1629.6 -158.6 1632.4 -157.5
L 1632.9 -157.3
Q 1634.7 -156.65 1637.2 -156.2 1641.9 -155.35 1649.8 -155.5 1654.75 -155.6 1663.8 -156.2
L 1666.5 -156.4 1666.85 -156.4 1669.3 -156.65 1669.8 -156.65 1672.05 -156.9 1677.55 -157.85 1681.45 -159.1 1681.85 -159.3
Q 1682.6 -159.6 1683.4 -160.05
L 1683.5 -160.1 1684.3 -160.6 1684.4 -160.7 1684.65 -160.8 1685.75 -161.7 1685.9 -161.85 1686 -161.9 1688.1 -164.15 1688.95 -165.35
Q 1689.85 -166.7 1690.45 -167.95
L 1690.5 -168 1691.65 -170.75 1691.65 -170.8 1691.7 -170.9
Q 1692 -171.6 1692.45 -173.05
L 1692.45 -173.1 1693.3 -176.7 1693.3 -176.75 1693.55 -178.45 1693.55 -178.7 1693.65 -179.7 1693.65 -180.45
Q 1693.65 -182.2 1693.1 -184.15 1692.5 -186.4 1691.1 -188.9 1686.7 -196.6 1676.85 -205.75 1673.95 -208.45 1670.4 -211.25
L 1665.7 -214.45 1661.35 -216.8 1659.2 -217.65
Q 1654.55 -219.2 1646.95 -218.95
L 1640.45 -218.65
Q 1637.8 -218.55 1628.45 -218.3 1620 -218.15 1614.6 -217.85 1611.85 -217.65 1610.3 -217.6 1599.6 -216.8 1593.05 -215.6 1589.75 -215 1587.1 -214.25 1582.65 -213 1578.15 -210.6 1573.45 -207.95 1571.15 -206.85 1564.05 -203.4 1554.7 -202.55 1552.05 -202.3 1548.35 -202.2
L 1531.7 -202.45
Q 1519.95 -202.9 1513.95 -204 1511.7 -204.35 1509.6 -204.9
L 1498.8 -208.3 1498.15 -208.45 1496.95 -208.85 1492.3 -210 1489.25 -210.45 1489.2 -210.45 1486.85 -210.6 1480.7 -210.35 1475.2 -209.55 Z"/>
</g>

<g id="Layer0_1_MEMBER_0_MEMBER_102_FILL">
<path fill="#1F1A17" stroke="none" d="
M 1615.8 -285.7
Q 1614.95 -280.3 1617.55 -274.75 1619.45 -270.7 1624.8 -263.65 1629.15 -258 1632 -255.9
L 1633.2 -255.05
Q 1635 -253.9 1637.8 -252.85 1639.4 -252.25 1642.45 -251.2
L 1644.75 -250.3
Q 1648.25 -248.65 1650.05 -246.55 1650.7 -245.85 1651.65 -244.25 1652.5 -242.9 1653.05 -242.45 1653.85 -241.7 1654.75 -241.65 1655.7 -241.6 1656.2 -242.45
L 1656.4 -242.8 1656.4 -242.85 1656.45 -243.1 1656.6 -243.5 1656.6 -243.6
Q 1657 -245.7 1656.1 -249.7 1654.75 -256.05 1651.3 -263.35
L 1647.9 -269.85 1647.7 -270.1
Q 1647.6 -270.25 1646.95 -271.35
L 1645.9 -273.05 1645.8 -273.25 1643.9 -276.05 1643.85 -276.1 1642.4 -278.1
Q 1638.8 -282.6 1637.15 -284.7 1634.25 -288.35 1633.1 -290.55 1632.5 -291.7 1632.1 -292.85
L 1632.05 -292.9 1631.7 -293.85 1631.7 -293.95 1630.85 -296.4 1630.85 -296.45 1630.4 -297.4 1630.05 -297.9
Q 1630 -298.05 1629.9 -298.1
L 1629.3 -298.65
Q 1628.75 -299 1628 -299.05
L 1627.8 -299.05 1627.65 -299.1
Q 1625.6 -299.15 1623.15 -297.75
L 1623.05 -297.7 1621.05 -296.15
Q 1619.25 -294.45 1617.9 -291.9 1616.85 -289.85 1616.25 -287.7
L 1615.8 -285.7 Z"/>
</g>

<g id="Layer0_1_MEMBER_0_MEMBER_103_FILL">
<path fill="#1F1A17" stroke="none" d="
M 1830.1 -169.25
Q 1827.05 -170.15 1823.2 -170.25 1816.85 -170.35 1811.7 -168.4 1807.8 -166.95 1805.1 -164.45 1802.5 -162.05 1800.55 -158.25
L 1798.9 -154.6
Q 1795.7 -145.85 1794.05 -142.9 1793.1 -141.25 1790.85 -138.5 1789.1 -136.45 1788.7 -134.85 1787.8 -131.1 1790.5 -124.3
L 1791.3 -122.45
Q 1793.85 -117.3 1794.95 -114.6 1796.95 -109.8 1796.8 -106.15
L 1796.55 -104.1
Q 1796 -100.9 1793.9 -96.6 1791.45 -91.85 1790.45 -89.85 1786.95 -82.65 1789.1 -80.35 1790.3 -79.1 1792.9 -79.1 1795.45 -79 1799.05 -80.25 1806.2 -82.55 1815.2 -88.95 1820.05 -92.45 1823.7 -96.05 1828.15 -100.55 1831.55 -105.95 1835.2 -111.75 1838.15 -119.15 1841.05 -126.5 1842.5 -133.55 1845.45 -147.7 1842.1 -157.25 1838.85 -166.6 1830.1 -169.25 Z"/>
</g>

<path id="Layer0_1_MEMBER_0_MEMBER_9_1_STROKES" stroke="#1F1A17" stroke-width="0.05" stroke-linejoin="round" stroke-linecap="round" fill="none" d="
M 170.7969955444335 -78.99793701171876
L 170.78475952148443 -78.86334075927735"/>

<path id="Layer0_1_MEMBER_0_MEMBER_11_1_STROKES" stroke="#1F1A17" stroke-width="0.05" stroke-linejoin="round" stroke-linecap="round" fill="none" d="
M 170.7969955444335 -79.47514190673829
L 170.7969955444335 -78.99793701171876"/>

<path id="Layer0_1_MEMBER_0_MEMBER_34_1_STROKES" stroke="#1F1A17" stroke-width="0.05" stroke-linejoin="round" stroke-linecap="round" fill="none" d="
M -187.47375640869137 -54.73390350341797
L -187.41257629394528 -54.74613952636718"/>

<path id="Layer0_1_MEMBER_0_MEMBER_53_1_STROKES" stroke="#1F1A17" stroke-width="0.05" stroke-linejoin="round" stroke-linecap="round" fill="none" d="
M -181.75953369140626 12.686582946777344
L -181.747297668457 12.772235107421874"/>

<path id="Layer0_1_MEMBER_0_MEMBER_55_1_STROKES" stroke="#1F1A17" stroke-width="0.05" stroke-linejoin="round" stroke-linecap="round" fill="none" d="
M -181.99201812744138 11.04695587158203
L -181.96754608154293 11.279440307617188"/>

<path id="Layer0_1_MEMBER_0_MEMBER_56_1_STROKES" stroke="#1F1A17" stroke-width="0.05" stroke-linejoin="round" stroke-linecap="round" fill="none" d="
M -181.96754608154293 11.279440307617188
L -181.95531005859374 11.401800537109375"/>

<path id="Layer0_1_MEMBER_0_MEMBER_58_1_STROKES" stroke="#1F1A17" stroke-width="0.05" stroke-linejoin="round" stroke-linecap="round" fill="none" d="
M -182.01649017333983 10.630931091308593
L -182.00425415039064 10.875651550292968"/>

<path id="Layer0_1_MEMBER_0_MEMBER_59_1_STROKES" stroke="#1F1A17" stroke-width="0.05" stroke-linejoin="round" stroke-linecap="round" fill="none" d="
M -182.02872619628903 10.349502563476562
L -182.01649017333983 10.630931091308593"/>

<path id="Layer0_1_MEMBER_0_MEMBER_78_1_STROKES" stroke="#1F1A17" stroke-width="0.05" stroke-linejoin="round" stroke-linecap="round" fill="none" d="
M 62.86303710937506 174.8138870239258
L 62.80185699462896 174.80165100097653"/>
</defs>

<g transform="matrix( 1, 0, 0, 1, -951.1,-2896.65) ">
<use xlink:href="#Layer0_0_FILL"/>
</g>

<g transform="matrix( 0.244720458984375, 0, 0, 0.244720458984375, -379.2,6.85) ">
<use xlink:href="#Layer0_1_MEMBER_0_MEMBER_0_FILL"/>
</g>

<g transform="matrix( 0.244720458984375, 0, 0, 0.244720458984375, -161.4,-57.4) ">
<use xlink:href="#FlashAICB_3_Layer_1__Path__116"/>
</g>

<g transform="matrix( 0.244720458984375, 0, 0, 0.244720458984375, -161.75,-57.65) ">
<use xlink:href="#FlashAICB_3_Layer_1__Path__115"/>
</g>

<g transform="matrix( 0.244720458984375, 0, 0, 0.244720458984375, -162.9,-58.35) ">
<use xlink:href="#FlashAICB_3_Layer_1__Path__114"/>
</g>

<g transform="matrix( 0.244720458984375, 0, 0, 0.244720458984375, -163.9,-58.65) ">
<use xlink:href="#FlashAICB_3_Layer_1__Path__113"/>
</g>

<g transform="matrix( 0.244720458984375, 0, 0, 0.244720458984375, -162.45,-58.15) ">
<use xlink:href="#FlashAICB_3_Layer_1__Path__112"/>
</g>

<g transform="matrix( 0.244720458984375, 0, 0, 0.244720458984375, -163.35,-58.5) ">
<use xlink:href="#FlashAICB_3_Layer_1__Path__111"/>
</g>

<g transform="matrix( 0.244720458984375, 0, 0, 0.244720458984375, -162.1,-57.95) ">
<use xlink:href="#FlashAICB_3_Layer_1__Path__110"/>
</g>

<g transform="matrix( 0.244720458984375, 0, 0, 0.244720458984375, -164.4,-58.85) ">
<use xlink:href="#FlashAICB_3_Layer_1__Path__109"/>
</g>

<g transform="matrix( 0.244720458984375, 0, 0, 0.244720458984375, -379.2,6.85) ">
<use xlink:href="#Layer0_1_MEMBER_0_MEMBER_9_1_STROKES" transform="matrix( 4.0862884521484375, 0, 0, 4.0862884521484375, 1549.5,-27.95) "/>
</g>

<g transform="matrix( 0.244720458984375, 0, 0, 0.244720458984375, 170.65,-78.75) ">
<use xlink:href="#FlashAICB_3_Layer_1__Path__106"/>
</g>

<g transform="matrix( 0.244720458984375, 0, 0, 0.244720458984375, -379.2,6.85) ">
<use xlink:href="#Layer0_1_MEMBER_0_MEMBER_11_1_STROKES" transform="matrix( 4.0862884521484375, 0, 0, 4.0862884521484375, 1549.5,-27.95) "/>
</g>

<g transform="matrix( 0.244720458984375, 0, 0, 0.244720458984375, -160.8,-31.85) ">
<use xlink:href="#FlashAICB_3_Layer_1__Path__104"/>
</g>

<g transform="matrix( 0.244720458984375, 0, 0, 0.244720458984375, -172.7,-40.45) ">
<use xlink:href="#FlashAICB_3_Layer_1__Path__103"/>
</g>

<g transform="matrix( 0.244720458984375, 0, 0, 0.244720458984375, -172.35,-39.85) ">
<use xlink:href="#FlashAICB_3_Layer_1__Path__102"/>
</g>

<g transform="matrix( 0.244720458984375, 0, 0, 0.244720458984375, -172.95,-40.95) ">
<use xlink:href="#FlashAICB_3_Layer_1__Path__99"/>
</g>

<g transform="matrix( 0.244720458984375, 0, 0, 0.244720458984375, -173.2,-41.5) ">
<use xlink:href="#FlashAICB_3_Layer_1__Path__98"/>
</g>

<g transform="matrix( 0.244720458984375, 0, 0, 0.244720458984375, -173.65,-42.55) ">
<use xlink:href="#FlashAICB_3_Layer_1__Path__97"/>
</g>

<g transform="matrix( 0.244720458984375, 0, 0, 0.244720458984375, -173.45,-42) ">
<use xlink:href="#FlashAICB_3_Layer_1__Path__95"/>
</g>

<g transform="matrix( 0.244720458984375, 0, 0, 0.244720458984375, -173.95,-43.15) ">
<use xlink:href="#FlashAICB_3_Layer_1__Path__94"/>
</g>

<g transform="matrix( 0.244720458984375, 0, 0, 0.244720458984375, -174.15,-43.65) ">
<use xlink:href="#FlashAICB_3_Layer_1__Path__93"/>
</g>

<g transform="matrix( 0.244720458984375, 0, 0, 0.244720458984375, -174.05,-43.35) ">
<use xlink:href="#FlashAICB_3_Layer_1__Path__92"/>
</g>

<g transform="matrix( 0.244720458984375, 0, 0, 0.244720458984375, -152.65,20.4) ">
<use xlink:href="#FlashAICB_3_Layer_1__Path__90"/>
</g>

<g transform="matrix( 0.244720458984375, 0, 0, 0.244720458984375, -154.4,21.15) ">
<use xlink:href="#FlashAICB_3_Layer_1__Path__89"/>
</g>

<g transform="matrix( 0.244720458984375, 0, 0, 0.244720458984375, -151.8,19.95) ">
<use xlink:href="#FlashAICB_3_Layer_1__Path__88"/>
</g>

<g transform="matrix( 0.244720458984375, 0, 0, 0.244720458984375, -155.25,21.55) ">
<use xlink:href="#FlashAICB_3_Layer_1__Path__87"/>
</g>

<g transform="matrix( 0.244720458984375, 0, 0, 0.244720458984375, -153.55,20.8) ">
<use xlink:href="#FlashAICB_3_Layer_1__Path__86"/>
</g>

<g transform="matrix( 0.244720458984375, 0, 0, 0.244720458984375, -157.2,22.2) ">
<use xlink:href="#FlashAICB_3_Layer_1__Path__85"/>
</g>

<g transform="matrix( 0.244720458984375, 0, 0, 0.244720458984375, -156.25,21.9) ">
<use xlink:href="#FlashAICB_3_Layer_1__Path__84"/>
</g>

<g transform="matrix( 0.244720458984375, 0, 0, 0.244720458984375, -152.7,20.45) ">
<use xlink:href="#FlashAICB_3_Layer_1__Path__82"/>
</g>

<g transform="matrix( 0.244720458984375, 0, 0, 0.244720458984375, -153.3,20.7) ">
<use xlink:href="#FlashAICB_3_Layer_1__Path__81"/>
</g>

<g transform="matrix( 0.244720458984375, 0, 0, 0.244720458984375, -153.15,20.5) ">
<use xlink:href="#FlashAICB_3_Layer_1__Path__80"/>
</g>

<g transform="matrix( 0.244720458984375, 0, 0, 0.244720458984375, -151.65,19.6) ">
<use xlink:href="#FlashAICB_3_Layer_1__Path__79"/>
</g>

<g transform="matrix( 0.244720458984375, 0, 0, 0.244720458984375, -152.4,20) ">
<use xlink:href="#FlashAICB_3_Layer_1__Path__78"/>
</g>

<g transform="matrix( 0.244720458984375, 0, 0, 0.244720458984375, -379.2,6.85) ">
<use xlink:href="#Layer0_1_MEMBER_0_MEMBER_34_1_STROKES" transform="matrix( 4.0862884521484375, 0, 0, 4.0862884521484375, 1549.5,-27.95) "/>
</g>

<g transform="matrix( 0.244720458984375, 0, 0, 0.244720458984375, -185.65,-55.3) ">
<use xlink:href="#FlashAICB_3_Layer_1__Path__76"/>
</g>

<g transform="matrix( 0.244720458984375, 0, 0, 0.244720458984375, -165.75,-59.15) ">
<use xlink:href="#FlashAICB_3_Layer_1__Path__74"/>
</g>

<g transform="matrix( 0.244720458984375, 0, 0, 0.244720458984375, -165.15,-59.05) ">
<use xlink:href="#FlashAICB_3_Layer_1__Path__73"/>
</g>

<g transform="matrix( 0.244720458984375, 0, 0, 0.244720458984375, -166.45,-59.25) ">
<use xlink:href="#FlashAICB_3_Layer_1__Path__72"/>
</g>

<g transform="matrix( 0.244720458984375, 0, 0, 0.244720458984375, -188,-54.65) ">
<use xlink:href="#FlashAICB_3_Layer_1__Path__69"/>
</g>

<g transform="matrix( 0.244720458984375, 0, 0, 0.244720458984375, -186.75,-55.05) ">
<use xlink:href="#FlashAICB_3_Layer_1__Path__68"/>
</g>

<g transform="matrix( 0.244720458984375, 0, 0, 0.244720458984375, -184.75,-55.85) ">
<use xlink:href="#FlashAICB_3_Layer_1__Path__67"/>
</g>

<g transform="matrix( 0.244720458984375, 0, 0, 0.244720458984375, -185,-55.8) ">
<use xlink:href="#FlashAICB_3_Layer_1__Path__66"/>
</g>

<g transform="matrix( 0.244720458984375, 0, 0, 0.244720458984375, -187.4,-54.85) ">
<use xlink:href="#FlashAICB_3_Layer_1__Path__65"/>
</g>

<g transform="matrix( 0.244720458984375, 0, 0, 0.244720458984375, -165,-59) ">
<use xlink:href="#FlashAICB_3_Layer_1__Path__63"/>
</g>

<g transform="matrix( 0.244720458984375, 0, 0, 0.244720458984375, -181.05,14.85) ">
<use xlink:href="#FlashAICB_3_Layer_1__Path__62"/>
</g>

<g transform="matrix( 0.244720458984375, 0, 0, 0.244720458984375, -180.95,15.2) ">
<use xlink:href="#FlashAICB_3_Layer_1__Path__61"/>
</g>

<g transform="matrix( 0.244720458984375, 0, 0, 0.244720458984375, -180.6,16) ">
<use xlink:href="#FlashAICB_3_Layer_1__Path__60"/>
</g>

<g transform="matrix( 0.244720458984375, 0, 0, 0.244720458984375, -180.85,15.45) ">
<use xlink:href="#FlashAICB_3_Layer_1__Path__59"/>
</g>

<g transform="matrix( 0.244720458984375, 0, 0, 0.244720458984375, -181.6,13.25) ">
<use xlink:href="#FlashAICB_3_Layer_1__Path__58"/>
</g>

<g transform="matrix( 0.244720458984375, 0, 0, 0.244720458984375, -180,16.9) ">
<use xlink:href="#FlashAICB_3_Layer_1__Path__57"/>
</g>

<g transform="matrix( 0.244720458984375, 0, 0, 0.244720458984375, -179.9,17) ">
<use xlink:href="#FlashAICB_3_Layer_1__Path__56"/>
</g>

<g transform="matrix( 0.244720458984375, 0, 0, 0.244720458984375, -181.75,12.8) ">
<use xlink:href="#FlashAICB_3_Layer_1__Path__55"/>
</g>

<g transform="matrix( 0.244720458984375, 0, 0, 0.244720458984375, -379.2,6.85) ">
<use xlink:href="#Layer0_1_MEMBER_0_MEMBER_53_1_STROKES" transform="matrix( 4.0862884521484375, 0, 0, 4.0862884521484375, 1549.5,-27.95) "/>
</g>

<g transform="matrix( 0.244720458984375, 0, 0, 0.244720458984375, -181.9,11.6) ">
<use xlink:href="#FlashAICB_3_Layer_1__Path__53"/>
</g>

<g transform="matrix( 0.244720458984375, 0, 0, 0.244720458984375, -379.2,6.85) ">
<use xlink:href="#Layer0_1_MEMBER_0_MEMBER_55_1_STROKES" transform="matrix( 4.0862884521484375, 0, 0, 4.0862884521484375, 1549.5,-27.95) "/>
</g>

<g transform="matrix( 0.244720458984375, 0, 0, 0.244720458984375, -379.2,6.85) ">
<use xlink:href="#Layer0_1_MEMBER_0_MEMBER_56_1_STROKES" transform="matrix( 4.0862884521484375, 0, 0, 4.0862884521484375, 1549.5,-27.95) "/>
</g>

<g transform="matrix( 0.244720458984375, 0, 0, 0.244720458984375, -181.85,12.15) ">
<use xlink:href="#FlashAICB_3_Layer_1__Path__50"/>
</g>

<g transform="matrix( 0.244720458984375, 0, 0, 0.244720458984375, -379.2,6.85) ">
<use xlink:href="#Layer0_1_MEMBER_0_MEMBER_58_1_STROKES" transform="matrix( 4.0862884521484375, 0, 0, 4.0862884521484375, 1549.5,-27.95) "/>
</g>

<g transform="matrix( 0.244720458984375, 0, 0, 0.244720458984375, -379.2,6.85) ">
<use xlink:href="#Layer0_1_MEMBER_0_MEMBER_59_1_STROKES" transform="matrix( 4.0862884521484375, 0, 0, 4.0862884521484375, 1549.5,-27.95) "/>
</g>

<g transform="matrix( 0.244720458984375, 0, 0, 0.244720458984375, -180.3,16.45) ">
<use xlink:href="#FlashAICB_3_Layer_1__Path__47"/>
</g>

<g transform="matrix( 0.244720458984375, 0, 0, 0.244720458984375, 67.3,176.25) ">
<use xlink:href="#FlashAICB_3_Layer_1__Path__46"/>
</g>

<g transform="matrix( 0.244720458984375, 0, 0, 0.244720458984375, 65.55,175.65) ">
<use xlink:href="#FlashAICB_3_Layer_1__Path__45"/>
</g>

<g transform="matrix( 0.244720458984375, 0, 0, 0.244720458984375, 64.6,175.4) ">
<use xlink:href="#FlashAICB_3_Layer_1__Path__44"/>
</g>

<g transform="matrix( 0.244720458984375, 0, 0, 0.244720458984375, 71.75,177.5) ">
<use xlink:href="#FlashAICB_3_Layer_1__Path__43"/>
</g>

<g transform="matrix( 0.244720458984375, 0, 0, 0.244720458984375, 72.6,177.7) ">
<use xlink:href="#FlashAICB_3_Layer_1__Path__42"/>
</g>

<g transform="matrix( 0.244720458984375, 0, 0, 0.244720458984375, 70.85,177.3) ">
<use xlink:href="#FlashAICB_3_Layer_1__Path__41"/>
</g>

<g transform="matrix( 0.244720458984375, 0, 0, 0.244720458984375, 63.65,175.1) ">
<use xlink:href="#FlashAICB_3_Layer_1__Path__40"/>
</g>

<g transform="matrix( 0.244720458984375, 0, 0, 0.244720458984375, 73.5,177.9) ">
<use xlink:href="#FlashAICB_3_Layer_1__Path__39"/>
</g>

<g transform="matrix( 0.244720458984375, 0, 0, 0.244720458984375, 66.4,176) ">
<use xlink:href="#FlashAICB_3_Layer_1__Path__38"/>
</g>

<g transform="matrix( 0.244720458984375, 0, 0, 0.244720458984375, 70.05,177) ">
<use xlink:href="#FlashAICB_3_Layer_1__Path__37"/>
</g>

<g transform="matrix( 0.244720458984375, 0, 0, 0.244720458984375, 68.25,176.5) ">
<use xlink:href="#FlashAICB_3_Layer_1__Path__36"/>
</g>

<g transform="matrix( 0.244720458984375, 0, 0, 0.244720458984375, 69.1,176.75) ">
<use xlink:href="#FlashAICB_3_Layer_1__Path__35"/>
</g>

<g transform="matrix( 0.244720458984375, 0, 0, 0.244720458984375, 62.75,174.85) ">
<use xlink:href="#FlashAICB_3_Layer_1__Path__34"/>
</g>

<g transform="matrix( 0.244720458984375, 0, 0, 0.244720458984375, 74.35,178.15) ">
<use xlink:href="#FlashAICB_3_Layer_1__Path__33"/>
</g>

<g transform="matrix( 0.244720458984375, 0, 0, 0.244720458984375, 36.35,162.55) ">
<use xlink:href="#FlashAICB_3_Layer_1__Path__32"/>
</g>

<g transform="matrix( 0.244720458984375, 0, 0, 0.244720458984375, 63.6,175.1) ">
<use xlink:href="#FlashAICB_3_Layer_1__Path__31"/>
</g>

<g transform="matrix( 0.244720458984375, 0, 0, 0.244720458984375, 64.45,175.35) ">
<use xlink:href="#FlashAICB_3_Layer_1__Path__30"/>
</g>

<g transform="matrix( 0.244720458984375, 0, 0, 0.244720458984375, -379.2,6.85) ">
<use xlink:href="#Layer0_1_MEMBER_0_MEMBER_78_1_STROKES" transform="matrix( 4.0862884521484375, 0, 0, 4.0862884521484375, 1549.5,-27.95) "/>
</g>

<g transform="matrix( 0.244720458984375, 0, 0, 0.244720458984375, 66.2,175.9) ">
<use xlink:href="#FlashAICB_3_Layer_1__Path__28"/>
</g>

<g transform="matrix( 0.244720458984375, 0, 0, 0.244720458984375, 65.3,175.6) ">
<use xlink:href="#FlashAICB_3_Layer_1__Path__27"/>
</g>

<g transform="matrix( 0.244720458984375, 0, 0, 0.244720458984375, 71.45,177.45) ">
<use xlink:href="#FlashAICB_3_Layer_1__Path__26"/>
</g>

<g transform="matrix( 0.244720458984375, 0, 0, 0.244720458984375, 70.6,177.2) ">
<use xlink:href="#FlashAICB_3_Layer_1__Path__25"/>
</g>

<g transform="matrix( 0.244720458984375, 0, 0, 0.244720458984375, 73.25,177.85) ">
<use xlink:href="#FlashAICB_3_Layer_1__Path__24"/>
</g>

<g transform="matrix( 0.244720458984375, 0, 0, 0.244720458984375, 67.05,176.15) ">
<use xlink:href="#FlashAICB_3_Layer_1__Path__23"/>
</g>

<g transform="matrix( 0.244720458984375, 0, 0, 0.244720458984375, 74.1,178.1) ">
<use xlink:href="#FlashAICB_3_Layer_1__Path__22"/>
</g>

<g transform="matrix( 0.244720458984375, 0, 0, 0.244720458984375, 72.35,177.65) ">
<use xlink:href="#FlashAICB_3_Layer_1__Path__21"/>
</g>

<g transform="matrix( 0.244720458984375, 0, 0, 0.244720458984375, 68,176.4) ">
<use xlink:href="#FlashAICB_3_Layer_1__Path__20"/>
</g>

<g transform="matrix( 0.244720458984375, 0, 0, 0.244720458984375, 69.7,176.95) ">
<use xlink:href="#FlashAICB_3_Layer_1__Path__19"/>
</g>

<g transform="matrix( 0.244720458984375, 0, 0, 0.244720458984375, 68.85,176.65) ">
<use xlink:href="#FlashAICB_3_Layer_1__Path__18"/>
</g>

<g transform="matrix( 0.244720458984375, 0, 0, 0.244720458984375, -41.4,147.7) ">
<use xlink:href="#FlashAICB_3_Layer_1__Path__17"/>
</g>

<g transform="matrix( 0.244720458984375, 0, 0, 0.244720458984375, -41.9,147.75) ">
<use xlink:href="#FlashAICB_3_Layer_1__Path__16"/>
</g>

<g transform="matrix( 0.244720458984375, 0, 0, 0.244720458984375, -114.45,90) ">
<use xlink:href="#FlashAICB_3_Layer_1__Path__13"/>
</g>

<g transform="matrix( 0.244720458984375, 0, 0, 0.244720458984375, 191.05,-56.7) ">
<use xlink:href="#FlashAICB_3_Layer_1__Path__12"/>
</g>

<g transform="matrix( 0.244720458984375, 0, 0, 0.244720458984375, 190.6,-56.8) ">
<use xlink:href="#FlashAICB_3_Layer_1__Path__11"/>
</g>

<g transform="matrix( 0.244720458984375, 0, 0, 0.244720458984375, 7.2,69.65) ">
<use xlink:href="#FlashAICB_3_Layer_1__Path__8"/>
</g>

<g transform="matrix( 0.244720458984375, 0, 0, 0.244720458984375, 82.95,-9.55) ">
<use xlink:href="#FlashAICB_3_Layer_1__Path__7"/>
</g>

<g transform="matrix( 0.244720458984375, 0, 0, 0.244720458984375, -379.2,6.85) ">
<use xlink:href="#Layer0_1_MEMBER_0_MEMBER_97_FILL"/>
</g>

<g transform="matrix( 0.244720458984375, 0, 0, 0.244720458984375, -379.2,6.85) ">
<use xlink:href="#Layer0_1_MEMBER_0_MEMBER_98_FILL"/>
</g>

<g transform="matrix( 0.244720458984375, 0, 0, 0.244720458984375, -379.2,6.85) ">
<use xlink:href="#Layer0_1_MEMBER_0_MEMBER_99_FILL"/>
</g>

<g transform="matrix( 0.244720458984375, 0, 0, 0.244720458984375, -379.2,6.85) ">
<use xlink:href="#Layer0_1_MEMBER_0_MEMBER_100_FILL"/>
</g>

<g transform="matrix( 0.244720458984375, 0, 0, 0.244720458984375, -379.2,6.85) ">
<use xlink:href="#Layer0_1_MEMBER_0_MEMBER_101_FILL"/>
</g>

<g transform="matrix( 0.244720458984375, 0, 0, 0.244720458984375, -379.2,6.85) ">
<use xlink:href="#Layer0_1_MEMBER_0_MEMBER_102_FILL"/>
</g>

<g transform="matrix( 0.244720458984375, 0, 0, 0.244720458984375, -379.2,6.85) ">
<use xlink:href="#Layer0_1_MEMBER_0_MEMBER_103_FILL"/>
</g>
</svg>
