
<svg xmlns="http://www.w3.org/2000/svg" version="1.1" xmlns:xlink="http://www.w3.org/1999/xlink" preserveAspectRatio="none" x="0px" y="0px" width="1920px" height="1080px" viewBox="0 0 1920 1080">
<defs>
<g id="Layer0_0_FILL">
<path fill="#231F20" stroke="none" d="
M -174.35 -44.95
L -173.3 -23.15 -173.3 60.3
Q -173.3 74.9 -174.55 86.95
L -146.05 86.95 -146.05 80 -41.95 80 -41.95 86.95 -13 86.95
Q -14.25 73.1 -14.25 59.7
L -14.25 -22.45
Q -14.25 -33.9 -13.15 -44.95
L -41.65 -44.95 -40.95 -30.55 -40.95 54.75 -146.75 54.75 -146.75 -29.85
Q -146.75 -39.8 -146.05 -44.95
L -174.35 -44.95
M -178.8 -82.9
L -178.8 -55.3
Q -166.35 -56.35 -152.95 -56.35
L -107.55 -56.35 -107.55 -45.85 -125.15 -45.85
Q -134.7 -45.85 -140.1 -46.55
L -139.4 -32.25 -139.4 34.3
Q -139.4 44.05 -139.9 48.45
L -131.1 47.9 -56.45 47.9 -47.8 48.45
Q -48.35 44.75 -48.35 34.3
L -48.35 -32.25 -47.6 -46.55
Q -53 -45.85 -62.55 -45.85
L -80.25 -45.85 -80.25 -56.35 -34.2 -56.35
Q -20.7 -56.35 -8.55 -55.3
L -8.55 -82.9
Q -21.5 -81.75 -34.4 -81.75
L -153.4 -81.75
Q -166.35 -81.75 -178.8 -82.9
M -82.25 -10.85
L -82.25 -21.9 -71.2 -21.9 -71.2 -10.85 -82.25 -10.85
M -105.65 -21.9
L -105.65 -10.85 -116.15 -10.85 -116.15 -21.9 -105.65 -21.9
M -71.2 12
L -71.2 24.7 -82.25 24.7 -82.25 12 -71.2 12
M -105.65 12
L -105.65 24.7 -116.15 24.7 -116.15 12 -105.65 12
M 74 -86.95
L 74.75 -74 29.75 -74
Q 15.45 -74 7.8 -74.8
L 8.6 -61.3 8.6 -44.75
Q 8.6 -36.65 7.65 -31.1
L 26.6 -31.1 26.6 -20.2 45.05 -21.2 60 -21.2
Q 52.45 -17.5 39.4 -13.65 29.05 -10.4 8.45 -7 16.6 3 20.75 13.8 46.75 6.6 66.3 -2.75
L 70.15 1.85
Q 44.95 15.85 5.45 26.05 13.4 35.4 19.25 47.35 54.15 35.2 79.5 18.5
L 81.6 24.15
Q 48.75 47.9 4.55 60.65 13.65 70.2 20.6 84.05 42.1 75 59.45 64.9 64.15 74.6 65.75 86.05
L 80.75 86.75
Q 97.25 86.75 104 82 113.95 75 113.95 54.75 113.95 32.25 105.7 11.1 101.2 -0.95 89.3 -14.7
L 99.05 -21.2 102.35 -21.2
Q 109.65 10.9 120.1 32.8 126.9 47.25 135.85 57.8 144.55 68.25 159.65 80.2 168.05 65.7 178.85 54.55 155.25 41.95 143.1 21.7
L 171.8 -0.7 149.15 -20.05
Q 143.4 -12.65 132.75 -3.1
L 128.55 -21.2 136.3 -21.2
Q 146.9 -21.2 154.7 -20.2
L 154.7 -31.1 173.7 -31.1
Q 172.9 -36.5 172.9 -44.75
L 172.9 -61.3
Q 172.9 -69.4 173.7 -74.8 165.6 -74 151.4 -74
L 104 -74 104.8 -86.95 74 -86.95
M 35.7 -43.25
L 35.7 -50.25 145.8 -50.25 145.8 -43.25 35.7 -43.25
M 86 47
L 86 48.45
Q 86 57.95 84.2 60.65 82.4 63.35 76.2 63.35
L 63.7 62.45
Q 72.6 57.05 86 47 Z"/>
</g>
</defs>

<g transform="matrix( 1, 0, 0, 1, 0,0) ">
<use xlink:href="#Layer0_0_FILL"/>
</g>
</svg>
