
<svg xmlns="http://www.w3.org/2000/svg" version="1.1" xmlns:xlink="http://www.w3.org/1999/xlink" preserveAspectRatio="none" x="0px" y="0px" width="1920px" height="1080px" viewBox="0 0 1920 1080">
<defs>
<g id="Layer0_0_FILL">
<path fill="#231F20" stroke="none" d="
M 168.45 84.3
L 168.45 56.1
Q 156.55 57.2 142.8 57.2
L 110.4 57.2 124.8 41.2
Q 99.35 29.2 73.35 21.5
L 53.45 40.45
Q 77.05 47.75 96.35 57.2
L 39.25 57.2
Q 23.15 57.2 14.05 56.1
L 14.05 84.3
Q 21.9 83.55 39.85 83.55
L 75.6 83.55 75.6 109.75 44.1 109.75
Q 31.35 109.75 23.25 108.75
L 23.25 136.65
Q 32.05 135.65 46.6 135.65
L 75.6 135.65 75.6 165.35 36 165.35
Q 18.3 165.35 7.2 164.1
L 7.2 192.95
Q 19.35 191.7 37.1 191.7
L 148 191.7
Q 162.4 191.7 175.8 192.95
L 175.8 164.1
Q 162.4 165.35 147 165.35
L 104.85 165.35 104.85 135.65 138.05 135.65
Q 150.8 135.65 158.9 136.65
L 158.9 108.75
Q 150.1 109.75 137.15 109.75
L 104.85 109.75 104.85 83.55 143 83.55 168.45 84.3
M 353.25 37.65
Q 346.3 38.55 333.9 38.55
L 315.6 38.55 323.55 27.7 295 22.9
Q 292.15 30.5 287.1 38.55
L 264.25 38.55
Q 259.55 31.1 253 23.1
L 227.55 27.85 235.9 38.55 217.45 38.55
Q 205.25 38.55 198.1 37.65
L 198.1 57.55 217.45 56.85 259.3 56.85 259.3 61.8 228 61.8 209 61.25 209 78.15 228 77.6 259.3 77.6 259.3 82.85 209.35 82.85
Q 196.5 82.85 189.85 81.85
L 189.85 101.8
Q 196.7 101 209.35 101
L 256.15 101
Q 237.25 105.6 195 106.4 199.45 112.9 202.7 120.35
L 226.65 118.9 226.65 123.5 208.85 123.5
Q 196.95 123.5 189.85 122.6
L 189.85 143.2
Q 197.15 142.1 208.85 142.1
L 226.65 142.1 226.65 149.5 199.75 150.05 191.1 149.85 195 170.65 199.75 169.9 226.65 168.3 226.65 172.7
Q 226.65 175.05 225.55 175.6 224.5 176.2 220 176.2
L 201.65 175.3
Q 206.6 186.2 208.65 197
L 224.65 197.2
Q 241.85 197.2 247.35 192.95 252.65 188.65 252.65 177.65
L 252.65 166.25 276.95 163.35 277.1 145.65 252.65 148.25 252.65 141.95 281.6 141.95
Q 284.95 152.65 291.7 163.7 275.7 170.65 256.5 173.8 263.7 183.5 268.65 195.4 290.05 188.55 305.2 180.65 322.9 197 340.55 197 350.1 197 355.75 190.45 361.3 183.8 365.75 167.25 357.2 162.35 347.2 153 344.85 164.15 342.9 168.1 341 172 337.95 172 334.4 172 327.4 166.6 338.3 158.6 341.25 155
L 344.75 151.5 330.75 141.6 341.6 141.6
Q 356.2 141.6 361.15 142.5
L 361.15 121.9
Q 354.75 122.95 341.6 122.95
L 334.95 122.95 348.65 114.15
Q 339.35 106.5 329.85 101
L 341.8 101
Q 354.05 101 361.15 102
L 361.15 81.85
Q 354.5 82.85 341.8 82.85
L 288 82.85 288 77.6 322.65 77.6 341.6 78.15 341.6 61.25
Q 336.5 61.8 322.65 61.8
L 288 61.8 288 56.85 333.9 56.85
Q 344.85 56.85 353.25 57.55
L 353.25 37.65
M 303.85 123.15
L 302.2 109.3 302.75 104.5 274.8 104.5 277.3 123.3 252.65 123.3 252.65 116.3 273.45 113 260.2 101 318.75 101 305 109.1
Q 315.55 116.05 323.8 123.15
L 303.85 123.15
M 313.8 151.75
L 309.25 141.75 325.25 141.75
Q 321.85 146.1 313.8 151.75
M -205.55 88.7
L -205.55 66.2
Q -212.5 66.9 -226.95 66.9
L -263.85 66.9 -263.85 59.8 -219.6 59.8
Q -204.45 59.8 -198.15 60.7
L -198.15 35.45
Q -207.1 36.6 -221.5 36.6
L -263.85 36.6
Q -263.6 28.95 -262.7 24.2
L -293.25 24.2
Q -292.35 29.05 -292.2 36.6
L -332.15 36.6
Q -346.1 36.6 -355.15 35.45
L -355.15 60.7
Q -348.95 59.8 -333.85 59.8
L -292.2 59.8 -292.2 66.9 -326.45 66.9
Q -340.5 66.9 -347.8 66.2
L -347.8 88.7
Q -339.5 87.95 -326.45 87.95
L -292.2 87.95 -292.2 95 -339.5 95
Q -354.25 95 -361.65 94.1
L -361.65 119.8
Q -352.3 118.75 -339.35 118.75
L -313.95 118.75
Q -335.45 134.85 -365.7 142.1 -357.4 153.35 -350.95 168.3 -330.6 160.1 -315.75 151.1
L -315.75 167.75 -339.5 169.4 -333.85 197.2 -324.95 195.75
Q -282.75 190.1 -252.4 183.05
L -252.4 162.2
Q -233.35 182.8 -203.05 195.55 -195.65 179.45 -187.4 168.65 -205.9 163.2 -220.3 153.75 -208.45 143.65 -202.85 137.7
L -198.45 133.15 -222.2 118.75 -214.65 118.75
Q -201.85 118.75 -192.5 119.8
L -192.5 94.1
Q -199.45 95 -214.65 95
L -263.85 95 -263.85 87.95 -226.95 87.95
Q -213.9 87.95 -205.55 88.7
M -277.25 120.35
Q -269.5 141.4 -256.1 157.95 -273.05 161.65 -288.3 164.1
L -288.3 131.25 -277.25 120.35
M -223.45 118.75
Q -228.05 125.55 -240 135.65 -245.85 127.9 -250.35 118.75
L -223.45 118.75
M -131.35 31.75
L -159.3 31.75
Q -169.65 31.75 -177.05 30.85
L -177.05 57.75 -158.6 57 -158.6 86.1 -174.95 85.35 -174.95 111.2 -158.6 110.45 -158.6 143.2
Q -173.05 147.45 -180.35 148.6
L -173.9 177.85 -166.5 175.3
Q -138.45 165.5 -113.05 153.2
L -113.6 127.2 -131.35 134.4 -131.35 110.45 -116.2 111 -116.2 85.55 -131.35 86.1 -131.35 57 -113.6 57.75 -113.6 30.85
Q -121 31.75 -131.35 31.75
M -15.25 46.5
Q -15.25 34.7 -14.55 28.05 -21.4 28.85 -32.35 28.85
L -91.95 28.85
Q -103.6 28.85 -109.75 28.05
L -109.4 46.5 -109.4 117.85 -109.75 136.45 -96.35 135.85
Q -97.6 150.75 -105.15 158.5 -115.6 169.45 -140.5 176.05 -130.95 187 -125.65 199.6 -83.85 185.95 -73.3 156 -70.6 147.95 -69.45 135.85
L -63.7 135.85 -63.7 180.65
Q -63.7 189.9 -58.65 192.8 -53.6 195.75 -37.6 195.75 -16.9 195.75 -11.6 190.25 -8.55 187 -7.1 180.65 -5.65 174.05 -4.4 157.95 -15.8 154.9 -27.25 148.05 -27.5 167.25 -28.85 169.4 -29.6 170.65 -32.9 170.65 -36.8 170.65 -36.8 168.3
L -36.8 135.85 -26.9 135.65 -20.05 136.2
Q -16.55 136.2 -14.35 136.45 -15.25 127.45 -15.25 115.75
L -15.25 46.5
M -42.35 78.8
L -42.35 86.55 -82.5 86.55 -82.5 78.8 -42.35 78.8
M -42.35 51.6
L -42.35 59.65 -82.5 59.65 -82.5 51.6 -42.35 51.6
M -82.5 113.45
L -82.5 105.7 -42.35 105.7 -42.35 113.45 -82.5 113.45
M -181.6 -161.75
Q -175.95 -152.2 -170.55 -137.55
L -161 -142.75 -161 -131.9 -161.75 -114.5 -145.55 -115.25 -127.45 -115.25
Q -150.5 -107.5 -177.05 -104.6 -170.1 -95.15 -166.7 -85.8 -140.25 -90.65 -114.4 -102
L -111.45 -97.95
Q -125.2 -91.4 -143.5 -85.8 -156.6 -81.65 -177.75 -77.9 -171.3 -69.45 -167.05 -58.9 -131.25 -67.1 -103.55 -82.5
L -101.65 -77.7
Q -136.35 -58.35 -180.35 -48.95 -172.15 -39.5 -166.7 -26.6 -145.35 -32.9 -123.6 -43.1 -119.9 -34.6 -118.45 -24.45
L -103 -23.75
Q -85.9 -23.75 -78.6 -30.85 -71.4 -37.85 -71.4 -54.7 -71.4 -88.7 -92.1 -113.6
L -89.5 -115.25 -82.3 -115.25
Q -73.2 -83.1 -58 -61.95 -42.8 -40.9 -19.15 -27.45 -12.4 -43.1 -3.5 -54.85 -23.55 -62.15 -38.65 -78.6 -28.5 -85.45 -18.6 -94.25
L -14.75 -97.4 -36.4 -115.25 -19.15 -114.85
Q -19.85 -122.25 -19.85 -131.9
L -19.85 -147.35
Q -19.85 -156.35 -19.15 -164.45 -25.8 -163.7 -37.6 -163.7
L -60 -163.7 -43.6 -178.85 -57.85 -191.5
Q -64.15 -190.8 -76.25 -190.8
L -102.45 -190.8 -97.75 -196.75 -129.9 -199.6
Q -135 -192.15 -144 -184.5 -158.95 -171.75 -181.6 -161.75
M -77.7 -143.1
L -47.65 -143.1 -47.65 -135.55 -77.7 -135.55 -77.7 -143.1
M -52.7 -100.75
Q -55.5 -107.4 -57.3 -115.25
L -37.75 -115.25
Q -41.45 -110.1 -52.7 -100.75
M -84.9 -170.75
L -92.1 -163.7 -130.6 -163.7 -122.15 -170.75 -84.9 -170.75
M -133.6 -135.55
L -133.6 -143.1 -104.6 -143.1 -104.6 -135.55 -133.6 -135.55
M -100.1 -48.4
Q -101.8 -46.6 -107.75 -46.6
L -115.5 -46.95 -98.15 -56.5
Q -98.4 -50.1 -100.1 -48.4
M -235.05 -164.45
L -235.05 -177.2
Q -235.05 -187.55 -234 -196.75
L -263.05 -196.75
Q -261.95 -188.75 -261.95 -178.3
L -261.95 -164.45 -283.35 -164.45 -300.65 -165.15 -299.95 -145.65 -299.95 -47.3
Q -299.95 -33.7 -300.85 -24.3
L -273.95 -24.3 -273.95 -33.8 -222.55 -33.8 -222.55 -24.1 -194.3 -24.1
Q -195.5 -36.5 -195.5 -49.65
L -195.5 -144.4
Q -195.5 -157.5 -194.6 -165.35 -204.4 -164.45 -213.1 -164.45
L -235.05 -164.45
M -235.05 -112.35
L -235.05 -138.25 -222.55 -138.25 -222.55 -112.35 -235.05 -112.35
M -261.95 -138.25
L -261.95 -112.35 -273.95 -112.35 -273.95 -138.25 -261.95 -138.25
M -261.95 -86.9
L -261.95 -60.15 -273.95 -60.15 -273.95 -86.9 -261.95 -86.9
M -235.05 -60.15
L -235.05 -86.9 -222.55 -86.9 -222.55 -60.15 -235.05 -60.15
M -349.15 -165.8
Q -356.6 -165.8 -362.55 -166.7
L -362.55 -139.05 -349.5 -139.8 -341.75 -139.8 -341.75 -112.9
Q -357.15 -109.75 -364.45 -109.75
L -360 -81.2 -341.75 -85.65 -341.75 -55.4
Q -341.75 -50.65 -347.05 -50.65
L -364.6 -51.9
Q -359.65 -39.65 -358.65 -25.2
L -346.35 -24.8
Q -328 -24.8 -321.25 -29.5 -314.5 -34.15 -314.5 -46.75
L -314.5 -93 -304.35 -96.05 -304.5 -121.15 -314.5 -118.55 -314.5 -139.8 -304.5 -139.45 -304.5 -166.35 -314.5 -165.8 -314.5 -178.3
Q -314.5 -190.15 -313.6 -197.1
L -342.65 -197.1
Q -341.75 -189.9 -341.75 -178.1
L -341.75 -165.8 -349.15 -165.8 Z"/>
</g>
</defs>

<g transform="matrix( 1, 0, 0, 1, 0,0) ">
<use xlink:href="#Layer0_0_FILL"/>
</g>
</svg>
