
<svg xmlns="http://www.w3.org/2000/svg" version="1.1" xmlns:xlink="http://www.w3.org/1999/xlink" preserveAspectRatio="none" x="0px" y="0px" width="1920px" height="1080px" viewBox="0 0 1920 1080">
<defs>
<g id="Layer0_0_FILL">
<path fill="#231F20" stroke="none" d="
M -103.15 -86.4
Q -102.05 -79.05 -102.05 -66.55
L -102.05 -32.05 -130.2 -32.05 -130.2 -57.55
Q -130.2 -68.05 -129.5 -73.2
L -159.55 -73.2 -158.65 -55.3 -158.65 -19.05 -159.35 -4.8 -144.25 -5.55 -102.05 -5.55 -102.05 49.15 -136.35 49.15 -136.35 22.8 -135.6 6.8 -165.65 6.8
Q -164.7 14.15 -164.7 25.95
L -164.7 63.4
Q -164.7 75.45 -165.85 84.5
L -136.35 84.5 -136.35 76.6 -36.1 76.6 -36.1 84.5 -6.6 84.5
Q -7.75 76.5 -7.75 63.4
L -7.75 25.6
Q -7.75 15.15 -6.8 6.6
L -36.85 6.6
Q -36.1 13 -36.1 22.45
L -36.1 49.15 -72.8 49.15 -72.8 -5.55 -27.5 -5.55
Q -18.55 -5.55 -12.9 -4.8 -13.6 -9.5 -13.6 -19.05
L -13.6 -55.45
Q -13.6 -65.8 -12.7 -73.2
L -42.75 -73.2 -41.95 -57.7 -41.95 -32.05 -72.8 -32.05 -72.8 -66.55
Q -72.8 -79.4 -71.65 -86.4
L -103.15 -86.4
M -253.2 -32.6
L -245 -33.05 -220.9 -32.9
Q -220.2 -32.9 -219.65 -32.6
L -219.65 -42.8
Q -222.35 -42.4 -227.75 -42.4
L -245 -42.4 -253.2 -42.8 -253.2 -32.6
M -313.05 -29
L -320.95 -29.35 -320.95 -19.05 -298.25 -19.4 -290.2 -19.05 -290.2 -29.35 -313.05 -29
M -298.1 -33.05
L -290 -32.6 -290 -42.8 -298.1 -42.4 -312.85 -42.4 -320.75 -42.8 -320.75 -32.6 -312.85 -33.05 -298.1 -33.05
M -331.1 -15.15
L -347.85 -15.9 -347.3 -4.8 -347.3 15.6 -347.85 26.15 -320.6 25.6 -320.6 59.5 -326.35 60.05 -326.35 44.4 -325.7 31.1 -349.4 31.1
Q -348.4 37.55 -348.4 44.4
L -348.4 61.5 -357.45 61.3 -354.85 86.4 -276.75 75.55 -276.75 55.2 -296.1 57.25 -296.1 49.35 -277.5 49.7 -277.5 32.35
Q -274.8 38.1 -273.1 45.1
L -271.2 44.75 -271.2 75.15
Q -271.2 82.2 -272.1 86.15
L -245.2 86.15 -245.2 80.65 -220.55 80.65 -220.55 86.15 -193.45 86.15
Q -194.35 78.85 -194.35 70.85
L -194.35 42.7 -188.15 44.2
Q -185.35 30.45 -181.15 20.9 -191.3 20.55 -208.75 17.5 -198.75 9.2 -194.35 3.8
L -187.7 -3.55 -198.75 -15
Q -204 -14.25 -212.8 -14.25
L -233.05 -14.25 -229.9 -19.4 -219.65 -19.2 -219.65 -29.35
Q -222.35 -29 -227.9 -29
L -252.2 -29.2 -253.2 -29.35 -253.2 -22 -254.45 -22.2
Q -262.85 -8.85 -277.85 -0.95
L -277.85 -4.8
Q -277.85 -12.2 -277.3 -15.7
L -294.95 -15.15 -331.1 -15.15
M -221.1 2.2
Q -225.4 6.25 -232.15 10.5 -240.9 6.45 -246.2 2.2
L -221.1 2.2
M -231.25 31.8
Q -223.35 35.4 -210.2 39
L -248 39
Q -240.15 36.55 -231.25 31.8
M -220.55 55.85
L -220.55 62.95 -245.2 62.95 -245.2 55.85 -220.55 55.85
M -281.9 25.8
L -278.4 31.1
Q -281.9 31.6 -291.1 31.6
L -296.1 31.6 -296.1 25.6 -281.9 25.8
M -252.2 19.65
Q -265.15 23.7 -277.5 25.25
L -277.85 7.7
Q -272.55 12.55 -268.4 17.85
L -260.5 12.8
Q -255.35 17.6 -252.2 19.65
M -303.65 1.4
L -303.65 9.75 -321.65 9.75 -321.65 1.4 -303.65 1.4
M -333.45 -62.3
L -353.25 -62.85 -352.45 -48.55 -352.45 -40.8
Q -352.45 -33.15 -353.6 -25.7
L -326.35 -25.7 -326.35 -46.45 -284.85 -46.45 -284.85 -34.7
Q -284.85 -26.15 -285.75 -18.5
L -257.95 -18.5
Q -258.5 -23.95 -258.5 -34.7
L -258.5 -46.45 -214.45 -46.45 -214.45 -25.5 -187.35 -25.5
Q -188.35 -31.25 -188.35 -40.8
L -188.35 -48.55
Q -188.35 -58.95 -187.55 -62.85
L -207.5 -62.3 -258.5 -62.3 -258.5 -66.55 -218.9 -66.55 -198.95 -66 -198.95 -85.7
Q -207.5 -84.8 -222.15 -84.8
L -318.6 -84.8
Q -333.25 -84.8 -341.65 -85.7
L -341.65 -66 -321.65 -66.55 -284.85 -66.55 -284.85 -62.3 -333.45 -62.3
M 224.6 -47
L 236.75 -47.9
Q 270.05 -49.6 279.85 -50.7 262.55 -33.6 238.35 -14.8 213.8 4.2 201.2 10.1
L 218.3 38.1
Q 227.5 29.8 236.05 24.25 261.85 7.35 292.8 7.35 308.1 7.35 316.9 12.9 325.75 18.5 325.75 28.1 325.75 41.8 311.25 48.25 307.4 38.8 302.7 33.7 290.3 19.5 269.75 19.5 253.75 19.5 243.4 27.85 233.05 36.1 233.05 49 233.05 64.3 246.45 73 259.8 81.75 283.15 81.75 311.95 81.75 332.05 70.15 357.5 55.1 357.5 26.85 357.5 7.05 344 -5 329.6 -17.6 304.6 -17.6 292.6 -17.6 279.3 -14.25 292.1 -23.6 304.75 -34.3 329.6 -55.65 334.45 -58.45
L 319.35 -80.75
Q 314.65 -78.75 305.3 -78.15 277.4 -75.95 249.9 -75.95 234.15 -75.95 223.35 -77.25
L 224.6 -47
M 261.85 49
Q 261.85 42.85 269.05 42.85 280.05 42.85 283.7 56.55
L 277.7 57.1
Q 261.85 57.1 261.85 49
M 26.85 -63.65
L 15.7 -64.2 16.6 -32.6
Q 37.65 -35.65 98.9 -37.45
L 99.1 -27.3
Q 93.35 -29.35 84.8 -29.35 65.75 -29.35 53.85 -19.55 42 -9.75 42 6.05 42 20.85 52.25 30.25 62.5 39.7 78.5 39.7 92.8 39.7 103.15 31.1 99.1 40 89.55 45.65 77.8 53.05 51.6 56.9 62.3 68.8 69.05 85.95 93.55 78.75 106.1 71.1 136.55 52.05 136.55 20 136.55 2.75 129.15 -10.75
L 129.15 -38 147.6 -38.2
Q 170.35 -38.2 180.8 -37.3
L 180.5 -67.5
Q 170.2 -66.45 128.95 -66.15 128.95 -76.85 129.85 -84.95
L 97.3 -84.95
Q 98.4 -78.65 98.55 -65.45
L 26.85 -63.65
M 86.95 -6.15
Q 92.45 -6.15 95.8 -3.45 99.1 -0.85 99.1 3.45 99.1 8.15 95.05 11.3 91.1 14.55 85.15 14.55 79.85 14.55 76.45 11.65 72.9 8.85 72.9 4.55 72.9 -0.15 76.9 -3.1 80.85 -6.15 86.95 -6.15 Z"/>
</g>
</defs>

<g transform="matrix( 1, 0, 0, 1, 0,0) ">
<use xlink:href="#Layer0_0_FILL"/>
</g>
</svg>
