
<svg xmlns="http://www.w3.org/2000/svg" version="1.1" xmlns:xlink="http://www.w3.org/1999/xlink" preserveAspectRatio="none" x="0px" y="0px" width="1920px" height="1080px" viewBox="0 0 1920 1080">
<defs>
<g id="Layer0_0_FILL">
<path fill="#231F20" stroke="none" d="
M -119.5 -64.95
L -160.6 -64.95 -160.6 93.15 -94.5 93.15 -94.5 61.5 -119.5 61.5 -119.5 -64.95
M -202.6 -3.35
L -202.6 -33.3 -175.15 -33.3 -175.15 -64.95 -243.7 -64.95 -243.7 93.15 -172.4 93.15 -172.4 61.5 -202.6 61.5 -202.6 26.75 -176.9 26.75 -176.9 -3.35 -202.6 -3.35
M 239.2 -3.35
L 213.5 -3.35 213.5 -33.3 240.95 -33.3 240.95 -64.95 172.4 -64.95 172.4 93.15 243.7 93.15 243.7 61.5 213.5 61.5 213.5 26.75 239.2 26.75 239.2 -3.35
M 206.95 -69.95
L 239.1 -96.4 204.35 -96.4 187.15 -69.95 206.95 -69.95
M 114.8 -8.4
L 102.5 -8.4 102.5 -64.95 61.4 -64.95 61.4 93.15 102.5 93.15 102.5 26.75 114.8 26.75 114.8 93.15 155.95 93.15 155.95 -64.95 114.8 -64.95 114.8 -8.4
M 4.3 -38.6
Q 5.6 -35.55 5.6 -23.55
L 5.6 3.9 46.7 3.9 46.7 -11.15
Q 46.7 -33.2 43 -43.75 39.3 -54.2 27.45 -61.25 15.65 -68.3 -2.5 -68.3 -15.9 -68.3 -26.15 -63.7 -36.5 -59.2 -42.25 -51.3 -48.1 -43.35 -49.3 -34.8 -50.45 -26.3 -50.45 -9.2
L -50.45 37
Q -50.45 60.25 -46.65 71.85 -42.85 83.4 -31.15 89.95 -19.4 96.45 -1.35 96.45 16.05 96.45 27.95 88.75 39.75 81.05 43.3 70.8 46.7 60.45 46.7 35.9
L 46.7 29.75 5.6 29.75 5.6 49.7
Q 5.6 62.7 4.2 66.2 2.75 69.7 -1.85 69.7 -6.6 69.7 -8 66.2 -9.35 62.7 -9.35 51.15
L -9.35 -22.3
Q -9.35 -34.3 -8 -37.9 -6.6 -41.5 -1.55 -41.5 2.95 -41.5 4.3 -38.6 Z"/>
</g>
</defs>

<g transform="matrix( 1, 0, 0, 1, 0,0) ">
<use xlink:href="#Layer0_0_FILL"/>
</g>
</svg>
