
<svg xmlns="http://www.w3.org/2000/svg" version="1.1" xmlns:xlink="http://www.w3.org/1999/xlink" preserveAspectRatio="none" x="0px" y="0px" width="1920px" height="1080px" viewBox="0 0 1920 1080">
<defs>
<g id="Layer0_0_MEMBER_0_MEMBER_0_FILL">
<path fill="#231F20" stroke="none" d="
M 976.15 5092.05
L 976.15 5094.95 970.3 5094.95 970.3 5097.9 961.45 5097.9 961.45 5094.95 952.65 5094.95 952.65 5100.85 949.7 5100.85 949.7 5097.9 940.9 5097.9 940.9 5100.85 935 5100.85 935 5103.8 932.1 5103.8 932.1 5115.55 929.15 5115.55 929.15 5118.5 923.25 5118.5 923.25 5121.4 920.3 5121.4 920.3 5127.3 917.4 5127.3 917.4 5130.25 914.45 5130.25 914.45 5136.1 911.5 5136.1 911.5 5147.85 908.55 5147.85 908.55 5156.7 905.65 5156.7 905.65 5171.4 902.7 5171.4 902.7 5186.05 896.8 5186.05 896.8 5189 893.85 5189 893.85 5191.95 888 5191.95 888 5194.9 879.2 5194.9 879.2 5197.8 873.3 5197.8 873.3 5200.75 867.4 5200.75 867.4 5206.65 864.5 5206.65 864.5 5209.6 861.55 5209.6 861.55 5203.7 858.6 5203.7 858.6 5197.8 855.65 5197.8 855.65 5191.95 849.8 5191.95 849.8 5189 846.85 5189 846.85 5186.05 841 5186.05 841 5183.15 835.1 5183.15 835.1 5180.2 832.15 5180.2 832.15 5177.25 826.3 5177.25 826.3 5180.2 817.45 5180.2 817.45 5177.25 805.7 5177.25 805.7 5180.2 799.85 5180.2 799.85 5177.25 793.95 5177.25 793.95 5165.5 791 5165.5 791 5162.55 788.1 5162.55 788.1 5142 785.15 5142 785.15 5139.05 788.1 5139.05 788.1 5133.15 782.2 5133.15 782.2 5139.05 779.25 5139.05 779.25 5147.85 776.3 5147.85 776.3 5168.45 782.2 5168.45 782.2 5171.4 785.15 5171.4 785.15 5180.2 788.1 5180.2 788.1 5183.15 785.15 5183.15 785.15 5189 788.1 5189 788.1 5191.95 793.95 5191.95 793.95 5189 802.75 5189 802.75 5194.9 805.7 5194.9 805.7 5197.8 826.3 5197.8 826.3 5200.75 814.55 5200.75 814.55 5203.7 811.6 5203.7 811.6 5221.35 817.45 5221.35 817.45 5218.4 820.4 5218.4 820.4 5215.45 829.2 5215.45 829.2 5203.7 832.15 5203.7 832.15 5218.4 823.35 5218.4 823.35 5221.35 820.4 5221.35 820.4 5230.15 823.35 5230.15 823.35 5233.1 826.3 5233.1 826.3 5236.05 823.35 5236.05 823.35 5241.9 820.4 5241.9 820.4 5262.5 817.45 5262.5 817.45 5271.3 814.55 5271.3 814.55 5286 817.45 5286 817.45 5283.05 820.4 5283.05 820.4 5280.1 823.35 5280.1 823.35 5288.95 826.3 5288.95 826.3 5286 832.15 5286 832.15 5283.05 838.05 5283.05 838.05 5286 835.1 5286 835.1 5288.95 838.05 5288.95 838.05 5291.85 843.9 5291.85 843.9 5294.8 838.05 5294.8 838.05 5300.7 841 5300.7 841 5303.6 838.05 5303.6 838.05 5309.5 843.9 5309.5 843.9 5306.55 849.8 5306.55 849.8 5315.35 841 5315.35 841 5324.2 843.9 5324.2 843.9 5327.15 846.85 5327.15 846.85 5333 864.5 5333 864.5 5330.05 870.35 5330.05 870.35 5347.7 879.2 5347.7 879.2 5350.65 888 5350.65 888 5353.6 902.7 5353.6 902.7 5350.65 905.65 5350.65 905.65 5347.7 914.45 5347.7 914.45 5353.6 917.4 5353.6 917.4 5356.5 926.2 5356.5 926.2 5344.75 929.15 5344.75 929.15 5341.8 926.2 5341.8 926.2 5333 923.25 5333 923.25 5324.2 932.1 5324.2 932.1 5321.25 935 5321.25 935 5315.35 937.95 5315.35 937.95 5309.5 940.9 5309.5 940.9 5294.8 943.85 5294.8 943.85 5291.85 946.75 5291.85 946.75 5294.8 949.7 5294.8 949.7 5300.7 955.6 5300.7 955.6 5303.6 958.55 5303.6 958.55 5306.55 961.45 5306.55 961.45 5309.5 964.4 5309.5 964.4 5312.45 973.2 5312.45 973.2 5318.3 976.15 5318.3 976.15 5321.25 982.05 5321.25 982.05 5324.2 985 5324.2 985 5333 987.9 5333 987.9 5338.9 990.85 5338.9 990.85 5344.75 987.9 5344.75 987.9 5356.5 990.85 5356.5 990.85 5362.4 993.8 5362.4 993.8 5365.35 996.75 5365.35 996.75 5377.1 990.85 5377.1 990.85 5380.05 993.8 5380.05 993.8 5388.85 990.85 5388.85 990.85 5391.8 987.9 5391.8 987.9 5394.7 985 5394.7 985 5406.5 987.9 5406.5 987.9 5409.4 993.8 5409.4 993.8 5412.35 1011.4 5412.35 1011.4 5415.3 1049.65 5415.3 1049.65 5412.35 1055.5 5412.35 1055.5 5409.4 1079 5409.4 1079 5406.5 1084.9 5406.5 1084.9 5403.55 1090.75 5403.55 1090.75 5400.6 1096.65 5400.6 1096.65 5397.65 1102.55 5397.65 1102.55 5394.7 1105.45 5394.7 1105.45 5391.8 1108.4 5391.8 1108.4 5388.85 1111.35 5388.85 1111.35 5374.15 1120.15 5374.15 1120.15 5368.25 1123.1 5368.25 1123.1 5362.4 1126.05 5362.4 1126.05 5359.45 1129 5359.45 1129 5347.7 1131.9 5347.7 1131.9 5344.75 1137.8 5344.75 1137.8 5341.8 1140.75 5341.8 1140.75 5338.9 1143.65 5338.9 1143.65 5335.95 1146.6 5335.95 1146.6 5324.2 1143.65 5324.2 1143.65 5318.3 1146.6 5318.3 1146.6 5315.35 1149.55 5315.35 1149.55 5312.45 1152.5 5312.45 1152.5 5309.5 1155.4 5309.5 1155.4 5244.85 1152.5 5244.85 1152.5 5236.05 1149.55 5236.05 1149.55 5230.15 1143.65 5230.15 1143.65 5224.25 1140.75 5224.25 1140.75 5221.35 1137.8 5221.35 1137.8 5218.4 1131.9 5218.4 1131.9 5215.45 1129 5215.45 1129 5212.5 1126.05 5212.5 1126.05 5206.65 1123.1 5206.65 1123.1 5203.7 1120.15 5203.7 1120.15 5200.75 1129 5200.75 1129 5197.8 1131.9 5197.8 1131.9 5194.9 1134.85 5194.9 1134.85 5189 1131.9 5189 1131.9 5174.3 1129 5174.3 1129 5171.4 1126.05 5171.4 1126.05 5156.7 1123.1 5156.7 1123.1 5153.75 1126.05 5153.75 1126.05 5142 1123.1 5142 1123.1 5136.1 1120.15 5136.1 1120.15 5133.15 1108.4 5133.15 1108.4 5136.1 1102.55 5136.1 1102.55 5130.25 1096.65 5130.25 1096.65 5127.3 1090.75 5127.3 1090.75 5124.35 1087.85 5124.35 1087.85 5121.4 1073.15 5121.4 1073.15 5124.35 1067.25 5124.35 1067.25 5121.4 1064.3 5121.4 1064.3 5112.6 1061.4 5112.6 1061.4 5109.65 1055.5 5109.65 1055.5 5112.6 1046.7 5112.6 1046.7 5109.65 1034.95 5109.65 1034.95 5106.7 1023.2 5106.7 1023.2 5103.8 1017.3 5103.8 1017.3 5100.85 1011.4 5100.85 1011.4 5097.9 1005.55 5097.9 1005.55 5094.95 990.85 5094.95 990.85 5092.05 976.15 5092.05 Z"/>
</g>

<g id="Layer0_0_MEMBER_0_MEMBER_1_FILL">
<path fill="#231F20" stroke="none" d="
M 1236.45 5135.4
Q 1213.65 5081.6 1172.15 5040.05 1130.6 4998.55 1076.8 4975.75 1021.05 4952.2 960 4952.2 898.95 4952.2 843.2 4975.75 789.4 4998.55 747.85 5040.05 706.35 5081.6 683.55 5135.4 660 5191.15 660 5252.2 660 5313.25 683.55 5369 706.35 5422.8 747.85 5464.35 789.4 5505.85 843.2 5528.65 898.95 5552.2 960 5552.2 1021.05 5552.2 1076.8 5528.65 1130.6 5505.85 1172.15 5464.35 1213.65 5422.8 1236.45 5369 1260 5313.25 1260 5252.2 1260 5191.15 1236.45 5135.4
M 1163.45 5048.7
Q 1203.3 5088.55 1225.15 5140.2 1247.75 5193.65 1247.75 5252.2 1247.75 5310.75 1225.15 5364.2 1203.3 5415.85 1163.45 5455.65 1123.65 5495.5 1072 5517.35 1018.55 5539.95 960 5539.95 901.45 5539.95 848 5517.35 796.35 5495.5 756.5 5455.65 716.7 5415.85 694.85 5364.2 672.25 5310.75 672.25 5252.2 672.25 5193.65 694.85 5140.2 716.7 5088.55 756.5 5048.7 796.35 5008.9 848 4987.05 901.45 4964.45 960 4964.45 1018.55 4964.45 1072 4987.05 1123.65 5008.9 1163.45 5048.7 Z"/>
</g>
</defs>

<g transform="matrix( 1, 0, 0, 1, -960,-5252.2) ">
<use xlink:href="#Layer0_0_MEMBER_0_MEMBER_0_FILL"/>
</g>

<g transform="matrix( 1, 0, 0, 1, -960,-5252.2) ">
<use xlink:href="#Layer0_0_MEMBER_0_MEMBER_1_FILL"/>
</g>
</svg>
