
<svg xmlns="http://www.w3.org/2000/svg" version="1.1" xmlns:xlink="http://www.w3.org/1999/xlink" preserveAspectRatio="none" x="0px" y="0px" width="1920px" height="1080px" viewBox="0 0 1920 1080">
<defs>
<g id="Layer0_0_MEMBER_0_MEMBER_0_MEMBER_0_MEMBER_0_FILL">
<path fill="#231F20" stroke="none" d="
M 969.65 3902.6
Q 971.65 3903.3 971.7 3903.3
L 973.4 3904.65
Q 974.1 3904.65 974.8 3905
L 975.15 3905 975.15 3906.75 975.85 3909.15
Q 975.85 3910.15 976.5 3911.2
L 976.5 3913.95
Q 976.5 3915 974.8 3915 974.1 3915 974.1 3914.3 973.4 3913.6 973.05 3913.6
L 972.05 3913.6
Q 971.4 3912.95 970.65 3912.95 970.05 3912.95 969.55 3912.8 969.05 3912.6 968.95 3912.6 968.95 3912.4 968.45 3912.2 967.65 3911.85 967.2 3911.55 966.9 3911.55 966.2 3911.4 965.5 3911.2 965.15 3911.2
L 963.1 3911.2
Q 962.05 3911.2 961 3911.55 959.3 3911.55 958.6 3911.9 956.1 3913.25 955.15 3913.6 954.6 3914.35 953.7 3915.25 952.9 3916.05 952.75 3916.35
L 952.75 3918.45
Q 952.75 3920.5 952.4 3921.2
L 952.1 3923.25
Q 951.75 3923.95 951.75 3925 951.75 3926 953.45 3928.75
L 954.5 3929.45
Q 952.4 3928.75 952.1 3928.4 951.05 3928.4 950 3928.05 948.5 3927.6 947.95 3928.05
L 945.55 3928.05
Q 944.7 3927.85 943.85 3927.8
L 943.15 3927.75
Q 941.65 3928.4 939.7 3928.4
L 937.25 3928.75
Q 936.9 3928.75 935.8 3929.05 934.35 3929.45 932.8 3930.15
L 925.25 3931.85
Q 924.9 3931.85 924.2 3932.2
L 923.5 3932.2 921.45 3932.55
Q 920.05 3933.6 919.7 3933.6
L 918.7 3934.25
Q 918.6 3934.35 918.2 3934.6 918 3934.75 918 3934.95 917.9 3935.05 917.5 3935.3 917.3 3935.45 917.3 3935.65
L 917.3 3937 916.25 3937.7
Q 915.6 3938.4 915.6 3939.1 915.25 3939.1 914.55 3939.8
L 913.85 3940.8
Q 912.55 3942.9 912.15 3942.9 912.15 3943.55 911.8 3943.9 911.45 3944.6 911.1 3944.95 911.1 3946.3 911.8 3948.75
L 914.55 3948.4
Q 915.7 3949.1 916.25 3949.75
L 916.3 3949.95
Q 916.4 3950.25 916.6 3950.45 916.6 3951.5 916.95 3951.85 917.55 3952.35 916.6 3952.85 916.25 3953.55 916.25 3953.9 916.25 3954.15 916.05 3954.4 915.85 3954.6 915.6 3954.6 915 3954.85 914.8 3954.9 914.55 3955.05 914.55 3955.25 914.55 3955.6 915.25 3956.3 915.95 3957 915.95 3957.35
L 916.25 3958
Q 916.6 3958.35 917.3 3958.35 917.5 3958.45 918.15 3958.7 918.5 3958.85 918.7 3959.05 919 3959.05 920.05 3960.1 920.75 3960.8 921.45 3960.8 921.85 3960.6 922.3 3960.65 923.05 3960.8 923.15 3960.8 923.15 3961.1 923.85 3961.8 924.2 3961.8 924.9 3962.5
L 925.1 3962.95
Q 925.25 3963.45 925.25 3963.9 925.55 3964.2 925.55 3965.25
L 924.9 3966.3
Q 924.55 3966.65 924.2 3966.65
L 923.15 3966.65
Q 922.7 3966.45 922.45 3966.05 922.15 3965.45 921.8 3964.9 921.3 3963.5 920.05 3962.85 920.05 3962.6 920 3962.55 919.95 3962.5 919.7 3962.5 918 3962.5 917.3 3963.2 917.3 3962.5 915.6 3962.5 915 3962.5 914.7 3962.35 914.2 3962.15 913.5 3961.45 911.8 3960.1 911.45 3960.1 910.4 3959.75 909.75 3959.75 908.7 3959.05 907.65 3959.05 906.3 3959.05 904.55 3959.75
L 901.15 3959.75
Q 900.8 3959.75 899.4 3959.05
L 898.35 3959.05
Q 897.35 3959.05 895.95 3959.75 893.9 3960.45 893.9 3960.8 893.7 3960.8 893.35 3961.15 892.85 3961.65 892.5 3961.8 891.5 3962.5 890.45 3963.2 890.2 3963.2 889.95 3963.4 889.75 3963.65 889.75 3963.9 889.75 3964.55 889.45 3964.9 889.25 3964.9 888.85 3965.4 888.05 3966.3 887.7 3966.65
L 886.35 3968.7 886 3968.7
Q 885.8 3969.1 885.45 3969.4 884.7 3969.95 884.6 3970.05
L 883.25 3970.4
Q 883.1 3970.55 882.85 3970.95 882.6 3971.4 882.2 3971.8
L 881.15 3972.8
Q 881.15 3973.5 880.45 3973.85 880.15 3974.55 880.15 3974.9 880.15 3975.1 878.4 3978
L 877.05 3981.1
Q 876.9 3981.25 875.75 3982.25 875.15 3982.75 874.95 3983.15 874.8 3983.15 874.6 3983.2 874.15 3983.3 873.95 3983.5
L 871.85 3983.85
Q 870.75 3984.25 869.45 3985.55
L 868.1 3987.3
Q 866.55 3988.75 865 3990.75
L 863.25 3992.8
Q 863.1 3992.8 862.9 3993.15 862.75 3993.5 862.55 3993.5 862.25 3994.15 861.9 3994.5
L 861.2 3995.9
Q 860.75 3996.35 860.55 3996.75 860.4 3997 860.15 3997.6 859.8 3997.95 859.5 3999.35 859.05 3999.75 858.85 4000.2 858.7 4000.45 858.45 4001.05 858.45 4001.4 857.75 4002.1 857.75 4002.7 856.4 4003.45
L 855.2 4004.5
Q 853.95 4005.55 852.95 4006.55 852.75 4006.75 852.6 4007.1 852.35 4007.8 852.25 4007.95 851.9 4008.3 851.9 4008.65 851.5 4008.85 851.25 4009.3 850.95 4009.9 850.85 4010
L 850.85 4012.05 849.15 4014.8 848.45 4016.9 848.45 4019.3
Q 849.5 4023.95 849.5 4025.15 849.95 4026.05 849.5 4026.85
L 849.15 4027.2 849.15 4027.9
Q 849.15 4028.35 848.95 4028.75 848.8 4029.05 848.45 4029.6 848.1 4029.95 848.1 4031.35
L 849.5 4032.4
Q 848.9 4033.55 847.75 4034.1 847.15 4034.8 846.4 4034.8
L 845 4034.8 843.3 4035.8 841.55 4037.55
Q 838.25 4040.4 836.4 4041.35 834.95 4041.95 834.5 4042.1 833.75 4042.35 833.3 4042.35 833 4042.35 831.95 4043.4 830.9 4044.45 830.55 4044.45
L 827.45 4044.45
Q 826.45 4044.45 824.35 4043.4
L 824.35 4044.45
Q 823.65 4044.45 823.65 4045.1
L 824.35 4045.8
Q 824.35 4046.15 824 4046.15 823.65 4046.85 821.6 4046.85
L 820.9 4047.85
Q 818.55 4050.9 818.5 4050.95
L 817.8 4051.3 817.65 4051.5
Q 817.5 4051.8 817.5 4052
L 815.75 4052
Q 814.7 4052.35 813.35 4052.35
L 810.95 4052
Q 810.6 4052 809.55 4052.35 808.85 4052.7 807.85 4052.7
L 807.15 4052
Q 807.35 4052 807.3 4051.8 807.15 4051.4 807.15 4051.3
L 806.45 4051.3 805.45 4051.65
Q 805.25 4051.9 803.95 4051.75 802 4051.5 800.6 4051.3 800 4051.1 799.35 4051.15 798.75 4051.3 798.55 4051.3
L 798.9 4051.65 798.9 4052 798.85 4052.2
Q 798.75 4052.5 798.55 4052.7
L 798.55 4053.7
Q 798.55 4054.75 798.2 4055.1 797.15 4056.15 796.5 4057.15 795.8 4058.35 795.45 4058.6 795.15 4058.85 795.45 4058.2
L 791.3 4059.55 791.3 4065.75
Q 791.3 4066.2 791.1 4066.65 790.95 4066.9 790.65 4067.5
L 789.95 4068.2 786.85 4070.6
Q 786.85 4070.75 786.65 4071.05 786.35 4071.4 786.15 4071.95
L 784.45 4075.05
Q 784.1 4075.4 783.75 4076.1 783.3 4077.05 781.7 4077.8 782 4078.5 782 4079.2
L 781.7 4085.4
Q 781.7 4088.15 781.35 4088.5 781.35 4089.2 780.65 4089.85 780.4 4090.1 779.85 4090.5 779.6 4090.7 779.6 4090.9 778.9 4091.6 777.55 4092.3 776.85 4093.6 776.85 4094 777.05 4094 777 4094.3 776.85 4094.95 776.85 4095.4
L 776.5 4097.45 776.5 4099.85 774.45 4105.35
Q 774.45 4106.05 774.3 4107.85 774.25 4108.8 774.45 4108.8
L 775.5 4112.6
Q 775.8 4112.95 775.8 4114.65
L 776.15 4123.6
Q 776.15 4124.75 776.3 4127.7 776.35 4129.25 776.15 4129.45 776.15 4130 776.05 4130.1 776 4130.25 775.5 4130.5
L 771.35 4130.5
Q 770.9 4130.3 770.2 4130.35 769.5 4130.5 769.3 4130.5 768.8 4131.2 768 4132.15 767.45 4132.95 767.2 4133.6 766.85 4133.95 765.85 4135.65 765.85 4137.35 765.15 4138.05 764.45 4139.1 764.1 4139.8 763.95 4140 763.55 4140.5 763.05 4140.95 762.4 4141.15 762.75 4141.5 762.75 4142.2
L 762.5 4142.85
Q 762.15 4143.6 761.7 4144.25
L 755.15 4149.1
Q 754.85 4149.6 754.35 4150.35 754.05 4150.8 753.8 4150.8 753.45 4151.55 752.4 4152.5
L 752.4 4154.6
Q 752.4 4155.25 751.4 4155.25
L 750 4155.95
Q 749 4155.95 748.65 4156.65
L 747.25 4158.05 745.55 4160.45
Q 744.85 4161.75 744.85 4164.2 744.85 4166.65 744.5 4168.7 744.5 4176.6 744.85 4181.1 745 4181.25 745.2 4181.75 745.35 4182.1 745.55 4182.1 745.65 4182.2 745.9 4182.6 746.05 4182.8 746.2 4182.8 746.45 4182.8 746.7 4183.25 746.9 4183.7 746.9 4184.2 746.95 4184.3 747.25 4185 747.4 4185.35 747.6 4185.55 748.15 4186.1 747.6 4188.65 750 4188.3 752.05 4188.3 753.8 4188.3 755.15 4189 756.9 4189 758.25 4189.35 760.2 4189.35 761.7 4190.4 762.05 4190.6 762.4 4190.9 762.75 4191.25 763.1 4191.4
L 765.15 4192.45
Q 766.55 4193.15 766.85 4193.5
L 767.55 4194.5
Q 767.7 4194.65 768.3 4195.05 768.9 4195.5 769.3 4195.9 769.95 4196.55 769.95 4196.9
L 772.05 4199.35
Q 772.05 4199.6 773.4 4200.35
L 775.8 4201.75
Q 776.15 4201.75 777.2 4202.8
L 780.65 4204.85
Q 781.35 4205.2 782.35 4205.65 783.05 4206 783.05 4206.2 783.4 4206.55 784.1 4206.2
L 786.5 4205.85
Q 787.2 4205.55 788.9 4205.55 790.3 4205.55 790.65 4205.2
L 793.4 4205.2 793.65 4205.4
Q 794 4205.55 794.4 4205.55 795.1 4205.85 795.1 4206.2
L 795.45 4206.9 795.7 4207.1
Q 796.05 4207.25 796.5 4207.25 796.8 4207.6 797.5 4207.6 797.95 4207.85 798.4 4207.65 798.6 4207.55 799.6 4206.9 800 4206.5 800.55 4206.1
L 801.3 4205.55
Q 801.85 4205.55 801.9 4205.6 802 4205.65 802 4205.85
L 802.35 4206.55
Q 802.4 4206.6 802.8 4206.9 803 4207.05 803 4207.25 803.4 4207.45 803.65 4207.8
L 804.05 4208.3
Q 804.4 4208.3 805.1 4208.65 806.25 4209.65 806.8 4210 807.1 4210.15 808 4210.35 808.7 4210.5 808.85 4210.7 809.1 4210.95 809.75 4210.95 810.35 4210.95 810.6 4210.7 811.3 4210.3 812.55 4209.3 813.3 4208.65 813.7 4208.65
L 813.95 4208.8
Q 814.3 4208.95 814.7 4208.95 815.4 4209.65 816.1 4209.65 816.65 4209.9 816.85 4209.25 817.05 4208.6 816.8 4207.6
L 819.55 4203.45
Q 819.05 4208.5 818.5 4208.95 818.15 4210.35 818.15 4211.4 818.15 4212.05 818.5 4213.1
L 818.85 4214.5
Q 818.85 4214.75 819.05 4214.95 819.3 4215.15 819.55 4215.15 820.55 4215.5 821.25 4215.5 821.6 4215.5 823 4216.2
L 825.05 4216.9
Q 825.05 4217.25 826.45 4217.25 827.3 4217.25 827.5 4217.3 827.8 4217.35 827.8 4217.6
L 830.55 4220.35
Q 830.65 4220.45 831.05 4220.7 831.25 4220.85 831.25 4221
L 832.3 4220.7 833.3 4220.7
Q 833.65 4220.85 834.1 4221 834.35 4221.15 834.35 4221.35 834.35 4221.6 834.55 4221.85 834.8 4222.05 835.05 4222.05
L 836.05 4222.4 845.7 4222.4
Q 846.4 4222.4 846.75 4222.05 846.75 4221.6 846.95 4221.45
L 847.1 4221.35
Q 847.35 4221.35 847.55 4221.15 847.75 4220.95 847.75 4220.7
L 848.1 4219.3 849.15 4219.3 849.15 4222.75
Q 849.15 4223.2 848.65 4223.85 848.4 4224.15 847.1 4225.5
L 849.15 4226.2
Q 850.5 4226.2 851.9 4225.85 854.2 4227 854.65 4227.9 854.9 4228.45 855.2 4228.45 855.55 4228.45 856.05 4227.9
L 858.8 4225.5 862.25 4227.2 865 4226.85 865.65 4227.9 865 4228.25
Q 865 4228.95 864.65 4228.95
L 864.65 4229.3
Q 864.65 4229.55 864.55 4229.65 864.5 4229.75 863.95 4229.95
L 862.25 4230.3 859.8 4230.3
Q 859.6 4230.3 859.6 4230.5 859.6 4230.75 859.8 4231 860.15 4231.2 860.45 4231.5 860.7 4231.7 860.85 4231.7 861.3 4232.6 860.85 4234.45 859.5 4236.2 859.5 4236.5
L 859.55 4236.7
Q 859.6 4237 859.8 4237.2
L 859.85 4237.4
Q 859.95 4237.55 860.15 4237.55 860.15 4237.75 860.35 4238.1 860.5 4238.45 860.5 4238.6
L 861.55 4239.6
Q 861.9 4239.75 862.6 4240.5 863.4 4241.3 863.95 4241.65
L 865 4243.05
Q 865.4 4243.05 865.6 4243.25 865.75 4243.4 866 4243.75 866.35 4244.1 866.7 4245.45
L 868.45 4250.95 868.45 4255.45
Q 868.45 4255.85 869.1 4256.5
L 869.8 4257.15 869.85 4257.55
Q 869.95 4258 870.15 4258.2 870.15 4258.9 870.5 4258.9 870.85 4259.25 870.85 4259.6
L 871.5 4260.25 872.55 4260.6 872.9 4260.6
Q 874.3 4260.6 874.3 4261.3
L 874.95 4262.35
Q 875.3 4263.35 875.3 4263.7 875.3 4263.9 875.5 4264.25 875.9 4264.95 876 4265.1 876.15 4265.2 877.1 4265.85 877.5 4266.1 877.7 4266.1 877.7 4266.65 878.75 4267.15 879.45 4267.5 879.8 4267.85 879.85 4267.9 880.25 4268.2 880.45 4268.35 880.45 4268.55
L 881.85 4269.55
Q 882.1 4270.1 882.25 4270.15 882.4 4270.25 882.9 4270.25
L 883.55 4269.9
Q 883.55 4269.55 884.25 4269.55 884.45 4269.75 884.8 4269.7 885.5 4269.55 885.65 4269.55
L 886.35 4269.2
Q 887.7 4268.85 889.45 4268.85 889.6 4269.05 889.85 4269.2 889.95 4269.35 889.75 4269.55
L 889.45 4270.6
Q 888.95 4270.6 889.45 4271.65 889.9 4272.65 890.45 4272.65 891.25 4272.9 891.35 4272.9 891.5 4272.9 891.5 4272.65
L 890.8 4270.6
Q 891.5 4270.25 892.5 4269.2
L 892.85 4269.2
Q 893.65 4269.2 894.3 4269.4 894.95 4269.65 894.95 4269.9
L 897.7 4271.95
Q 899 4272.65 899.4 4272.65
L 900.8 4273.35
Q 901.15 4273.7 901.8 4273.7
L 902.85 4273.7 903.5 4274.15
Q 903.7 4274.25 903.9 4274.05
L 904.25 4273.7
Q 905.25 4273.7 905.25 4272.3 907.65 4271.7 907.65 4271.95 907.7 4271.95 911.1 4272.65
L 916.95 4275.4 918 4276.45
Q 918 4277.15 919.05 4277.15 919.2 4277.15 919.55 4277.35 919.85 4277.5 920.05 4277.5
L 922.45 4279.55 925.25 4279.55 925.25 4283.35
Q 925.25 4284.35 925.55 4285.05 925.9 4285.75 926.25 4286.1
L 926.95 4286.45
Q 926.95 4286.75 927.65 4287.45 928.3 4288.15 929 4288.5 929.7 4289.2 930.4 4289.2 931.25 4289.95 931.75 4290.2 931.95 4290.6 932.3 4290.85
L 932.8 4291.25
Q 933.85 4291.6 934.5 4292.3
L 934.5 4292.6
Q 935.05 4292.6 935.15 4292.65 935.3 4292.7 935.55 4292.95
L 936.95 4293.3
Q 936.95 4293.65 937.95 4293.65
L 940.05 4293.3
Q 940.7 4293.3 940.7 4294
L 940.7 4294.35 941.75 4294.35 941.4 4294
Q 941.75 4293.65 942.1 4293.65 942.6 4293.65 943.15 4295.7
L 942.8 4296.75
Q 943.3890625 4297.87890625 942.8 4298.45
L 943.15 4298.15
Q 943.6 4297.9 943.9 4298.05 944.15 4298.2 944.15 4298.5 944 4298.5 943.55 4298.85 943 4299.3 942.45 4299.5 942.8 4300.2 943.45 4300.2 943.8 4300.55 944.85 4300.55
L 945.9 4300.55 946.55 4301.55
Q 946.55 4302.6 947.25 4302.6
L 948.65 4302.6
Q 949.3 4302.95 950 4302.95
L 951.75 4302.95
Q 952.05 4303.1 952.35 4303.45 952.55 4303.65 952.75 4303.65 953.05 4303.65 954.15 4304.65
L 955.15 4305.35
Q 955.6 4305.35 956 4305.75 956.2 4305.95 956.55 4306.4 956.75 4306.4 956.9 4306.75 957.1 4307.1 957.25 4307.1 957.25 4307.4 956.95 4307.75 956.55 4308.2 955.85 4308.45 955.15 4309.15 955.15 4309.85
L 955.15 4310.2
Q 955.15 4310.45 955.2 4310.45 955.25 4310.5 955.5 4310.5
L 957.95 4310.5 958.6 4310.85 960.35 4310.85
Q 960.45 4310.85 960.95 4310.7 961.45 4310.5 962.05 4310.5
L 963.1 4309.85 965.5 4309.85
Q 965.8 4309.85 966.55 4310.5 967.05 4310.5 967.55 4311.55
L 967.9 4312.25
Q 968.25 4312.25 968.25 4313.3 968.95 4313.3 969.3 4313.6
L 970.3 4313.6
Q 970.65 4313.95 970.65 4312.95
L 970.3 4311.2
Q 970.65 4310.85 970.65 4310.2 970.65 4309.85 969.65 4309.85
L 968.95 4307.4 970.65 4307.1 975.85 4305.35
Q 978.85 4306.65 981 4308.1
L 981.35 4308.1
Q 982.7 4309.5 984.8 4310.2 985.2 4310.4 985.9 4310.1 987.15 4309.6 987.55 4309.5
L 995.45 4309.5
Q 996.15 4309.5 996.5 4309.15 997.5 4308.8 998.2 4308.8 998.8 4308.8 999 4308.9 999.25 4309 999.25 4309.5 999.6 4309.85 999.95 4310.5 999.95 4310.9 1000.6 4311.55 1000.6 4313.3 1000.25 4313.95 1002.6 4314.55 1003 4315 1003.35 4315 1007.5 4315.7 1009.5 4316.7 1010.25 4316.7
L 1011.3 4317.75 1011.95 4319.15
Q 1013 4320.15 1013 4320.85
L 1012.65 4322.55 1013 4324.65 1014.4 4325.35 1014.75 4321.2 1017.15 4320.15 1015.4 4317.75 1016.1 4315
Q 1016.9 4315 1017.9 4314.85 1018.95 4314.65 1019.2 4314.65 1019.4 4314.65 1019.55 4314.5 1019.75 4314.3 1019.9 4314.3
L 1019.9 4313.95
Q 1019.9 4313.85 1020 4313.8 1020.15 4313.6 1020.6 4313.6 1020.9 4314 1022.65 4312.25
L 1024.7 4311.2 1025.05 4308.45 1022.65 4304.35 1021.95 4300.2 1023.7 4298.15 1027.45 4298.15 1029.2 4301.25 1029.85 4304.35 1028.15 4308.1 1026.1 4310.2 1026.45 4312.6 1027.8 4313.95 1029.2 4316.05 1023.7 4317.4
Q 1023.5 4317.4 1023.35 4318.45 1023.25 4319.15 1023 4321.55 1025.25 4322.35 1026 4322.55 1027 4322.8 1027.45 4322.55 1028.5 4322.55 1030.9 4319.15
L 1035.4 4316.7
Q 1035.7 4316.55 1038.8 4314.65 1040.2 4315 1041.9 4315
L 1046.05 4315
Q 1046.25 4315 1046.4 4314.75 1046.6 4314.3 1046.75 4313.95 1047.2 4313.35 1047.35 4312.75
L 1047.45 4312.25
Q 1047.45 4312.2 1047.8 4311.45 1048.1 4310.65 1048.1 4309.85
L 1049.15 4312.6
Q 1049.85 4312.95 1050.85 4312.95 1051.55 4312.95 1051.55 4312.6
L 1052.6 4311.9
Q 1052.6 4311.75 1053 4311.35 1053.5 4310.85 1053.65 4310.5 1054.3 4309.85 1054.3 4309.5 1054.3 4309.15 1054.9 4307.75 1055.7 4305.95 1057.05 4303.65
L 1057.4 4300.2 1057.8 4299.7
Q 1058.05 4299.35 1058.45 4299.15 1058.65 4298.75 1059 4298.55 1059.45 4298.2 1059.5 4298.15 1061.2 4297.1 1063.25 4296.05 1063.7 4295.6 1065.35 4295.05 1066.35 4294.35 1066.35 4294
L 1067.05 4293.3
Q 1067.3 4293.3 1067.35 4293.25 1067.4 4293.2 1067.4 4292.95
L 1069.45 4293.65
Q 1071.15 4294.5 1071.85 4296.05 1072.3 4296.9 1074.95 4297.45
L 1077.7 4300.2
Q 1077.7 4300.55 1078.4 4301.25
L 1079.8 4301.25
Q 1081.15 4301.25 1081.5 4300.9 1081.7 4300.7 1082 4300.6 1082.1 4300.55 1082.2 4300.55 1082.9 4300.55 1083.6 4301.25 1083.9 4301.9 1084.95 4301.9
L 1086.65 4301.9
Q 1087.6 4301.9 1088.75 4300.2 1089.65 4299.6 1090.8 4298.5 1091.85 4298.5 1091.85 4297.8
L 1092.55 4296.75
Q 1093.25 4296.4 1094.45 4296.1 1095.45 4295.85 1095.6 4295.7 1096.35 4295.25 1097 4295.2 1097.6 4295.15 1098.4 4295.4 1099.4 4295.7 1100.1 4296.05 1100.35 4296.55 1100.75 4296.65 1101.05 4296.75 1102.15 4296.75
L 1104.25 4296.75 1104.65 4296.95
Q 1105.15 4297.1 1105.6 4297.1 1107 4297.1 1107.35 4297.45
L 1107.35 4299.5 1107.5 4299.7
Q 1107.75 4300 1108.35 4300.2 1109.4 4300.9 1109.75 4301.25 1110.5 4301.9 1110.75 4301.9
L 1110.95 4301.95
Q 1111.1 4302.05 1111.1 4302.25 1111.55 4302.55 1112.35 4302.9 1112.85 4303.1 1112.85 4303.3
L 1115.6 4306.05 1118 4309.85
Q 1118 4313.3 1117.65 4315 1103.95 4324.5 1091.55 4331.75 1095 4332.1 1102.25 4332.85 1108.5 4333.65 1112.5 4334.95
L 1112.5 4335.3
Q 1121.55 4329.25 1128 4324.65 1129.7 4309.85 1130.05 4302.6 1129.9 4302.45 1128.95 4302.05 1127.85 4301.6 1127.3 4301.25 1124.55 4300.55 1124.55 4300.2
L 1122.45 4300.2
Q 1121.1 4299.5 1120.75 4299.5 1120.3 4298.4 1120.05 4297.65 1119.6 4296.35 1119.4 4295.05
L 1119.05 4293.3
Q 1119.65 4293.3 1119.3 4293.15 1118.95 4292.95 1118 4292.95
L 1115.95 4292.95 1112.85 4289.85
Q 1110.45 4290.55 1109.75 4290.55
L 1107.35 4290.55 1105.6 4289.85
Q 1103.7 4289.35 1102.85 4288.5
L 1102.85 4288.15
Q 1102.65 4288.15 1102.55 4287.8
L 1102.5 4287.45
Q 1102.3 4287.45 1102 4287.1
L 1101.8 4286.75
Q 1101.4 4286.55 1101 4286.1 1100.65 4285.6 1100.45 4285.4
L 1099.05 4288.15 1097.35 4284
Q 1095.2 4283 1094.6 4283 1093.55 4285.75 1093.55 4288.15
L 1093.55 4290.9
Q 1092.1 4292.35 1091.5 4292.6
L 1090.8 4292.6
Q 1090.45 4293.3 1090.1 4293.3
L 1088.75 4294.35
Q 1086.2 4296.05 1085.3 4296.75
L 1082.2 4296.75
Q 1082.2 4295.75 1081.5 4295.05 1081.15 4295.05 1081.15 4294.7 1077.95 4293.3 1077.4 4293.3
L 1076.35 4293.3
Q 1076.1 4293.3 1076.05 4293.2 1076 4293.15 1076 4292.6 1076.7 4290.6 1076.7 4288.15
L 1074.95 4286.1 1074.65 4284.7 1074.65 4284.35
Q 1074.65 4284.1 1074.7 4284.05 1074.75 4284 1074.95 4284
L 1074.65 4283
Q 1074.45 4282.2 1074 4281.4 1073.6 4280.65 1073.6 4280.55
L 1070.15 4273 1070.15 4271.3 1071.55 4269.9 1071.55 4266.8 1069.8 4262
Q 1069.8 4260.6 1070.5 4259.25 1069.1 4258.3 1069.1 4257.85
L 1069.1 4256.8
Q 1068.85 4256.6 1068.85 4256.15 1068.85 4255.7 1069.1 4255.45 1069.1 4254.9 1070.15 4253.4 1070.55 4252.4 1071.1 4251.5 1071.55 4250.75 1071.55 4250.65 1071.95 4250.3 1072.2 4250.05 1072.7 4249.55 1072.9 4248.9 1073.45 4247.85 1073.95 4247.85 1074.3 4247.55 1074.95 4247.55
L 1077.4 4247.55 1078.05 4247.85
Q 1078.35 4248.15 1079.1 4247.55
L 1079.8 4245.45
Q 1080.15 4244.75 1080.15 4244.1 1080.35 4243.9 1080.3 4243.4 1080.15 4242.9 1080.15 4242.7
L 1079.8 4241.65
Q 1079.8 4241.15 1081.5 4239.95 1081.5 4239.8 1081.7 4239.6 1081.85 4239.45 1081.85 4239.25 1082 4239.25 1082.4 4238.95 1082.85 4238.6 1083.25 4238.6
L 1086.35 4237.2
Q 1086.95 4236.5 1088.4 4236.15 1090.1 4236.15 1090.1 4235.15 1090.5 4234.95 1090.75 4234.65
L 1091.15 4234.1
Q 1091.5 4233.75 1091.5 4232.75
L 1091.85 4229.65
Q 1091.85 4228.6 1092.2 4227.55
L 1093.55 4225.15
Q 1094.1 4224.65 1094.6 4224.25 1094.8 4224.1 1094.6 4224.1 1094.25 4223.75 1094.25 4223.45 1094.25 4223.3 1094.3 4223.1 1094.4 4222.75 1094.6 4222.75 1095.95 4221.8 1095.95 4221.35
L 1096.65 4220.7
Q 1096.85 4220.5 1097 4220.15 1097.25 4219.5 1097.35 4219.3 1097.7 4217.6 1097.7 4215.85 1097.7 4215.65 1097.9 4215.25 1098.25 4214.65 1098.4 4214.15 1098.4 4213.1 1098.7 4213.1
L 1098.7 4212.05
Q 1098.4 4211.75 1098.4 4211.05 1097.8 4209.85 1096.3 4210.35
L 1090.1 4212.05
Q 1089.75 4211.75 1089.75 4211.05 1089.75 4208.95 1090.1 4208.65 1090.65 4206.4 1091.5 4205.2 1091.85 4204.7 1092.15 4204.25 1092.75 4203.4 1093.55 4202.8 1093.55 4202.65 1093.75 4202.3 1093.9 4201.95 1093.9 4201.75 1094.95 4200.7 1095.3 4200 1095.3 4199.65 1095.95 4199 1097 4198.65 1097.7 4198.3 1098.7 4197.95 1099.4 4197.25 1099.4 4197.05 1100 4196.7 1100.8 4196.25 1101.15 4195.9 1102.15 4195.2 1102.15 4194.85 1102.15 4194.1 1102 4193.05 1101.8 4192 1101.8 4191.75 1101.45 4191.35 1100.8 4189.35 1099.95 4188.55 1099.35 4187.6 1098.75 4186.65 1098.7 4186.6
L 1098.05 4186.25
Q 1097.7 4185.9 1097.7 4185.2
L 1097.7 4184.2
Q 1097.7 4183.95 1097.9 4183.7 1098.15 4183.5 1098.4 4183.5 1098.9 4183.15 1099.8 4182.85 1100.45 4182.65 1100.45 4182.45 1100.45 4181.8 1099.4 4180.75 1096 4180.15 1095.6 4179.35 1094.8 4179.35 1092.55 4176.6
L 1091.85 4175.95
Q 1091.5 4175.95 1090.8 4175.25
L 1089.45 4172.85
Q 1089 4172.4 1088.65 4171.65 1088.4 4171.1 1088.4 4170.75 1088.2 4170.55 1086 4166.65 1085.9 4166.55 1085.65 4166.15 1085.5 4165.95 1085.3 4165.95
L 1084.25 4165.25
Q 1083.8 4165.25 1083.25 4164.2
L 1082.9 4162.85
Q 1082.05 4162.85 1081.5 4161.8 1080.5 4161.3 1080.5 4160.45
L 1079.1 4156.3
Q 1079.1 4155.9 1078.4 4154.6
L 1075.3 4148.4
Q 1074 4147.05 1073.25 4145.65 1073.25 4145.3 1072.2 4142.2 1071.85 4142.2 1071.85 4140.8 1071.85 4140.5 1071.7 4139.95 1071.55 4139.45 1071.55 4139.1 1071.3 4138.25 1071.2 4138 1071.1 4137.7 1070.85 4137.7 1070.6 4137.2 1070.15 4136.8 1069.7 4136.35 1069.45 4136.35 1069.45 4135.75 1068.1 4135.3 1067.75 4135.3 1067.05 4134.6 1065.9 4133.55 1065.35 4131.85 1063.2 4129.75 1062.6 4127.75 1062.25 4126 1062.25 4125.3
L 1062.25 4121.55 1062.6 4120.15
Q 1062.6 4119.7 1062.4 4119.3 1062.1 4118.8 1061.9 4118.45
L 1061.9 4117.4
Q 1061.9 4117.25 1061.5 4116.8 1061.05 4116.25 1060.85 4115.7
L 1058.1 4113.95
Q 1056.25 4112.8 1055.7 4112.25 1055.1 4111.65 1054 4110.9 1052.85 4110.1 1052.6 4109.85 1052.25 4109.85 1051.55 4109.5 1051.55 4109.25 1051.15 4109 1050.8 4108.8 1050.55 4108.8
L 1047.45 4107.1
Q 1046.8 4107.1 1039.5 4101.9
L 1035.05 4100.55
Q 1034.35 4100.2 1033.65 4100.2 1033.45 4100 1033.1 4099.85 1032.5 4099.6 1032.3 4099.5 1031.8 4099.5 1031.65 4099.4 1031.5 4099.35 1031.25 4098.8 1030.9 4098.15 1030.2 4097.45 1029.5 4096.75 1029.2 4096.75 1029.2 4096.053125 1028.85 4096.05 1029.047265625 4096.048046875 1028.7 4095.8 1028 4095.25 1027.8 4095.05
L 1026.45 4093.65
Q 1026.1 4093.5 1025.75 4092.95 1025.4 4092.45 1025.05 4092.3 1024.9 4092.3 1024.65 4091.95 1024.4 4091.6 1024 4091.6
L 1022.65 4090.9
Q 1022.4 4090.65 1022.25 4090.6 1022.15 4090.55 1021.6 4090.55 1021.25 4090.2 1021.25 4089.85 1020.05 4089.2 1019.9 4089.2 1019.25 4089 1018.65 4088.55
L 1018.15 4088.15 1017.85 4087.45 1017.15 4087.45 1015.4 4078.85 1015.4 4074.35 1016.8 4069.2
Q 1016.1 4067.2 1016.1 4066.45
L 1015.4 4065.1
Q 1014.4 4063.5 1014.4 4063
L 1014.4 4061.65
Q 1014.4 4059.9 1014.75 4059.55 1014.75 4059.25 1015.1 4058.45 1015.6 4057.5 1015.75 4056.8 1016.2 4055.95 1016.35 4055.25
L 1016.45 4054.75 1016.45 4052.7
Q 1017.45 4052.45 1017.85 4052.15 1018.15 4051.85 1018.15 4051.3 1018.4 4051.05 1018.65 4050.2 1018.85 4049.35 1018.85 4048.55 1018.85 4048 1017.85 4046.85
L 1017.15 4045.8 1017.15 4044.45 1018.85 4039.95
Q 1019.4 4038.3 1018.85 4037.2 1018.5 4036.25 1018.35 4035.8 1018.15 4035 1018.15 4034.1 1018.15 4033.7 1018.35 4032.75 1018.75 4031.15 1018.85 4030.65 1018.85 4028.25 1019.2 4027.9 1019.4 4027.5 1019.75 4025.9 1020.45 4023.1 1020.6 4022.4
L 1023 4010.7
Q 1023.2 4010.05 1023.7 4009.35
L 1024.35 4008.3 1025.4 4007.25
Q 1025.6 4007.05 1025.7 4006.75
L 1025.75 4006.55
Q 1025.75 4004.5 1025.05 4002.1 1023.7 4001.2 1023.7 4000.35 1023.7 3999.15 1025.05 3996.9
L 1027.1 3993.5 1026.1 3983.85 1026.1 3978 1028.15 3973.85 1027.8 3970.4 1028.85 3966.65 1030.2 3965.6 1030.2 3962.15 1031.25 3959.05 1034.35 3953.9 1037.1 3947.7
Q 1037.7 3948.3 1038.15 3945.95 1038.85 3943.9 1041.25 3942.55
L 1042.95 3943.55 1042.95 3939.45
Q 1041.25 3936.05 1041.25 3935.3 1041.25 3934.6 1040.9 3933.6 1040.9 3932.8 1040.75 3932.1 1040.55 3931.4 1040.55 3931.15 1040 3930.65 1039.5 3928.75
L 1038.8 3925.65 1039.85 3922.9 1044 3914.65 1044 3911.9
Q 1044 3911.2 1041.9 3908.1
L 1040.2 3908.8 1038.5 3909.85 1036.05 3910.15 1034.35 3909.15 1031.6 3910.85 1034 3908.1 1034.7 3904
Q 1035.4 3901.9 1035.05 3901.2 1035.05 3899.5 1034.35 3898.15 1034.55 3898 1035.05 3897.3 1035.35 3896.95 1035.75 3896.75 1036.05 3896.75 1037.1 3896.4 1037.8 3896.05 1037.8 3895.7 1038.05 3895.25 1037.85 3894.6 1037.7 3894.2 1037.1 3892.95
L 1035.05 3892.95 1039.5 3890.55 1037.8 3888.5
Q 1037.1 3887.8 1037.1 3887.1 1038.65 3885.6 1039.5 3884.35 1039.75 3884.35 1039.8 3884.3 1039.85 3884.25 1039.85 3884 1039.5 3884 1038.8 3884 1038.15 3884 1036.75 3885.4 1035.4 3886.75 1035.4 3887.1 1035.4 3887.45 1034.7 3887.45 1034 3886.5 1033.85 3885.9 1033.7 3885.4 1034 3885.4
L 1036.75 3882.65 1037.45 3878.85 1038.8 3878.5 1040.2 3877.15 1042.6 3875.75 1043.65 3875.75 1040.2 3877.45 1040.2 3878.85 1040.55 3880.55
Q 1040.95 3880.95 1041.2 3881.55 1041.45 3882.15 1041.6 3882.3 1041.65 3882.35 1041.9 3882.8 1042.05 3883 1042.25 3883 1042.25 3884 1041.9 3884.35
L 1041.9 3884.7
Q 1041.6 3885.4 1041.6 3886.1
L 1043.65 3888.15 1042.6 3889.15 1042.6 3889.85 1043.3 3890.2 1043.65 3892.95 1044.7 3892.95
Q 1045 3893.3 1045.7 3893.3 1046.25 3893.55 1046.3 3893.55 1046.4 3893.55 1046.4 3893.3 1046.75 3893.3 1046.4 3892.95
L 1045.35 3890.9 1044.7 3890.55
Q 1044.9 3889.8 1045.25 3889.7 1045.55 3889.55 1046.4 3889.85 1047.45 3890.9 1047.45 3889.85
L 1048.45 3887.45 1049.15 3888.15 1050.85 3888.15
Q 1051.55 3888.15 1051.55 3887.8
L 1051.55 3886.1 1049.5 3885.4
Q 1048.4 3884.85 1048.25 3884.55 1048.05 3884.15 1048.8 3883.65
L 1048.8 3882.65
Q 1048.8 3882.15 1049.85 3881.6
L 1048.8 3880.55 1046.75 3879.55 1046.4 3880.55 1046.4 3883
Q 1045.95 3884.35 1045 3884.35
L 1044 3883 1045 3881.95
Q 1045.2 3881.3 1045.55 3880.8 1045.9 3880.25 1046.05 3879.9 1046.4 3879.2 1046.4 3877.8 1047.1 3877.8 1047.45 3877.45
L 1049.15 3876.8
Q 1051.15 3875.8 1052.6 3874.35 1053.05 3874.35 1055 3873.7 1057 3872.4 1057.05 3872.3 1057.75 3872.3 1058.45 3871.6 1058.45 3871.15 1058.05 3870.85 1057.75 3870.6 1057.4 3870.6 1057.2 3870.6 1056.95 3870.45
L 1056.75 3870.25 1056.05 3869.9
Q 1055.6 3869.8 1055.3 3869.75 1054.75 3869.7 1054.3 3869.9 1053.3 3869.9 1052.6 3870.1
L 1051.9 3870.25
Q 1051.35 3870.25 1049.85 3869.2 1049.55 3869.2 1048.75 3869.05 1048 3868.85 1047.45 3868.85
L 1047.1 3868.5 1047.1 3867.5 1047.45 3866.8 1047.75 3866.8
Q 1047.75 3866.6 1047.55 3866.45 1047.15 3866.15 1047.1 3866.1 1046.9 3865.9 1046.6 3865.8
L 1046.4 3865.75 1046.4 3866.1
Q 1046.4 3866.3 1045.95 3866 1045.2 3865.5 1045 3865.4
L 1042.95 3863.35
Q 1042.95 3863.2 1042.8 3862.85 1042.6 3862.5 1042.6 3862.3 1042.6 3862.1 1042.55 3862.05 1042.5 3862 1042.25 3862 1042.25 3861.65 1041.9 3861.3 1040.65 3861.3 1042.2 3861.15 1043.25 3861.1 1045 3861.3
L 1047.1 3861.3
Q 1047.45 3862 1048.1 3862
L 1049.15 3861.3
Q 1049.4 3861.3 1049.65 3860.9 1049.85 3860.55 1049.85 3860.25 1049.85 3860.05 1049.65 3859.65 1049.3 3859.05 1049.15 3858.55
L 1048.1 3856.8 1044.7 3853.05 1044 3850.25 1044.7 3848.55 1046.4 3847.5 1046.4 3846.15 1048.1 3845.8
Q 1049.15 3845.8 1049.85 3845.1 1050.55 3845.1 1050.85 3844.75
L 1050.85 3843.4 1049.85 3842.35
Q 1049.85 3841.95 1049.15 3841.35
L 1050.85 3840.3
Q 1050.85 3840.65 1051.2 3841 1052.25 3841 1052.25 3840.65
L 1052.25 3839.25 1051.9 3837.2 1049.85 3835.8 1047.45 3835.8 1048.1 3837.9 1048.1 3838.9 1046.05 3837.9 1045.7 3837.55 1045.7 3836.5 1045.35 3834.8
Q 1044.7 3834.15 1044.7 3832.7
L 1040.55 3831 1041.9 3829.95 1043.65 3831 1045 3832.35 1046.05 3832.35
Q 1047 3832.35 1047.45 3831
L 1048.1 3829.95 1047.45 3830.3 1046.05 3830.3 1045 3829.3
Q 1044.4 3828.6 1045.35 3828.6
L 1047.45 3827.9
Q 1047.8 3827.9 1048 3828.05 1048.1 3828.1 1048.1 3827.9 1047.75 3827.55 1047.45 3826.85 1046.95 3826.2 1046.15 3825.4 1045.55 3824.8 1045.35 3824.45
L 1045 3824.1 1043.65 3824.1 1042.95 3825.15 1043.65 3826.2 1043.65 3827.2 1041.9 3827.2 1040.55 3828.6
Q 1039.85 3828.95 1039.5 3828.95
L 1035.05 3830.65
Q 1035.05 3830.3 1034.35 3830.3
L 1032.95 3830.65 1035.4 3828.95
Q 1037.6 3827.6 1038.15 3826.5 1038.5 3825.85 1038.5 3824.8 1039.15 3825.5 1039.85 3825.5 1040.55 3825.5 1040.55 3824.45
L 1041.25 3823.1 1041.25 3822.75
Q 1041.25 3822.5 1041.2 3822.45 1041.15 3822.4 1040.9 3822.4
L 1040.2 3822.05
Q 1040.2 3821.7 1039.5 3821.7 1039.05 3821.45 1038.6 3821.65 1038.5 3821.7 1037.45 3822.4 1037.25 3822.4 1037.15 3822.6 1037.1 3822.65 1037.1 3822.75
L 1035.05 3824.8
Q 1035.05 3825.4 1034.9 3825.55 1034.6 3825.75 1033.65 3825.5 1032.65 3825.5 1032.65 3825.85 1032.5 3825.85 1032.15 3825.7 1031.8 3825.5 1031.6 3825.5 1030.25 3825.5 1028.15 3824.45
L 1030.2 3823.1
Q 1030.3 3823.1 1032.75 3822.75 1033.8 3822.6 1034 3822.4
L 1034.35 3822.4 1035.05 3822.75
Q 1035.4 3822.4 1036.05 3822.05 1036.75 3822.05 1036.75 3821.7 1036.95 3821.7 1037.1 3821.35 1037.3 3821 1037.45 3821 1037.8 3820.65 1038.5 3820.35
L 1039.65 3820.2
Q 1040.75 3820 1041.6 3820
L 1044 3817.55
Q 1043.3 3817.55 1042.95 3817.9 1039.6 3818.85 1038.45 3819.15 1036.7 3819.65 1036.05 3819.65
L 1034.35 3819.65
Q 1033.65 3819.65 1032.65 3820.65
L 1030.9 3821.35 1030.2 3822.05 1029.85 3822.05 1029.85 3821.7
Q 1030.2 3821.35 1030.2 3820.65
L 1030.9 3820
Q 1031.35 3818.6 1030.9 3818.6
L 1030.2 3818.6 1030.2 3818.25 1029.55 3818.25
Q 1029.2 3818.25 1028.85 3818.6 1028.15 3818.95 1027.1 3818.95 1026.8 3819.3 1026.45 3820 1026.45 3820.35 1026.1 3820.65
L 1025.95 3820.7
Q 1025.75 3820.8 1025.75 3821
L 1025.05 3821.7
Q 1024.7 3822.05 1024 3822.4
L 1022.65 3823.45 1021.95 3823.45 1020.6 3823.75
Q 1020.6 3824.1 1019.9 3824.1 1019.55 3824.45 1018.85 3824.1 1018.85 3824.45 1017.5 3824.45 1016.45 3824.8 1015.4 3824.8 1014.75 3825.15 1014.05 3825.15
L 1011.95 3825.15 1010.6 3826.85 1010.6 3828.95
Q 1009.55 3828.25 1009.2 3827.9 1006.1 3827.55 1003.35 3827.55
L 1002.7 3827.55
Q 1002.45 3827.55 1002.45 3827.65 1002.45 3827.75 1002.7 3828.25
L 1002.7 3829.3 1003.35 3830.3
Q 1003.75 3830.7 1004 3831.3 1004.25 3831.9 1004.4 3832.05
L 1005.8 3833.75
Q 1006.05 3834.05 1006.6 3834.85 1006.95 3835.45 1007.15 3835.45 1007.5 3835.8 1007.5 3837.2
L 1007.5 3837.9
Q 1007.5 3838.55 1006.8 3839.25
L 1006.1 3839.95
Q 1005.6 3840.35 1003.9 3841.95 1003.1 3842.7 1002.7 3842.7
L 1002.5 3843.05
Q 1002.2 3843.55 1002 3844.4
L 1005.1 3845.1
Q 1003.1 3845.1 1001.8 3845.3 1000.6 3845.55 1000.6 3845.8
L 997.15 3845.8
Q 996.5 3846.55 996.5 3847.2
L 996.5 3850.95 995.45 3852 994.05 3853.05
Q 994.05 3853.15 993.4 3854.1 992.6 3855.3 992 3856.45 991.55 3856.45 989.95 3857.5
L 988.2 3858.2
Q 986.85 3858.55 984.45 3858.9 982.7 3859.5 982.7 3859.9
L 982 3860.6 982 3861.3
Q 982.35 3861.65 982.7 3861.65
L 983.4 3861.65
Q 984.05 3861.65 984.8 3862.3
L 982.35 3862.3
Q 982 3862.3 982 3863
L 982 3863.35
Q 982 3863.95 981 3865.4
L 981.7 3865.75
Q 982.35 3866.45 983.4 3866.45
L 984.45 3866.8 986.15 3866.8
Q 986.5 3867.15 987.9 3867.85 988.9 3868.85 989.25 3868.85 991.3 3869.55 992 3870.25 992.45 3870.25 993.05 3871.95 993.25 3872.15 993.55 3872.35 993.85 3872.6 994.05 3873 994.4 3873.7 994.75 3873.7 994.75 3874.7 995.1 3875.75 994.75 3876.3 993.95 3878 993.45 3879 993.05 3879.2
L 990.3 3881.6
Q 990.3 3881.95 988.9 3881.95
L 982.7 3883 979.95 3883 979.95 3884
Q 979.95 3885.4 979.25 3886.1 979.25 3886.2 978.6 3888.15
L 978.6 3890.9
Q 978.6 3892.25 978.25 3892.6 978.25 3893.3 977.9 3894 977.9 3894.7 976.85 3894.7
L 975.85 3895.05 975.5 3895.35
Q 975.3 3895.75 974.35 3896.45 972.5 3897.7 972.4 3897.8
L 970 3898.45 970.05 3898.65
Q 970.1 3898.95 970.3 3899.15 971 3899.85 971.7 3900.2 972.4 3900.9 972.4 3901.2 970.95 3901.45 970.5 3901.55 969.85 3901.7 969.65 3901.9
L 969.3 3901.9
Q 966.9 3901.55 964.45 3901.55 965.7 3901.75 967.4 3902.2 968.8 3902.6 969.3 3902.6
L 969.65 3902.6 Z"/>
</g>

<g id="Layer0_0_MEMBER_0_MEMBER_0_MEMBER_1_MEMBER_0_FILL">
<path fill="#231F20" stroke="none" d="
M 992.15 3798.75
Q 991.9 3798.75 991.65 3799 990.9 3799.75 991.3 3800.7
L 991 3802.1
Q 991.55 3801.8 991.9 3801.9 992.35 3801.95 992.35 3802.45 992.35 3803.1 992 3803.45
L 994.75 3803.45 995.8 3802.75
Q 995.55 3802.75 995.55 3802.65 995.55 3802.6 995.8 3802.1 996.2 3801.7 996.8 3801.45 997.35 3801.2 997.5 3801.05 996 3800 995.45 3800 994.05 3800 993.75 3800.7
L 992.7 3800
Q 992.45 3799.75 992.4 3799.6 992.35 3799.5 992.35 3799 992.35 3798.75 992.15 3798.75 Z"/>
</g>

<g id="Layer0_0_MEMBER_0_MEMBER_0_MEMBER_2_MEMBER_0_FILL">
<path fill="#231F20" stroke="none" d="
M 1013.7 3805.85
L 1013.7 3804.85
Q 1013 3803.45 1011.3 3803.45
L 1009.55 3803.45
Q 1008.9 3803.45 1008.55 3803.1 1007.5 3802.75 1006.8 3802.75 1006.2 3802.45 1005.95 3802.3 1005.55 3802.1 1005.1 3802.1
L 1004.05 3801.4
Q 1003.35 3801.4 1002.7 3801.05
L 1002 3800 999.25 3800
Q 998.75 3800 998.7 3800.3 998.65 3800.6 998.9 3801.4 999.2 3802.6 1000.25 3803.8
L 1000.95 3805.2
Q 1002.05 3805.65 1000.95 3806.2
L 1000.6 3806.2 999.25 3806.55 996.5 3806.55
Q 996.5 3806.9 995.1 3806.2
L 992 3804.85 991.3 3804.85 990.3 3803.8
Q 989.85 3803.35 988.9 3803.8
L 988.55 3804.5 988.9 3805.2
Q 988.55 3805.5 987.2 3805.5
L 977.55 3805.5
Q 976.85 3805.5 976.5 3806.2 975.7 3806.65 975.15 3808.3 974.85 3809.1 975.2 3809.5 975.55 3809.9 976.5 3809.65
L 980.3 3809.65
Q 981 3810 982.7 3810
L 984.45 3810.35
Q 986.15 3810.35 987.55 3811.05 988.25 3811.25 989.15 3811.5 989.85 3811.7 990.3 3811.7 992.45 3813.2 993.05 3813.8 994.3 3815.5 995.45 3815.5 995.9 3815.5 997.05 3816 997.8 3816.3 999.95 3817.25
L 1000.6 3818.95
Q 1000.45 3819.65 1000.2 3820.6 1000.05 3821.25 1000.25 3821.7
L 1000.6 3822.4
Q 1000.6 3822.6 1000.8 3822.95 1000.95 3823.3 1000.95 3823.45 1001.5 3823.6 1002.3 3823.9 1002.95 3824.1 1003.35 3824.1
L 1006.1 3824.1
Q 1008.55 3824.1 1009.55 3823.75 1011.95 3823.45 1013.7 3823.45 1015.4 3823.45 1016.45 3822.75
L 1014.4 3815.15
Q 1015.25 3814.35 1015.3 3813.85 1015.35 3813.25 1014.4 3812.75 1013.35 3812.05 1013 3811.7
L 1014.4 3811.4 1016.1 3811.7 1017.15 3813.8 1017.15 3817.55
Q 1017.7 3818.35 1017.8 3818.4 1017.95 3818.45 1018.15 3817.9 1018.5 3816.2 1018.5 3815.15 1018.85 3813.8 1018.85 3812.4
L 1021.25 3813.8 1022.3 3815.15
Q 1023.05 3816.15 1023.55 3816.5 1024 3816.85 1024 3816.55
L 1024 3815.15
Q 1023.6 3814.25 1024 3813.8 1024 3813.65 1024.35 3813.25 1024.7 3812.8 1024.7 3812.4
L 1025.75 3813.45
Q 1025.75 3814.2 1026.1 3815.05 1026.45 3815.95 1026.45 3816.2 1026.65 3816.65 1027.2 3816.85 1027.55 3817 1028.5 3817.25 1028.7484375 3817.25 1029.2 3817.25
L 1030.55 3817.25
Q 1032.65 3816.9 1033.65 3816.55 1033.85 3816.45 1034.35 3816.05 1034.65 3815.85 1035.05 3815.85 1036.05 3815.15 1036.4 3814.8
L 1036.05 3814.15
Q 1036.05 3813.9 1035.95 3813.9 1035.8 3813.9 1035.05 3814.15 1034.4 3814.15 1033.8 3814.35
L 1033.3 3814.5
Q 1032.95 3814.15 1032.95 3813.45
L 1033.3 3813.1 1033.65 3812.05
Q 1034.15 3811.8 1034 3811.6 1033.85 3811.4 1033.3 3811.4
L 1031.25 3811.4
Q 1030.9 3811.4 1030.2 3811.7 1029.85 3812.05 1029.2 3812.05 1030.2 3810.5 1030.2 3809.65 1029.65 3809.3 1029.35 3809.15 1028.95 3808.95 1028.5 3808.95 1028.25 3808.95 1028.15 3809.05 1028.05 3809.15 1027.8 3809.65
L 1027.45 3810
Q 1026.8 3810 1026.45 3809.65
L 1025.75 3808.95
Q 1025.75 3809.3 1024.7 3808.3 1024.3 3807.9 1024.05 3807.45 1023.8 3807 1023.7 3806.9
L 1022.3 3806.9 1022.3 3807.25
Q 1021.95 3807.6 1021.25 3807.95 1018.5 3807.95 1017.5 3806.9
L 1015.05 3806.9
Q 1016.1 3807.95 1016.1 3808.3 1016.1 3808.6 1015.05 3808.6
L 1013 3808.95 1011.95 3808.95 1011.3 3808.6
Q 1010.25 3808.6 1009.9 3808.3
L 1009.2 3807.6 1008.55 3807.25 1008.55 3806.2 1013.7 3805.85 Z"/>
</g>

<g id="Layer0_0_MEMBER_0_MEMBER_0_MEMBER_3_MEMBER_0_FILL">
<path fill="#231F20" stroke="none" d="
M 1040.55 3815.5
L 1042.25 3815.15 1040.55 3813.8 1039.5 3813.8
Q 1038.5 3813.8 1037.8 3814.15
L 1038.15 3815.15 1040.55 3815.5 Z"/>
</g>

<g id="Layer0_0_MEMBER_0_MEMBER_0_MEMBER_4_MEMBER_0_FILL">
<path fill="#231F20" stroke="none" d="
M 1047.1 3821.7
Q 1047.45 3821.35 1047.45 3821 1047.45 3820.55 1046.4 3820
L 1044.7 3820.65 1044 3821.7 1047.1 3821.7 Z"/>
</g>

<g id="Layer0_0_MEMBER_0_MEMBER_0_MEMBER_5_MEMBER_0_FILL">
<path fill="#231F20" stroke="none" d="
M 1054.3 3832.05
L 1053.95 3831 1053.95 3829.6
Q 1053.75 3829.85 1053.5 3829.65 1053.3 3829.45 1053.3 3828.95 1053.3 3827.9 1052.95 3827.9
L 1052.25 3827.55
Q 1050.85 3827.2 1050.55 3826.85
L 1049.15 3827.2 1049.15 3828.25
Q 1048.9 3828.8 1048.9 3828.9 1048.9 3829.05 1049.15 3829.3 1049.15 3829.75 1049.55 3830.05 1049.9 3830.3 1050.2 3830.3
L 1051.55 3830.65 1051.55 3834.45 1054.3 3836.15
Q 1055.7 3836.15 1055.7 3835.45
L 1055.7 3833.75
Q 1055.7 3832.9 1054.3 3832.05 Z"/>
</g>

<g id="Layer0_0_MEMBER_0_MEMBER_0_MEMBER_6_MEMBER_0_FILL">
<path fill="#231F20" stroke="none" d="
M 1046.4 3823.45
L 1048.8 3824.8 1050.55 3825.5
Q 1052.05 3824.95 1051.55 3824.45 1051.25 3824.45 1050.65 3824.3 1050.05 3824.1 1049.5 3824.1
L 1047.75 3822.75 1046.4 3823.45 Z"/>
</g>

<g id="Layer0_0_MEMBER_0_MEMBER_0_MEMBER_7_MEMBER_0_FILL">
<path fill="#231F20" stroke="none" d="
M 1056.05 3838.9
L 1054.3 3837.9 1054.65 3838.55 1053.65 3839.25 1054.3 3839.95 1055.35 3839.95 1056.05 3838.9 Z"/>
</g>

<g id="Layer0_0_MEMBER_0_MEMBER_0_MEMBER_8_MEMBER_0_FILL">
<path fill="#231F20" stroke="none" d="
M 1056.05 3841.65
L 1053.65 3841.65 1053.3 3842.7
Q 1054.3 3843.05 1055 3843.75 1055.55 3844.05 1055.85 3843.95 1056.15 3843.9 1056.4 3843.4
L 1056.05 3841.65 Z"/>
</g>

<g id="Layer0_0_MEMBER_0_MEMBER_0_MEMBER_9_MEMBER_0_FILL">
<path fill="#231F20" stroke="none" d="
M 1054.65 3845.1
L 1053.65 3846.5 1053.3 3847.2 1054.65 3848.55 1055.7 3847.85 1056.05 3846.15 1054.65 3845.1 Z"/>
</g>

<g id="Layer0_0_MEMBER_0_MEMBER_0_MEMBER_10_MEMBER_0_FILL">
<path fill="#231F20" stroke="none" d="
M 1056.75 3850.25
Q 1056.05 3850.25 1055.35 3851.65 1055.2 3851.65 1054.95 3851.45 1054.65 3851.15 1054.3 3850.95
L 1053.95 3850.25
Q 1053.3 3850.25 1052.6 3849.95
L 1050.85 3849.95
Q 1050.45 3852.25 1050.85 3852.7
L 1053.65 3854.05 1053.3 3856.8
Q 1053.05 3857.55 1052.8 3857.65 1052.6 3857.7 1052.6 3857.15
L 1052.6 3856.45
Q 1052.6 3856.15 1052.25 3856.15 1052.25 3855.9 1052.2 3855.85 1052.15 3855.8 1051.9 3855.8
L 1051.9 3855.45
Q 1051.9 3855.1 1050.85 3855.1
L 1048.8 3855.1 1049.85 3856.8 1050.55 3858.9 1050.55 3861.65 1051.55 3863.35 1053.3 3863 1055 3861.65 1055 3859.9 1054.3 3858.55
Q 1055.7 3858.55 1055.7 3857.85
L 1056.05 3857.5 1056.4 3857.5
Q 1056.7 3857.5 1057.4 3856.8 1058.1 3855.1 1058.45 3854.4
L 1057.4 3853.35 1056.05 3853.35 1058.1 3851.65
Q 1057.75 3850.55 1057.65 3850.45 1057.4 3850.05 1056.75 3850.25 Z"/>
</g>

<g id="Layer0_0_MEMBER_0_MEMBER_0_MEMBER_11_MEMBER_0_FILL">
<path fill="#231F20" stroke="none" d="
M 1048.1 3878.85
L 1048.8 3879.2
Q 1049.85 3879.2 1050.55 3879.55 1050.75 3879.8 1050.8 3879.6 1050.85 3879.45 1050.85 3878.85
L 1049.85 3877.15 1048.45 3877.45 1048.1 3878.85 Z"/>
</g>

<g id="Layer0_0_MEMBER_0_MEMBER_0_MEMBER_12_MEMBER_0_FILL">
<path fill="#231F20" stroke="none" d="
M 1052.25 3883
L 1052.25 3884.35 1052.6 3885.4 1053.95 3885.4 1053.95 3883.65 1052.25 3883 Z"/>
</g>

<g id="Layer0_0_MEMBER_0_MEMBER_0_MEMBER_13_MEMBER_0_FILL">
<path fill="#231F20" stroke="none" d="
M 967.55 3808.3
L 966.2 3810 966.9 3810.35 970 3810.35
Q 971.35 3810.35 971.7 3810
L 973.05 3807.95 970.65 3807.6 967.55 3808.3 Z"/>
</g>

<g id="Layer0_0_MEMBER_0_MEMBER_0_MEMBER_14_MEMBER_0_FILL">
<path fill="#231F20" stroke="none" d="
M 920.55 3833.9
Q 920.75 3833.95 920.75 3833.75 921.5 3833.75 922.45 3832.7
L 923.5 3832.7 924.55 3834.8
Q 926.8 3835.9 927.65 3835.45 928 3835.45 930.05 3834.8
L 930.7 3834.4
Q 931.1 3834.15 931.1 3833.75 931.75 3833.75 931.75 3833.4
L 931.75 3833.05 933.15 3832.7 934.5 3832.7 935.2 3833.05
Q 936.25 3832.7 937.25 3832.05 937.95 3831.35 939.7 3830.3 939.7 3830.1 940.05 3829.8
L 940.35 3829.6
Q 940.75 3829.6 943.45 3831
L 944.5 3831
Q 945.9 3830.55 945.9 3829.6
L 946.55 3828.6
Q 946.55 3827.55 946.2 3827.55
L 945.2 3827.55
Q 944.9 3827.55 944.55 3827.35 944.15 3827.1 944.15 3826.85 943.65 3826.4 942.35 3826.3 941.5 3826.2 939 3826.2
L 936.95 3828.25
Q 935.65 3828.8 935.05 3828.8 934.5 3828.8 934.5 3828.25 934.5 3826.85 933.85 3826.2 933.85 3825.5 932.8 3825.5
L 931.1 3825.85 929 3825.85
Q 927.15 3826.75 924.2 3827.9 924.2 3828.95 923.15 3828.95 922.15 3828.95 921.45 3829.3
L 919.35 3829.3
Q 918.7 3829.3 918.7 3830.3
L 919.05 3832.05
Q 919.05 3832.4 919.7 3833.05
L 919.9 3833.25
Q 920.05 3833.55 920.05 3833.75 920.15 3833.75 920.55 3833.9 Z"/>
</g>

<g id="Layer0_0_MEMBER_0_MEMBER_0_MEMBER_15_MEMBER_0_FILL">
<path fill="#231F20" stroke="none" d="
M 1048.1 3897.45
L 1045.35 3896.05 1044.35 3895.05 1041.25 3898.45 1038.8 3898.45 1040.55 3901.2
Q 1041.1 3902.25 1040.55 3903.3 1039.65 3903.75 1038.5 3905
L 1041.25 3907.4 1044.7 3906.05 1047.1 3904.65
Q 1046.4 3904.3 1046.4 3902.6 1046.4 3902 1046.85 3901.15 1047.55 3899.75 1047.75 3899.15
L 1048.1 3897.45 Z"/>
</g>

<g id="Layer0_0_MEMBER_0_MEMBER_0_MEMBER_16_MEMBER_0_FILL">
<path fill="#231F20" stroke="none" d="
M 1048.8 3894.35
L 1049.85 3895.05
Q 1051.55 3895.05 1052.25 3894.7
L 1052.25 3892.95
Q 1052.25 3892.35 1049.85 3892.95
L 1048.8 3894.35 Z"/>
</g>

<g id="Layer0_0_MEMBER_0_MEMBER_0_MEMBER_17_MEMBER_0_FILL">
<path fill="#231F20" stroke="none" d="
M 944.15 4304.35
Q 944.5 4305.35 944.5 4306.05 944.5 4306.6 945.55 4308.1
L 943.8 4308.8 944.85 4310.5 946.9 4310.5 949 4309.85 950.7 4308.8 949 4308.1 949 4306.4 950.7 4305.35 950.7 4304.35 944.15 4304.35 Z"/>
</g>

<g id="Layer0_0_MEMBER_0_MEMBER_0_MEMBER_18_MEMBER_0_FILL">
<path fill="#231F20" stroke="none" d="
M 864.65 4244.45
Q 863.95 4243.05 862.9 4242.7
L 862.25 4242 861.9 4244.45 863.25 4246.85 865 4246.15
Q 865 4244.75 864.65 4244.45 Z"/>
</g>

<g id="Layer0_0_MEMBER_0_MEMBER_0_MEMBER_19_MEMBER_0_FILL">
<path fill="#231F20" stroke="none" d="
M 973.75 4318.45
L 973.05 4317.4 971 4317.4 969.3 4317.75
Q 968.6 4318.45 968.25 4319.15
L 973.05 4319.15
Q 973.3 4319.15 973.4 4319.05 973.5 4319 973.75 4318.45 Z"/>
</g>

<g id="Layer0_0_MEMBER_0_MEMBER_0_MEMBER_20_MEMBER_0_FILL">
<path fill="#231F20" stroke="none" d="
M 1105.95 4282.3
L 1103.2 4281.95 1102.5 4282.3 1101.8 4284.7 1102.85 4285.75
Q 1103.5 4287.05 1103.9 4287.45 1105.05 4288.6 1105.95 4286.75
L 1106.65 4284.7 1105.95 4282.3 Z"/>
</g>

<g id="Layer0_0_MEMBER_0_MEMBER_0_MEMBER_21_MEMBER_0_FILL">
<path fill="#231F20" stroke="none" d="
M 1084.25 4293.3
L 1084.95 4290.9 1081.85 4289.85 1081.15 4291.6
Q 1081.85 4292.6 1082.9 4293.3 1082.9 4293.85 1083.2 4293.85 1083.5 4293.85 1084.25 4293.3 Z"/>
</g>

<g id="Layer0_0_MEMBER_0_MEMBER_0_MEMBER_22_MEMBER_0_FILL">
<path fill="#231F20" stroke="none" d="
M 978.25 4310.5
L 976.5 4311.55 977.55 4312.95 978.95 4313.3 980.3 4312.25 979.6 4311.2 978.25 4310.5 Z"/>
</g>

<g id="Layer0_0_MEMBER_0_MEMBER_0_MEMBER_23_MEMBER_0_FILL">
<path fill="#231F20" stroke="none" d="
M 998.55 4319.8
L 1000.6 4321.9 1001.65 4323.25 1002.35 4322.55 1000.6 4319.45 999.6 4318.8 998.55 4319.8 Z"/>
</g>

<g id="Layer0_0_MEMBER_0_MEMBER_0_MEMBER_24_MEMBER_0_FILL">
<path fill="#231F20" stroke="none" d="
M 1005.8 4319.15
L 1004.05 4319.15 1004.4 4320.85 1006.8 4323.6 1008.55 4323.6 1007.85 4320.85 1005.8 4319.15 Z"/>
</g>

<g id="Layer0_0_MEMBER_0_MEMBER_0_MEMBER_25_MEMBER_0_FILL">
<path fill="#231F20" stroke="none" d="
M 989.1 4318.55
Q 989.45 4317.95 989.6 4317.4
L 986.5 4317.4 986.85 4319.15 987.55 4319.45
Q 988.55 4319.15 988.9 4319.15 988.9 4319 989.1 4318.55 Z"/>
</g>

<g id="Layer0_0_MEMBER_0_MEMBER_0_MEMBER_26_MEMBER_0_FILL">
<path fill="#231F20" stroke="none" d="
M 985.1 4318.45
Q 985.1 4317.4 984.45 4317.4
L 983.4 4317.4 984.1 4320.15 985.1 4320.15 985.1 4318.45 Z"/>
</g>

<g id="Layer0_0_MEMBER_0_MEMBER_1_MEMBER_0_MEMBER_0_MEMBER_0_FILL">
<path fill="#231F20" stroke="none" d="
M 960 3777.15
Q 899.9 3777.15 845.15 3799.85 790.4 3822.5 747.85 3865 705.35 3907.5 682.7 3962.25 660 4017.05 660 4077.15 660 4137.25 682.7 4192 705.35 4246.75 747.85 4289.25 790.35 4331.75 845.15 4354.45 899.9 4377.15 960 4377.15 1020.1 4377.15 1074.85 4354.45 1129.65 4331.75 1172.15 4289.25 1214.65 4246.75 1237.3 4192 1260 4137.25 1260 4077.15 1260 4017.05 1237.3 3962.25 1214.65 3907.5 1172.15 3865 1129.6 3822.5 1074.85 3799.85 1020.1 3777.15 960 3777.15
M 850.5 3812.75
Q 902.7 3791.1 960 3791.1 1017.3 3791.1 1069.55 3812.75 1121.75 3834.35 1162.25 3874.85 1202.8 3915.4 1224.4 3967.6 1246.05 4019.8 1246.05 4077.15 1246.05 4134.45 1224.4 4186.65 1202.8 4238.85 1162.25 4279.4 1121.75 4319.9 1069.55 4341.55 1017.3 4363.2 960 4363.2 902.7 4363.2 850.5 4341.55 798.25 4319.9 757.75 4279.4 717.2 4238.85 695.6 4186.65 673.95 4134.45 673.95 4077.15 673.95 4019.8 695.6 3967.6 717.2 3915.4 757.75 3874.85 798.25 3834.35 850.5 3812.75 Z"/>
</g>
</defs>

<g transform="matrix( 1, 0, 0, 1, -960,-4077.15) ">
<use xlink:href="#Layer0_0_MEMBER_0_MEMBER_0_MEMBER_0_MEMBER_0_FILL"/>
</g>

<g transform="matrix( 1, 0, 0, 1, -960,-4077.15) ">
<use xlink:href="#Layer0_0_MEMBER_0_MEMBER_0_MEMBER_1_MEMBER_0_FILL"/>
</g>

<g transform="matrix( 1, 0, 0, 1, -960,-4077.15) ">
<use xlink:href="#Layer0_0_MEMBER_0_MEMBER_0_MEMBER_2_MEMBER_0_FILL"/>
</g>

<g transform="matrix( 1, 0, 0, 1, -960,-4077.15) ">
<use xlink:href="#Layer0_0_MEMBER_0_MEMBER_0_MEMBER_3_MEMBER_0_FILL"/>
</g>

<g transform="matrix( 1, 0, 0, 1, -960,-4077.15) ">
<use xlink:href="#Layer0_0_MEMBER_0_MEMBER_0_MEMBER_4_MEMBER_0_FILL"/>
</g>

<g transform="matrix( 1, 0, 0, 1, -960,-4077.15) ">
<use xlink:href="#Layer0_0_MEMBER_0_MEMBER_0_MEMBER_5_MEMBER_0_FILL"/>
</g>

<g transform="matrix( 1, 0, 0, 1, -960,-4077.15) ">
<use xlink:href="#Layer0_0_MEMBER_0_MEMBER_0_MEMBER_6_MEMBER_0_FILL"/>
</g>

<g transform="matrix( 1, 0, 0, 1, -960,-4077.15) ">
<use xlink:href="#Layer0_0_MEMBER_0_MEMBER_0_MEMBER_7_MEMBER_0_FILL"/>
</g>

<g transform="matrix( 1, 0, 0, 1, -960,-4077.15) ">
<use xlink:href="#Layer0_0_MEMBER_0_MEMBER_0_MEMBER_8_MEMBER_0_FILL"/>
</g>

<g transform="matrix( 1, 0, 0, 1, -960,-4077.15) ">
<use xlink:href="#Layer0_0_MEMBER_0_MEMBER_0_MEMBER_9_MEMBER_0_FILL"/>
</g>

<g transform="matrix( 1, 0, 0, 1, -960,-4077.15) ">
<use xlink:href="#Layer0_0_MEMBER_0_MEMBER_0_MEMBER_10_MEMBER_0_FILL"/>
</g>

<g transform="matrix( 1, 0, 0, 1, -960,-4077.15) ">
<use xlink:href="#Layer0_0_MEMBER_0_MEMBER_0_MEMBER_11_MEMBER_0_FILL"/>
</g>

<g transform="matrix( 1, 0, 0, 1, -960,-4077.15) ">
<use xlink:href="#Layer0_0_MEMBER_0_MEMBER_0_MEMBER_12_MEMBER_0_FILL"/>
</g>

<g transform="matrix( 1, 0, 0, 1, -960,-4077.15) ">
<use xlink:href="#Layer0_0_MEMBER_0_MEMBER_0_MEMBER_13_MEMBER_0_FILL"/>
</g>

<g transform="matrix( 1, 0, 0, 1, -960,-4077.15) ">
<use xlink:href="#Layer0_0_MEMBER_0_MEMBER_0_MEMBER_14_MEMBER_0_FILL"/>
</g>

<g transform="matrix( 1, 0, 0, 1, -960,-4077.15) ">
<use xlink:href="#Layer0_0_MEMBER_0_MEMBER_0_MEMBER_15_MEMBER_0_FILL"/>
</g>

<g transform="matrix( 1, 0, 0, 1, -960,-4077.15) ">
<use xlink:href="#Layer0_0_MEMBER_0_MEMBER_0_MEMBER_16_MEMBER_0_FILL"/>
</g>

<g transform="matrix( 1, 0, 0, 1, -960,-4077.15) ">
<use xlink:href="#Layer0_0_MEMBER_0_MEMBER_0_MEMBER_17_MEMBER_0_FILL"/>
</g>

<g transform="matrix( 1, 0, 0, 1, -960,-4077.15) ">
<use xlink:href="#Layer0_0_MEMBER_0_MEMBER_0_MEMBER_18_MEMBER_0_FILL"/>
</g>

<g transform="matrix( 1, 0, 0, 1, -960,-4077.15) ">
<use xlink:href="#Layer0_0_MEMBER_0_MEMBER_0_MEMBER_19_MEMBER_0_FILL"/>
</g>

<g transform="matrix( 1, 0, 0, 1, -960,-4077.15) ">
<use xlink:href="#Layer0_0_MEMBER_0_MEMBER_0_MEMBER_20_MEMBER_0_FILL"/>
</g>

<g transform="matrix( 1, 0, 0, 1, -960,-4077.15) ">
<use xlink:href="#Layer0_0_MEMBER_0_MEMBER_0_MEMBER_21_MEMBER_0_FILL"/>
</g>

<g transform="matrix( 1, 0, 0, 1, -960,-4077.15) ">
<use xlink:href="#Layer0_0_MEMBER_0_MEMBER_0_MEMBER_22_MEMBER_0_FILL"/>
</g>

<g transform="matrix( 1, 0, 0, 1, -960,-4077.15) ">
<use xlink:href="#Layer0_0_MEMBER_0_MEMBER_0_MEMBER_23_MEMBER_0_FILL"/>
</g>

<g transform="matrix( 1, 0, 0, 1, -960,-4077.15) ">
<use xlink:href="#Layer0_0_MEMBER_0_MEMBER_0_MEMBER_24_MEMBER_0_FILL"/>
</g>

<g transform="matrix( 1, 0, 0, 1, -960,-4077.15) ">
<use xlink:href="#Layer0_0_MEMBER_0_MEMBER_0_MEMBER_25_MEMBER_0_FILL"/>
</g>

<g transform="matrix( 1, 0, 0, 1, -960,-4077.15) ">
<use xlink:href="#Layer0_0_MEMBER_0_MEMBER_0_MEMBER_26_MEMBER_0_FILL"/>
</g>

<g transform="matrix( 1, 0, 0, 1, -960,-4077.15) ">
<use xlink:href="#Layer0_0_MEMBER_0_MEMBER_1_MEMBER_0_MEMBER_0_MEMBER_0_FILL"/>
</g>
</svg>
