
<svg xmlns="http://www.w3.org/2000/svg" version="1.1" xmlns:xlink="http://www.w3.org/1999/xlink" preserveAspectRatio="none" x="0px" y="0px" width="1920px" height="1080px" viewBox="0 0 1920 1080">
<defs>
<g id="Layer0_0_MEMBER_0_FILL">
<path fill="#231F20" stroke="none" d="
M 1252.05 363.2
Q 1229.25 309.4 1187.75 267.85 1146.2 226.35 1092.4 203.55 1036.65 180 975.6 180 914.6 180 858.85 203.55 805 226.35 763.5 267.85 721.95 309.4 699.2 363.2 675.6 418.95 675.6 480 675.6 541.05 699.2 596.8 721.95 650.6 763.5 692.15 805 733.65 858.85 756.45 914.6 780 975.6 780 1036.65 780 1092.4 756.45 1146.2 733.65 1187.75 692.15 1229.25 650.6 1252.05 596.8 1275.6 541.05 1275.6 480 1275.6 418.95 1252.05 363.2
M 1179.1 276.55
Q 1218.9 316.35 1240.75 368 1263.35 421.45 1263.35 480 1263.35 538.55 1240.75 592 1218.9 643.65 1179.1 683.5 1139.25 723.3 1087.6 745.15 1034.15 767.75 975.6 767.75 917.05 767.75 863.6 745.15 811.95 723.3 772.15 683.5 732.3 643.65 710.45 592 687.85 538.55 687.85 480 687.85 421.45 710.45 368 732.3 316.35 772.15 276.55 811.95 236.7 863.6 214.85 917.05 192.25 975.6 192.25 1034.15 192.25 1087.6 214.85 1139.25 236.7 1179.1 276.55 Z"/>
</g>

<g id="Layer0_0_MEMBER_1_MEMBER_0_MEMBER_0_MEMBER_0_FILL">
<path fill="#020303" stroke="none" d="
M 1207.65 610.2
L 1212.85 614.4 1218.9 609.75 1212.9 605.6 1207.65 610.2
M 1194.8 600.05
L 1200.05 596.55 1198.6 595.5 1193.65 599.15 1194.8 600.05
M 1200.95 597.2
L 1196.25 601.25 1199.5 603.85 1199.5 603.75 1204.3 599.55 1200.95 597.2
M 1209 602.85
L 1209.05 602.85 1207.45 601.75 1202.3 606 1204.4 607.65 1209 602.85
M 1211.6 604.7
L 1210.9 604.15 1205.35 608.4 1206.25 609.1 1211.6 604.7
M 1221.95 626.15
L 1229.35 632.65 1236.9 622.45 1237 622.45 1231.25 618.5 1221.95 626.15
M 1215.65 616.6
L 1219.15 611.7 1213.7 615.05 1215.65 616.6
M 1223.5 613
L 1222.35 612.25 1215.75 616.65 1215.75 616.7 1217.25 617.9 1223.5 613
M 1022.1 542.65
L 1019 542.65 1017.25 544.8
Q 1009.1 554.65 1010.8 564.6
L 1010.8 564.65
Q 1013.3 571.25 1016.25 572.6
L 1024.45 607.35
Q 1029.3 615.45 1026.55 618.2 1037.35 627.9 1057.8 625.25 1069.65 620.5 1075.6 612.7
L 1072.8 602.2 1074.65 600.65 1073.9 598.65 1069.35 601.1 1071.4 596.95 1068.65 586.6 1065.2 588.55 1064.6 587.35 1067.85 583.8
Q 1067.05 581.05 1063.2 583.8
L 1063.2 581.85 1066.55 579 1063.05 565.75 1069.05 553.8
Q 1069.15 551.7 1068.7 549.7 1068.65 549.2 1068.2 547.6
L 1067.95 546.95
Q 1067.4 545.5 1066.25 543.5
L 1065.4 542.2
Q 1054.35 539.9 1042.95 538.25
L 1024.45 533.15 1023.5 537.25
Q 1026.5 539.2 1025.85 540.45
L 1022.1 542.65
M 1039.45 565.3
L 1041 566.05
Q 1042.3 566.65 1042.5 567.55 1042.65 568.4 1041.95 569.1 1041.35 569.7 1040.3 569.7 1039.4 569.7 1038.65 569.1 1037.9 568.25 1037.75 567.15 1037.45 565.9 1038.35 565.5 1039.05 565.15 1039.45 565.3
M 1027.05 584.3
Q 1026.95 584 1027.45 583.85 1028.15 583.65 1028.55 583.65 1029.25 583.65 1029.75 584 1030.2 584.4 1030.2 584.75 1030.2 585.35 1029.75 585.55 1029.45 585.8 1028.7 585.95 1028.2 585.95 1027.6 585.3 1027.05 584.5 1027.05 584.3
M 1048.95 573.65
Q 1048.2 573.2 1050.25 572.6
L 1054.25 571.3
Q 1054.8 571.3 1055.1 571.65 1055.45 571.95 1054 572.4 1052.45 572.75 1052.45 573.3 1052.45 574 1051.1 574.05 1049.65 574.15 1048.95 573.65
M 1049 586.25
Q 1049.75 586.25 1049.6 587.05 1049.35 587.85 1049.8 588.95 1050.25 589.95 1049.85 590.9 1049.55 591.6 1047.95 591.75 1046.35 591.85 1046.55 590.15 1046.55 589.35 1046.8 587.95 1046.9 587.6 1047.55 586.85
L 1048 586.55
Q 1048.55 586.25 1049 586.25
M 1045.95 401.35
L 1043.6 401.35 1045.7 402.4 1047.1 402.4 1045.95 401.35
M 1049 401.75
Q 1048.8 401.55 1048.5 401.55 1048.15 401.55 1047.9 401.75 1047.65 402.05 1047.75 402.3 1047.8 402.6 1048.15 402.95 1048.4 403.2 1048.75 403.1
L 1049.05 403.1 1049.45 402.9 1049.5 402.9 1049.6 402.85 1049.5 402.75 1049.25 402.25
Q 1049.25 402.1 1049 401.75
M 1056.8 399.15
L 1056.8 398.3
Q 1054.35 398.45 1051.6 396.6 1048.2 397.05 1046.9 398.3 1048.8 397.35 1050.3 398.3
L 1052.3 399.9 1055.75 401
Q 1056.65 400.4 1056.8 399.15
M 1194.35 592.6
L 1192.3 591.1 1187.55 594.25 1189.8 596.1 1189.8 596.05 1194.35 592.6
M 1196.4 593.95
L 1195.4 593.3 1190.65 596.8 1191.45 597.4 1196.4 593.95
M 1158.65 568.2
L 1158.6 568.2 1157.75 569.55 1171.45 581.6 1183 590.65
Q 1189.6 591.05 1187.45 587.75
L 1158.65 568.2
M 1155.3 560.75
L 1155.3 558.8 1153.05 555.9 1153 555.9 1151.8 554.2 1149.55 554 1146.65 555.7 1145.95 557.65 1145 556 1142.25 556.8 1141.4 559.35 1136.65 562.5 1134.95 560.5 1132.8 560.35 1132.8 559.65 1130.75 558.8 1128.75 560.25 1126.5 560.25 1127.45 563.25 1129.45 563.9 1126.9 564.75 1125.35 562.4 1123.1 560.9 1121.25 557.2 1116.8 555.4 1108.55 559 1116.75 558.8 1120.7 560.3 1120.85 565.3 1125.25 568.55 1133.05 565.75 1140.75 565.9
Q 1145.05 568.45 1148.9 568.05
L 1150.65 566.75 1150.65 566.6
Q 1152.7 567.85 1155.25 567.45
L 1155.4 567.4
Q 1156 567.35 1156.8 567
L 1157.75 566.6 1157.65 561.75 1155.3 560.75
M 924.5 317.6
Q 924.5 319 928.95 316.9
L 933.2 313.05 926.55 315.85 924.5 317.6
M 915.65 321.35
L 919.9 321.25 923.35 319.4 923.6 318 919.1 318.25
Q 913.1 320.2 908.1 325.25
L 915.65 321.35
M 917.9 316.6
L 920.15 317.15 925.25 314.4 924.2 313.3 922.85 313.25 917.9 316.6
M 1057.85 392.15
L 1061.1 394.55 1064.3 392.9 1067.95 394.9 1063.9 390.8 1061.8 390.35 1058.05 388.45 1057.85 392.15
M 1026.55 364.05
L 1025.65 362.45 1023.95 362.55 1024.65 364.75 1023.95 366.25 1023.95 367.5 1024.8 368.85
Q 1024.95 369.35 1025.85 369.25 1026.75 369.25 1026.8 369.05
L 1027.35 367.7 1027.15 367.55
Q 1026.85 367.35 1026.95 367.25 1026.7 367.25 1026.55 364.05
M 1052.6 371.15
L 1050.6 370.55
Q 1052.7 375.05 1055.9 378.35
L 1055.95 380.5 1060.4 381.9 1068.3 379.1 1071.75 376.5 1074.4 376.05 1074.4 375 1069.15 375.05 1066.3 374.75 1064.25 376.05
Q 1061.45 376.55 1057.45 374.75
L 1052.6 371.15
M 1008.05 350.05
Q 1009.3 351.1 1009.95 350
L 1009.05 342.2
Q 1009 348.35 1008.05 350.05
M 1047.75 316.55
Q 1049.5 317 1050.05 318.05
L 1053.05 316.4 1050.7 315.1
Q 1049.05 316.85 1047.75 316.55
M 1043.1 306.45
L 1043.6 304.4 1039.95 305.45 1038.35 302 1037.75 301.65 1041.85 298.8 1035.25 299.95 1035.2 299.95 1035.15 300.1 1032.4 304 1033.95 306.45 1030.7 310 1027.35 305.45 1022.65 308.15 1020.55 313.5 1023.7 310.1 1027.6 310.1 1027.7 313.75 1016.05 318.25 1016.05 318.3 1004.35 316.4 1002.3 317 1004.25 318.25 990.45 325.15 978.05 328.85 977.95 331.7 960.05 339.6 958.1 342 954.5 342 952.1 344.65 949.1 344.15
Q 948.4 341.1 957.6 334.85
L 978.25 326 978.15 327.4 985.25 323 997.4 318.35 991.15 313.5
Q 987.1 313.3 983.3 314.55
L 983.15 312.8 985.05 311.95 981.2 312
Q 970.45 312 962.4 310.45
L 958.9 309.15 954.65 309.45 949.45 311.55 929.35 322.4 929.1 322.8 929.1 322.85 929 323 928.8 323.6 959.9 313.65 950.6 320.05 945.1 320.7 929.85 328.65 926.75 325.55 914.85 337.7 914.85 328 898.05 345 897.2 340.35 899.2 334.4 891.4 344.8 890.55 336.15 885.65 343.9 880.65 339.9 886.5 335.3 887.75 329.45 904.3 321.45 899.35 327.8 905.8 323.6 905.8 323.5 919.6 313.5 919.4 313.55
Q 916.25 314.1 912.85 315.75
L 901.55 320.85
Q 892.8 324.1 889.7 323.4
L 882.55 327.5 878.7 330.8 872.6 330.8 847.15 345.65
Q 844.5 338.3 838.95 337.65
L 830.35 349.6 827.45 358.9 821.7 363.1 817.75 369.7 816.85 372.6 812.65 379.2 812.2 383 806.05 389.35 798.05 412.8 796.9 423 794.3 428.55 793.85 431.2 790.75 438.5 791.65 442.25 782.8 463.75 770.65 490.95 770.45 494.9 760.05 503.3 751.2 508 750.7 510.85 743.65 515.65 742.8 518.8 740.1 519.05 726.2 534.95 723.35 537.4 723.35 542.95 714 548.2 702.95 561.75 697.75 576.45 691.95 582.7 687.75 583.75 675.7 591.3 666.7 595.55 655.6 603.9 655 604.6 654.95 604.7
Q 650.55 610.35 645.7 621.3 641.3 630 651.7 637.55 654.7 640.45 667.35 637.75 673.1 635.75 688.3 619.8
L 692.4 619.8 696.9 614.65 703.2 610.45 717.55 614.85 728.55 608.6 728.55 606.3 739.35 599.75 740.3 596.15 772.8 558.8 778.55 542.5
Q 815.45 523.05 831.1 504.85
L 848 489 851.2 486.5 857.75 479.35
Q 862.25 474.35 866.8 468.45 873.1 462.8 879.95 457.25
L 890.3 454.25
Q 904.1 469.25 915.2 485.55
L 918.35 514.25 919.6 516.45 916.4 528.35 920.4 539.5 922.2 540.45 917.25 546.75 917.45 551 914.55 557.75 915.85 559.25 911 572.35 911.65 575.85 896.75 618.5 890.4 628.65 889.65 640.85 890.7 643.2 885.95 659.65 887.8 662.85
Q 886.15 665.8 887.35 668.8 890.4 672.2 894.85 673.7
L 904.5 676.8 906.3 675.75 914.45 678.8
Q 917.85 680.3 920.4 681.9 925.4 685.05 927.75 688.6 932.7 694.45 953.6 697.8 966.4 695.4 969.6 690.3
L 969.2 688.5 969.05 686.6 968.95 686.65 968.95 686.6 968.9 686.75 968.55 687
Q 968.35 687.2 967.85 687.2 967.45 687.35 967.1 687 966.75 686.75 966.8 686.4 967 686.1 967.25 685.9
L 967.75 685.45
Q 967.75 685.3 968.2 685.5
L 968.95 685.9
Q 968.9 684.6 968.95 683.4
L 967.75 680.7 941.5 661.95 935 649.65 937.75 646.9 937.75 641.1 945.45 634.95 949.95 615.05 960.85 581.6 961.7 574.3 965.5 568.7 965.5 568.65 964.65 561.2 969.1 550.3 977.8 523.95 979.3 509.5 977.05 501.05 971.25 485.4 971.05 478.45
Q 962.8 462.75 961.7 443.05 964.1 440.8 967.2 439.45 971 437.85 975.8 437.2 991.4 437.4 1005.6 443.35
L 1012.55 469.4 1017.85 463.75 1017.85 429 1010.2 413.9 1004.45 415.7 1009.85 397.75 1021.6 397.1 1023.1 392.95 1025.55 394.55
Q 1035.15 409.9 1039.55 409.75
L 1040.3 409.8
Q 1049.4 410.2 1051.95 404.45
L 1051.15 405.1
Q 1044.65 410.05 1040.35 408.25 1038.15 407.3 1036.55 404.25 1031.3 399.25 1028.2 393.25
L 1027.05 390.85
Q 1026.65 390.2 1026.5 389.35
L 1027.2 384.9 1025.7 380.6
Q 1023.3 378.6 1021.35 371.3
L 1021.35 367.55
Q 1012.45 364.65 1013.55 353.95 1011.95 355.95 1009.65 354.15 1009.75 356.35 1007.4 358.4 1006.7 353.55 1006.45 350.2 1006.05 344.45 1006.5 338.85 1006.65 336.5 1008.7 334.9 1010.75 334.45 1010.75 331.15 1012.65 332.65 1011.05 337.3
L 1012.3 341.35
Q 1011.6 343.6 1011.9 347.85
L 1012.3 350.5 1013.75 351.7 1013.85 349.75 1014.25 347.7
Q 1015.4 344.15 1019 342.5 1026.1 340.2 1030.3 347.15
L 1031.9 347.9
Q 1032 349.75 1029.65 351.35 1026.25 345.25 1022.45 345.25 1018.85 345.2 1016.35 349.3
L 1017.95 349.1
Q 1020.55 346.25 1022.7 347.4 1024.65 349.5 1022.3 350.3 1017.6 351.1 1019 353.05
L 1020 354.35 1023.25 355.1
Q 1024.3 357.4 1027.2 354.95 1027.9 354.4 1028.5 354.6 1029.15 354.9 1029.75 356.1
L 1032.95 356.4
Q 1032.9 358.85 1030.8 361.45 1029.25 363.7 1030.45 366.15
L 1032.8 367.35 1035.25 367.55 1039.05 362.8 1045.15 357.5
Q 1052.3 359.9 1054 351.35
L 1054.85 340 1052.1 336.1 1052.75 333.2 1057.8 332.65 1058.7 330.95 1058.05 328.2 1061.7 325.75 1059.5 324.3 1055.9 327.95 1055.7 325.1 1051.45 323.65 1057.8 317.9 1054.4 316.5 1049.05 321.3 1046.8 318.7 1046.8 315.6 1048.95 312.6 1043.1 306.45
M 1033.6 310.85
L 1033.95 311.55 1032.55 312.25 1031.45 312.15 1031.35 311.55 1033.6 310.85
M 1025.85 318.1
L 1026.85 318.5 1028.7 317.2 1030.15 317.45 1030.15 318 1030.05 318.5
Q 1030.1 318.55 1028.65 319.6
L 1027.85 319.05 1026.8 318.9 1026.55 319.4 1025 318.9
Q 1025.05 318.95 1025.85 318.1
M 1024.85 321.35
Q 1024.9 321.4 1025.2 320.45
L 1026.5 320.35 1025.7 321.15 1026.6 321.8 1028.45 320.6 1028.7 320.65 1030.25 320.65 1030.7 321.25
Q 1030.8 321.35 1028.9 322.15
L 1029.5 323.15
Q 1029.6 323.25 1029.4 324.05 1029.6 324.15 1028.65 324.6
L 1028.3 325.15 1028.85 325.8
Q 1028.95 326.1 1029.1 326.1
L 1030.4 326.3
Q 1030.45 326.35 1030.4 326.65
L 1030.4 326.95 1030.05 327.75 1028.75 328.05
Q 1028.9 328.05 1027.6 328.8
L 1025.85 328.9 1027.2 327.7
Q 1027.45 327.7 1028.45 327.15
L 1027.7 325.9 1026.55 326 1026.2 323.45
Q 1026.3 323.45 1025.9 323.05
L 1025.55 322.6 1024.65 322.75 1024.6 323.5
Q 1024.6 323.6 1023.1 323.3
L 1022.95 321.95 1024.4 321.1 1024.85 321.35
M 1025.65 333.1
L 1024.75 332.7 1024.9 331.6
Q 1025.1 331.75 1024.65 331.05
L 1025.55 329.65
Q 1025.7 329.35 1025.7 329.65
L 1027.85 330.1 1028 331.25 1028.65 332.05 1027.15 333.2 1026.4 332.5 1025.65 333.1
M 981.25 314.65
Q 982 314.65 982.1 314.85 982.25 315.1 981.65 315.45 975 318.55 973.8 321
L 951.25 331.05
Q 954.25 325.65 963.3 322
L 981.25 314.65
M 991.8 336.65
Q 982.25 339.85 973.4 339.7 991.15 331.95 1005.75 327.1
L 991.8 336.65
M 1007.7 390.8
Q 1010.2 388.35 1010.1 385.65
L 1012.7 385.15 1014.7 389.9 1018.4 390.75 1020.55 390.75 1023.8 392.3 1009.45 392.3 1007.7 390.8
M 882.1 332.15
L 883.55 332.45 879.25 338.15 876.8 338.15 871.1 345.4 868.5 346.95 866.85 344.35 863.1 347.05 863.1 348.7 865.25 349.35 856.9 350.5 860.7 348.7 862 344.55 877.3 336.4 882.1 332.15
M 838.05 358.9
L 837.2 365.35 832.65 372.65 830.15 371.2 821.4 382.85 821.25 377.4 829.25 370.05 833.5 360.65 838.95 354.7 846.65 349.95 838.05 358.9
M 957.6 430.55
L 961.1 429.25 962 430.75 956.35 432.9 956.3 433.55
Q 956.3 434.15 956.2 434.15
L 958.75 433.85
Q 958.65 433.95 962.4 435.45
L 966.05 436.85 950.3 439.45 954.65 435.35 955.5 435.65
Q 956.3 435.8 956.3 435.75
L 955.55 434.4
Q 954.95 433.15 954.8 433.15 954.8 433.2 954.3 432.5
L 954 431.8
Q 954 431.85 957.6 430.55
M 677.95 591.55
L 677.65 593.45 677.65 598.45 676.1 602.65 673.1 602.65 674.8 598.95 671.2 598.95 666.7 602.15 664.35 600.05 664.45 602.65
Q 653.85 611.4 649.65 623.75
L 648.05 622.5
Q 650.1 614.7 656.35 605.7 662.25 600.55 664.35 600.05
L 666.2 597.6 668.95 597.6 672.3 594.4 677.95 591.55
M 738.05 537.55
L 738.3 536.95
Q 738.6 536.35 738.55 536.35
L 737.6 535.6
Q 737.5 535.6 736.75 532.9
L 737.95 533.25 738.25 534.45 739.9 534.4 743.35 535.75 744 538.3 741.85 539.15 739.8 538.05 738.05 537.55
M 696.95 600
L 696.5 599.1 697.35 597.8 698.9 598.7 699.25 599.85 697.7 601.05 696.9 600.6 696.95 600
M 665.6 615.75
L 665.6 616.2 665.55 616.55 667.7 618.15 668.55 620.55 666.25 620.95 663.7 618.3 663.55 616.15 665.6 615.75
M 654.15 625.45
Q 655.75 624.55 655.85 624.4
L 656.75 626.3 655.05 628.1
Q 655.05 628.3 654.15 625.45
M 930.45 664.5
L 930.5 664.2
Q 930.6 664.2 930.55 664.15
L 931.15 663.4
Q 931.6 662.9 932.15 662.9 932.75 662.9 932.9 664.1 933.05 665.25 933.3 665.25 933.6 665.25 933.7 666.25
L 933.65 666.55
Q 933.95 666.5 934.35 666.95
L 935.4 668.9
Q 935.5 669.4 935.3 670.15 935.3 670.95 934.35 671.2 933.5 671.35 933.35 670.4 933.2 669.45 932.7 668.65
L 932.65 668.6
Q 932.4 668.1 932.4 667.85 932.4 667.75 932.6 667.45
L 932.6 667.4 933.1 666.9 932.5 666.65
Q 931.55 666.15 930.7 665.5
L 930.45 665.25
Q 930.2 664.85 930.4 664.5
L 930.45 664.5 Z"/>
</g>

<path id="Layer0_0_MEMBER_1_MEMBER_1_MEMBER_0_1_STROKES" stroke="#020303" stroke-width="2.6" stroke-linejoin="round" stroke-linecap="round" fill="none" d="
M 1027.35 305.45
Q 1031.05 301.75 1035.2 299.95
L 1035.25 299.95 1054.2 296.6
Q 1060.65 295.3 1066.75 297.25 1074 299.5 1078 303.35
L 1078 303.4 1086.75 315.4 1091.55 327.3
Q 1095.9 339.45 1092.6 356.55 1089.4 365.25 1083.6 372.3
L 1075.1 375.95 1072.05 394.75
Q 1069.6 396.9 1067.6 395.75
L 1064.3 392.9
M 1022.65 308.15
L 1020.65 310.45 1016.05 318.25
M 981.2 312
L 988.95 311.8 991.15 313.5
M 1002.3 317
L 997.4 318.35
M 961.3 310
L 962.4 310.45
M 924.2 313.3
Q 925.85 313.35 927.9 314
L 934.1 311.35 954.4 309.55
M 922.85 313.25
L 919.6 313.5
M 848.05 489
L 851.2 486.5 857.75 479.4
M 920.4 539.5
L 922.2 540.5
M 965.85 558.15
L 964.65 561.2 965 564
M 736.65 601.35
L 739.35 599.75 740.3 596.15
M 675.7 591.3
L 666.7 595.55 655.6 603.9 655 604.6
M 945.45 634.95
L 946.25 634.2
M 968.95 685.9
L 969.05 686.3 969.05 686.6 969.2 688.5
M 1171.45 581.6
L 1155.25 567.45
M 1021.6 397.1
L 1015.4 414.2 1028.05 472.55 1033.75 494.05 1033.75 494.15 1054.65 505.25
Q 1066.8 511.85 1077.35 514.45
L 1111.1 530.55 1138.9 527.65 1154 553.4 1153.05 555.9
M 1155.3 558.8
L 1157.65 561.75
M 1156.8 567
L 1158.6 568.2
M 1063.45 393.35
Q 1062.7 398.9 1057.9 398.15
L 1057.9 399.7
Q 1056.9 405.75 1051.95 404.45
M 1012.55 469.4
L 1014.6 477
Q 1017.25 486.1 1033.75 494.05
M 1019 542.65
L 1023.5 537.35
M 1024.45 533.15
Q 1019.45 527.35 1013.45 523.95 995.75 512.75 981.7 509.95
L 979.3 509.5
M 1065.6 542.5
L 1065.45 542.2 1073.65 544.05
Q 1085.25 546.9 1094.7 550 1105.35 559.35 1108.55 559
M 1123.05 567
L 1120.85 565.4
M 1073.65 544.05
L 1070 549.55 1080.7 600.3
Q 1079.7 607.25 1075.6 612.7
M 1026.55 618.2
Q 1024.6 616.55 1023.15 614.75
L 1010.8 564.65
M 1219.35 611.65
L 1215.65 616.6
M 1235.55 624.4
L 1237 622.5
M 1211.6 604.7
L 1206.25 609.15 1205.35 608.4
M 1199.55 603.85
L 1201.35 602.2
M 1207.3 604.7
L 1209.05 602.95
M 1189.85 596.1
L 1191.55 594.75"/>

<path id="Layer0_0_MEMBER_1_MEMBER_2_MEMBER_0_1_STROKES" stroke="#020303" stroke-width="2.6" stroke-linejoin="round" stroke-linecap="round" fill="none" d="
M 1022.65 308.15
L 1027.35 305.45
M 1016.05 318.3
L 1004.35 316.4 1002.3 317
M 997.4 318.35
L 991.15 313.5
M 1051.15 405.1
L 1051.95 404.45
Q 1049.4 410.2 1040.3 409.8
L 1039.55 409.75
Q 1035.15 409.9 1025.55 394.55
L 1023.1 392.95 1021.6 397.1
M 1064.3 392.9
L 1063.45 393.35
M 919.4 313.55
Q 916.25 314.1 912.85 315.75
L 901.55 320.85
Q 892.8 324.1 889.7 323.4
L 882.55 327.5 878.7 330.8 872.6 330.8 847.15 345.65
Q 844.5 338.3 838.95 337.65
L 830.35 349.6 827.45 358.9 821.7 363.1 817.75 369.7 816.85 372.6 812.65 379.2 812.2 383 806.05 389.35 798.05 412.8 796.9 423 794.3 428.55 793.85 431.2 790.75 438.5 791.65 442.25 782.8 463.75 770.65 490.95 770.45 494.9 760.05 503.3 751.2 508 750.7 510.85 743.65 515.65 742.8 518.8 740.1 519.05 726.2 534.95 723.35 537.4 723.35 542.95 714 548.2 702.95 561.75 697.75 576.45 691.95 582.7 687.75 583.75 675.7 591.3
M 961.3 310
L 958.9 309.15 954.65 309.45 954.4 309.55
M 924.2 313.3
L 922.85 313.25
M 1012.55 469.4
L 1005.6 443.35
Q 991.4 437.4 975.8 437.2 971 437.85 967.2 439.45 964.1 440.8 961.7 443.05 962.8 462.75 971.05 478.45
L 971.25 485.4 977.05 501.05 979.3 509.5 977.8 523.95 969.1 550.3 964.6 561.2 965.5 568.65 965.5 568.7 961.7 574.3 960.85 581.6 949.95 615.05 945.45 634.95 937.75 641.1 937.75 646.9 935 649.65 941.5 661.95 967.75 680.7 968.95 683.4
Q 968.9 684.6 968.95 685.9
M 857.75 479.4
Q 862.35 474.2 866.8 468.45 873.1 462.8 879.95 457.25
L 890.3 454.25
Q 904.1 469.25 915.2 485.55
L 918.35 514.25 919.6 516.45 916.4 528.35 920.4 539.5 922.25 540.45 922.2 540.5 917.25 546.75 917.45 551 914.55 557.75 915.85 559.25 911 572.35 911.65 575.85 896.75 618.5 890.4 628.65 889.65 640.85 890.7 643.2 885.95 659.65 887.8 662.85
Q 886.15 665.8 887.35 668.8 890.4 672.2 894.85 673.7
L 904.5 676.8 906.3 675.75 914.45 678.8
Q 917.85 680.3 920.4 681.9 925.4 685.05 927.75 688.6 932.7 694.45 953.6 697.8 966.4 695.4 969.6 690.3
L 969.2 688.5
M 740.3 596.15
L 772.8 558.8 778.55 542.5
Q 815.45 523.05 831.1 504.85
L 852.9 484.75
M 654.95 604.7
Q 650.55 610.35 645.7 621.3 641.3 630 651.7 637.55 654.7 640.45 667.35 637.75 673.1 635.75 688.3 619.8
L 692.4 619.8 696.9 614.65 703.2 610.45 717.55 614.85 728.55 608.6 728.55 606.3 739.35 599.65 739.6 598.8
M 969.15 688.05
L 968.95 686.65
M 1157.65 561.75
L 1157.75 566.6 1156.8 567
Q 1156 567.35 1155.4 567.4
L 1155.25 567.45
Q 1152.7 567.85 1150.65 566.6
L 1150.65 566.75 1148.9 568.05
Q 1145.05 568.45 1140.75 565.9
L 1133.05 565.75 1125.25 568.55 1120.85 565.3 1120.7 560.3 1116.75 558.8 1108.55 559
M 1171.45 581.6
L 1183 590.65
Q 1189.6 591.05 1187.45 587.75
L 1158.65 568.2 1158.6 568.2 1157.75 569.55 1159.4 571.05
M 1153.05 555.9
L 1155.3 558.8
M 1187.55 594.25
L 1189.8 596.1 1189.85 596.05 1194.35 592.6 1192.3 591.1 1187.55 594.25 Z
M 1195.4 593.3
L 1190.65 596.8 1191.45 597.4 1196.4 593.95 1195.4 593.3 Z
M 1065.4 542.2
Q 1054.35 539.9 1042.95 538.25
L 1024.45 533.15 1023.5 537.25
M 1010.8 564.6
Q 1009.1 554.65 1017.25 544.8
L 1019 542.65
M 1075.6 612.7
Q 1069.65 620.5 1057.8 625.25 1037.35 627.9 1026.55 618.2
M 1219.175 611.725
L 1219.3 611.65 1219.2 611.7 1219.175 611.725 1217.45 614.15
M 1219.175 611.725
L 1213.7 615.05 1215.75 616.7 1215.8 616.7 1222.35 612.25 1223.5 613 1217.25 617.9 1215.75 616.7
M 1229.35 632.65
L 1236.95 622.5 1237 622.45 1231.25 618.5 1221.95 626.15 1229.35 632.65 Z
M 1209.05 602.85
L 1207.45 601.75 1202.3 606 1204.4 607.65 1209.05 602.9 1209.05 602.85 Z
M 1211.6 604.7
L 1210.9 604.15 1205.35 608.4 1206.25 609.1 1208.3 607.45
M 1196.25 601.25
L 1199.5 603.85 1204.3 599.55 1200.95 597.2 1196.25 601.25 Z
M 1198.6 595.5
L 1200.05 596.55 1194.8 600.05 1193.65 599.15 1198.6 595.5 Z
M 1218.9 609.75
L 1212.9 605.6 1207.65 610.2 1212.85 614.4 1218.9 609.75 Z
M 962.4 310.45
Q 970.45 312 981.2 312"/>
</defs>

<g transform="matrix( 1, 0, 0, 1, -960,-480) ">
<use xlink:href="#Layer0_0_MEMBER_0_FILL"/>
</g>

<g transform="matrix( 1, 0, 0, 1, -960,-480) ">
<use xlink:href="#Layer0_0_MEMBER_1_MEMBER_0_MEMBER_0_MEMBER_0_FILL"/>
</g>

<g transform="matrix( 1, 0, 0, 1, -960,-480) ">
<use xlink:href="#Layer0_0_MEMBER_1_MEMBER_1_MEMBER_0_1_STROKES"/>
</g>

<g transform="matrix( 1, 0, 0, 1, -960,-480) ">
<use xlink:href="#Layer0_0_MEMBER_1_MEMBER_2_MEMBER_0_1_STROKES"/>
</g>
</svg>
