
<svg xmlns="http://www.w3.org/2000/svg" version="1.1" xmlns:xlink="http://www.w3.org/1999/xlink" preserveAspectRatio="none" x="0px" y="0px" width="1920px" height="1080px" viewBox="0 0 1920 1080">
<defs>
<g id="Layer0_0_FILL">
<path fill="#231F20" stroke="none" d="
M -21.3 -79
L -62.4 -79 -62.4 79.1 -21.3 79.1 -21.3 -79
M -100.85 -17.4
L -100.85 -47.35 -72.3 -47.35 -72.3 -79 -141.95 -79 -141.95 79.1 -100.85 79.1 -100.85 12.7 -75.45 12.7 -75.45 -17.4 -100.85 -17.4
M -219.2 -17.4
L -219.2 -47.35 -191.75 -47.35 -191.75 -79 -260.3 -79 -260.3 79.1 -189 79.1 -189 47.45 -219.2 47.45 -219.2 12.7 -193.5 12.7 -193.5 -17.4 -219.2 -17.4
M -359.5 -47.35
L -335.15 -47.35 -335.15 79.1 -294.05 79.1 -294.05 -47.35 -269.65 -47.35 -269.65 -79 -359.5 -79 -359.5 -47.35
M 269 79.1
L 305.8 79.1 305.8 47.45 269 47.45 269 79.1
M 312.55 -82.35
Q 295.35 -82.35 284.3 -75.1 273.2 -67.95 269.85 -58.4 266.55 -48.85 266.35 -28.05
L 305.8 -28.05 305.8 -37.6
Q 305.8 -51.45 307.1 -55.35 308.35 -59.4 312.85 -59.4 316.45 -59.4 317.7 -56.35 318.9 -53.4 318.9 -44.75
L 318.9 -18.45
Q 318.9 -3.05 317.6 1 316.25 4.9 311.35 4.9 305.1 4.9 304.95 -4.1
L 269 -4.1 269 39.35 305.8 39.35 305.8 22.35
Q 312.85 33.6 327.2 33.6 338.25 33.6 346.45 27.55 354.65 21.5 357.1 13.5 359.5 5.45 359.5 -7.7
L 359.5 -27.05
Q 359.5 -44.35 357 -52.45 354.45 -60.55 348.95 -67.5 343.5 -74.5 334.2 -78.4 324.95 -82.35 312.55 -82.35
M 231.5 -77.15
Q 220.2 -82.35 204.15 -82.35 189.5 -82.35 179.15 -77.55 168.8 -72.85 164.2 -64.45 159.55 -56.05 159.55 -37.9 159.55 -25.3 162.85 -17.2 166.1 -9.1 171.05 -4.5 176.05 0.1 191.35 10.25 206.7 20.3 210.6 24.6 214.4 28.9 214.4 42.85 214.4 49.2 212.45 52.45 210.4 55.65 206.3 55.65 202.2 55.65 200.65 53.1 199 50.6 199 41.7
L 199 22.45 160.8 22.45 160.8 32.8
Q 160.8 50.6 164.4 60.25 168.05 69.9 179.75 76.15 191.35 82.4 207.9 82.4 222.9 82.4 234.25 77.05 245.55 71.6 249.55 63.55 253.5 55.55 253.5 38.65 253.5 15.45 246.35 5 239.2 -5.45 211.8 -21.8 202.2 -27.45 200.15 -31.45 198 -35.45 198 -43.35 198 -49.5 199.95 -52.55 201.8 -55.55 205.55 -55.55 208.95 -55.55 210.4 -53.3 211.9 -51.1 211.9 -42.85
L 211.9 -31.15 250.05 -31.15 250.05 -37.4
Q 250.05 -56.25 246.45 -64.05 242.75 -71.95 231.5 -77.15
M 132.5 -79
L 73 -79 52.15 79.1 94.6 79.1 97.05 50.7 111.8 50.7 113.95 79.1 156.05 79.1 132.5 -79
M 110.7 22.65
L 96.55 22.65
Q 98.1 1.65 104.45 -43.75 107.6 -4.2 110.7 22.65
M 45.5 -79
L 4.4 -79 4.4 32.25 4 44.35
Q 3.6 47.45 1.05 49.6 -1.5 51.75 -5.85 51.75
L -11.25 51.45 -11.25 79.1 9.35 79.1
Q 23.05 79.1 29.75 77.05 36.6 74.9 40.5 69.45 44.5 63.95 45 57.25
L 45.5 26.65 45.5 -79 Z"/>
</g>
</defs>

<g transform="matrix( 1, 0, 0, 1, 0,0) ">
<use xlink:href="#Layer0_0_FILL"/>
</g>
</svg>
