
<svg xmlns="http://www.w3.org/2000/svg" version="1.1" xmlns:xlink="http://www.w3.org/1999/xlink" preserveAspectRatio="none" x="0px" y="0px" width="1920px" height="1080px" viewBox="0 0 1920 1080">
<defs>
<g id="Layer0_0_FILL">
<path fill="#231F20" stroke="none" d="
M -143.15 -66.45
L -155.5 -66.8
Q -148.55 -52.4 -146.15 -38.85 -113.95 -40.3 -97.45 -42
L -97.85 -21.4 -136.5 -21.4
Q -156.75 -21.4 -165.85 -22.65
L -165.85 7.6
Q -156.15 6.7 -137.05 6.7
L -100.8 6.7
Q -103.05 21.6 -109.8 30.6 -120.7 45.75 -151.45 56.95 -137.85 68.3 -128.6 84.6 -118 79.9 -110.7 75.25 -91.1 62.8 -80.1 45.75 -70.95 30.6 -67.8 6.7
L -35.05 6.7
Q -15.85 6.7 -6.45 7.6
L -6.45 -22.65
Q -17.6 -21.4 -35.55 -21.4
L -65.8 -21.4 -65.25 -46.4
Q -45.4 -50.1 -29.45 -55.2
L -19.2 -58.35 -39.25 -84.55
Q -49.7 -79.3 -62.45 -76.1 -78.3 -72.05 -101.5 -69.25 -124.9 -66.45 -143.15 -66.45
M 41.8 -34.45
L 41.8 -6.25
Q 51.7 -7.15 65.8 -7.15
L 82.75 -7.15 82.75 47.7 55.1 47.7
Q 38.4 47.7 30.2 46.65
L 30.2 74.6
Q 39.1 73.9 55.3 73.9
L 140.95 73.9
Q 156.95 73.9 165.85 74.6
L 165.85 46.65
Q 156.95 47.7 140.95 47.7
L 112.25 47.7 112.25 -7.15 129.85 -7.15
Q 145.45 -7.15 154.05 -6.25
L 154.05 -34.45
Q 144 -33.15 129.85 -33.15
L 65.65 -33.15
Q 51.85 -33.15 41.8 -34.45 Z"/>
</g>
</defs>

<g transform="matrix( 1, 0, 0, 1, 0,0) ">
<use xlink:href="#Layer0_0_FILL"/>
</g>
</svg>
