
<svg xmlns="http://www.w3.org/2000/svg" version="1.1" xmlns:xlink="http://www.w3.org/1999/xlink" preserveAspectRatio="none" x="0px" y="0px" width="1920px" height="1080px" viewBox="0 0 1920 1080">
<defs>
<g id="Layer0_0_FILL">
<path fill="#231F20" stroke="none" d="
M -37.75 -61.1
Q -46.3 -33.4 -61.7 -8
L -36.85 7.1
Q -20.9 -18.9 -9.15 -48.4
L -37.75 -61.1
M -121.4 -50.2
L -149.4 -60.2
Q -152 -44.9 -155.6 -33.65 -160.45 -19.45 -169.45 -6.4
L -143.25 8.9
Q -135 -5.05 -130.25 -18.35 -125 -33.1 -121.4 -50.2
M -105.5 -84.85
Q -104.4 -79.1 -104.4 -67.4 -104.4 -35 -107.4 -17.2 -110.35 0.55 -118.1 14.65 -133.9 43.35 -176.3 58.65 -165.4 71.15 -158.05 85.9 -130.15 73.3 -113.7 56.85 -98.3 41.45 -88.55 16.8 -79.6 39.85 -62.75 56.65 -46.3 73.25 -18.2 85.75 -11.1 70.8 -0.15 57.2 -39.7 43.2 -57.8 16.3 -67.35 2.05 -70.85 -15.2 -74.35 -32.5 -74.35 -64.95 -74.35 -79.1 -73.3 -84.85
L -105.5 -84.85
M 78.95 -85.9
Q 80.2 -77.2 80.2 -65.85
L 80.2 45.45 47 45.45 47 -35.8 47.8 -54.05 16.75 -54.05 17.75 -35.65 17.75 58.85
Q 17.75 75.95 16.75 84.45
L 47 84.45 47 73.6 145.8 73.6 145.8 84.45 176.35 84.45
Q 175.1 72.05 175.1 58.65
L 175.1 -35.8
Q 175.1 -43.35 176 -54.05
L 144.9 -54.05 145.8 -36 145.8 45.45 110.05 45.45 110.05 -65.85
Q 110.05 -76.9 111.35 -85.9
L 78.95 -85.9 Z"/>
</g>
</defs>

<g transform="matrix( 1, 0, 0, 1, 0,0) ">
<use xlink:href="#Layer0_0_FILL"/>
</g>
</svg>
