
<svg xmlns="http://www.w3.org/2000/svg" version="1.1" xmlns:xlink="http://www.w3.org/1999/xlink" preserveAspectRatio="none" x="0px" y="0px" width="1920px" height="1080px" viewBox="0 0 1920 1080">
<defs>
<g id="Layer0_0_FILL">
<path fill="#231F20" stroke="none" d="
M -138.25 -79
L -179.35 -79 -179.35 79.1 -138.25 79.1 -138.25 -79
M -87.35 -79
L -121.75 -79 -121.75 79.1 -87.35 79.1 -87.35 7.25 -66 79.1 -29.95 79.1 -29.95 -79 -64.3 -79 -64.3 -7.8 -87.35 -79
M -192.7 -56.65
Q -194.35 -63.75 -198.85 -68.75 -203.45 -73.75 -212.4 -76.35 -221.5 -79 -238.3 -79
L -279.7 -79 -279.7 79.1 -238.6 79.1 -238.6 15.45 -227.55 15.45
Q -214.05 15.45 -205.65 11.7 -197.35 8 -194.25 1.05 -191.1 -5.85 -191.1 -21
L -191.1 -34.75
Q -191.1 -49.6 -192.7 -56.65
M -225.5 -26
Q -225.5 -17.2 -227.65 -14.35 -229.9 -11.6 -235.55 -11.6
L -238.6 -11.7 -238.6 -51.95
Q -230.6 -51.95 -228.05 -49.5 -225.5 -47.05 -225.5 -38.95
L -225.5 -26
M 217.05 -79
L 187.95 -79 187.95 79.1 229.05 79.1 229.05 7.8
Q 237.55 7.8 239.6 10.85 241.55 13.85 241.55 26.55
L 241.55 79.1 279.75 79.1 279.75 37.4
Q 279.75 18.25 278.75 14.05 277.7 9.75 273.5 4.7 269.3 -0.4 257.1 -3.4 270.55 -4.7 275.15 -11.05 279.75 -17.4 279.75 -35.85 279.75 -56.05 273.3 -65.25 266.75 -74.5 256.5 -76.75 246.15 -79 217.05 -79
M 229.05 -51.95
Q 236.2 -51.95 238.95 -49.6 241.55 -47.25 241.55 -39.75
L 241.55 -31.05
Q 241.55 -20.6 238.85 -18.65 236 -16.8 229.05 -16.8
L 229.05 -51.95
M 44.95 -47.35
L 69.35 -47.35 69.35 -79 -20.5 -79 -20.5 -47.35 3.85 -47.35 3.85 79.1 44.95 79.1 44.95 -47.35
M 78.7 -47.15
Q 77.55 -37.3 77.55 -13.5
L 77.55 13.55
Q 77.55 38 78.7 47.75 79.9 57.5 86.05 65.8 92.2 74.1 102.35 78.3 112.4 82.4 125.1 82.4 138.45 82.4 148.55 78.05 158.6 73.65 164.55 65.45 170.4 57.25 171.55 47.35 172.65 37.4 172.65 13.55
L 172.65 -13.5
Q 172.65 -37.9 171.5 -47.65 170.3 -57.4 164.15 -65.7 158 -74 147.95 -78.15 137.8 -82.35 125.1 -82.35 111.7 -82.35 101.65 -77.95 91.6 -73.55 85.75 -65.35 79.8 -57.15 78.7 -47.15
M 125.3 -55.55
Q 129.1 -55.55 130.35 -52.45 131.55 -49.4 131.55 -38.4
L 131.55 34.3
Q 131.55 48.25 130.35 51.95 129.2 55.65 125 55.65 120.9 55.65 119.8 52.45 118.65 49.2 118.65 35.45
L 118.65 -38.4
Q 118.65 -50.6 120.4 -53.05 122.05 -55.55 125.3 -55.55 Z"/>
</g>
</defs>

<g transform="matrix( 1, 0, 0, 1, 0,0) ">
<use xlink:href="#Layer0_0_FILL"/>
</g>
</svg>
