
<svg xmlns="http://www.w3.org/2000/svg" version="1.1" xmlns:xlink="http://www.w3.org/1999/xlink" preserveAspectRatio="none" x="0px" y="0px" width="1920px" height="1080px" viewBox="0 0 1920 1080">
<defs>
<g id="Layer0_0_FILL">
<path fill="#231F20" stroke="none" d="
M -134.15 -79.2
Q -150.2 -79.2 -159.45 -80.3
L -159.45 -51.4
Q -148.65 -52.5 -133.65 -52.5
L -71.75 -52.5
Q -80.65 -42.6 -92 -35.05
L -106.9 -35.05 -106.2 -13.8 -149.9 -13.8
Q -168.25 -13.8 -178.25 -14.9
L -178.25 14.9
Q -167.2 13.8 -150.65 13.8
L -106.2 13.8 -106.2 52.7
Q -106.2 55.3 -107.7 56 -109.15 56.75 -114.65 56.75 -129.2 56.75 -142.1 54.95 -136.7 68.15 -134.15 85.5 -122 85.7 -116 85.7 -92.05 85.7 -84.15 80.95 -76.15 76.1 -76.15 61.75
L -76.15 13.8 -37.3 13.8
Q -21.35 13.8 -9.5 14.9
L -9.5 -14.9
Q -20 -13.8 -37.45 -13.8
L -76.15 -13.8 -76.15 -15.25
Q -52.4 -31.45 -27.75 -55.25
L -20.55 -62.1 -36.75 -80.1
Q -41.75 -79.2 -54.65 -79.2
L -134.15 -79.2
M -252.45 -18.95
L -260.4 -19.4 -260.4 -7.3 -252.45 -7.7 -234.85 -7.7
Q -228.7 -7.7 -226.9 -7.3
L -226.9 -19.4
Q -228.55 -18.95 -234.85 -18.95
L -252.45 -18.95
M -260.4 -35.2
L -260.4 -22.95 -252.45 -23.4 -228.55 -23.25 -226.9 -22.95 -226.9 -35.2
Q -228.7 -34.85 -234.85 -34.85
L -260.4 -35.2
M -330.05 -2.9
L -349 -3.65
Q -348.1 3.5 -348.1 15.55
L -348.1 46.65
Q -348.1 57.8 -349.2 67.45
L -321.2 67.45 -321.2 59.35 -293.25 59.35 -293.25 70.75
Q -293.25 81.3 -285.5 84.1 -277.75 86.95 -249.5 86.95 -223.8 86.95 -213.5 85.5 -203.35 84.15 -198.85 79.95 -195.35 76.7 -193.75 70.85 -192.1 65.1 -191.1 52.15 -199.2 50.7 -209.4 47.2
L -209.4 15.7
Q -209.4 3.5 -208.65 -3.65 -215.3 -2.9 -228 -2.9
L -330.05 -2.9
M -236.65 35.4
L -236.65 41.45 -266.15 41.45 -266.15 35.4 -236.65 35.4
M -236.65 14
L -236.65 19.95 -266.15 19.95 -266.15 14 -236.65 14
M -222.45 64.65
Q -226.1 66.55 -242.95 66.55 -259.5 66.55 -263.2 65.65 -266.15 64.65 -266.15 62.3
L -266.15 59.35 -219.35 59.35
Q -220.1 63.75 -222.45 64.65
M -293.25 41.45
L -320.85 41.45 -320.85 35.4 -293.25 35.4 -293.25 41.45
M -293.25 19.95
L -320.85 19.95 -320.85 14 -293.25 14 -293.25 19.95
M -330.2 -35.2
L -330.2 -22.95 -322.3 -23.4 -306.8 -23.4 -298.9 -22.95 -298.9 -35.2 -322.3 -34.85 -330.2 -35.2
M -330.2 -19.4
L -330.2 -7.15 -322.3 -7.5 -298.9 -7.15 -298.9 -19.4 -306.8 -18.95 -322.3 -18.95 -330.2 -19.4
M -336.15 -58.05
L -361.6 -58.6 -360.8 -42.4 -360.8 -29.8
Q -360.8 -21 -361.8 -14.5
L -335.4 -14.5 -335.4 -39.1 -293.75 -39.1 -293.75 -23.6 -294.5 -6.6 -265.25 -6.6
Q -265.95 -13 -265.95 -23.6
L -265.95 -39.1 -221.9 -39.1 -221.9 -14.5 -195.55 -14.5
Q -196.5 -20.75 -196.5 -29.8
L -196.5 -42.4
Q -196.5 -52.2 -195.7 -58.6
L -221.15 -58.05 -265.95 -58.05 -265.95 -62.85 -226.1 -62.85 -206.05 -62.3 -206.05 -83.95
Q -216.85 -82.9 -229.1 -82.9
L -328.05 -82.9
Q -339.9 -82.9 -351.25 -83.95
L -351.25 -62.3 -330.85 -62.85 -293.75 -62.85 -293.75 -58.05 -336.15 -58.05
M 237.05 -12.55
L 230.3 -36.3
Q 204.35 -21 187.3 -17.15
L 196.7 8.85 204.65 5.2
Q 222.65 -2.9 237.05 -12.55
M 236.65 -70.2
L 237.2 -53.4 237.2 -10.85 236.65 5.55 259.7 5 259.7 13.8 214.35 13.8
Q 198.95 13.8 190.95 12.75
L 190.95 39.8
Q 198.7 38.75 214.35 38.75
L 239.45 38.75
Q 221.45 51.95 186.9 59.9 196.25 71.3 202.95 85.15 222.65 78.8 233 73 249 63.95 260.4 51.25
L 259.9 68.35
Q 259.9 77.45 258.6 86.95
L 289.4 86.95
Q 287.5 79.4 287.5 68.35
L 287.15 51.05
Q 298.2 62.75 313.3 71.5 327.6 79.75 346.7 85.35 352.9 71.6 361.65 59 329.95 52.5 308.2 38.75
L 334 38.75
Q 348.7 38.75 357.6 39.8
L 357.6 12.75
Q 350.65 13.8 334.35 13.8
L 288.15 13.8 288.15 5 298.2 5
Q 306.2 5 312.6 5.55 312.05 -0.3 312.05 -11
L 312.05 -13.45
Q 329.5 -4.35 347.25 9.05
L 361.8 -14.15
Q 347.8 -23.95 329.85 -32.25 345.35 -44.95 359.55 -60.6
L 338.8 -79.2
Q 327.1 -63.8 312.05 -51.95
L 312.05 -54.35
Q 312.05 -65 312.6 -70.2 307.65 -69.65 297.65 -69.65
L 285.15 -69.65 292 -85.15 262.65 -87.5
Q 260.8 -78.5 257.2 -69.65
L 251.6 -69.65
Q 241.45 -69.65 236.65 -70.2
M 262.65 -41.8
L 262.65 -49.35 286.4 -49.35 286.4 -41.8 262.65 -41.8
M 262.65 -15.05
L 262.65 -22.8 286.4 -22.8 286.4 -15.05 262.65 -15.05
M 312.05 -16.05
L 312.05 -48.8 324.95 -34.6 312.05 -16.05
M 237.2 -53.4
Q 224.05 -67.35 208.5 -79
L 190.45 -59.85
Q 205.7 -48.95 219.4 -32.25
L 237.2 -53.4
M 42.9 -2.35
L 24.6 -2.9
Q 25.5 4.9 25.5 15.9
L 25.5 67.45
Q 25.5 78.7 24.45 87.5
L 53.15 87.5 53.15 80.95 126.75 80.95 126.75 87.5 155.45 87.5
Q 154.35 78.7 154.35 67.45
L 154.35 15.9
Q 154.35 5.35 155.25 -2.9
L 136.8 -2.35 42.9 -2.35
M 126.75 20.3
L 126.75 28.4 53.15 28.4 53.15 20.3 126.75 20.3
M 126.75 49.35
L 126.75 57.9 53.15 57.9 53.15 49.35 126.75 49.35
M 73.1 -85.85
L 74 -75.15 74 -72.9 37.65 -72.9
Q 23.1 -72.9 13.35 -74.05
L 13.35 -46.8 39.2 -47.55
Q 43.15 -40.6 45.6 -34.05
L 27.6 -34.05
Q 12.75 -34.05 5.65 -35.05
L 5.65 -8.15
Q 13 -9.05 26.25 -9.05
L 153.35 -9.05
Q 167.05 -9.05 174.4 -8.15
L 174.4 -34.85
Q 167.5 -34.05 153.8 -34.05
L 132.05 -34.05 138.5 -47.55 146.05 -47.55
Q 158.4 -47.55 166.3 -46.8
L 166.3 -74.05
Q 156.85 -72.9 140.7 -72.9
L 103.25 -72.9 103.25 -75.35 104.25 -85.85 73.1 -85.85
M 76 -34.05
L 70.15 -47.55 108.3 -47.55 102.35 -34.05 76 -34.05 Z"/>
</g>
</defs>

<g transform="matrix( 1, 0, 0, 1, 0,0) ">
<use xlink:href="#Layer0_0_FILL"/>
</g>
</svg>
