
<svg xmlns="http://www.w3.org/2000/svg" version="1.1" xmlns:xlink="http://www.w3.org/1999/xlink" preserveAspectRatio="none" x="0px" y="0px" width="1920px" height="1080px" viewBox="0 0 1920 1080">
<defs>
<g id="Layer0_0_FILL">
<path fill="#231F20" stroke="none" d="
M -790.95 -79
L -832.05 -79 -832.05 79.1 -765.95 79.1 -765.95 47.45 -790.95 47.45 -790.95 -79
M -736.1 -77.95
Q -746.15 -73.55 -752 -65.35 -757.95 -57.15 -759.05 -47.15 -760.2 -37.3 -760.2 -13.5
L -760.2 13.55
Q -760.2 38 -759.05 47.75 -757.85 57.5 -751.7 65.8 -745.55 74.1 -735.4 78.3 -725.35 82.4 -712.65 82.4 -699.3 82.4 -689.2 78.05 -679.15 73.65 -673.2 65.45 -667.35 57.25 -666.2 47.35 -665.1 37.4 -665.1 13.55
L -665.1 -13.5
Q -665.1 -37.9 -666.25 -47.65 -667.45 -57.4 -673.6 -65.7 -679.75 -74 -689.8 -78.15 -699.95 -82.35 -712.65 -82.35 -726.05 -82.35 -736.1 -77.95
M -717.35 -53.05
Q -715.7 -55.55 -712.45 -55.55 -708.65 -55.55 -707.4 -52.45 -706.2 -49.4 -706.2 -38.4
L -706.2 34.3
Q -706.2 48.25 -707.4 51.95 -708.55 55.65 -712.75 55.65 -716.85 55.65 -717.95 52.45 -719.1 49.2 -719.1 35.45
L -719.1 -38.4
Q -719.1 -50.6 -717.35 -53.05
M -309.75 -79
L -350.85 -79 -350.85 79.1 -309.75 79.1 -309.75 -79
M -4.6 -79
L -64.1 -79 -84.95 79.1 -42.5 79.1 -40.05 50.7 -25.3 50.7 -23.15 79.1 18.95 79.1 -4.6 -79
M -26.4 22.65
L -40.55 22.65
Q -39 1.65 -32.65 -43.75 -29.5 -4.2 -26.4 22.65
M -184.95 -47.15
Q -186.1 -37.3 -186.1 -13.5
L -186.1 13.55
Q -186.1 38 -184.95 47.75 -183.75 57.5 -177.6 65.8 -171.45 74.1 -161.3 78.3 -151.25 82.4 -138.55 82.4 -125.2 82.4 -115.1 78.05 -105.05 73.65 -99.1 65.45 -93.25 57.25 -92.1 47.35 -91 37.4 -91 13.55
L -91 -13.5
Q -91 -37.9 -92.15 -47.65 -93.35 -57.4 -99.5 -65.7 -105.65 -74 -115.7 -78.15 -125.85 -82.35 -138.55 -82.35 -151.95 -82.35 -162 -77.95 -172.05 -73.55 -177.9 -65.35 -183.85 -57.15 -184.95 -47.15
M -143.25 -53.05
Q -141.6 -55.55 -138.35 -55.55 -134.55 -55.55 -133.3 -52.45 -132.1 -49.4 -132.1 -38.4
L -132.1 34.3
Q -132.1 48.25 -133.3 51.95 -134.45 55.65 -138.65 55.65 -142.75 55.65 -143.85 52.45 -145 49.2 -145 35.45
L -145 -38.4
Q -145 -50.6 -143.25 -53.05
M -258.85 -79
L -293.25 -79 -293.25 79.1 -258.85 79.1 -258.85 7.25 -237.5 79.1 -201.45 79.1 -201.45 -79 -235.8 -79 -235.8 -7.8 -258.85 -79
M -462.4 -79
L -521.9 -79 -542.75 79.1 -500.3 79.1 -497.85 50.7 -483.1 50.7 -480.95 79.1 -438.85 79.1 -462.4 -79
M -484.2 22.65
L -498.35 22.65
Q -496.8 1.65 -490.45 -43.75 -487.3 -4.2 -484.2 22.65
M -450.05 -47.35
L -425.7 -47.35 -425.7 79.1 -384.6 79.1 -384.6 -47.35 -360.2 -47.35 -360.2 -79 -450.05 -79 -450.05 -47.35
M -573.45 -79
L -614.55 -79 -614.55 79.1 -548.45 79.1 -548.45 47.45 -573.45 47.45 -573.45 -79
M 599.4 -79
L 539.9 -79 519.05 79.1 561.5 79.1 563.95 50.7 578.7 50.7 580.85 79.1 622.95 79.1 599.4 -79
M 577.6 22.65
L 563.45 22.65
Q 565 1.65 571.35 -43.75 574.5 -4.2 577.6 22.65
M 458.9 -51.95
Q 460.3 -55.55 465.35 -55.55 469.85 -55.55 471.2 -52.65 472.5 -49.6 472.5 -37.6
L 472.5 -10.15 513.6 -10.15 513.6 -25.2
Q 513.6 -47.25 509.9 -57.8 506.2 -68.25 494.35 -75.3 482.55 -82.35 464.4 -82.35 451 -82.35 440.75 -77.75 430.4 -73.25 424.65 -65.35 418.8 -57.4 417.6 -48.85 416.45 -40.35 416.45 -23.25
L 416.45 22.95
Q 416.45 46.2 420.25 57.8 424.05 69.35 435.75 75.9 447.5 82.4 465.55 82.4 482.95 82.4 494.85 74.7 506.65 67 510.2 56.75 513.6 46.4 513.6 21.85
L 513.6 15.7 472.5 15.7 472.5 35.65
Q 472.5 48.65 471.1 52.15 469.65 55.65 465.05 55.65 460.3 55.65 458.9 52.15 457.55 48.65 457.55 37.1
L 457.55 -36.35
Q 457.55 -48.35 458.9 -51.95
M 401.1 -79
L 360 -79 360 79.1 401.1 79.1 401.1 -79
M 281.4 -79
L 252.3 -79 252.3 79.1 293.4 79.1 293.4 7.8
Q 301.9 7.8 303.95 10.85 305.9 13.85 305.9 26.55
L 305.9 79.1 344.1 79.1 344.1 37.4
Q 344.1 18.25 343.1 14.05 342.05 9.75 337.85 4.7 333.65 -0.4 321.45 -3.4 334.9 -4.7 339.5 -11.05 344.1 -17.4 344.1 -35.85 344.1 -56.05 337.65 -65.25 331.1 -74.5 320.85 -76.75 310.5 -79 281.4 -79
M 293.4 -51.95
Q 300.55 -51.95 303.3 -49.6 305.9 -47.25 305.9 -39.75
L 305.9 -31.05
Q 305.9 -20.6 303.2 -18.65 300.35 -16.8 293.4 -16.8
L 293.4 -51.95
M 236 -17.4
L 210.3 -17.4 210.3 -47.35 237.75 -47.35 237.75 -79 169.2 -79 169.2 79.1 240.5 79.1 240.5 47.45 210.3 47.45 210.3 12.7 236 12.7 236 -17.4
M 79.1 -79
L 25.85 -79 25.85 79.1 61.8 79.1 61.9 -25.2 76.95 79.1 102.4 79.1 116.75 -27.65 116.75 79.1 152.7 79.1 152.7 -79 99.2 -79 89.8 -5.2 79.1 -79
M 807.4 -78.15
Q 797.25 -82.35 784.55 -82.35 771.15 -82.35 761.1 -77.95 751.05 -73.55 745.2 -65.35 739.25 -57.15 738.15 -47.15 737 -37.3 737 -13.5
L 737 13.55
Q 737 38 738.15 47.75 739.35 57.5 745.5 65.8 751.65 74.1 761.8 78.3 771.85 82.4 784.55 82.4 797.9 82.4 808 78.05 818.05 73.65 824 65.45 829.85 57.25 831 47.35 832.1 37.4 832.1 13.55
L 832.1 -13.5
Q 832.1 -37.9 830.95 -47.65 829.75 -57.4 823.6 -65.7 817.45 -74 807.4 -78.15
M 779.85 -53.05
Q 781.5 -55.55 784.75 -55.55 788.55 -55.55 789.8 -52.45 791 -49.4 791 -38.4
L 791 34.3
Q 791 48.25 789.8 51.95 788.65 55.65 784.45 55.65 780.35 55.65 779.25 52.45 778.1 49.2 778.1 35.45
L 778.1 -38.4
Q 778.1 -50.6 779.85 -53.05
M 721.65 -79
L 687.3 -79 687.3 -7.8 664.25 -79 629.85 -79 629.85 79.1 664.25 79.1 664.25 7.25 685.6 79.1 721.65 79.1 721.65 -79 Z"/>
</g>
</defs>

<g transform="matrix( 1, 0, 0, 1, 0,0) ">
<use xlink:href="#Layer0_0_FILL"/>
</g>
</svg>
