
<svg xmlns="http://www.w3.org/2000/svg" version="1.1" xmlns:xlink="http://www.w3.org/1999/xlink" preserveAspectRatio="none" x="0px" y="0px" width="1920px" height="1080px" viewBox="0 0 1920 1080">
<defs>
<g id="Layer0_0_FILL">
<path fill="#231F20" stroke="none" d="
M -185 -80.7
L -244.5 -80.7 -265.35 77.4 -222.9 77.4 -220.45 49 -205.7 49 -203.55 77.4 -161.45 77.4 -185 -80.7
M -206.8 20.95
L -220.95 20.95
Q -219.4 -0.05 -213.05 -45.45 -209.9 -5.9 -206.8 20.95
M -172.65 -80.7
L -172.65 -49.05 -148.3 -49.05 -148.3 77.4 -107.2 77.4 -107.2 -49.05 -82.8 -49.05 -82.8 -80.7 -172.65 -80.7
M -430.1 -80.7
L -489.6 -80.7 -510.45 77.4 -468 77.4 -465.55 49 -450.8 49 -448.65 77.4 -406.55 77.4 -430.1 -80.7
M -451.9 20.95
L -466.05 20.95
Q -464.5 -0.05 -458.15 -45.45 -455 -5.9 -451.9 20.95
M -330 -80.7
L -364.4 -80.7 -364.4 77.4 -330 77.4 -330 5.55 -308.65 77.4 -272.6 77.4 -272.6 -80.7 -306.95 -80.7 -306.95 -9.5 -330 -80.7
M -541.15 -80.7
L -582.25 -80.7 -582.25 77.4 -516.15 77.4 -516.15 45.75 -541.15 45.75 -541.15 -80.7
M 11.9 65.2
Q 17.65 57.5 18.85 50.25 20 42.95 20 24.95
L 20 -80.7 -21.1 -80.7 -21.1 35.8
Q -21.1 47.6 -22.2 50.85 -23.35 53.95 -27.25 53.95 -30.65 53.95 -31.75 51.15 -32.9 48.2 -32.9 37.85
L -32.9 -80.7 -74.05 -80.7 -74.05 12.85
Q -74.05 39.6 -73.05 48 -72.1 56.3 -66.7 63.85 -61.35 71.35 -50.5 76.05 -39.65 80.7 -25.5 80.7 -12.7 80.7 -3.25 76.8 6.15 72.8 11.9 65.2
M 558.75 -80.7
L 499.25 -80.7 478.4 77.4 520.85 77.4 523.3 49 538.05 49 540.2 77.4 582.3 77.4 558.75 -80.7
M 536.95 20.95
L 522.8 20.95
Q 524.35 -0.05 530.7 -45.45 533.85 -5.9 536.95 20.95
M 401 -80.7
L 401 -49.05 428.9 -49.05 397.25 54.45 397.25 77.4 473.05 77.4 473.05 45.75 442.4 45.75 473.05 -49.05 473.05 -80.7 401 -80.7
M 362.3 -19.1
L 362.3 -49.05 389.75 -49.05 389.75 -80.7 321.2 -80.7 321.2 77.4 392.5 77.4 392.5 45.75 362.3 45.75 362.3 11 388 11 388 -19.1 362.3 -19.1
M 214.7 -80.7
L 155.2 -80.7 134.35 77.4 176.8 77.4 179.25 49 194 49 196.15 77.4 238.25 77.4 214.7 -80.7
M 192.9 20.95
L 178.75 20.95
Q 180.3 -0.05 186.65 -45.45 189.8 -5.9 192.9 20.95
M 286.25 -80.7
L 245.15 -80.7 245.15 77.4 311.25 77.4 311.25 45.75 286.25 45.75 286.25 -80.7
M 65 -80.7
L 35.9 -80.7 35.9 77.4 77 77.4 77 6.1
Q 85.5 6.1 87.55 9.15 89.5 12.15 89.5 24.85
L 89.5 77.4 127.7 77.4 127.7 35.7
Q 127.7 16.55 126.7 12.35 125.65 8.05 121.45 3 117.25 -2.1 105.05 -5.1 118.5 -6.4 123.1 -12.75 127.7 -19.1 127.7 -37.55 127.7 -57.75 121.25 -66.95 114.7 -76.2 104.45 -78.45 94.1 -80.7 65 -80.7
M 77 -18.5
L 77 -53.65
Q 84.15 -53.65 86.9 -51.3 89.5 -48.95 89.5 -41.45
L 89.5 -32.75
Q 89.5 -22.3 86.8 -20.35 83.95 -18.5 77 -18.5 Z"/>
</g>
</defs>

<g transform="matrix( 1, 0, 0, 1, 0,0) ">
<use xlink:href="#Layer0_0_FILL"/>
</g>
</svg>
