
<svg xmlns="http://www.w3.org/2000/svg" version="1.1" xmlns:xlink="http://www.w3.org/1999/xlink" preserveAspectRatio="none" x="0px" y="0px" width="1920px" height="1080px" viewBox="0 0 1920 1080">
<defs>
<g id="Layer0_0_FILL">
<path fill="#231F20" stroke="none" d="
M -54.25 -79.05
L -113.75 -79.05 -134.6 79.05 -92.15 79.05 -89.7 50.65 -74.95 50.65 -72.8 79.05 -30.7 79.05 -54.25 -79.05
M -76.05 22.6
L -90.2 22.6
Q -88.65 1.6 -82.3 -43.8 -79.15 -4.25 -76.05 22.6
M -165.25 -76.05
Q -175.3 -79.05 -194.75 -79.05
L -235.75 -79.05 -235.75 79.05 -188.2 79.05
Q -163.4 79.05 -155.4 76.2 -147.35 73.4 -143.65 65.65 -140.05 57.95 -140.05 41.95
L -140.05 27.3
Q -140.05 11.85 -145.1 4.35 -150.2 -3.1 -164.45 -6.3 -151.65 -9.25 -147.25 -14.7 -142.95 -20.15 -142.95 -34.05 -142.95 -54.55 -149.15 -63.8 -155.3 -73 -165.25 -76.05
M -194.65 -52
L -186.05 -51.15
Q -183.9 -50.35 -182.5 -47.3 -181.15 -44.4 -181.15 -36.95 -181.15 -22.9 -182.8 -19.9 -184.5 -16.95 -190.55 -16.95
L -194.65 -16.85 -194.65 -52
M -194.65 7.75
Q -185.45 8.05 -183.3 10.2 -181.15 12.35 -181.15 22.5
L -181.15 37.25
Q -181.15 46.8 -183.5 49.25 -185.95 51.7 -194.65 52
L -194.65 7.75
M 210.8 -79.05
L 169.7 -79.05 169.7 79.05 235.8 79.05 235.8 47.4 210.8 47.4 210.8 -79.05
M 127.7 -17.45
L 127.7 -47.4 155.15 -47.4 155.15 -79.05 86.6 -79.05 86.6 79.05 157.9 79.05 157.9 47.4 127.7 47.4 127.7 12.65 153.4 12.65 153.4 -17.45 127.7 -17.45
M 62.8 -63.8
Q 56.65 -73 46.7 -76.05 36.65 -79.05 17.2 -79.05
L -23.8 -79.05 -23.8 79.05 23.75 79.05
Q 48.55 79.05 56.55 76.2 64.6 73.4 68.3 65.65 71.9 57.95 71.9 41.95
L 71.9 27.3
Q 71.9 11.85 66.85 4.35 61.75 -3.1 47.5 -6.3 60.3 -9.25 64.7 -14.7 69 -20.15 69 -34.05 69 -54.55 62.8 -63.8
M 17.3 -52
L 25.9 -51.15
Q 28.05 -50.35 29.45 -47.3 30.8 -44.4 30.8 -36.95 30.8 -22.9 29.15 -19.9 27.45 -16.95 21.4 -16.95
L 17.3 -16.85 17.3 -52
M 17.3 7.75
Q 26.5 8.05 28.65 10.2 30.8 12.35 30.8 22.5
L 30.8 37.25
Q 30.8 46.8 28.45 49.25 26 51.7 17.3 52
L 17.3 7.75 Z"/>
</g>
</defs>

<g transform="matrix( 1, 0, 0, 1, 0,0) ">
<use xlink:href="#Layer0_0_FILL"/>
</g>
</svg>
