
<svg xmlns="http://www.w3.org/2000/svg" version="1.1" xmlns:xlink="http://www.w3.org/1999/xlink" preserveAspectRatio="none" x="0px" y="0px" width="1920px" height="1080px" viewBox="0 0 1920 1080">
<defs>
<g id="Layer0_0_FILL">
<path fill="#231F20" stroke="none" d="
M -289.8 -24.9
Q -306.65 -37.25 -316.9 -49.55 -324.45 -29.4 -335 -13.5 -355.2 18.15 -388.95 32.05 -415.4 43 -444.4 45.35
L -434.85 80.7 -421.55 77.35
Q -396 71.45 -380.3 65.4 -364.85 59.45 -349.9 49.75 -330.5 37.35 -316.45 19.8 -302.4 2.35 -289.8 -24.9
M -245.9 -34.3
L -263.3 -33 -270.1 -33.4 -266.95 -1.7
Q -259.05 -3.7 -242.65 -5.6
L -231.6 -6.85 -231.6 33.4
Q -231.6 53 -229.55 60 -225.65 73.3 -212.45 77.55 -201.65 80.9 -177.1 80.9 -159.3 80.9 -127.9 77.9
L -116.25 77.2 -117.35 42.75
Q -142.25 50.45 -176.65 50.45 -193.3 50.45 -196.25 47.5 -198.15 46.05 -198.7 42.55
L -199.15 29.05 -199.15 -10.35 -148.65 -16.2
Q -154.6 -6.1 -162.15 0.7 -170.15 8.25 -181.5 14.95 -167.55 22.85 -155.7 35.7 -138.3 22.4 -129.15 10.5 -118.35 -3.05 -109.25 -22.15 -106.1 -29.15 -103.15 -32.3
L -121.6 -49.2
Q -126.25 -47.15 -134.6 -46.25
L -198.95 -39.25 -198.95 -54
Q -198.95 -68 -197.5 -76.1
L -232.85 -76.1
Q -231.6 -67.85 -231.6 -53.25
L -231.6 -35.9 -245.9 -34.3
M -425.05 -69.1
L -446.25 -43.1
Q -419.45 -28.7 -396.15 -4.25
L -374.4 -33
Q -394.35 -51.1 -425.05 -69.1
M -498 -42.9
Q -506.25 -19.15 -518.25 -2.45 -538.2 24.85 -569.9 37.25 -599.3 48.75 -626.85 49.4
L -617.55 84.2 -604.5 81.25
Q -584.45 77.45 -570.95 73.15 -527.05 59.2 -499.9 28 -483.95 10.05 -471.1 -20.05 -483.5 -27.7 -498 -42.9
M -601.35 -76.3
L -617.75 -50.3
Q -591.3 -41.1 -564.95 -23.95
L -548.45 -52.2
Q -570.7 -65.15 -601.35 -76.3
M -615.2 -31.15
L -632.15 -4.75
Q -602.55 6.55 -579.4 23.75
L -563.75 -5.15
Q -586 -19.7 -615.2 -31.15
M 632.15 -14.6
Q 616.3 -12.85 594.35 -12.85
L 506.4 -12.85
Q 479.65 -12.85 468.6 -14.6
L 468.6 20.95
Q 482.1 19.9 506.55 19.9
L 594.2 19.9
Q 621.55 19.9 632.15 20.95
L 632.15 -14.6
M 458.05 -60.45
Q 452.85 -79.15 446.1 -88.25
L 432.6 -84.05
Q 439.1 -72.6 444.4 -55.5
L 458.05 -60.45
M 311.05 -76.1
Q 312.15 -68.85 312.15 -56.75
L 312.15 -43.1 305.65 -43.1
Q 288.2 -43.1 279.15 -44.45
L 279.15 -13.15
Q 289.45 -14.05 305.15 -14.05
L 312.15 -14.05 312.15 6.5
Q 311.9 20.7 311.05 25.8
L 344.55 25.8
Q 343.8 19.45 343.8 6.85
L 343.8 -14.05 382.85 -14.05
Q 382.7 12.95 377.2 25.8 371.35 38.25 359.75 46.35 347.95 54.45 327.45 60 340.1 72.8 347.5 88.25 389.8 73.3 405 42.2 413.55 24.9 414 -14.05
L 422.35 -14.05
Q 438.2 -14.05 448.25 -13.15
L 448.25 -44.45
Q 438.75 -43.1 421.7 -43.1
L 414.45 -43.1 414.6 -64.15
Q 414.6 -67.3 414.8 -70 418.65 -60.8 422 -48.85
L 436.5 -53.8
Q 431.9 -69.45 424.15 -83.15
L 410.1 -79.1 412.55 -74.85 382.5 -74.85
Q 383.4 -68.85 383.4 -56.05
L 383.2 -43.1 343.8 -43.1 343.8 -57.3
Q 343.8 -68.75 344.55 -76.1
L 311.05 -76.1
M 227.75 -79.25
Q 219.1 -64.35 194.2 -45.5 152.45 -13.4 96.4 2.35 107.9 16.75 114.05 32.05 149.15 19.5 174.3 4.75
L 174.3 55.6
Q 174.3 73.6 173.25 85.3
L 208.95 85.3
Q 207.9 73.3 207.9 55.4
L 207.9 -15.5
Q 229.2 -30.75 250.45 -52.55
L 257.65 -59.4 227.75 -79.25
M 16.25 -76.1
Q 17.15 -70.35 17.15 -55.5
L 17.15 -43.3 -22.25 -43.3 -22.25 -57.5
Q -22.25 -68.9 -21.55 -76.3
L -55.25 -76.3
Q -54.1 -68.1 -54.1 -56.75
L -54.1 -43.3 -60.4 -43.3
Q -77.3 -43.3 -86.95 -44.65
L -86.95 -13.15
Q -76.6 -14.05 -60.95 -14.05
L -54.1 -14.05 -54.1 6.2
Q -54.1 17.9 -55.25 25.65
L -21.55 25.65 -22.25 6.65 -22.25 -14.05 16.6 -14.05 16.25 1.1
Q 15.15 16.65 10.65 26.35 6.25 36.25 -3.1 43.65 -14.25 52.55 -38.65 59.85 -26.05 72.8 -18.55 88.05 6.45 78.65 19.6 67.2 42.9 47.05 46.85 11.6 47.65 3.6 48.1 -14.05
L 56.2 -14.05
Q 71.15 -14.05 82.2 -13.15
L 82.2 -44.65
Q 73.4 -43.3 55.65 -43.3
L 48.45 -43.3
Q 48.65 -70.55 49.35 -76.1
L 16.25 -76.1 Z"/>
</g>
</defs>

<g transform="matrix( 1, 0, 0, 1, 0,0) ">
<use xlink:href="#Layer0_0_FILL"/>
</g>
</svg>
