
<svg xmlns="http://www.w3.org/2000/svg" version="1.1" xmlns:xlink="http://www.w3.org/1999/xlink" preserveAspectRatio="none" x="0px" y="0px" width="1920px" height="1080px" viewBox="0 0 1920 1080">
<defs>
<g id="Layer0_0_FILL">
<path fill="#231F20" stroke="none" d="
M -7.4 -46.05
L -34.3 -38.7
Q -22.7 -14.1 -17.75 7.55
L 10.4 -1.05
Q 4.55 -22.65 -7.4 -46.05
M -47.95 -38.3
L -75.25 -30.75
Q -65.25 -8.9 -58.85 17
L -30.05 8.3
Q -37.6 -18.6 -47.95 -38.3
M -102.15 -67
Q -102.15 -75.75 -108.15 -81.75 -114.2 -87.9 -122.8 -87.9 -131.35 -87.9 -137.55 -81.75 -143.8 -75.55 -143.8 -67 -143.8 -58.55 -137.55 -52.45 -131.35 -46.25 -122.8 -46.25 -114.2 -46.25 -108.15 -52.35 -102.15 -58.45 -102.15 -67
M -115.55 -74.4
Q -112.45 -71.35 -112.45 -67 -112.45 -62.9 -115.55 -59.8 -118.7 -56.75 -123 -56.75 -127.15 -56.75 -130.2 -59.8 -133.25 -62.9 -133.25 -67 -133.25 -71.35 -130.2 -74.4 -127.05 -77.55 -122.8 -77.55 -118.6 -77.55 -115.55 -74.4
M -254.7 -73.85
Q -253.65 -65.05 -253.65 -49.4
L -253.65 30.8
Q -253.65 45.45 -252.8 50.3 -251 63.9 -242.55 70.2 -230.85 78.35 -196.15 78.35 -173 78.35 -142.35 75.6
L -123.35 74.3 -124.6 40.2
Q -138.3 44.2 -156.3 46.05 -174.75 47.95 -192.25 47.95 -202.1 47.95 -211.8 46.8 -219.1 45.8 -220.6 41.1 -221.35 38.5 -221.35 26.9
L -221.35 6.3
Q -180.4 -1.25 -143.4 -17.45
L -125.9 -25.8 -146.05 -54.7
Q -153.5 -47.6 -177.9 -37.8 -202.35 -27.9 -221.35 -24.3
L -221.35 -49.2
Q -221.35 -67 -220.25 -73.85
L -254.7 -73.85
M 153.65 -83.65
Q 152.4 -74.85 145.65 -61.55 128.55 -27.8 96.7 -5.3 111.1 3.45 122.8 16.85 148 -3.05 164.6 -29.4
L 213.65 -30.05
Q 203.6 1.35 182.9 22.3 159.15 46.05 121.35 59.9 135.3 72.15 143.5 87.9 187.2 67.95 211.3 40.4 235.4 12.95 249.35 -32.55 252.05 -41.3 254.75 -45.7
L 239.45 -60.8
Q 234.05 -58.75 225.8 -58.75
L 179.55 -58.2 188.45 -77.35 153.65 -83.65
M 28.85 -42.35
Q 28.6 -24.45 20.75 -3.5 12.2 19.45 -3.9 34.3 -20 49.15 -47.8 59.9 -35 72.45 -27.55 85.9 -13.6 78.8 -5.25 73.5 18.6 58.15 33.45 36.15 48.45 13.95 56.5 -23.9
L 59.25 -35.15 28.85 -42.35 Z"/>
</g>
</defs>

<g transform="matrix( 1, 0, 0, 1, 0,0) ">
<use xlink:href="#Layer0_0_FILL"/>
</g>
</svg>
