
<svg xmlns="http://www.w3.org/2000/svg" version="1.1" xmlns:xlink="http://www.w3.org/1999/xlink" preserveAspectRatio="none" x="0px" y="0px" width="1920px" height="1080px" viewBox="0 0 1920 1080">
<defs>
<g id="Layer0_0_FILL">
<path fill="#231F20" stroke="none" d="
M -226.55 192.65
L -211.8 192.65 -209.65 221.05 -167.55 221.05 -191.1 62.95 -250.6 62.95 -271.45 221.05 -229 221.05 -226.55 192.65
M -212.9 164.6
L -227.05 164.6
Q -225.5 143.6 -219.15 98.2 -216 137.75 -212.9 164.6
M -290.3 65.6
Q -299.4 62.95 -316.2 62.95
L -357.6 62.95 -357.6 221.05 -316.5 221.05 -316.5 157.4 -305.45 157.4
Q -291.95 157.4 -283.55 153.65 -275.25 149.95 -272.15 143 -269 136.1 -269 120.95
L -269 107.2
Q -269 92.35 -270.6 85.3 -272.25 78.2 -276.75 73.2 -281.35 68.2 -290.3 65.6
M -316.5 90
Q -308.5 90 -305.95 92.45 -303.4 94.9 -303.4 103
L -303.4 115.95
Q -303.4 124.75 -305.55 127.6 -307.8 130.35 -313.45 130.35
L -316.5 130.25 -316.5 90
M -119.55 62.95
L -160.65 62.95 -160.65 221.05 -119.55 221.05 -119.55 62.95
M -11.25 62.95
L -45.6 62.95 -45.6 134.15 -68.65 62.95 -103.05 62.95 -103.05 221.05 -68.65 221.05 -68.65 149.2 -47.3 221.05 -11.25 221.05 -11.25 62.95
M -210.7 -221
L -270.2 -221 -291.05 -62.9 -248.6 -62.9 -246.15 -91.3 -231.4 -91.3 -229.25 -62.9 -187.15 -62.9 -210.7 -221
M -238.75 -185.75
Q -235.6 -146.2 -232.5 -119.35
L -246.65 -119.35
Q -245.1 -140.35 -238.75 -185.75
M -133.45 -224.35
Q -146.85 -224.35 -157.1 -219.75 -167.45 -215.25 -173.2 -207.35 -179.05 -199.4 -180.25 -190.85 -181.4 -182.35 -181.4 -165.25
L -181.4 -119.05
Q -181.4 -95.8 -177.6 -84.2 -173.8 -72.65 -162.1 -66.1 -150.35 -59.6 -132.3 -59.6 -114.9 -59.6 -103 -67.3 -91.2 -75 -87.65 -85.25 -84.25 -95.6 -84.25 -120.15
L -84.25 -126.3 -125.35 -126.3 -125.35 -106.35
Q -125.35 -93.35 -126.75 -89.85 -128.2 -86.35 -132.8 -86.35 -137.55 -86.35 -138.95 -89.85 -140.3 -93.35 -140.3 -104.9
L -140.3 -178.35
Q -140.3 -190.35 -138.95 -193.95 -137.55 -197.55 -132.5 -197.55 -128 -197.55 -126.65 -194.65 -125.35 -191.6 -125.35 -179.6
L -125.35 -152.15 -84.25 -152.15 -84.25 -167.2
Q -84.25 -189.25 -87.95 -199.8 -91.65 -210.25 -103.5 -217.3 -115.3 -224.35 -133.45 -224.35
M 138.5 62.95
L 97.4 62.95 97.4 221.05 138.5 221.05 138.5 62.95
M 88.05 94.6
L 88.05 62.95 -1.8 62.95 -1.8 94.6 22.55 94.6 22.55 221.05 63.65 221.05 63.65 94.6 88.05 94.6
M 212.45 62.95
L 212.45 134.15 189.4 62.95 155 62.95 155 221.05 189.4 221.05 189.4 149.2 210.75 221.05 246.8 221.05 246.8 62.95 212.45 62.95
M 354.05 84.7
Q 350.4 74.45 338.5 67.05 326.6 59.6 308.5 59.6 290.15 59.6 278.65 68.2 267 76.7 264.55 86.95 262.15 97.2 262.15 119.9
L 262.15 166.85
Q 262.15 183.15 263.3 191.35 264.5 199.45 269.15 206.9 273.85 214.3 282.95 219.4 291.9 224.35 302.25 224.35 310.95 224.35 317.4 220.75 323.75 217.05 328.05 209.7
L 331.75 221.05 357.65 221.05 357.65 136.2 309.5 136.2 309.5 160.2 317.8 160.2 317.8 178.95
Q 317.8 190 316.25 193.8 314.55 197.6 310.1 197.6 306 197.6 304.6 194.3 303.25 190.85 303.25 180.25
L 303.25 104.35
Q 303.25 92.25 304.6 89.3 306 86.4 309.8 86.4 314.2 86.4 315.35 89.8 316.55 93.2 316.55 106.8
L 316.55 121.15 357.65 121.15 357.65 114.3
Q 357.65 94.9 354.05 84.7
M 13.25 -189.35
L 13.25 -221 -76.6 -221 -76.6 -189.35 -52.25 -189.35 -52.25 -62.9 -11.15 -62.9 -11.15 -189.35 13.25 -189.35
M 103.15 -219.95
Q 93.1 -215.55 87.25 -207.35 81.3 -199.15 80.2 -189.15 79.05 -179.3 79.05 -155.5
L 79.05 -128.45
Q 79.05 -104 80.2 -94.25 81.4 -84.5 87.55 -76.2 93.7 -67.9 103.85 -63.7 113.9 -59.6 126.6 -59.6 139.95 -59.6 150.05 -63.95 160.1 -68.35 166.05 -76.55 171.9 -84.75 173.05 -94.65 174.15 -104.6 174.15 -128.45
L 174.15 -155.5
Q 174.15 -179.9 173 -189.65 171.8 -199.4 165.65 -207.7 159.5 -216 149.45 -220.15 139.3 -224.35 126.6 -224.35 113.2 -224.35 103.15 -219.95
M 121.9 -195.05
Q 123.55 -197.55 126.8 -197.55 130.6 -197.55 131.85 -194.45 133.05 -191.4 133.05 -180.4
L 133.05 -107.7
Q 133.05 -93.75 131.85 -90.05 130.7 -86.35 126.5 -86.35 122.4 -86.35 121.3 -89.55 120.15 -92.8 120.15 -106.55
L 120.15 -180.4
Q 120.15 -192.6 121.9 -195.05
M 63.7 -221
L 22.6 -221 22.6 -62.9 63.7 -62.9 63.7 -221
M 223.85 -221
L 189.45 -221 189.45 -62.9 223.85 -62.9 223.85 -134.75 245.2 -62.9 281.25 -62.9 281.25 -221 246.9 -221 246.9 -149.8 223.85 -221 Z"/>
</g>
</defs>

<g transform="matrix( 1, 0, 0, 1, 0,0) ">
<use xlink:href="#Layer0_0_FILL"/>
</g>
</svg>
